<?xml version="1.0" encoding="utf-8"?>
<!-- Generator: Adobe Illustrator 19.0.0, SVG Export Plug-In . SVG Version: 6.00 Build 0)  -->
<svg version="1.1" id="Layer_1" xmlns="http://www.w3.org/2000/svg" xmlns:xlink="http://www.w3.org/1999/xlink" x="0px" y="0px"
	 viewBox="-287 378 37 37" style="enable-background:new -287 378 37 37;" xml:space="preserve">
<style type="text/css">
	.st0{fill:#FFFFFF;fill-opacity:0.23;stroke:#FFFFFF;}
	.st1{fill:#FFFFFF;}
</style>
<path class="st0" d="M-279.5,379h22c3.6,0,6.5,2.9,6.5,6.5v22c0,3.6-2.9,6.5-6.5,6.5h-22c-3.6,0-6.5-2.9-6.5-6.5v-22
	C-286,381.9-283.1,379-279.5,379z"/>
<g>
	<path class="st1" d="M-274,394.1c-0.3,0-0.6,0.3-0.6,0.6v9.8c0,0.3,0.3,0.6,0.6,0.6h11c0.3,0,0.6-0.3,0.6-0.6v-9.8
		c0-0.3-0.3-0.6-0.6-0.6h-2.4c-0.3,0-0.6-0.3-0.6-0.6c0-0.3,0.3-0.6,0.6-0.6h2.4c1,0,1.8,0.8,1.8,1.8v9.8c0,1-0.8,1.8-1.8,1.8l0,0
		h-11c-1,0-1.8-0.8-1.8-1.8l0,0v-9.8c0-1,0.8-1.8,1.8-1.8h2.4c0.3,0,0.6,0.3,0.6,0.6c0,0.3-0.3,0.6-0.6,0.6H-274z"/>
	<path class="st1" d="M-268.9,386.9c0.2-0.2,0.6-0.2,0.9,0c0,0,0,0,0,0l3.7,3.7c0.2,0.2,0.2,0.6,0,0.9c-0.2,0.2-0.6,0.2-0.9,0
		l-2.6-2.6v10.7c0,0.3-0.3,0.6-0.6,0.6s-0.6-0.3-0.6-0.6v-10.7l-2.6,2.6c-0.2,0.2-0.6,0.2-0.9,0c-0.2-0.2-0.2-0.6,0-0.9
		C-272.6,390.6-268.9,386.9-268.9,386.9z"/>
</g>
</svg>
