<svg width="37" height="37" viewBox="0 0 37 37" fill="none" xmlns="http://www.w3.org/2000/svg"><rect x="1.35645" y="1.48267" width="35" height="35" rx="6.5" fill="white" fill-opacity="0.5" stroke="white"/><path d="M21.5957 26.2886C21.7265 26.3749 21.8759 26.4291 22.0317 26.4467C22.1875 26.4644 22.3452 26.445 22.4921 26.3902C22.6389 26.3354 22.7708 26.2467 22.8769 26.1313C22.983 26.0159 23.0604 25.8771 23.1027 25.7261L26.8106 12.6239C26.9109 12.2706 26.8674 11.8919 26.6894 11.5705C26.5114 11.2492 26.2135 11.0114 25.8607 10.9091C25.5428 10.8177 25.2026 10.8438 24.9024 10.9824L10.9374 17.4277C10.7754 17.5025 10.6364 17.6192 10.5346 17.7658C10.4329 17.9124 10.3722 18.0835 10.3588 18.2614C10.3454 18.4393 10.3798 18.6176 10.4584 18.7777C10.537 18.9379 10.657 19.0741 10.806 19.1723L13.7206 21.0943C13.7876 21.1401 13.8631 21.172 13.9426 21.1883C14.022 21.2046 14.104 21.2049 14.1836 21.1892C14.2632 21.1735 14.3389 21.1421 14.4062 21.0969C14.4736 21.0516 14.5313 20.9935 14.5759 20.9257C14.6205 20.8579 14.6512 20.782 14.6662 20.7022C14.6812 20.6225 14.6801 20.5406 14.6631 20.4612C14.6461 20.3819 14.6135 20.3067 14.5671 20.2401C14.5208 20.1735 14.4616 20.1168 14.3931 20.0733L11.8117 18.3707L25.4144 12.0928C25.4483 12.077 25.4869 12.074 25.5229 12.0844C25.5647 12.0975 25.5997 12.1264 25.6204 12.165C25.6411 12.2035 25.6459 12.2487 25.6337 12.2907L22.0106 25.0979L19.4238 23.3915C19.2581 23.2821 19.0563 23.2415 18.8612 23.2783C18.666 23.3151 18.4929 23.4264 18.3784 23.5886L16.9631 25.5908V21.5735L22.3217 17.1579C22.3849 17.1073 22.4374 17.0446 22.4762 16.9735C22.515 16.9024 22.5393 16.8243 22.5477 16.7438C22.556 16.6632 22.5483 16.5818 22.5249 16.5042C22.5016 16.4267 22.463 16.3546 22.4115 16.292C22.36 16.2295 22.2966 16.1779 22.225 16.14C22.1534 16.1022 22.075 16.079 21.9943 16.0718C21.9136 16.0645 21.8323 16.0734 21.7551 16.0978C21.6779 16.1223 21.6063 16.1618 21.5445 16.2141L16.0193 20.7672C15.9322 20.8389 15.862 20.9289 15.8137 21.0309C15.7655 21.1329 15.7405 21.2444 15.7404 21.3572V27.0352C15.7405 27.1974 15.7922 27.3554 15.8881 27.4863C15.984 27.6172 16.119 27.7141 16.2737 27.7632C16.4283 27.8122 16.5946 27.8107 16.7483 27.759C16.9021 27.7072 17.0354 27.6079 17.1289 27.4754L19.1212 24.6562L21.5964 26.2893L21.5957 26.2886Z" fill="white"/></svg>