<svg width="15" height="15" viewBox="0 0 15 15" fill="none" xmlns="http://www.w3.org/2000/svg">
<path fill-rule="evenodd" clip-rule="evenodd" d="M10.6729 0.755859C13.0347 0.755859 14.6216 2.41372 14.6216 4.88098V10.6307C14.6216 13.098 13.0347 14.7559 10.6729 14.7559H4.57023C2.20847 14.7559 0.621582 13.098 0.621582 10.6307V4.88098C0.621582 2.41372 2.20847 0.755859 4.57023 0.755859H10.6729ZM10.6729 1.7326H4.57023C2.76521 1.7326 1.59833 2.96786 1.59833 4.88098V10.6307C1.59833 12.5439 2.76521 13.7791 4.57023 13.7791H10.6729C12.4786 13.7791 13.6448 12.5439 13.6448 10.6307V4.88098C13.6448 2.96786 12.4786 1.7326 10.6729 1.7326ZM7.62158 4.87596C7.89116 4.87596 8.10995 5.09475 8.10995 5.36433V7.26098L10.0091 7.26111C10.2787 7.26111 10.4974 7.4799 10.4974 7.74948C10.4974 8.01906 10.2787 8.23785 10.0091 8.23785L8.10995 8.23772V10.1354C8.10995 10.405 7.89116 10.6238 7.62158 10.6238C7.352 10.6238 7.13321 10.405 7.13321 10.1354V8.23772L5.23409 8.23785C4.96386 8.23785 4.74572 8.01906 4.74572 7.74948C4.74572 7.4799 4.96386 7.26111 5.23409 7.26111L7.13321 7.26098V5.36433C7.13321 5.09475 7.352 4.87596 7.62158 4.87596Z" fill="#263238"/>
</svg>
