<svg width="60" height="28" viewBox="0 0 60 28" fill="none" xmlns="http://www.w3.org/2000/svg">
<rect x="0.716553" y="0.850708" width="59.2169" height="26.5066" rx="5" fill="#263238"/>
<path d="M20.1537 10.1841C20.201 9.44295 20.6835 8.74992 21.4012 8.39219C21.6435 8.27143 21.9106 8.18237 22.0304 8.18237H22.2386L22.2 8.55003C22.0972 9.53035 21.3207 10.3769 20.389 10.5243L20.1293 10.5654L20.1537 10.1841Z" fill="white"/>
<path d="M15.9505 14.0074C15.8583 12.3391 16.7289 10.9914 18.0668 10.7311C18.5717 10.6329 18.8412 10.6751 19.743 10.9939L20.2026 11.1564L20.9598 10.9048C21.669 10.6692 21.7493 10.655 22.2217 10.6806C22.8823 10.7165 23.3136 10.8838 23.7351 11.2676C23.9147 11.4312 24.0618 11.591 24.0618 11.6226C24.0618 11.6543 23.9155 11.8134 23.7367 11.9762C23.5239 12.17 23.3446 12.408 23.2174 12.6656C23.0368 13.0313 23.0231 13.1011 23.0238 13.6515C23.0245 14.1707 23.0445 14.2865 23.1854 14.5875C23.3628 14.9667 23.8745 15.5074 24.1723 15.6303C24.2747 15.6726 24.3585 15.7269 24.3585 15.751C24.3585 15.9126 23.9377 16.7541 23.6166 17.2348C22.8033 18.4518 22.2541 18.6862 21.2126 18.2606C20.5875 18.0051 20.2237 18.0045 19.4864 18.2582C18.5583 18.5774 18.2647 18.5394 17.717 18.0289C16.7799 17.1557 16.0302 15.4488 15.9505 14.0074Z" fill="white"/>
<path fill-rule="evenodd" clip-rule="evenodd" d="M29.2263 13.7252V17.3705L29.7829 17.3578L30.3394 17.3451L30.3515 16.1164L30.3636 14.8877L31.3965 14.8667C32.2069 14.8503 32.4832 14.8288 32.6793 14.7671C33.9141 14.3781 34.5741 13.1973 34.2937 11.8788C34.1091 11.0109 33.4091 10.3079 32.5521 10.1299C32.4037 10.099 31.7194 10.0798 30.7688 10.0798H29.2263V13.7252ZM32.277 11.1196C32.634 11.2299 32.8472 11.4012 33.0193 11.7159C33.1293 11.9171 33.1552 12.0247 33.1707 12.3476C33.1981 12.9147 33.1046 13.2035 32.7972 13.5017C32.4412 13.8471 32.2813 13.8896 31.2368 13.916L30.3622 13.9382V12.4843V11.0304H31.1752C31.8562 11.0304 32.0351 11.0449 32.277 11.1196ZM36.6547 11.9643C35.7005 12.1117 35.0175 12.6816 34.8855 13.4408L34.856 13.6106H35.377H35.898L35.9501 13.4532C36.0203 13.2414 36.3556 12.9547 36.6071 12.8916C37.0284 12.7859 37.4885 12.85 37.7569 13.0518C37.9908 13.2277 38.0859 13.4606 38.0859 13.8577C38.0859 14.1815 38.0806 14.1991 37.9837 14.1991C37.5773 14.1994 36.3242 14.304 36.0641 14.3593C35.4558 14.4886 35.0211 14.7734 34.8148 15.1778C34.6538 15.4934 34.6318 16.065 34.7669 16.4237C35.1436 17.4243 36.5795 17.7706 37.5611 17.0976C37.6764 17.0186 37.8519 16.8517 37.951 16.7267L38.1313 16.4995V16.9336V17.3677H38.6551H39.1789L39.1663 15.2968L39.1536 13.2258L39.0318 12.9669C38.8213 12.5195 38.4025 12.194 37.8435 12.0433C37.5948 11.9763 36.8833 11.929 36.6547 11.9643ZM39.6761 12.0629C39.6761 12.083 40.1063 13.2872 40.6321 14.7389L41.5881 17.3784L41.4924 17.6649C41.2979 18.2474 41.0946 18.4127 40.533 18.4451L40.1758 18.4657V18.8837V19.3017L40.4195 19.3302C40.7582 19.3699 41.3259 19.2898 41.6023 19.1633C41.9467 19.0059 42.2412 18.681 42.4711 18.2051C42.5792 17.981 43.1187 16.5324 43.6699 14.9859C44.221 13.4394 44.685 12.1402 44.701 12.0988C44.7272 12.0306 44.675 12.0247 44.1457 12.0362L43.5613 12.0489L42.9013 14.1538C42.5382 15.3115 42.2308 16.286 42.218 16.3194C42.2053 16.3528 41.89 15.4005 41.5174 14.2032L40.8399 12.0263H40.258C39.9379 12.0263 39.6761 12.0428 39.6761 12.0629ZM38.0854 15.2968C38.0845 15.9674 37.7101 16.4112 37.0266 16.5516C36.3934 16.6816 35.847 16.4082 35.7825 15.9293C35.7489 15.6791 35.7894 15.543 35.9533 15.3571C36.1818 15.0978 36.6494 15 37.7792 14.9753L38.0859 14.9686L38.0854 15.2968Z" fill="white"/>
</svg>
