<svg width="37" height="37" viewBox="0 0 37 37" fill="none" xmlns="http://www.w3.org/2000/svg"><rect x="1.35645" y="1.48267" width="35" height="35" rx="6.5" fill="white" fill-opacity="0.23" stroke="white"/><path d="M13.7783 11.042C13.7096 11.0733 13.6096 11.1483 13.5533 11.2045C13.3627 11.4077 13.3564 11.442 13.3564 12.5139V13.4827H12.3814C11.2908 13.4827 11.2596 13.4889 11.0533 13.7045C10.9158 13.8514 10.8564 14.0077 10.8564 14.2327C10.8564 14.4577 10.9158 14.6139 11.0533 14.7608C11.2596 14.9764 11.2908 14.9827 12.3814 14.9827H13.3564V19.0202V23.0608L13.4439 23.3139C13.6314 23.8452 14.0158 24.2233 14.5533 24.4045L14.7908 24.4827H18.8221H22.8564V25.4577C22.8564 26.5483 22.8627 26.5795 23.0783 26.7858C23.2252 26.9233 23.3814 26.9827 23.6064 26.9827C23.8314 26.9827 23.9877 26.9233 24.1346 26.7858C24.3502 26.5795 24.3564 26.5483 24.3564 25.4577V24.4827H25.3346C26.4221 24.4827 26.4533 24.4764 26.6596 24.2608C26.7971 24.1139 26.8564 23.9545 26.8564 23.7264C26.8564 23.4952 26.7846 23.3233 26.6346 23.1795C26.4314 22.9889 26.3971 22.9827 25.3252 22.9827H24.3564V18.942V14.9045L24.2689 14.6514C24.0846 14.1264 23.7127 13.7545 23.1877 13.5702L22.9346 13.4827H18.8971H14.8564V12.5045C14.8564 11.6202 14.8502 11.517 14.7971 11.4045C14.7252 11.2514 14.5658 11.0952 14.4127 11.0327C14.2502 10.9639 13.9346 10.9702 13.7783 11.042ZM22.6689 15.017C22.8658 15.0889 22.8564 14.8733 22.8564 19.1233V22.9827H18.9971C14.7471 22.9827 14.9627 22.992 14.8908 22.7952C14.8658 22.7202 14.8564 21.6327 14.8564 18.8389V14.9827H18.7127C21.5064 14.9827 22.5939 14.992 22.6689 15.017Z" fill="white"/></svg>