<svg width="143" height="111" viewBox="0 0 143 111" fill="none" xmlns="http://www.w3.org/2000/svg">
<path d="M97.3374 6.71908H103.429V65.9835H37.5708V6.71908H43.6627L43.9755 6.71085H51.2899V0.125H57.6988V6.71085H83.3095V0.125H89.7142V6.71085H97.0287C97.1357 6.71085 97.2345 6.71085 97.3415 6.71908H97.3374ZM97.0245 19.8826V13.2967H43.9755V19.8826H97.0245ZM49.9192 33.0543V41.2866H58.1516V33.0543H49.9192ZM66.3839 33.0543V41.2866H74.6162V33.0543H66.3839ZM82.8485 33.0543V41.2866H91.0808V33.0543H82.8485ZM49.9192 45.4027V53.635H58.1516V45.4027H49.9192ZM66.3839 45.4027V53.635H74.6162V45.4027H66.3839ZM82.8485 45.4027V53.635H91.0808V45.4027H82.8485Z" fill="#E5E5E5"/>
<path d="M1.58296 94.361C1.69096 94.361 1.78096 94.367 1.85296 94.379C1.92496 94.385 1.98796 94.403 2.04197 94.433C2.10196 94.457 2.15896 94.496 2.21296 94.55C2.26696 94.598 2.32696 94.664 2.39296 94.748L9.22396 103.451C9.19997 103.241 9.18197 103.037 9.16996 102.839C9.16397 102.635 9.16096 102.446 9.16096 102.272V94.361H11.294V107.375H10.043C9.85097 107.375 9.69196 107.345 9.56596 107.285C9.43996 107.225 9.31697 107.117 9.19697 106.961L2.39296 98.294C2.41096 98.486 2.42296 98.678 2.42896 98.87C2.44096 99.056 2.44696 99.227 2.44696 99.383V107.375H0.313965V94.361H1.58296Z" fill="#B7B7B7"/>
<path d="M17.7354 97.997C18.4254 97.997 19.0494 98.108 19.6074 98.33C20.1714 98.552 20.6514 98.867 21.0474 99.275C21.4434 99.683 21.7494 100.181 21.9654 100.769C22.1814 101.357 22.2894 102.014 22.2894 102.74C22.2894 103.472 22.1814 104.132 21.9654 104.72C21.7494 105.308 21.4434 105.809 21.0474 106.223C20.6514 106.637 20.1714 106.955 19.6074 107.177C19.0494 107.399 18.4254 107.51 17.7354 107.51C17.0454 107.51 16.4184 107.399 15.8544 107.177C15.2904 106.955 14.8074 106.637 14.4054 106.223C14.0094 105.809 13.7004 105.308 13.4784 104.72C13.2624 104.132 13.1544 103.472 13.1544 102.74C13.1544 102.014 13.2624 101.357 13.4784 100.769C13.7004 100.181 14.0094 99.683 14.4054 99.275C14.8074 98.867 15.2904 98.552 15.8544 98.33C16.4184 98.108 17.0454 97.997 17.7354 97.997ZM17.7354 105.8C18.5034 105.8 19.0704 105.542 19.4364 105.026C19.8084 104.51 19.9944 103.754 19.9944 102.758C19.9944 101.762 19.8084 101.003 19.4364 100.481C19.0704 99.959 18.5034 99.698 17.7354 99.698C16.9554 99.698 16.3794 99.962 16.0074 100.49C15.6354 101.012 15.4494 101.768 15.4494 102.758C15.4494 103.748 15.6354 104.504 16.0074 105.026C16.3794 105.542 16.9554 105.8 17.7354 105.8Z" fill="#B7B7B7"/>
<path d="M32.9854 99.941C32.9254 100.037 32.8624 100.106 32.7964 100.148C32.7304 100.184 32.6464 100.202 32.5444 100.202C32.4364 100.202 32.3194 100.172 32.1934 100.112C32.0734 100.052 31.9324 99.986 31.7704 99.914C31.6084 99.836 31.4224 99.767 31.2124 99.707C31.0084 99.647 30.7654 99.617 30.4834 99.617C30.0454 99.617 29.7004 99.71 29.4484 99.896C29.1964 100.082 29.0704 100.325 29.0704 100.625C29.0704 100.823 29.1334 100.991 29.2594 101.129C29.3914 101.261 29.5624 101.378 29.7724 101.48C29.9884 101.582 30.2314 101.675 30.5014 101.759C30.7714 101.837 31.0474 101.924 31.3294 102.02C31.6114 102.116 31.8874 102.227 32.1574 102.353C32.4274 102.473 32.6674 102.629 32.8774 102.821C33.0934 103.007 33.2644 103.232 33.3904 103.496C33.5224 103.76 33.5884 104.078 33.5884 104.45C33.5884 104.894 33.5074 105.305 33.3454 105.683C33.1834 106.055 32.9464 106.379 32.6344 106.655C32.3224 106.925 31.9354 107.138 31.4734 107.294C31.0174 107.444 30.4924 107.519 29.8984 107.519C29.5804 107.519 29.2684 107.489 28.9624 107.429C28.6624 107.375 28.3714 107.297 28.0894 107.195C27.8134 107.093 27.5554 106.973 27.3154 106.835C27.0814 106.697 26.8744 106.547 26.6944 106.385L27.2074 105.539C27.2734 105.437 27.3514 105.359 27.4414 105.305C27.5314 105.251 27.6454 105.224 27.7834 105.224C27.9214 105.224 28.0504 105.263 28.1704 105.341C28.2964 105.419 28.4404 105.503 28.6024 105.593C28.7644 105.683 28.9534 105.767 29.1694 105.845C29.3914 105.923 29.6704 105.962 30.0064 105.962C30.2704 105.962 30.4954 105.932 30.6814 105.872C30.8734 105.806 31.0294 105.722 31.1494 105.62C31.2754 105.518 31.3654 105.401 31.4194 105.269C31.4794 105.131 31.5094 104.99 31.5094 104.846C31.5094 104.63 31.4434 104.453 31.3114 104.315C31.1854 104.177 31.0144 104.057 30.7984 103.955C30.5884 103.853 30.3454 103.763 30.0694 103.685C29.7994 103.601 29.5204 103.511 29.2324 103.415C28.9504 103.319 28.6714 103.208 28.3954 103.082C28.1254 102.95 27.8824 102.785 27.6664 102.587C27.4564 102.389 27.2854 102.146 27.1534 101.858C27.0274 101.57 26.9644 101.222 26.9644 100.814C26.9644 100.436 27.0394 100.076 27.1894 99.734C27.3394 99.392 27.5584 99.095 27.8464 98.843C28.1404 98.585 28.5034 98.381 28.9354 98.231C29.3734 98.075 29.8774 97.997 30.4474 97.997C31.0834 97.997 31.6624 98.102 32.1844 98.312C32.7064 98.522 33.1414 98.798 33.4894 99.14L32.9854 99.941Z" fill="#B7B7B7"/>
<path d="M39.1778 97.997C39.7598 97.997 40.2938 98.09 40.7798 98.276C41.2718 98.462 41.6948 98.735 42.0488 99.095C42.4028 99.449 42.6788 99.887 42.8768 100.409C43.0748 100.925 43.1738 101.516 43.1738 102.182C43.1738 102.35 43.1648 102.491 43.1468 102.605C43.1348 102.713 43.1078 102.8 43.0658 102.866C43.0298 102.926 42.9788 102.971 42.9128 103.001C42.8468 103.025 42.7628 103.037 42.6608 103.037H36.9548C37.0208 103.985 37.2758 104.681 37.7198 105.125C38.1638 105.569 38.7518 105.791 39.4838 105.791C39.8438 105.791 40.1528 105.749 40.4108 105.665C40.6748 105.581 40.9028 105.488 41.0948 105.386C41.2928 105.284 41.4638 105.191 41.6078 105.107C41.7578 105.023 41.9018 104.981 42.0398 104.981C42.1298 104.981 42.2078 104.999 42.2738 105.035C42.3398 105.071 42.3968 105.122 42.4448 105.188L43.0928 105.998C42.8468 106.286 42.5708 106.529 42.2648 106.727C41.9588 106.919 41.6378 107.075 41.3018 107.195C40.9718 107.309 40.6328 107.39 40.2848 107.438C39.9428 107.486 39.6098 107.51 39.2858 107.51C38.6438 107.51 38.0468 107.405 37.4948 107.195C36.9428 106.979 36.4628 106.664 36.0548 106.25C35.6468 105.83 35.3258 105.314 35.0918 104.702C34.8578 104.084 34.7408 103.37 34.7408 102.56C34.7408 101.93 34.8428 101.339 35.0468 100.787C35.2508 100.229 35.5418 99.746 35.9198 99.338C36.3038 98.924 36.7688 98.597 37.3148 98.357C37.8668 98.117 38.4878 97.997 39.1778 97.997ZM39.2228 99.59C38.5748 99.59 38.0678 99.773 37.7018 100.139C37.3358 100.505 37.1018 101.024 36.9998 101.696H41.1758C41.1758 101.408 41.1368 101.138 41.0588 100.886C40.9808 100.628 40.8608 100.403 40.6988 100.211C40.5368 100.019 40.3328 99.869 40.0868 99.761C39.8408 99.647 39.5528 99.59 39.2228 99.59Z" fill="#B7B7B7"/>
<path d="M50.458 99.941C50.398 100.037 50.335 100.106 50.269 100.148C50.203 100.184 50.119 100.202 50.017 100.202C49.909 100.202 49.792 100.172 49.666 100.112C49.546 100.052 49.405 99.986 49.243 99.914C49.081 99.836 48.895 99.767 48.685 99.707C48.481 99.647 48.238 99.617 47.956 99.617C47.518 99.617 47.173 99.71 46.921 99.896C46.669 100.082 46.543 100.325 46.543 100.625C46.543 100.823 46.606 100.991 46.732 101.129C46.864 101.261 47.035 101.378 47.245 101.48C47.461 101.582 47.704 101.675 47.974 101.759C48.244 101.837 48.52 101.924 48.802 102.02C49.084 102.116 49.36 102.227 49.63 102.353C49.9 102.473 50.14 102.629 50.35 102.821C50.566 103.007 50.737 103.232 50.863 103.496C50.995 103.76 51.061 104.078 51.061 104.45C51.061 104.894 50.98 105.305 50.818 105.683C50.656 106.055 50.419 106.379 50.107 106.655C49.795 106.925 49.408 107.138 48.946 107.294C48.49 107.444 47.965 107.519 47.371 107.519C47.053 107.519 46.741 107.489 46.435 107.429C46.135 107.375 45.844 107.297 45.562 107.195C45.286 107.093 45.028 106.973 44.788 106.835C44.554 106.697 44.347 106.547 44.167 106.385L44.68 105.539C44.746 105.437 44.824 105.359 44.914 105.305C45.004 105.251 45.118 105.224 45.256 105.224C45.394 105.224 45.523 105.263 45.643 105.341C45.769 105.419 45.913 105.503 46.075 105.593C46.237 105.683 46.426 105.767 46.642 105.845C46.864 105.923 47.143 105.962 47.479 105.962C47.743 105.962 47.968 105.932 48.154 105.872C48.346 105.806 48.502 105.722 48.622 105.62C48.748 105.518 48.838 105.401 48.892 105.269C48.952 105.131 48.982 104.99 48.982 104.846C48.982 104.63 48.916 104.453 48.784 104.315C48.658 104.177 48.487 104.057 48.271 103.955C48.061 103.853 47.818 103.763 47.542 103.685C47.272 103.601 46.993 103.511 46.705 103.415C46.423 103.319 46.144 103.208 45.868 103.082C45.598 102.95 45.355 102.785 45.139 102.587C44.929 102.389 44.758 102.146 44.626 101.858C44.5 101.57 44.437 101.222 44.437 100.814C44.437 100.436 44.512 100.076 44.662 99.734C44.812 99.392 45.031 99.095 45.319 98.843C45.613 98.585 45.976 98.381 46.408 98.231C46.846 98.075 47.35 97.997 47.92 97.997C48.556 97.997 49.135 98.102 49.657 98.312C50.179 98.522 50.614 98.798 50.962 99.14L50.458 99.941Z" fill="#B7B7B7"/>
<path d="M58.3154 99.941C58.2554 100.037 58.1924 100.106 58.1264 100.148C58.0604 100.184 57.9765 100.202 57.8745 100.202C57.7665 100.202 57.6494 100.172 57.5234 100.112C57.4034 100.052 57.2624 99.986 57.1004 99.914C56.9384 99.836 56.7525 99.767 56.5424 99.707C56.3385 99.647 56.0954 99.617 55.8134 99.617C55.3754 99.617 55.0304 99.71 54.7785 99.896C54.5265 100.082 54.4004 100.325 54.4004 100.625C54.4004 100.823 54.4635 100.991 54.5895 101.129C54.7215 101.261 54.8924 101.378 55.1024 101.48C55.3184 101.582 55.5614 101.675 55.8314 101.759C56.1014 101.837 56.3775 101.924 56.6595 102.02C56.9415 102.116 57.2174 102.227 57.4874 102.353C57.7574 102.473 57.9975 102.629 58.2075 102.821C58.4235 103.007 58.5944 103.232 58.7204 103.496C58.8524 103.76 58.9184 104.078 58.9184 104.45C58.9184 104.894 58.8374 105.305 58.6754 105.683C58.5134 106.055 58.2765 106.379 57.9645 106.655C57.6525 106.925 57.2654 107.138 56.8034 107.294C56.3474 107.444 55.8225 107.519 55.2285 107.519C54.9105 107.519 54.5985 107.489 54.2924 107.429C53.9925 107.375 53.7014 107.297 53.4194 107.195C53.1434 107.093 52.8855 106.973 52.6455 106.835C52.4115 106.697 52.2044 106.547 52.0244 106.385L52.5374 105.539C52.6034 105.437 52.6815 105.359 52.7715 105.305C52.8615 105.251 52.9754 105.224 53.1134 105.224C53.2514 105.224 53.3805 105.263 53.5005 105.341C53.6265 105.419 53.7704 105.503 53.9324 105.593C54.0944 105.683 54.2835 105.767 54.4995 105.845C54.7215 105.923 55.0004 105.962 55.3364 105.962C55.6004 105.962 55.8254 105.932 56.0114 105.872C56.2034 105.806 56.3595 105.722 56.4795 105.62C56.6055 105.518 56.6955 105.401 56.7495 105.269C56.8095 105.131 56.8395 104.99 56.8395 104.846C56.8395 104.63 56.7734 104.453 56.6414 104.315C56.5154 104.177 56.3444 104.057 56.1284 103.955C55.9184 103.853 55.6754 103.763 55.3994 103.685C55.1294 103.601 54.8505 103.511 54.5625 103.415C54.2805 103.319 54.0014 103.208 53.7254 103.082C53.4554 102.95 53.2124 102.785 52.9964 102.587C52.7864 102.389 52.6154 102.146 52.4834 101.858C52.3574 101.57 52.2944 101.222 52.2944 100.814C52.2944 100.436 52.3694 100.076 52.5194 99.734C52.6694 99.392 52.8884 99.095 53.1764 98.843C53.4704 98.585 53.8334 98.381 54.2654 98.231C54.7034 98.075 55.2075 97.997 55.7775 97.997C56.4135 97.997 56.9924 98.102 57.5145 98.312C58.0365 98.522 58.4715 98.798 58.8195 99.14L58.3154 99.941Z" fill="#B7B7B7"/>
<path d="M63.0589 98.141V107.375H60.8359V98.141H63.0589ZM63.3919 95.45C63.3919 95.642 63.3529 95.822 63.2749 95.99C63.1969 96.158 63.0919 96.305 62.9599 96.431C62.8339 96.557 62.6839 96.659 62.5099 96.737C62.3359 96.809 62.1499 96.845 61.9519 96.845C61.7599 96.845 61.5769 96.809 61.4029 96.737C61.2349 96.659 61.0879 96.557 60.9619 96.431C60.8359 96.305 60.7339 96.158 60.6559 95.99C60.5839 95.822 60.5479 95.642 60.5479 95.45C60.5479 95.252 60.5839 95.066 60.6559 94.892C60.7339 94.718 60.8359 94.568 60.9619 94.442C61.0879 94.316 61.2349 94.217 61.4029 94.145C61.5769 94.067 61.7599 94.028 61.9519 94.028C62.1499 94.028 62.3359 94.067 62.5099 94.145C62.6839 94.217 62.8339 94.316 62.9599 94.442C63.0919 94.568 63.1969 94.718 63.2749 94.892C63.3529 95.066 63.3919 95.252 63.3919 95.45Z" fill="#B7B7B7"/>
<path d="M69.5206 97.997C70.2106 97.997 70.8346 98.108 71.3926 98.33C71.9566 98.552 72.4366 98.867 72.8326 99.275C73.2286 99.683 73.5346 100.181 73.7506 100.769C73.9666 101.357 74.0746 102.014 74.0746 102.74C74.0746 103.472 73.9666 104.132 73.7506 104.72C73.5346 105.308 73.2286 105.809 72.8326 106.223C72.4366 106.637 71.9566 106.955 71.3926 107.177C70.8346 107.399 70.2106 107.51 69.5206 107.51C68.8306 107.51 68.2036 107.399 67.6396 107.177C67.0756 106.955 66.5926 106.637 66.1906 106.223C65.7946 105.809 65.4856 105.308 65.2636 104.72C65.0476 104.132 64.9396 103.472 64.9396 102.74C64.9396 102.014 65.0476 101.357 65.2636 100.769C65.4856 100.181 65.7946 99.683 66.1906 99.275C66.5926 98.867 67.0756 98.552 67.6396 98.33C68.2036 98.108 68.8306 97.997 69.5206 97.997ZM69.5206 105.8C70.2886 105.8 70.8556 105.542 71.2216 105.026C71.5936 104.51 71.7796 103.754 71.7796 102.758C71.7796 101.762 71.5936 101.003 71.2216 100.481C70.8556 99.959 70.2886 99.698 69.5206 99.698C68.7406 99.698 68.1646 99.962 67.7926 100.49C67.4206 101.012 67.2346 101.768 67.2346 102.758C67.2346 103.748 67.4206 104.504 67.7926 105.026C68.1646 105.542 68.7406 105.8 69.5206 105.8Z" fill="#B7B7B7"/>
<path d="M75.8091 107.375V98.141H77.1681C77.4561 98.141 77.6451 98.276 77.7351 98.546L77.8881 99.275C78.0741 99.083 78.2691 98.909 78.4731 98.753C78.6831 98.597 78.9021 98.462 79.1301 98.348C79.3641 98.234 79.6131 98.147 79.8771 98.087C80.1411 98.027 80.4291 97.997 80.7411 97.997C81.2451 97.997 81.6921 98.084 82.0821 98.258C82.4721 98.426 82.7961 98.666 83.0541 98.978C83.3181 99.284 83.5161 99.653 83.6481 100.085C83.7861 100.511 83.8551 100.982 83.8551 101.498V107.375H81.6321V101.498C81.6321 100.934 81.5001 100.499 81.2361 100.193C80.9781 99.881 80.5881 99.725 80.0661 99.725C79.6821 99.725 79.3221 99.812 78.9861 99.986C78.6501 100.16 78.3321 100.397 78.0321 100.697V107.375H75.8091Z" fill="#B7B7B7"/>
<path d="M91.5205 99.941C91.4605 100.037 91.3975 100.106 91.3315 100.148C91.2655 100.184 91.1815 100.202 91.0795 100.202C90.9715 100.202 90.8545 100.172 90.7285 100.112C90.6085 100.052 90.4675 99.986 90.3055 99.914C90.1435 99.836 89.9575 99.767 89.7475 99.707C89.5435 99.647 89.3005 99.617 89.0185 99.617C88.5805 99.617 88.2355 99.71 87.9835 99.896C87.7315 100.082 87.6055 100.325 87.6055 100.625C87.6055 100.823 87.6685 100.991 87.7945 101.129C87.9265 101.261 88.0975 101.378 88.3075 101.48C88.5235 101.582 88.7665 101.675 89.0365 101.759C89.3065 101.837 89.5825 101.924 89.8645 102.02C90.1465 102.116 90.4225 102.227 90.6925 102.353C90.9625 102.473 91.2025 102.629 91.4125 102.821C91.6285 103.007 91.7995 103.232 91.9255 103.496C92.0575 103.76 92.1235 104.078 92.1235 104.45C92.1235 104.894 92.0425 105.305 91.8805 105.683C91.7185 106.055 91.4815 106.379 91.1695 106.655C90.8575 106.925 90.4705 107.138 90.0085 107.294C89.5525 107.444 89.0275 107.519 88.4335 107.519C88.1155 107.519 87.8035 107.489 87.4975 107.429C87.1975 107.375 86.9065 107.297 86.6245 107.195C86.3485 107.093 86.0905 106.973 85.8505 106.835C85.6165 106.697 85.4095 106.547 85.2295 106.385L85.7425 105.539C85.8085 105.437 85.8865 105.359 85.9765 105.305C86.0665 105.251 86.1805 105.224 86.3185 105.224C86.4565 105.224 86.5855 105.263 86.7055 105.341C86.8315 105.419 86.9755 105.503 87.1375 105.593C87.2995 105.683 87.4885 105.767 87.7045 105.845C87.9265 105.923 88.2055 105.962 88.5415 105.962C88.8055 105.962 89.0305 105.932 89.2165 105.872C89.4085 105.806 89.5645 105.722 89.6845 105.62C89.8105 105.518 89.9005 105.401 89.9545 105.269C90.0145 105.131 90.0445 104.99 90.0445 104.846C90.0445 104.63 89.9785 104.453 89.8465 104.315C89.7205 104.177 89.5495 104.057 89.3335 103.955C89.1235 103.853 88.8805 103.763 88.6045 103.685C88.3345 103.601 88.0555 103.511 87.7675 103.415C87.4855 103.319 87.2065 103.208 86.9305 103.082C86.6605 102.95 86.4175 102.785 86.2015 102.587C85.9915 102.389 85.8205 102.146 85.6885 101.858C85.5625 101.57 85.4995 101.222 85.4995 100.814C85.4995 100.436 85.5745 100.076 85.7245 99.734C85.8745 99.392 86.0935 99.095 86.3815 98.843C86.6755 98.585 87.0385 98.381 87.4705 98.231C87.9085 98.075 88.4125 97.997 88.9825 97.997C89.6185 97.997 90.1975 98.102 90.7195 98.312C91.2415 98.522 91.6765 98.798 92.0245 99.14L91.5205 99.941Z" fill="#B7B7B7"/>
<path d="M100.41 107.519C99.6124 107.519 98.9974 107.294 98.5654 106.844C98.1334 106.388 97.9174 105.761 97.9174 104.963V99.806H96.9814C96.8614 99.806 96.7564 99.767 96.6664 99.689C96.5824 99.611 96.5404 99.494 96.5404 99.338V98.456L98.0254 98.213L98.4934 95.693C98.5174 95.573 98.5714 95.48 98.6554 95.414C98.7454 95.348 98.8564 95.315 98.9884 95.315H100.14V98.222H102.57V99.806H100.14V104.81C100.14 105.098 100.212 105.323 100.356 105.485C100.5 105.647 100.692 105.728 100.932 105.728C101.07 105.728 101.184 105.713 101.274 105.683C101.37 105.647 101.451 105.611 101.517 105.575C101.589 105.539 101.652 105.506 101.706 105.476C101.76 105.44 101.814 105.422 101.868 105.422C101.934 105.422 101.988 105.44 102.03 105.476C102.072 105.506 102.117 105.554 102.165 105.62L102.831 106.7C102.507 106.97 102.135 107.174 101.715 107.312C101.295 107.45 100.86 107.519 100.41 107.519Z" fill="#B7B7B7"/>
<path d="M108.28 97.997C108.97 97.997 109.594 98.108 110.152 98.33C110.716 98.552 111.196 98.867 111.592 99.275C111.988 99.683 112.294 100.181 112.51 100.769C112.726 101.357 112.834 102.014 112.834 102.74C112.834 103.472 112.726 104.132 112.51 104.72C112.294 105.308 111.988 105.809 111.592 106.223C111.196 106.637 110.716 106.955 110.152 107.177C109.594 107.399 108.97 107.51 108.28 107.51C107.59 107.51 106.963 107.399 106.399 107.177C105.835 106.955 105.352 106.637 104.95 106.223C104.554 105.809 104.245 105.308 104.023 104.72C103.807 104.132 103.699 103.472 103.699 102.74C103.699 102.014 103.807 101.357 104.023 100.769C104.245 100.181 104.554 99.683 104.95 99.275C105.352 98.867 105.835 98.552 106.399 98.33C106.963 98.108 107.59 97.997 108.28 97.997ZM108.28 105.8C109.048 105.8 109.615 105.542 109.981 105.026C110.353 104.51 110.539 103.754 110.539 102.758C110.539 101.762 110.353 101.003 109.981 100.481C109.615 99.959 109.048 99.698 108.28 99.698C107.5 99.698 106.924 99.962 106.552 100.49C106.18 101.012 105.994 101.768 105.994 102.758C105.994 103.748 106.18 104.504 106.552 105.026C106.924 105.542 107.5 105.8 108.28 105.8Z" fill="#B7B7B7"/>
<path d="M121.067 107.375C120.779 107.375 120.59 107.24 120.5 106.97L120.32 106.079C120.128 106.295 119.927 106.49 119.717 106.664C119.507 106.838 119.279 106.988 119.033 107.114C118.793 107.24 118.532 107.336 118.25 107.402C117.974 107.474 117.674 107.51 117.35 107.51C116.846 107.51 116.384 107.405 115.964 107.195C115.544 106.985 115.181 106.682 114.875 106.286C114.575 105.884 114.341 105.389 114.173 104.801C114.011 104.213 113.93 103.541 113.93 102.785C113.93 102.101 114.023 101.465 114.209 100.877C114.395 100.289 114.662 99.779 115.01 99.347C115.358 98.915 115.775 98.579 116.261 98.339C116.747 98.093 117.293 97.97 117.899 97.97C118.415 97.97 118.856 98.054 119.222 98.222C119.588 98.384 119.915 98.603 120.203 98.879V94.001H122.426V107.375H121.067ZM118.106 105.746C118.568 105.746 118.961 105.65 119.285 105.458C119.609 105.266 119.915 104.993 120.203 104.639V100.499C119.951 100.193 119.675 99.977 119.375 99.851C119.081 99.725 118.763 99.662 118.421 99.662C118.085 99.662 117.779 99.725 117.503 99.851C117.233 99.977 117.002 100.169 116.81 100.427C116.624 100.679 116.48 101.003 116.378 101.399C116.276 101.789 116.225 102.251 116.225 102.785C116.225 103.325 116.267 103.784 116.351 104.162C116.441 104.534 116.567 104.84 116.729 105.08C116.891 105.314 117.089 105.485 117.323 105.593C117.557 105.695 117.818 105.746 118.106 105.746Z" fill="#B7B7B7"/>
<path d="M132.07 107.375H131.071C130.861 107.375 130.696 107.345 130.576 107.285C130.456 107.219 130.366 107.09 130.306 106.898L130.108 106.241C129.874 106.451 129.643 106.637 129.415 106.799C129.193 106.955 128.962 107.087 128.722 107.195C128.482 107.303 128.227 107.384 127.957 107.438C127.687 107.492 127.387 107.519 127.057 107.519C126.667 107.519 126.307 107.468 125.977 107.366C125.647 107.258 125.362 107.099 125.122 106.889C124.888 106.679 124.705 106.418 124.573 106.106C124.441 105.794 124.375 105.431 124.375 105.017C124.375 104.669 124.465 104.327 124.645 103.991C124.831 103.649 125.137 103.343 125.563 103.073C125.989 102.797 126.556 102.569 127.264 102.389C127.972 102.209 128.851 102.107 129.901 102.083V101.543C129.901 100.925 129.769 100.469 129.505 100.175C129.247 99.875 128.869 99.725 128.371 99.725C128.011 99.725 127.711 99.767 127.471 99.851C127.231 99.935 127.021 100.031 126.841 100.139C126.667 100.241 126.505 100.334 126.355 100.418C126.205 100.502 126.04 100.544 125.86 100.544C125.71 100.544 125.581 100.505 125.473 100.427C125.365 100.349 125.278 100.253 125.212 100.139L124.807 99.428C125.869 98.456 127.15 97.97 128.65 97.97C129.19 97.97 129.67 98.06 130.09 98.24C130.516 98.414 130.876 98.66 131.17 98.978C131.464 99.29 131.686 99.665 131.836 100.103C131.992 100.541 132.07 101.021 132.07 101.543V107.375ZM127.75 105.989C127.978 105.989 128.188 105.968 128.38 105.926C128.572 105.884 128.752 105.821 128.92 105.737C129.094 105.653 129.259 105.551 129.415 105.431C129.577 105.305 129.739 105.158 129.901 104.99V103.433C129.253 103.463 128.71 103.52 128.272 103.604C127.84 103.682 127.492 103.784 127.228 103.91C126.964 104.036 126.775 104.183 126.661 104.351C126.553 104.519 126.499 104.702 126.499 104.9C126.499 105.29 126.613 105.569 126.841 105.737C127.075 105.905 127.378 105.989 127.75 105.989Z" fill="#B7B7B7"/>
<path d="M137.216 109.913C137.15 110.069 137.063 110.186 136.955 110.264C136.853 110.348 136.694 110.39 136.478 110.39H134.822L136.55 106.691L132.815 98.141H134.759C134.939 98.141 135.077 98.183 135.173 98.267C135.269 98.351 135.341 98.447 135.389 98.555L137.36 103.343C137.426 103.499 137.483 103.661 137.531 103.829C137.579 103.997 137.621 104.165 137.657 104.333C137.705 104.159 137.756 103.991 137.81 103.829C137.87 103.667 137.933 103.502 137.999 103.334L139.853 98.555C139.901 98.435 139.979 98.336 140.087 98.258C140.201 98.18 140.327 98.141 140.465 98.141H142.247L137.216 109.913Z" fill="#B7B7B7"/>
</svg>
