<svg width="60" height="27" viewBox="0 0 60 27" fill="none" xmlns="http://www.w3.org/2000/svg">
<path d="M22.8374 16.0723V9.96803H25.3643C25.6385 9.96803 25.8904 10.0282 26.1198 10.1486C26.3549 10.2632 26.5564 10.418 26.7243 10.6129C26.8922 10.802 27.0237 11.0198 27.1188 11.2663C27.2139 11.507 27.2616 11.7506 27.2616 11.9971C27.2616 12.255 27.2168 12.5072 27.1272 12.7536C27.0377 12.9944 26.9117 13.2093 26.7494 13.3985C26.5871 13.5876 26.3913 13.7395 26.1618 13.8541C25.9323 13.9688 25.6805 14.0261 25.4063 14.0261H23.9959V16.0723H22.8374ZM23.9959 12.9858H25.3391C25.5518 12.9858 25.7281 12.8969 25.868 12.7193C26.0135 12.5416 26.0862 12.3008 26.0862 11.9971C26.0862 11.8423 26.0639 11.7047 26.0191 11.5844C25.9743 11.4583 25.9155 11.3522 25.8428 11.2663C25.77 11.1803 25.6833 11.1172 25.5825 11.0771C25.4874 11.0313 25.3895 11.0083 25.2887 11.0083H23.9959V12.9858ZM29.1182 16.1583C28.9055 16.1583 28.7068 16.1239 28.5222 16.0551C28.3375 15.9806 28.178 15.8803 28.0437 15.7542C27.9093 15.6224 27.803 15.4705 27.7246 15.2985C27.6519 15.1266 27.6155 14.9374 27.6155 14.7311C27.6155 14.519 27.6603 14.3241 27.7498 14.1465C27.845 13.963 27.9737 13.8083 28.136 13.6822C28.3039 13.5561 28.5026 13.4586 28.732 13.3899C28.9615 13.3154 29.2133 13.2781 29.4876 13.2781C29.6835 13.2781 29.8737 13.2953 30.0584 13.3297C30.2487 13.3641 30.4166 13.4128 30.5621 13.4758V13.2179C30.5621 12.9199 30.4782 12.6906 30.3103 12.5301C30.148 12.3696 29.9045 12.2894 29.5799 12.2894C29.3449 12.2894 29.1154 12.3324 28.8915 12.4183C28.6677 12.5043 28.4382 12.6304 28.2031 12.7966L27.859 12.0658C28.4242 11.6818 29.0342 11.4898 29.689 11.4898C30.3215 11.4898 30.8112 11.6503 31.1581 11.9713C31.5107 12.2865 31.687 12.745 31.687 13.3469V14.7483C31.687 14.8686 31.7066 14.9546 31.7458 15.0062C31.7906 15.0578 31.8605 15.0865 31.9557 15.0922V16.0723C31.7654 16.1124 31.6003 16.1325 31.4604 16.1325C31.2477 16.1325 31.0826 16.0838 30.9651 15.9863C30.8532 15.8889 30.7832 15.7599 30.7552 15.5994L30.73 15.3501C30.5341 15.6138 30.2963 15.8144 30.0164 15.952C29.7366 16.0895 29.4372 16.1583 29.1182 16.1583ZM29.4372 15.3157C29.6275 15.3157 29.8066 15.2813 29.9745 15.2126C30.148 15.1438 30.2823 15.0521 30.3774 14.9374C30.5006 14.84 30.5621 14.7311 30.5621 14.6107V14.0949C30.4278 14.0433 30.2823 14.0031 30.1256 13.9745C29.9689 13.9401 29.8178 13.9229 29.6722 13.9229C29.3812 13.9229 29.1434 13.9917 28.9587 14.1292C28.774 14.2611 28.6817 14.4302 28.6817 14.6365C28.6817 14.8314 28.7544 14.9947 28.8999 15.1266C29.0454 15.2527 29.2245 15.3157 29.4372 15.3157ZM32.724 16.9492C32.8192 16.9779 32.9115 16.998 33.0011 17.0094C33.0906 17.0266 33.1661 17.0352 33.2277 17.0352C33.3004 17.0352 33.3676 17.0209 33.4292 16.9923C33.4907 16.9636 33.5467 16.912 33.5971 16.8375C33.6475 16.7687 33.6978 16.6713 33.7482 16.5452C33.7986 16.4191 33.8517 16.2615 33.9077 16.0723L32.17 11.5672H33.3284L34.5205 15.075L35.5783 11.5672H36.6361L34.7892 16.9664C34.6828 17.2817 34.5009 17.5396 34.2435 17.7403C33.9861 17.9408 33.667 18.0412 33.2865 18.0412C33.1969 18.0412 33.1046 18.0326 33.0094 18.0154C32.9199 18.0039 32.8248 17.981 32.724 17.9466V16.9492ZM37.3564 16.0723V9.96803H39.8832C40.1575 9.96803 40.4093 10.0282 40.6388 10.1486C40.8739 10.2632 41.0753 10.418 41.2432 10.6129C41.4111 10.802 41.5427 11.0198 41.6378 11.2663C41.7329 11.507 41.7805 11.7506 41.7805 11.9971C41.7805 12.255 41.7357 12.5072 41.6462 12.7536C41.5567 12.9944 41.4307 13.2093 41.2684 13.3985C41.1061 13.5876 40.9102 13.7395 40.6808 13.8541C40.4513 13.9688 40.1994 14.0261 39.9252 14.0261H38.5149V16.0723H37.3564ZM38.5149 12.9858H39.8581C40.0707 12.9858 40.247 12.8969 40.387 12.7193C40.5324 12.5416 40.6052 12.3008 40.6052 11.9971C40.6052 11.8423 40.5828 11.7047 40.538 11.5844C40.4933 11.4583 40.4345 11.3522 40.3617 11.2663C40.289 11.1803 40.2023 11.1172 40.1015 11.0771C40.0064 11.0313 39.9084 11.0083 39.8077 11.0083H38.5149V12.9858ZM43.6371 16.1583C43.4245 16.1583 43.2258 16.1239 43.0411 16.0551C42.8564 15.9806 42.6969 15.8803 42.5626 15.7542C42.4283 15.6224 42.3219 15.4705 42.2436 15.2985C42.1709 15.1266 42.1345 14.9374 42.1345 14.7311C42.1345 14.519 42.1792 14.3241 42.2688 14.1465C42.3639 13.963 42.4927 13.8083 42.655 13.6822C42.8229 13.5561 43.0215 13.4586 43.251 13.3899C43.4805 13.3154 43.7323 13.2781 44.0065 13.2781C44.2024 13.2781 44.3927 13.2953 44.5774 13.3297C44.7677 13.3641 44.9356 13.4128 45.0811 13.4758V13.2179C45.0811 12.9199 44.9971 12.6906 44.8292 12.5301C44.6669 12.3696 44.4235 12.2894 44.0989 12.2894C43.8638 12.2894 43.6344 12.3324 43.4105 12.4183C43.1866 12.5043 42.9572 12.6304 42.7221 12.7966L42.3779 12.0658C42.9432 11.6818 43.5532 11.4898 44.208 11.4898C44.8404 11.4898 45.3301 11.6503 45.6771 11.9713C46.0297 12.2865 46.206 12.745 46.206 13.3469V14.7483C46.206 14.8686 46.2256 14.9546 46.2648 15.0062C46.3096 15.0578 46.3795 15.0865 46.4746 15.0922V16.0723C46.2843 16.1124 46.1193 16.1325 45.9794 16.1325C45.7667 16.1325 45.6016 16.0838 45.484 15.9863C45.3721 15.8889 45.3022 15.7599 45.2742 15.5994L45.249 15.3501C45.0531 15.6138 44.8152 15.8144 44.5354 15.952C44.2556 16.0895 43.9562 16.1583 43.6371 16.1583ZM43.9562 15.3157C44.1465 15.3157 44.3256 15.2813 44.4935 15.2126C44.6669 15.1438 44.8013 15.0521 44.8964 14.9374C45.0195 14.84 45.0811 14.7311 45.0811 14.6107V14.0949C44.9468 14.0433 44.8013 14.0031 44.6445 13.9745C44.4878 13.9401 44.3367 13.9229 44.1912 13.9229C43.9002 13.9229 43.6624 13.9917 43.4777 14.1292C43.293 14.2611 43.2006 14.4302 43.2006 14.6365C43.2006 14.8314 43.2734 14.9947 43.4189 15.1266C43.5644 15.2527 43.7435 15.3157 43.9562 15.3157ZM47.2488 9.79608H48.3737V14.6279C48.3737 14.7941 48.4129 14.9231 48.4913 15.0148C48.5696 15.1065 48.6815 15.1524 48.827 15.1524C48.8942 15.1524 48.967 15.1409 49.0453 15.118C49.1293 15.0951 49.2076 15.0664 49.2804 15.032L49.4315 15.9089C49.2804 15.9835 49.1041 16.0408 48.9026 16.0809C48.7011 16.121 48.5192 16.1411 48.3569 16.1411C48.0043 16.1411 47.7301 16.0465 47.5342 15.8574C47.344 15.6625 47.2488 15.3874 47.2488 15.032V9.79608Z" fill="#212529"/>
<rect x="0.716553" y="0.484741" width="59.2168" height="26.2565" rx="5" fill="#0070BA"/>
<path d="M22.8374 16.0722V9.96796H25.3643C25.6385 9.96796 25.8904 10.0281 26.1198 10.1485C26.3549 10.2631 26.5564 10.4179 26.7243 10.6128C26.8922 10.8019 27.0237 11.0197 27.1188 11.2662C27.2139 11.5069 27.2616 11.7505 27.2616 11.997C27.2616 12.2549 27.2168 12.5071 27.1272 12.7536C27.0377 12.9943 26.9117 13.2092 26.7494 13.3984C26.5871 13.5875 26.3913 13.7394 26.1618 13.8541C25.9323 13.9687 25.6805 14.026 25.4063 14.026H23.9959V16.0722H22.8374ZM23.9959 12.9857H25.3391C25.5518 12.9857 25.7281 12.8969 25.868 12.7192C26.0135 12.5415 26.0862 12.3008 26.0862 11.997C26.0862 11.8422 26.0639 11.7047 26.0191 11.5843C25.9743 11.4582 25.9155 11.3522 25.8428 11.2662C25.77 11.1802 25.6833 11.1172 25.5825 11.0771C25.4874 11.0312 25.3895 11.0083 25.2887 11.0083H23.9959V12.9857ZM29.1182 16.1582C28.9055 16.1582 28.7068 16.1238 28.5222 16.0551C28.3375 15.9805 28.178 15.8802 28.0437 15.7541C27.9093 15.6223 27.803 15.4704 27.7246 15.2985C27.6519 15.1265 27.6155 14.9374 27.6155 14.731C27.6155 14.5189 27.6603 14.3241 27.7498 14.1464C27.845 13.963 27.9737 13.8082 28.136 13.6821C28.3039 13.556 28.5026 13.4586 28.732 13.3898C28.9615 13.3153 29.2133 13.278 29.4876 13.278C29.6835 13.278 29.8737 13.2952 30.0584 13.3296C30.2487 13.364 30.4166 13.4127 30.5621 13.4758V13.2178C30.5621 12.9198 30.4782 12.6905 30.3103 12.53C30.148 12.3696 29.9045 12.2893 29.5799 12.2893C29.3449 12.2893 29.1154 12.3323 28.8915 12.4183C28.6677 12.5042 28.4382 12.6303 28.2031 12.7966L27.859 12.0658C28.4242 11.6817 29.0342 11.4897 29.689 11.4897C30.3215 11.4897 30.8112 11.6502 31.1581 11.9712C31.5107 12.2864 31.687 12.745 31.687 13.3468V14.7482C31.687 14.8686 31.7066 14.9545 31.7458 15.0062C31.7906 15.0577 31.8605 15.0864 31.9557 15.0921V16.0722C31.7654 16.1124 31.6003 16.1324 31.4604 16.1324C31.2477 16.1324 31.0826 16.0837 30.9651 15.9863C30.8532 15.8888 30.7832 15.7598 30.7552 15.5994L30.73 15.35C30.5341 15.6137 30.2963 15.8143 30.0164 15.9519C29.7366 16.0894 29.4372 16.1582 29.1182 16.1582ZM29.4372 15.3157C29.6275 15.3157 29.8066 15.2813 29.9745 15.2125C30.148 15.1437 30.2823 15.052 30.3774 14.9374C30.5006 14.8399 30.5621 14.731 30.5621 14.6107V14.0948C30.4278 14.0432 30.2823 14.0031 30.1256 13.9744C29.9689 13.94 29.8178 13.9228 29.6722 13.9228C29.3812 13.9228 29.1434 13.9916 28.9587 14.1292C28.774 14.261 28.6817 14.4301 28.6817 14.6365C28.6817 14.8313 28.7544 14.9947 28.8999 15.1265C29.0454 15.2526 29.2245 15.3157 29.4372 15.3157ZM32.724 16.9492C32.8192 16.9779 32.9115 16.9979 33.0011 17.0094C33.0906 17.0266 33.1661 17.0352 33.2277 17.0352C33.3004 17.0352 33.3676 17.0208 33.4292 16.9922C33.4907 16.9635 33.5467 16.912 33.5971 16.8374C33.6475 16.7686 33.6978 16.6712 33.7482 16.5451C33.7986 16.419 33.8517 16.2614 33.9077 16.0722L32.17 11.5671H33.3284L34.5205 15.0749L35.5783 11.5671H36.6361L34.7892 16.9664C34.6828 17.2816 34.5009 17.5395 34.2435 17.7402C33.9861 17.9408 33.667 18.0411 33.2865 18.0411C33.1969 18.0411 33.1046 18.0325 33.0094 18.0153C32.9199 18.0038 32.8248 17.9809 32.724 17.9465V16.9492ZM37.3564 16.0722V9.96796H39.8832C40.1575 9.96796 40.4093 10.0281 40.6388 10.1485C40.8739 10.2631 41.0753 10.4179 41.2432 10.6128C41.4111 10.8019 41.5427 11.0197 41.6378 11.2662C41.7329 11.5069 41.7805 11.7505 41.7805 11.997C41.7805 12.2549 41.7357 12.5071 41.6462 12.7536C41.5567 12.9943 41.4307 13.2092 41.2684 13.3984C41.1061 13.5875 40.9102 13.7394 40.6808 13.8541C40.4513 13.9687 40.1994 14.026 39.9252 14.026H38.5149V16.0722H37.3564ZM38.5149 12.9857H39.8581C40.0707 12.9857 40.247 12.8969 40.387 12.7192C40.5324 12.5415 40.6052 12.3008 40.6052 11.997C40.6052 11.8422 40.5828 11.7047 40.538 11.5843C40.4933 11.4582 40.4345 11.3522 40.3617 11.2662C40.289 11.1802 40.2023 11.1172 40.1015 11.0771C40.0064 11.0312 39.9084 11.0083 39.8077 11.0083H38.5149V12.9857ZM43.6371 16.1582C43.4245 16.1582 43.2258 16.1238 43.0411 16.0551C42.8564 15.9805 42.6969 15.8802 42.5626 15.7541C42.4283 15.6223 42.3219 15.4704 42.2436 15.2985C42.1709 15.1265 42.1345 14.9374 42.1345 14.731C42.1345 14.5189 42.1792 14.3241 42.2688 14.1464C42.3639 13.963 42.4927 13.8082 42.655 13.6821C42.8229 13.556 43.0215 13.4586 43.251 13.3898C43.4805 13.3153 43.7323 13.278 44.0065 13.278C44.2024 13.278 44.3927 13.2952 44.5774 13.3296C44.7677 13.364 44.9356 13.4127 45.0811 13.4758V13.2178C45.0811 12.9198 44.9971 12.6905 44.8292 12.53C44.6669 12.3696 44.4235 12.2893 44.0989 12.2893C43.8638 12.2893 43.6344 12.3323 43.4105 12.4183C43.1866 12.5042 42.9572 12.6303 42.7221 12.7966L42.3779 12.0658C42.9432 11.6817 43.5532 11.4897 44.208 11.4897C44.8404 11.4897 45.3301 11.6502 45.6771 11.9712C46.0297 12.2864 46.206 12.745 46.206 13.3468V14.7482C46.206 14.8686 46.2256 14.9545 46.2648 15.0062C46.3096 15.0577 46.3795 15.0864 46.4746 15.0921V16.0722C46.2843 16.1124 46.1193 16.1324 45.9794 16.1324C45.7667 16.1324 45.6016 16.0837 45.484 15.9863C45.3721 15.8888 45.3022 15.7598 45.2742 15.5994L45.249 15.35C45.0531 15.6137 44.8152 15.8143 44.5354 15.9519C44.2556 16.0894 43.9562 16.1582 43.6371 16.1582ZM43.9562 15.3157C44.1465 15.3157 44.3256 15.2813 44.4935 15.2125C44.6669 15.1437 44.8013 15.052 44.8964 14.9374C45.0195 14.8399 45.0811 14.731 45.0811 14.6107V14.0948C44.9468 14.0432 44.8013 14.0031 44.6445 13.9744C44.4878 13.94 44.3367 13.9228 44.1912 13.9228C43.9002 13.9228 43.6624 13.9916 43.4777 14.1292C43.293 14.261 43.2006 14.4301 43.2006 14.6365C43.2006 14.8313 43.2734 14.9947 43.4189 15.1265C43.5644 15.2526 43.7435 15.3157 43.9562 15.3157ZM47.2488 9.79601H48.3737V14.6279C48.3737 14.7941 48.4129 14.923 48.4913 15.0147C48.5696 15.1064 48.6815 15.1523 48.827 15.1523C48.8942 15.1523 48.967 15.1408 49.0453 15.1179C49.1293 15.095 49.2076 15.0663 49.2804 15.0319L49.4315 15.9089C49.2804 15.9834 49.1041 16.0407 48.9026 16.0808C48.7011 16.121 48.5192 16.141 48.3569 16.141C48.0043 16.141 47.7301 16.0465 47.5342 15.8573C47.344 15.6624 47.2488 15.3873 47.2488 15.0319V9.79601Z" fill="white"/>
<path fill-rule="evenodd" clip-rule="evenodd" d="M12.868 8.90389C12.7596 8.95299 12.702 9.00617 12.6524 9.10298C12.5955 9.21385 11.3059 17.3254 11.3312 17.4134C11.3408 17.4468 11.364 17.4911 11.3828 17.5119C11.466 17.6037 11.4603 17.6033 12.5015 17.6033H13.4822L13.492 17.5601C13.4973 17.5363 13.6016 16.8859 13.7236 16.1147C13.8456 15.3435 13.9538 14.6815 13.9639 14.6435C13.993 14.5351 14.0846 14.4248 14.1875 14.3742C14.2796 14.3288 14.2882 14.3283 15.0876 14.316C15.6944 14.3067 15.9425 14.2958 16.087 14.2722C16.9382 14.1331 17.5205 13.8501 18.0023 13.3414C18.3841 12.9381 18.6576 12.3978 18.815 11.7354C18.9843 11.0231 18.9649 10.4507 18.757 10.0303C18.4108 9.33032 17.7512 8.97861 16.6058 8.88344C16.4746 8.87253 15.638 8.86437 14.6648 8.86448C12.9846 8.86471 12.9529 8.8654 12.868 8.90389ZM19.3262 11.9399C18.887 13.6678 17.7298 14.6455 15.8948 14.8389C15.7785 14.8512 15.4113 14.8666 15.0787 14.8733L14.474 14.8854L14.1815 16.7389C14.0206 17.7584 13.8843 18.6163 13.8786 18.6453L13.8683 18.6981L14.5644 18.6977C15.1962 18.6973 15.2677 18.694 15.3376 18.6623C15.435 18.6181 15.532 18.5087 15.5568 18.4151C15.5673 18.3753 15.6459 17.902 15.7315 17.3632C15.9004 16.3005 15.9111 16.2427 15.9523 16.163C15.9888 16.0925 16.0805 16.017 16.1585 15.9932C16.1932 15.9827 16.3878 15.969 16.591 15.9627C17.1031 15.947 17.4405 15.8977 17.7973 15.7867C18.0069 15.7214 18.4216 15.513 18.5853 15.3907C19.124 14.9881 19.4718 14.3855 19.642 13.5601C19.7355 13.1063 19.7393 12.6736 19.6525 12.3308C19.6116 12.1691 19.4919 11.9076 19.4165 11.8151L19.3718 11.7603L19.3262 11.9399Z" fill="white"/>
</svg>
