<svg width="190" height="154" viewBox="0 0 190 154" fill="none" xmlns="http://www.w3.org/2000/svg">
<path d="M89.6958 127.332H2.77167C1.35362 127.332 0.201172 126.179 0.201172 124.761V2.5705C0.201172 1.15245 1.35362 0 2.77167 0H89.7003C91.1184 0 92.2708 1.15245 92.2708 2.5705V124.761C92.2663 126.179 91.1139 127.332 89.6958 127.332ZM2.77167 0.112544C1.41664 0.112544 0.313715 1.21547 0.313715 2.5705V124.761C0.313715 126.116 1.41664 127.219 2.77167 127.219H89.7003C91.0554 127.219 92.1583 126.116 92.1583 124.761V2.5705C92.1583 1.21547 91.0554 0.112544 89.7003 0.112544H2.77167Z" fill="#EBEBEB"/>
<path d="M187.069 127.332H100.14C98.7218 127.332 97.5694 126.179 97.5694 124.761V2.5705C97.5694 1.15245 98.7218 0 100.14 0H187.069C188.487 0 189.639 1.15245 189.639 2.5705V124.761C189.639 126.179 188.487 127.332 187.069 127.332ZM100.14 0.112544C98.7849 0.112544 97.6819 1.21547 97.6819 2.5705V124.761C97.6819 126.116 98.7849 127.219 100.14 127.219H187.069C188.424 127.219 189.527 126.116 189.527 124.761V2.5705C189.527 1.21547 188.424 0.112544 187.069 0.112544H100.14Z" fill="#EBEBEB"/>
<path d="M34.761 53.8724C39.9605 53.8724 44.1742 49.6588 44.1742 44.4593C44.1742 39.2598 39.9605 35.0461 34.761 35.0461H33.6041V53.8724H34.761Z" fill="#E0E0E0"/>
<path d="M33.6041 53.8724C38.8028 53.8724 43.0172 49.658 43.0172 44.4593C43.0172 39.2606 38.8028 35.0461 33.6041 35.0461C28.4053 35.0461 24.1909 39.2606 24.1909 44.4593C24.1909 49.658 28.4053 53.8724 33.6041 53.8724Z" fill="#F5F5F5"/>
<path d="M33.1719 45.6433C26.2257 45.6433 20.5715 39.9891 20.5715 33.0429V25.516C20.5715 24.8632 21.1027 24.332 21.7555 24.332C22.4082 24.332 22.9395 24.8632 22.9395 25.516V33.0429C22.9395 38.6881 27.5312 43.2754 33.1719 43.2754C33.8247 43.2754 34.3559 43.8066 34.3559 44.4593C34.3559 45.1166 33.8292 45.6433 33.1719 45.6433Z" fill="#E0E0E0"/>
<path d="M11.2845 32.1425H32.2266C33.6626 32.1425 34.707 30.783 34.3424 29.3964L32.5237 22.5358C32.2716 21.5769 31.4028 20.9106 30.4079 20.9106H13.1032C12.1128 20.9106 11.2439 21.5769 10.9873 22.5358L9.17314 29.3964C8.804 30.783 9.8484 32.1425 11.2845 32.1425Z" fill="#F5F5F5"/>
<path d="M167.697 53.8724C172.897 53.8724 177.111 49.6588 177.111 44.4593C177.111 39.2598 172.897 35.0461 167.697 35.0461H166.545V53.8724H167.697Z" fill="#E0E0E0"/>
<path d="M166.541 53.8724C171.739 53.8724 175.954 49.658 175.954 44.4593C175.954 39.2606 171.739 35.0461 166.541 35.0461C161.342 35.0461 157.127 39.2606 157.127 44.4593C157.127 49.658 161.342 53.8724 166.541 53.8724Z" fill="#F5F5F5"/>
<path d="M166.108 45.6433C159.162 45.6433 153.508 39.9891 153.508 33.0429V25.516C153.508 24.8632 154.039 24.332 154.692 24.332C155.345 24.332 155.876 24.8632 155.876 25.516V33.0429C155.876 38.6881 160.468 43.2754 166.108 43.2754C166.761 43.2754 167.292 43.8066 167.292 44.4593C167.292 45.1166 166.766 45.6433 166.108 45.6433Z" fill="#E0E0E0"/>
<path d="M144.221 32.1425H165.163C166.599 32.1425 167.643 30.783 167.279 29.3964L165.46 22.5358C165.208 21.5769 164.339 20.9106 163.344 20.9106H146.035C145.045 20.9106 144.176 21.5769 143.919 22.5358L142.101 29.3964C141.74 30.783 142.785 32.1425 144.221 32.1425Z" fill="#F5F5F5"/>
<path d="M43.3139 117.451H50.161V90.9224H43.3139V117.451Z" fill="#E6E6E6"/>
<path d="M24.7537 117.451H47.474L50.9043 86.402H28.184L24.7537 117.451Z" fill="#F0F0F0"/>
<path d="M22.2912 117.451H45.7633L49.1936 86.402H25.726L22.2912 117.451Z" fill="#F5F5F5"/>
<path d="M44.0661 115.006L46.9563 88.8464H27.4187L24.5286 115.006H44.0661Z" fill="white"/>
<path d="M40.0326 108.663L40.1496 107.596C40.8744 101.033 36.7778 95.1848 31.4568 95.1848L31.3397 96.2517C30.6104 102.815 34.707 108.663 40.0326 108.663Z" fill="#F5F5F5"/>
<path d="M9.59934 147.408H29.7852L29.7852 117.449H9.59934L9.59934 147.408Z" fill="#E6E6E6"/>
<path d="M11.6266 147.41H9.59631V141.634H13.7559L11.6266 147.41Z" fill="#F0F0F0"/>
<path d="M66.1725 147.408H86.3583V117.449H66.1725V147.408Z" fill="#E6E6E6"/>
<path d="M9.59803 143.864H67.9451V117.452H9.59803V143.864Z" fill="#F0F0F0"/>
<path d="M65.9131 147.41H67.9434V141.634H63.7838L65.9131 147.41Z" fill="#F0F0F0"/>
<path d="M11.1736 129.761H66.3695V119.101H11.1736V129.761Z" fill="#E6E6E6"/>
<path d="M35.0897 126.053H42.4501C45.6463 126.053 48.703 124.739 50.9043 122.416H26.6354C28.8368 124.734 31.8935 126.053 35.0897 126.053Z" fill="#F0F0F0"/>
<path d="M11.1736 142.142H66.3695V131.482H11.1736V142.142Z" fill="#E6E6E6"/>
<path d="M35.0897 138.433H42.4501C45.6463 138.433 48.703 137.119 50.9043 134.796H26.6354C28.8368 137.119 31.8935 138.433 35.0897 138.433Z" fill="#F0F0F0"/>
<path d="M64.2474 116.231H64.7696C64.7651 115.155 64.7741 112.431 64.8237 106.187C64.9182 94.8698 65.0983 94.1765 65.0983 94.1765L63.8558 99.403C63.068 105.188 64.0854 111.004 64.2474 116.231Z" fill="#E6E6E6"/>
<path d="M63.2166 98.6243C61.4294 96.495 57.6119 95.8737 53.7044 95.3425C52.1693 95.1354 57.7379 98.6423 60.457 101.132C62.5728 103.067 63.9233 103.603 64.5041 105.53C64.8057 103.126 64.7562 100.456 63.2166 98.6243Z" fill="#E6E6E6"/>
<path d="M65.5889 102.428C67.3761 100.299 71.1936 99.6777 75.1011 99.1465C76.6362 98.9394 71.0676 102.446 68.3485 104.936C66.2327 106.871 64.8822 107.407 64.3014 109.334C63.9998 106.934 64.0493 104.265 65.5889 102.428Z" fill="#E6E6E6"/>
<path d="M64.8237 93.6768C66.1652 91.1333 69.537 88.7339 73.3185 87.8246C74.8041 87.4689 69.8791 92.5244 68.0064 95.7881C66.5524 98.3226 64.6211 101.298 64.324 103.437C63.8693 99.196 63.4822 96.2203 64.8237 93.6768Z" fill="#E6E6E6"/>
<path d="M64.6616 117.451C63.0635 117.451 61.7445 116.649 61.6545 115.627L61.3889 113.876H67.9344L67.6688 115.627C67.5788 116.649 66.2597 117.451 64.6616 117.451Z" fill="#F0F0F0"/>
<path d="M68.362 114.551H60.9657L60.7541 112.602H68.5736L68.362 114.551Z" fill="#F0F0F0"/>
<path d="M59.3209 77.3263L131.443 77.3263V11.5423L59.3209 11.5423L59.3209 77.3263Z" fill="#E6E6E6"/>
<path d="M57.7037 77.3263L130.74 77.3263V11.5423L57.7037 11.5423L57.7037 77.3263Z" fill="#F5F5F5"/>
<path d="M127.826 74.3814L127.826 14.4902L60.6153 14.4902L60.6153 74.3814L127.826 74.3814Z" fill="#FAFAFA"/>
<path d="M119.578 74.3779L93.1262 14.4912H84.1407L110.593 74.3779H119.578Z" fill="white"/>
<path d="M108.045 74.3779L81.5927 14.4912H75.4073L101.86 74.3779H108.045Z" fill="white"/>
<path d="M85.5714 74.3785L85.5714 14.4873H82.096L82.096 74.3785H85.5714Z" fill="#E6E6E6"/>
<path d="M108.674 74.3788L108.674 14.4875H105.199L105.199 74.3788H108.674Z" fill="#E6E6E6"/>
<path d="M84.9418 76.2489L84.9418 12.2971H80.5481L80.5481 76.2489H84.9418Z" fill="#F5F5F5"/>
<path d="M108.044 76.2491L108.044 12.2974H103.651L103.651 76.2491H108.044Z" fill="#F5F5F5"/>
<path d="M60.9227 74.3801L60.9227 14.4889H60.6121L60.6121 74.3801H60.9227Z" fill="#E6E6E6"/>
<path d="M56.4774 7.75208H134.614C134.821 7.75208 134.988 7.92314 134.988 8.12572C134.988 8.3328 134.817 8.49936 134.614 8.49936H56.4774C56.2704 8.49936 56.1038 8.3283 56.1038 8.12572C56.0993 7.92314 56.2704 7.75208 56.4774 7.75208Z" fill="#E6E6E6"/>
<path d="M131.445 10.2325C131.724 10.2325 131.954 10.003 131.954 9.72385V8.63443C131.954 8.35532 131.724 8.12573 131.445 8.12573C131.166 8.12573 130.936 8.35532 130.936 8.63443V9.72385C130.936 10.003 131.166 10.2325 131.445 10.2325Z" fill="#E6E6E6"/>
<path d="M62.1407 10.2325C62.4198 10.2325 62.6493 10.003 62.6493 9.72385V8.63443C62.6493 8.35532 62.4198 8.12573 62.1407 8.12573C61.8615 8.12573 61.632 8.35532 61.632 8.63443V9.72385C61.6365 10.003 61.8615 10.2325 62.1407 10.2325Z" fill="#E6E6E6"/>
<path opacity="0.6" d="M56.5965 59.6466L129.583 59.6466V8.12865L56.5965 8.12865V59.6466Z" fill="#E0E0E0"/>
<path d="M136.19 102.964H123.607C122.27 102.964 121.185 101.879 121.185 100.542V94.7167C121.185 93.3797 122.27 92.2948 123.607 92.2948H136.19C137.527 92.2948 138.612 93.3797 138.612 94.7167V100.542C138.612 101.879 137.527 102.964 136.19 102.964Z" fill="#FAFAFA"/>
<path d="M137.797 92.6099H121.996C121.546 92.6099 121.181 92.2452 121.181 91.7951V91.1378C121.181 90.6876 121.546 90.323 121.996 90.323H137.797C138.247 90.323 138.612 90.6876 138.612 91.1378V91.7951C138.612 92.2452 138.247 92.6099 137.797 92.6099Z" fill="#E6E6E6"/>
<path d="M121.438 114.795C121.438 114.795 121.667 122.294 130.41 122.294C139.152 122.294 139.382 114.795 139.382 114.795H121.438Z" fill="#F0F0F0"/>
<path d="M141.371 114.795C141.371 114.795 141.601 122.294 150.343 122.294C159.086 122.294 159.315 114.795 159.315 114.795H141.371Z" fill="#F0F0F0"/>
<path d="M154.989 102.964H137.698C135.861 102.964 134.367 101.474 134.367 99.6327V90.7912C134.367 88.95 135.857 87.46 137.698 87.46H154.989C156.826 87.46 158.32 88.95 158.32 90.7912V99.6327C158.316 101.474 156.826 102.964 154.989 102.964Z" fill="#F0F0F0"/>
<path d="M157.199 87.8921H135.483C134.866 87.8921 134.367 87.3924 134.367 86.7757V85.8708C134.367 85.2541 134.866 84.7544 135.483 84.7544H157.199C157.816 84.7544 158.316 85.2541 158.316 85.8708V86.7757C158.316 87.3924 157.816 87.8921 157.199 87.8921Z" fill="#F5F5F5"/>
<path d="M114.852 147.408H117.121V110.206H114.852V147.408Z" fill="#E6E6E6"/>
<path d="M180.365 102.964H168.08V110.203H180.365V102.964Z" fill="#E6E6E6"/>
<path d="M106.998 110.203L168.078 110.203V102.965H106.998V110.203Z" fill="#F5F5F5"/>
<path d="M180.365 122.299H168.08V129.538H180.365V122.299Z" fill="#E6E6E6"/>
<path d="M106.998 129.535H168.078V122.296H106.998V129.535Z" fill="#F5F5F5"/>
<path d="M175.932 147.408H178.201V110.206H175.932V147.408Z" fill="#E6E6E6"/>
<path d="M165.81 147.408H168.079V110.206H165.81V147.408Z" fill="#F5F5F5"/>
<path d="M106.997 147.408H109.266V110.206H106.997V147.408Z" fill="#F5F5F5"/>
<path d="M100.23 139.797H42.8011C40.9014 139.797 39.2853 138.258 39.1862 136.362L34.0497 36.6262C33.9507 34.7265 35.4093 33.1914 37.309 33.1914H94.7378C96.633 33.1914 98.2536 34.731 98.3526 36.6262L103.494 136.362C103.588 138.262 102.13 139.797 100.23 139.797Z" fill="#7587D9"/>
<path opacity="0.8" d="M100.23 139.797H42.8011C40.9014 139.797 39.2853 138.258 39.1862 136.362L34.0497 36.6262C33.9507 34.7265 35.4093 33.1914 37.309 33.1914H94.7378C96.633 33.1914 98.2536 34.731 98.3526 36.6262L103.494 136.362C103.588 138.262 102.13 139.797 100.23 139.797Z" fill="white"/>
<path d="M89.0701 29.9366H82.7181V30.3868H89.0701V29.9366Z" fill="#7587D9"/>
<path d="M80.5167 29.9366H78.1893V30.3868H80.5167V29.9366Z" fill="#7587D9"/>
<path d="M102.701 133.472H47.7756C45.9614 133.472 44.4128 132 44.3183 130.186L39.4024 34.7985C39.3078 32.9843 40.7034 31.5122 42.5176 31.5122H97.4433C99.2575 31.5122 100.806 32.9843 100.901 34.7985L105.817 130.186C105.911 132 104.516 133.472 102.701 133.472Z" fill="#7587D9"/>
<path d="M102.701 131.28H47.7755C47.1363 131.28 46.5466 130.717 46.5106 130.078L41.5947 34.686C41.5766 34.3393 41.7162 34.1142 41.8377 33.9837C41.9593 33.8576 42.1754 33.7046 42.5175 33.7046H97.4433C98.0825 33.7046 98.6723 34.2673 98.7083 34.9111L103.624 130.299C103.642 130.645 103.503 130.87 103.381 131.001C103.26 131.127 103.048 131.28 102.701 131.28ZM42.522 33.8216C42.2159 33.8216 42.0268 33.9522 41.9233 34.0647C41.8152 34.1773 41.6937 34.3753 41.7117 34.6815L46.6276 130.069C46.6591 130.654 47.1948 131.167 47.78 131.167H102.701C103.007 131.167 103.197 131.037 103.3 130.924C103.408 130.812 103.53 130.614 103.512 130.308L98.5957 34.9201C98.5642 34.3348 98.0285 33.8216 97.4433 33.8216H42.522Z" fill="white"/>
<path opacity="0.3" d="M83.4926 68.4694C89.7391 62.059 89.3321 51.5314 82.5834 44.9551C75.8348 38.3789 65.3001 38.2444 59.0535 44.6548C52.807 51.0651 53.214 61.5928 59.9627 68.169C66.7113 74.7452 77.246 74.8797 83.4926 68.4694Z" fill="white"/>
<path d="M84.7259 56.569C84.8474 58.8919 84.3702 61.0753 83.4294 62.975C81.3766 67.1661 77.0774 70.0202 71.9634 70.0202C66.8494 70.0202 62.2577 67.1706 59.7727 62.975C58.6383 61.0708 57.936 58.8919 57.8189 56.569C57.4363 49.1366 63.149 43.1178 70.5769 43.1178C78.0048 43.1178 84.3432 49.1366 84.7259 56.569Z" fill="white"/>
<path d="M83.4339 62.9794C81.3811 67.1705 77.0819 70.0246 71.9679 70.0246C66.854 70.0246 62.2622 67.175 59.7772 62.9794C63.0455 60.715 67.043 59.396 71.4187 59.396C75.7944 59.396 79.927 60.715 83.4339 62.9794Z" fill="#7587D9"/>
<path d="M75.4402 56.2546C77.6907 53.9451 77.5432 50.1515 75.1109 47.7812C72.6785 45.411 68.8823 45.3618 66.6318 47.6713C64.3813 49.9808 64.5288 53.7745 66.9611 56.1447C69.3935 58.5149 73.1897 58.5641 75.4402 56.2546Z" fill="#7587D9"/>
<path d="M94.8278 96.3689H51.8226C51.0528 96.3689 50.4001 95.7476 50.3595 94.9778L50.0354 88.6574C49.9949 87.8876 50.5846 87.2664 51.3544 87.2664H94.3596C95.1294 87.2664 95.7821 87.8876 95.8227 88.6574L96.1468 94.9778C96.1873 95.7476 95.5976 96.3689 94.8278 96.3689Z" fill="white"/>
<path opacity="0.3" d="M81.6602 83.7955H63.6982C62.9284 83.7955 62.2757 83.1742 62.2351 82.4044L62.1676 81.0629C62.1271 80.2931 62.7168 79.6719 63.4866 79.6719H81.4486C82.2184 79.6719 82.8711 80.2931 82.9117 81.0629L82.9792 82.4044C83.0152 83.1742 82.4255 83.7955 81.6602 83.7955Z" fill="black"/>
<path opacity="0.3" d="M88.3363 126.657H61.4339C60.1238 126.657 59.0119 125.594 58.9444 124.289L58.7823 121.187C58.7148 119.877 59.7187 118.819 61.0287 118.819H87.9311C89.2411 118.819 90.3531 119.882 90.4206 121.187L90.5826 124.289C90.6502 125.599 89.6463 126.657 88.3363 126.657Z" fill="black"/>
<path d="M95.6156 111.598H52.6105C51.8407 111.598 51.1879 110.977 51.1474 110.207L50.8233 103.887C50.7827 103.117 51.3725 102.496 52.1423 102.496H95.1474C95.9172 102.496 96.57 103.117 96.6105 103.887L96.9346 110.207C96.9706 110.977 96.3809 111.598 95.6156 111.598Z" fill="white"/>
<path d="M57.2923 91.8177C57.3373 92.6685 56.6845 93.3573 55.8337 93.3573C54.9829 93.3573 54.2581 92.6685 54.2131 91.8177C54.1681 90.9668 54.8208 90.2781 55.6716 90.2781C56.5225 90.2781 57.2472 90.9668 57.2923 91.8177Z" fill="#263238"/>
<path d="M62.0236 91.8177C62.0686 92.6685 61.4159 93.3573 60.565 93.3573C59.7142 93.3573 58.9894 92.6685 58.9444 91.8177C58.8994 90.9668 59.5521 90.2781 60.403 90.2781C61.2538 90.2781 61.9786 90.9668 62.0236 91.8177Z" fill="#263238"/>
<path d="M66.7504 91.8177C66.7954 92.6685 66.1427 93.3573 65.2918 93.3573C64.441 93.3573 63.7162 92.6685 63.6712 91.8177C63.6262 90.9668 64.2789 90.2781 65.1298 90.2781C65.9806 90.2781 66.7054 90.9668 66.7504 91.8177Z" fill="#263238"/>
<path d="M71.4818 91.8177C71.5268 92.6685 70.874 93.3573 70.0232 93.3573C69.1724 93.3573 68.4476 92.6685 68.4026 91.8177C68.3576 90.9668 69.0103 90.2781 69.8611 90.2781C70.712 90.2781 71.4368 90.9668 71.4818 91.8177Z" fill="#263238"/>
<path d="M58.0755 107.052C58.1206 107.902 57.4678 108.591 56.617 108.591C55.7661 108.591 55.0414 107.902 54.9963 107.052C54.9513 106.201 55.6041 105.512 56.4549 105.512C57.3057 105.512 58.0305 106.201 58.0755 107.052Z" fill="#263238"/>
<path d="M62.8069 107.052C62.8519 107.902 62.1991 108.591 61.3483 108.591C60.4975 108.591 59.7727 107.902 59.7277 107.052C59.6826 106.201 60.3354 105.512 61.1862 105.512C62.037 105.512 62.7618 106.201 62.8069 107.052Z" fill="#263238"/>
<path d="M67.5382 107.052C67.5833 107.902 66.9305 108.591 66.0797 108.591C65.2288 108.591 64.5041 107.902 64.459 107.052C64.414 106.201 65.0668 105.512 65.9176 105.512C66.7684 105.512 67.4932 106.201 67.5382 107.052Z" fill="#263238"/>
<path d="M72.265 107.052C72.3101 107.902 71.6573 108.591 70.8065 108.591C69.9557 108.591 69.2309 107.902 69.1859 107.052C69.1408 106.201 69.7936 105.512 70.6444 105.512C71.4997 105.512 72.2245 106.201 72.265 107.052Z" fill="#263238"/>
<path d="M76.9964 107.052C77.0414 107.902 76.3886 108.591 75.5378 108.591C74.687 108.591 73.9622 107.902 73.9172 107.052C73.8722 106.201 74.5249 105.512 75.3757 105.512C76.2266 105.512 76.9513 106.201 76.9964 107.052Z" fill="#263238"/>
<path d="M81.7277 107.052C81.7728 107.902 81.12 108.591 80.2692 108.591C79.4184 108.591 78.6936 107.902 78.6486 107.052C78.6035 106.201 79.2563 105.512 80.1071 105.512C80.958 105.512 81.6827 106.201 81.7277 107.052Z" fill="#263238"/>
<path d="M132.922 54.7728C133.034 54.9394 133.093 55.0339 133.165 55.151L133.367 55.4886C133.498 55.7092 133.61 55.9343 133.727 56.1549C133.952 56.6005 134.164 57.0462 134.358 57.4964C134.745 58.3967 135.06 59.3151 135.335 60.2425C135.888 62.0927 136.226 63.9879 136.401 65.8876L136.437 66.2433C136.442 66.2928 136.446 66.3738 136.451 66.4594L136.46 66.7024C136.464 67.0221 136.451 67.3372 136.406 67.6388C136.32 68.242 136.158 68.8003 135.96 69.3135C135.555 70.3399 135.001 71.2132 134.403 72.0055C133.183 73.5856 131.796 74.8506 130.212 75.9715L128.974 74.5175C130.086 73.23 131.166 71.8029 131.963 70.3804C132.368 69.6691 132.683 68.9398 132.877 68.2555C132.967 67.9134 133.016 67.5848 133.025 67.2922C133.034 67.1436 133.025 67.0041 133.012 66.8735L132.998 66.779C132.994 66.752 132.994 66.716 132.98 66.6574L132.922 66.3423C132.629 64.6542 132.224 62.993 131.697 61.3904C131.441 60.5846 131.116 59.8103 130.792 59.045C130.63 58.6623 130.455 58.2887 130.275 57.9285L129.995 57.4018L129.856 57.1497L129.743 56.9517L132.922 54.7728Z" fill="#803E3C"/>
<path d="M128.721 75.9985L130.351 79.4423L131.643 76.5342C131.643 76.5342 130.5 74.0132 128.947 74.2428L128.721 75.9985Z" fill="#7F3E3B"/>
<path d="M131.517 79.6135L132.814 77.4887L131.643 76.5298L130.351 79.4424L131.517 79.6135Z" fill="#7F3E3B"/>
<path d="M124.895 41.5872C124.458 43.8245 123.472 48.7044 125.035 50.199C125.035 50.199 124.422 52.4679 120.267 52.4679C115.693 52.4679 118.084 50.199 118.084 50.199C120.578 49.6048 120.515 47.75 120.078 46.0124L124.895 41.5872Z" fill="#7F3E3B"/>
<path d="M117.278 36.3111C117.305 36.3111 117.332 36.3066 117.359 36.2931C117.449 36.2481 117.485 36.14 117.44 36.0545C116.999 35.1722 116.18 35.0686 116.144 35.0641C116.045 35.0506 115.959 35.1227 115.946 35.2217C115.937 35.3207 116.004 35.4063 116.103 35.4198C116.13 35.4243 116.769 35.5098 117.12 36.2166C117.147 36.2706 117.21 36.3111 117.278 36.3111Z" fill="#263238"/>
<path d="M115.914 38.2649C115.914 38.2649 115.243 39.5029 114.599 40.0566C114.951 40.4798 115.648 40.3897 115.648 40.3897L115.914 38.2649Z" fill="#630F0F"/>
<path d="M116.247 37.7788C116.211 38.0804 116.018 38.3055 115.824 38.283C115.626 38.2605 115.495 37.9949 115.536 37.6932C115.572 37.3916 115.765 37.1665 115.959 37.1891C116.153 37.2116 116.283 37.4772 116.247 37.7788Z" fill="#263238"/>
<path d="M116.045 37.2159L115.347 36.9188C115.342 36.9188 115.644 37.5311 116.045 37.2159Z" fill="#263238"/>
<path d="M131.54 51.0544C133.106 51.3966 134.781 57.0328 134.781 57.0328L130.351 61.7416C130.351 61.7416 126.678 56.4475 127.425 54.5028C128.204 52.477 129.689 50.6493 131.54 51.0544Z" fill="#263238"/>
<path opacity="0.4" d="M129.055 54.6423C128.262 53.9175 127.727 54.1336 127.362 54.7098C127.002 56.3845 129.136 59.8914 129.995 61.2194C130.392 59.6348 130.846 56.29 129.055 54.6423Z" fill="black"/>
<path d="M111.709 51.1624C111.709 51.1624 109.913 51.7971 113.51 73.9232C119.587 73.9232 125.867 73.9232 128.825 73.9232C128.568 67.6883 128.559 63.8483 131.54 51.0543C131.54 51.0543 128.33 50.3565 125.035 50.199C122.46 50.0729 120.344 49.9919 118.079 50.199C115.095 50.4691 111.709 51.1624 111.709 51.1624Z" fill="#263238"/>
<path opacity="0.4" d="M111.57 59.6572C111.669 60.7331 111.799 61.9441 111.97 63.3126C113.226 62.1827 114.248 58.9684 113.875 57.0957C112.997 57.7485 112.187 58.7568 111.57 59.6572Z" fill="black"/>
<path d="M113.208 56.3033C112.376 58.4057 111.457 60.4089 110.426 62.4077C109.396 64.402 108.293 66.3602 106.83 68.26L106.541 68.6156L106.397 68.7912C106.348 68.8497 106.307 68.9037 106.231 68.9848C105.952 69.2909 105.65 69.5565 105.339 69.7771C104.718 70.2182 104.079 70.5018 103.458 70.7179C102.215 71.1366 101.009 71.2852 99.8383 71.3572C97.4839 71.4517 95.26 71.2356 93.0137 70.7494L93.2613 68.8542C94.2967 68.8587 95.3816 68.8362 96.426 68.7687C97.4794 68.7147 98.5193 68.6021 99.5187 68.422C100.514 68.2555 101.477 68.0034 102.283 67.6522C102.679 67.4767 103.026 67.2606 103.278 67.0445C103.404 66.9365 103.507 66.8284 103.584 66.7204C103.602 66.7069 103.642 66.6439 103.674 66.5988L103.777 66.4503L103.989 66.1532C105.096 64.51 106.073 62.6058 107.001 60.7016C107.914 58.7883 108.797 56.803 109.621 54.8628L113.208 56.3033Z" fill="#803E3C"/>
<path d="M111.709 51.1624C109.837 51.6171 107.527 56.7626 107.527 56.7626L111.417 62.4798C111.417 62.4798 116.594 55.9613 115.981 53.967C115.338 51.8962 113.983 50.6087 111.709 51.1624Z" fill="#263238"/>
<path d="M94.3417 69.1288L91.0959 67.6298L90.7718 70.8575C90.7718 70.8575 93.4818 71.6543 94.8189 70.8395L94.3417 69.1288Z" fill="#7F3E3B"/>
<path d="M89.1557 67.3057L88.845 69.7591L90.7718 70.8575L91.0959 67.6298L89.1557 67.3057Z" fill="#7F3E3B"/>
<path d="M126.525 37.9993C125.84 41.6772 125.624 43.2483 123.517 44.923C120.348 47.4349 115.977 45.7873 115.554 41.9788C115.171 38.5485 116.355 33.1104 120.168 32.084C123.923 31.0711 127.209 34.3214 126.525 37.9993Z" fill="#7F3E3B"/>
<path d="M118.444 38.7736C118.232 40.6508 118.151 45.5217 122.275 45.6747C127.326 45.8638 128.839 41.5466 128.388 39.8225C131.013 37.6842 131.396 34.0062 128.442 31.1926C125.489 28.379 118.989 29.9502 117.175 32.6917C114.919 36.095 118.444 38.7736 118.444 38.7736Z" fill="#263238"/>
<path d="M123.499 32.2911C123.256 30.3148 123.445 28.9463 125.296 28.9463C127.146 28.9463 129.68 29.617 130.608 31.5168C131.535 33.412 131.612 36.3742 129.023 36.0771C126.435 35.7709 123.792 34.659 123.499 32.2911Z" fill="#7587D9"/>
<path d="M126.372 31.814C125.93 29.4551 128.033 22.8105 133.165 22.3784C135.542 22.1803 136.64 24.7373 135.398 25.1559C137.644 25.1289 139.089 28.1046 136.991 28.5502C138.652 29.6127 138.238 31.7915 135.875 32.8629C134.128 33.6552 126.979 35.0778 126.372 31.814Z" fill="#263238"/>
<path d="M131.85 34.3484C130.198 34.3484 128.474 34.1053 127.402 33.3896C126.754 32.9529 126.399 32.3767 126.345 31.6744C126.34 31.6114 126.385 31.5574 126.448 31.5528C126.516 31.5483 126.565 31.5934 126.57 31.6564C126.619 32.2866 126.939 32.8043 127.528 33.2005C129.563 34.5645 134.272 34.1233 135.749 33.6417C137.018 33.2275 137.878 32.4262 138.049 31.4943C138.175 30.8101 137.905 30.1663 137.297 29.6711C137.248 29.6306 137.243 29.5631 137.279 29.5136C137.32 29.464 137.387 29.4595 137.437 29.4956C138.108 30.0358 138.409 30.7786 138.27 31.5348C138.085 32.5477 137.167 33.4166 135.821 33.8532C135.046 34.1098 133.484 34.3484 131.85 34.3484Z" fill="#263238"/>
<path d="M117.296 38.2784C116.846 38.9042 116.715 39.683 116.814 40.3087C116.963 41.2541 117.886 41.3171 118.552 40.7094C119.151 40.1646 119.795 39.0167 119.304 38.2334C118.818 37.4636 117.809 37.5626 117.296 38.2784Z" fill="#7F3E3B"/>
<path d="M117.553 73.9232C117.553 73.9232 119.74 99.8037 122.009 114.389C123.842 126.17 125.291 153.708 125.291 153.708H130.432C130.432 153.708 132.26 126.994 131.328 115.339C128.974 85.8528 134.227 83.4534 128.82 73.9187H117.553V73.9232Z" fill="#7587D9"/>
<path opacity="0.4" d="M124.026 83.7056C121.951 85.8259 120.371 88.3604 119.169 91.0344C119.767 96.8507 120.479 103.306 121.235 108.96C123.576 103.05 125.579 93.956 124.026 83.7056Z" fill="black"/>
<path d="M113.956 73.7612C113.956 73.7612 109.206 102.028 108.459 114.768C110.323 126.549 117.949 151.452 117.949 151.452L122.626 149.76C122.626 149.76 120.038 122.605 117.21 115.173C123.544 93.848 128.199 88.4594 126.844 73.9278C123.612 73.9233 113.956 73.7612 113.956 73.7612Z" fill="#7587D9"/>
<path d="M129.055 73.0229L129.743 74.3959C129.797 74.504 129.671 74.612 129.496 74.612H113.434C113.294 74.612 113.181 74.5445 113.172 74.459L113.033 73.0904C113.024 72.9959 113.141 72.9149 113.294 72.9149H128.803C128.92 72.9104 129.019 72.9554 129.055 73.0229Z" fill="#7587D9"/>
<path opacity="0.5" d="M129.055 73.0229L129.743 74.3959C129.797 74.504 129.671 74.612 129.496 74.612H113.434C113.294 74.612 113.181 74.5445 113.172 74.459L113.033 73.0904C113.024 72.9959 113.141 72.9149 113.294 72.9149H128.803C128.92 72.9104 129.019 72.9554 129.055 73.0229Z" fill="black"/>
<path d="M126.97 74.7561H127.384C127.465 74.7561 127.528 74.7156 127.524 74.6615L127.33 72.8788C127.326 72.8248 127.254 72.7843 127.168 72.7843H126.754C126.673 72.7843 126.61 72.8248 126.615 72.8788L126.808 74.6615C126.817 74.7156 126.889 74.7561 126.97 74.7561Z" fill="#7587D9"/>
<path d="M121.397 61.6379C121.294 61.6379 121.208 61.5704 121.181 61.4714C119.713 56.0468 116.661 51.581 115.203 50.8923C115.041 50.8157 114.906 50.7932 114.825 50.8293C114.712 50.8788 114.577 50.8293 114.527 50.7167C114.478 50.6042 114.527 50.4691 114.64 50.4196C114.852 50.3251 115.104 50.3476 115.396 50.4871C116.949 51.2209 120.029 55.6326 121.568 61.1878C122.671 61.1743 124.373 61.0347 124.787 61.0032C125.3 60.391 129.077 55.6731 127.664 50.5141C127.632 50.3926 127.7 50.271 127.821 50.2395C127.938 50.208 128.064 50.2755 128.096 50.3971C129.667 56.1413 125.111 61.3228 125.062 61.3723C125.026 61.4129 124.972 61.4399 124.913 61.4444C124.895 61.4444 122.649 61.6379 121.397 61.6379Z" fill="#7587D9"/>
<path d="M128.852 64.8207C126.399 60.2199 125.395 59.9003 124.958 58.4192C124.958 58.4192 125.354 57.3028 126.358 56.1728C126.056 56.0873 125.422 55.9613 125.021 55.8847C125.066 55.6821 125.111 55.4841 125.161 55.295C124.827 55.205 124.139 55.2995 123.788 55.358L123.774 54.9033C123.774 54.9033 122.532 54.6557 122.027 54.7908C122.077 54.9979 122.126 55.2185 122.176 55.439C121.739 55.5246 121.037 55.6641 120.708 55.7542C121.663 56.8301 122.009 57.978 122.081 58.2616C120.758 60.5305 115.617 75.1477 123.981 76.2461C132.345 77.349 131.305 69.4215 128.852 64.8207Z" fill="#7587D9"/>
<path opacity="0.4" d="M128.852 64.8207C126.399 60.2199 125.395 59.9003 124.958 58.4192C124.958 58.4192 125.354 57.3028 126.358 56.1728C126.056 56.0873 125.422 55.9613 125.021 55.8847C125.066 55.6821 125.111 55.4841 125.161 55.295C124.827 55.205 124.139 55.2995 123.788 55.358L123.774 54.9033C123.774 54.9033 122.532 54.6557 122.027 54.7908C122.077 54.9979 122.126 55.2185 122.176 55.439C121.739 55.5246 121.037 55.6641 120.708 55.7542C121.663 56.8301 122.009 57.978 122.081 58.2616C120.758 60.5305 115.617 75.1477 123.981 76.2461C132.345 77.349 131.305 69.4215 128.852 64.8207Z" fill="white"/>
<path d="M121.771 57.8295C121.708 57.9421 121.717 58.3652 121.703 58.5318C121.694 58.7029 122.144 58.8109 122.649 58.8604C123.153 58.9054 125.246 58.991 125.179 58.7569C125.111 58.5228 125.282 58.2032 125.291 58.0051C125.3 57.807 124.458 57.798 123.751 57.825C123.045 57.852 121.91 57.5774 121.771 57.8295Z" fill="#7587D9"/>
<path d="M116.904 74.7561H117.319C117.4 74.7561 117.463 74.7156 117.458 74.6615L117.265 72.8788C117.26 72.8248 117.188 72.7843 117.102 72.7843H116.688C116.607 72.7843 116.544 72.8248 116.549 72.8788L116.742 74.6615C116.747 74.7156 116.819 74.7561 116.904 74.7561Z" fill="#7587D9"/>
</svg>
