<svg width="249" height="24" viewBox="0 0 249 24" fill="none" xmlns="http://www.w3.org/2000/svg">
<path d="M0.252563 18V0.959999H7.47656C8.26056 0.959999 8.98056 1.12 9.63656 1.44C10.2926 1.76 10.8606 2.192 11.3406 2.736C11.8366 3.28 12.2206 3.888 12.4926 4.56C12.7646 5.232 12.9006 5.92 12.9006 6.624C12.9006 7.584 12.6766 8.496 12.2286 9.36C11.7806 10.224 11.1646 10.928 10.3806 11.472C9.59656 12.016 8.66856 12.288 7.59656 12.288H3.56456V18H0.252563ZM3.56456 9.384H7.40456C7.80456 9.384 8.16456 9.272 8.48456 9.048C8.80456 8.824 9.06056 8.504 9.25256 8.088C9.44456 7.656 9.54056 7.168 9.54056 6.624C9.54056 6.032 9.42856 5.528 9.20456 5.112C8.99656 4.696 8.71656 4.384 8.36456 4.176C8.02856 3.968 7.66056 3.864 7.26056 3.864H3.56456V9.384ZM22.3817 8.208C21.4057 8.208 20.5337 8.4 19.7657 8.784C18.9977 9.152 18.4457 9.688 18.1097 10.392V18H14.8937V5.424H17.8457V8.112C18.2937 7.248 18.8617 6.568 19.5497 6.072C20.2377 5.576 20.9657 5.304 21.7337 5.256C21.9097 5.256 22.0457 5.256 22.1417 5.256C22.2377 5.256 22.3177 5.264 22.3817 5.28V8.208ZM29.8429 18.24C28.8349 18.24 27.9229 18.072 27.1069 17.736C26.2909 17.384 25.5949 16.912 25.0189 16.32C24.4429 15.712 23.9949 15.024 23.6749 14.256C23.3709 13.472 23.2189 12.648 23.2189 11.784C23.2189 10.584 23.4829 9.488 24.0109 8.496C24.5549 7.504 25.3229 6.712 26.3149 6.12C27.3229 5.512 28.5069 5.208 29.8669 5.208C31.2429 5.208 32.4189 5.512 33.3949 6.12C34.3709 6.712 35.1149 7.504 35.6269 8.496C36.1549 9.472 36.4189 10.528 36.4189 11.664C36.4189 11.856 36.4109 12.056 36.3949 12.264C36.3789 12.456 36.3629 12.616 36.3469 12.744H26.6269C26.6909 13.384 26.8749 13.944 27.1789 14.424C27.4989 14.904 27.8989 15.272 28.3789 15.528C28.8749 15.768 29.4029 15.888 29.9629 15.888C30.6029 15.888 31.2029 15.736 31.7629 15.432C32.3389 15.112 32.7309 14.696 32.9389 14.184L35.6989 14.952C35.3949 15.592 34.9549 16.16 34.3789 16.656C33.8189 17.152 33.1549 17.544 32.3869 17.832C31.6189 18.104 30.7709 18.24 29.8429 18.24ZM26.5549 10.704H33.1309C33.0669 10.064 32.8829 9.512 32.5789 9.048C32.2909 8.568 31.9069 8.2 31.4269 7.944C30.9469 7.672 30.4109 7.536 29.8189 7.536C29.2429 7.536 28.7149 7.672 28.2349 7.944C27.7709 8.2 27.3869 8.568 27.0829 9.048C26.7949 9.512 26.6189 10.064 26.5549 10.704ZM43.0101 18.24C41.9381 18.24 40.9141 18.064 39.9381 17.712C38.9621 17.36 38.1221 16.84 37.4181 16.152L38.5701 14.064C39.3221 14.672 40.0581 15.12 40.7781 15.408C41.5141 15.696 42.2181 15.84 42.8901 15.84C43.5141 15.84 44.0101 15.728 44.3781 15.504C44.7621 15.28 44.9541 14.944 44.9541 14.496C44.9541 14.192 44.8501 13.96 44.6421 13.8C44.4341 13.624 44.1301 13.472 43.7301 13.344C43.3461 13.216 42.8741 13.072 42.3141 12.912C41.3861 12.608 40.6101 12.312 39.9861 12.024C39.3621 11.736 38.8901 11.376 38.5701 10.944C38.2661 10.496 38.1141 9.928 38.1141 9.24C38.1141 8.408 38.3221 7.696 38.7381 7.104C39.1701 6.496 39.7621 6.024 40.5141 5.688C41.2821 5.352 42.1781 5.184 43.2021 5.184C44.0981 5.184 44.9461 5.328 45.7461 5.616C46.5461 5.888 47.2741 6.336 47.9301 6.96L46.6341 9C45.9941 8.504 45.3861 8.144 44.8101 7.92C44.2341 7.68 43.6501 7.56 43.0581 7.56C42.7221 7.56 42.4021 7.6 42.0981 7.68C41.8101 7.76 41.5701 7.896 41.3781 8.088C41.2021 8.264 41.1141 8.52 41.1141 8.856C41.1141 9.16 41.1941 9.4 41.3541 9.576C41.5301 9.736 41.7861 9.88 42.1221 10.008C42.4741 10.136 42.8981 10.28 43.3941 10.44C44.4021 10.728 45.2501 11.024 45.9381 11.328C46.6421 11.632 47.1701 12.008 47.5221 12.456C47.8741 12.888 48.0501 13.488 48.0501 14.256C48.0501 15.504 47.5941 16.48 46.6821 17.184C45.7701 17.888 44.5461 18.24 43.0101 18.24ZM56.0694 18.24C55.0614 18.24 54.1494 18.072 53.3334 17.736C52.5174 17.384 51.8214 16.912 51.2454 16.32C50.6694 15.712 50.2214 15.024 49.9014 14.256C49.5974 13.472 49.4454 12.648 49.4454 11.784C49.4454 10.584 49.7094 9.488 50.2374 8.496C50.7814 7.504 51.5494 6.712 52.5414 6.12C53.5494 5.512 54.7334 5.208 56.0934 5.208C57.4694 5.208 58.6454 5.512 59.6214 6.12C60.5974 6.712 61.3414 7.504 61.8534 8.496C62.3814 9.472 62.6454 10.528 62.6454 11.664C62.6454 11.856 62.6374 12.056 62.6214 12.264C62.6054 12.456 62.5894 12.616 62.5734 12.744H52.8534C52.9174 13.384 53.1014 13.944 53.4054 14.424C53.7254 14.904 54.1254 15.272 54.6054 15.528C55.1014 15.768 55.6294 15.888 56.1894 15.888C56.8294 15.888 57.4294 15.736 57.9894 15.432C58.5654 15.112 58.9574 14.696 59.1654 14.184L61.9254 14.952C61.6214 15.592 61.1814 16.16 60.6054 16.656C60.0454 17.152 59.3814 17.544 58.6134 17.832C57.8454 18.104 56.9974 18.24 56.0694 18.24ZM52.7814 10.704H59.3574C59.2934 10.064 59.1094 9.512 58.8054 9.048C58.5174 8.568 58.1334 8.2 57.6534 7.944C57.1734 7.672 56.6374 7.536 56.0454 7.536C55.4694 7.536 54.9414 7.672 54.4614 7.944C53.9974 8.2 53.6134 8.568 53.3094 9.048C53.0214 9.512 52.8454 10.064 52.7814 10.704ZM76.2926 18H73.0766V10.944C73.0766 9.936 72.9006 9.2 72.5486 8.736C72.1966 8.272 71.7086 8.04 71.0846 8.04C70.6526 8.04 70.2126 8.152 69.7646 8.376C69.3326 8.6 68.9406 8.912 68.5886 9.312C68.2366 9.696 67.9806 10.144 67.8206 10.656V18H64.6046V5.424H67.5086V7.752C67.8286 7.208 68.2366 6.752 68.7326 6.384C69.2286 6 69.7966 5.712 70.4366 5.52C71.0926 5.312 71.7806 5.208 72.5006 5.208C73.2846 5.208 73.9246 5.352 74.4206 5.64C74.9326 5.912 75.3166 6.288 75.5726 6.768C75.8446 7.232 76.0286 7.76 76.1246 8.352C76.2366 8.944 76.2926 9.544 76.2926 10.152V18ZM86.5547 17.352C86.2827 17.464 85.9547 17.592 85.5707 17.736C85.1867 17.88 84.7707 17.992 84.3227 18.072C83.8907 18.168 83.4507 18.216 83.0027 18.216C82.4107 18.216 81.8667 18.112 81.3707 17.904C80.8747 17.696 80.4747 17.368 80.1707 16.92C79.8827 16.456 79.7387 15.856 79.7387 15.12V7.896H78.0827V5.424H79.7387V1.344H82.9547V5.424H85.5947V7.896H82.9547V14.04C82.9707 14.472 83.0907 14.784 83.3147 14.976C83.5387 15.168 83.8187 15.264 84.1547 15.264C84.4907 15.264 84.8187 15.208 85.1387 15.096C85.4587 14.984 85.7147 14.888 85.9067 14.808L86.5547 17.352ZM93.603 20.448C93.891 20.512 94.155 20.568 94.395 20.616C94.651 20.664 94.867 20.688 95.043 20.688C95.347 20.688 95.595 20.608 95.787 20.448C95.995 20.304 96.195 20.032 96.387 19.632C96.579 19.248 96.779 18.704 96.987 18L92.019 5.424H95.355L98.739 14.712L101.715 5.424H104.787L99.507 20.496C99.315 21.056 99.019 21.56 98.619 22.008C98.235 22.472 97.747 22.832 97.155 23.088C96.579 23.36 95.931 23.496 95.211 23.496C94.955 23.496 94.699 23.472 94.443 23.424C94.187 23.392 93.907 23.328 93.603 23.232V20.448ZM111.92 18.24C110.896 18.24 109.976 18.072 109.16 17.736C108.344 17.384 107.648 16.904 107.072 16.296C106.512 15.688 106.08 14.992 105.776 14.208C105.472 13.424 105.32 12.6 105.32 11.736C105.32 10.856 105.472 10.024 105.776 9.24C106.08 8.456 106.512 7.76 107.072 7.152C107.648 6.544 108.344 6.072 109.16 5.736C109.976 5.384 110.896 5.208 111.92 5.208C112.944 5.208 113.856 5.384 114.656 5.736C115.472 6.072 116.168 6.544 116.744 7.152C117.32 7.76 117.752 8.456 118.04 9.24C118.344 10.024 118.496 10.856 118.496 11.736C118.496 12.6 118.344 13.424 118.04 14.208C117.752 14.992 117.32 15.688 116.744 16.296C116.184 16.904 115.496 17.384 114.68 17.736C113.864 18.072 112.944 18.24 111.92 18.24ZM108.632 11.736C108.632 12.472 108.776 13.128 109.064 13.704C109.352 14.264 109.744 14.704 110.24 15.024C110.736 15.344 111.296 15.504 111.92 15.504C112.528 15.504 113.08 15.344 113.576 15.024C114.072 14.688 114.464 14.24 114.752 13.68C115.056 13.104 115.208 12.448 115.208 11.712C115.208 10.992 115.056 10.344 114.752 9.768C114.464 9.192 114.072 8.744 113.576 8.424C113.08 8.104 112.528 7.944 111.92 7.944C111.296 7.944 110.736 8.112 110.24 8.448C109.744 8.768 109.352 9.216 109.064 9.792C108.776 10.352 108.632 11 108.632 11.736ZM120.547 13.296V5.424H123.763V12.6C123.763 13.56 123.939 14.288 124.291 14.784C124.643 15.264 125.163 15.504 125.851 15.504C126.267 15.504 126.675 15.424 127.075 15.264C127.491 15.088 127.867 14.832 128.203 14.496C128.555 14.16 128.851 13.736 129.091 13.224V5.424H132.307V14.4C132.307 14.736 132.363 14.976 132.475 15.12C132.603 15.264 132.803 15.352 133.075 15.384V18C132.755 18.048 132.483 18.08 132.259 18.096C132.051 18.128 131.859 18.144 131.683 18.144C131.107 18.144 130.635 18.016 130.267 17.76C129.915 17.488 129.707 17.12 129.643 16.656L129.571 15.648C129.011 16.496 128.291 17.144 127.411 17.592C126.531 18.024 125.563 18.24 124.507 18.24C123.211 18.24 122.227 17.824 121.555 16.992C120.883 16.144 120.547 14.912 120.547 13.296ZM142.991 8.208C142.015 8.208 141.143 8.4 140.375 8.784C139.607 9.152 139.055 9.688 138.719 10.392V18H135.503V5.424H138.455V8.112C138.903 7.248 139.471 6.568 140.159 6.072C140.847 5.576 141.575 5.304 142.343 5.256C142.519 5.256 142.655 5.256 142.751 5.256C142.847 5.256 142.927 5.264 142.991 5.28V8.208ZM157.163 18.24C156.203 18.24 155.347 18.024 154.595 17.592C153.843 17.16 153.251 16.568 152.819 15.816V18H150.011V0.48H153.227V7.632C153.675 6.88 154.259 6.288 154.979 5.856C155.715 5.424 156.571 5.208 157.547 5.208C158.363 5.208 159.107 5.384 159.779 5.736C160.451 6.072 161.027 6.544 161.507 7.152C162.003 7.76 162.379 8.456 162.635 9.24C162.907 10.024 163.043 10.864 163.043 11.76C163.043 12.656 162.891 13.496 162.587 14.28C162.299 15.064 161.891 15.76 161.363 16.368C160.835 16.96 160.211 17.424 159.491 17.76C158.787 18.08 158.011 18.24 157.163 18.24ZM156.275 15.504C156.787 15.504 157.251 15.408 157.667 15.216C158.099 15.008 158.467 14.736 158.771 14.4C159.091 14.064 159.331 13.672 159.491 13.224C159.667 12.76 159.755 12.28 159.755 11.784C159.755 11.096 159.611 10.464 159.323 9.888C159.051 9.296 158.667 8.824 158.171 8.472C157.691 8.12 157.123 7.944 156.467 7.944C156.003 7.944 155.555 8.056 155.123 8.28C154.707 8.488 154.331 8.776 153.995 9.144C153.675 9.512 153.419 9.928 153.227 10.392V13.392C153.323 13.712 153.475 14 153.683 14.256C153.907 14.512 154.163 14.736 154.451 14.928C154.739 15.104 155.035 15.248 155.339 15.36C155.659 15.456 155.971 15.504 156.275 15.504ZM171.054 18.24C170.046 18.24 169.134 18.072 168.318 17.736C167.502 17.384 166.806 16.912 166.23 16.32C165.654 15.712 165.206 15.024 164.886 14.256C164.582 13.472 164.43 12.648 164.43 11.784C164.43 10.584 164.694 9.488 165.222 8.496C165.766 7.504 166.534 6.712 167.526 6.12C168.534 5.512 169.718 5.208 171.078 5.208C172.454 5.208 173.63 5.512 174.606 6.12C175.582 6.712 176.326 7.504 176.838 8.496C177.366 9.472 177.63 10.528 177.63 11.664C177.63 11.856 177.622 12.056 177.606 12.264C177.59 12.456 177.574 12.616 177.558 12.744H167.838C167.902 13.384 168.086 13.944 168.39 14.424C168.71 14.904 169.11 15.272 169.59 15.528C170.086 15.768 170.614 15.888 171.174 15.888C171.814 15.888 172.414 15.736 172.974 15.432C173.55 15.112 173.942 14.696 174.15 14.184L176.91 14.952C176.606 15.592 176.166 16.16 175.59 16.656C175.03 17.152 174.366 17.544 173.598 17.832C172.83 18.104 171.982 18.24 171.054 18.24ZM167.766 10.704H174.342C174.278 10.064 174.094 9.512 173.79 9.048C173.502 8.568 173.118 8.2 172.638 7.944C172.158 7.672 171.622 7.536 171.03 7.536C170.454 7.536 169.926 7.672 169.446 7.944C168.982 8.2 168.598 8.568 168.294 9.048C168.006 9.512 167.83 10.064 167.766 10.704ZM184.221 18.24C183.149 18.24 182.125 18.064 181.149 17.712C180.173 17.36 179.333 16.84 178.629 16.152L179.781 14.064C180.533 14.672 181.269 15.12 181.989 15.408C182.725 15.696 183.429 15.84 184.101 15.84C184.725 15.84 185.221 15.728 185.589 15.504C185.973 15.28 186.165 14.944 186.165 14.496C186.165 14.192 186.061 13.96 185.853 13.8C185.645 13.624 185.341 13.472 184.941 13.344C184.557 13.216 184.085 13.072 183.525 12.912C182.597 12.608 181.821 12.312 181.197 12.024C180.573 11.736 180.101 11.376 179.781 10.944C179.477 10.496 179.325 9.928 179.325 9.24C179.325 8.408 179.533 7.696 179.949 7.104C180.381 6.496 180.973 6.024 181.725 5.688C182.493 5.352 183.389 5.184 184.413 5.184C185.309 5.184 186.157 5.328 186.957 5.616C187.757 5.888 188.485 6.336 189.141 6.96L187.845 9C187.205 8.504 186.597 8.144 186.021 7.92C185.445 7.68 184.861 7.56 184.269 7.56C183.933 7.56 183.613 7.6 183.309 7.68C183.021 7.76 182.781 7.896 182.589 8.088C182.413 8.264 182.325 8.52 182.325 8.856C182.325 9.16 182.405 9.4 182.565 9.576C182.741 9.736 182.997 9.88 183.333 10.008C183.685 10.136 184.109 10.28 184.605 10.44C185.613 10.728 186.461 11.024 187.149 11.328C187.853 11.632 188.381 12.008 188.733 12.456C189.085 12.888 189.261 13.488 189.261 14.256C189.261 15.504 188.805 16.48 187.893 17.184C186.981 17.888 185.757 18.24 184.221 18.24ZM198.914 17.352C198.642 17.464 198.314 17.592 197.93 17.736C197.546 17.88 197.13 17.992 196.682 18.072C196.25 18.168 195.81 18.216 195.362 18.216C194.77 18.216 194.226 18.112 193.73 17.904C193.234 17.696 192.834 17.368 192.53 16.92C192.242 16.456 192.098 15.856 192.098 15.12V7.896H190.442V5.424H192.098V1.344H195.314V5.424H197.954V7.896H195.314V14.04C195.33 14.472 195.45 14.784 195.674 14.976C195.898 15.168 196.178 15.264 196.514 15.264C196.85 15.264 197.178 15.208 197.498 15.096C197.818 14.984 198.074 14.888 198.266 14.808L198.914 17.352ZM210.987 18.24C209.915 18.24 208.891 18.064 207.915 17.712C206.939 17.36 206.099 16.84 205.395 16.152L206.547 14.064C207.299 14.672 208.035 15.12 208.755 15.408C209.491 15.696 210.195 15.84 210.867 15.84C211.491 15.84 211.987 15.728 212.355 15.504C212.739 15.28 212.931 14.944 212.931 14.496C212.931 14.192 212.827 13.96 212.619 13.8C212.411 13.624 212.107 13.472 211.707 13.344C211.323 13.216 210.851 13.072 210.291 12.912C209.363 12.608 208.587 12.312 207.963 12.024C207.339 11.736 206.867 11.376 206.547 10.944C206.243 10.496 206.091 9.928 206.091 9.24C206.091 8.408 206.299 7.696 206.715 7.104C207.147 6.496 207.739 6.024 208.491 5.688C209.259 5.352 210.155 5.184 211.179 5.184C212.075 5.184 212.923 5.328 213.723 5.616C214.523 5.888 215.251 6.336 215.907 6.96L214.611 9C213.971 8.504 213.363 8.144 212.787 7.92C212.211 7.68 211.627 7.56 211.035 7.56C210.699 7.56 210.379 7.6 210.075 7.68C209.787 7.76 209.547 7.896 209.355 8.088C209.179 8.264 209.091 8.52 209.091 8.856C209.091 9.16 209.171 9.4 209.331 9.576C209.507 9.736 209.763 9.88 210.099 10.008C210.451 10.136 210.875 10.28 211.371 10.44C212.379 10.728 213.227 11.024 213.915 11.328C214.619 11.632 215.147 12.008 215.499 12.456C215.851 12.888 216.027 13.488 216.027 14.256C216.027 15.504 215.571 16.48 214.659 17.184C213.747 17.888 212.523 18.24 210.987 18.24ZM224.046 18.24C223.038 18.24 222.126 18.072 221.31 17.736C220.494 17.384 219.798 16.912 219.222 16.32C218.646 15.712 218.198 15.024 217.878 14.256C217.574 13.472 217.422 12.648 217.422 11.784C217.422 10.584 217.686 9.488 218.214 8.496C218.758 7.504 219.526 6.712 220.518 6.12C221.526 5.512 222.71 5.208 224.07 5.208C225.446 5.208 226.622 5.512 227.598 6.12C228.574 6.712 229.318 7.504 229.83 8.496C230.358 9.472 230.622 10.528 230.622 11.664C230.622 11.856 230.614 12.056 230.598 12.264C230.582 12.456 230.566 12.616 230.55 12.744H220.83C220.894 13.384 221.078 13.944 221.382 14.424C221.702 14.904 222.102 15.272 222.582 15.528C223.078 15.768 223.606 15.888 224.166 15.888C224.806 15.888 225.406 15.736 225.966 15.432C226.542 15.112 226.934 14.696 227.142 14.184L229.902 14.952C229.598 15.592 229.158 16.16 228.582 16.656C228.022 17.152 227.358 17.544 226.59 17.832C225.822 18.104 224.974 18.24 224.046 18.24ZM220.758 10.704H227.334C227.27 10.064 227.086 9.512 226.782 9.048C226.494 8.568 226.11 8.2 225.63 7.944C225.15 7.672 224.614 7.536 224.022 7.536C223.446 7.536 222.918 7.672 222.438 7.944C221.974 8.2 221.59 8.568 221.286 9.048C220.998 9.512 220.822 10.064 220.758 10.704ZM232.557 0.48H235.773V13.968C235.773 14.544 235.869 14.936 236.061 15.144C236.253 15.336 236.517 15.432 236.853 15.432C237.109 15.432 237.373 15.4 237.645 15.336C237.917 15.272 238.157 15.192 238.365 15.096L238.797 17.544C238.365 17.752 237.861 17.912 237.285 18.024C236.709 18.136 236.189 18.192 235.725 18.192C234.717 18.192 233.933 17.928 233.373 17.4C232.829 16.856 232.557 16.088 232.557 15.096V0.48ZM240.873 18V8.544H239.217V6.096H240.873V5.328C240.873 4.288 241.041 3.392 241.377 2.64C241.729 1.872 242.217 1.28 242.841 0.863999C243.481 0.447999 244.225 0.24 245.073 0.24C245.585 0.24 246.097 0.303999 246.609 0.431999C247.137 0.559999 247.657 0.743999 248.169 0.983999L247.521 3.408C247.281 3.28 247.001 3.176 246.681 3.096C246.361 3 246.057 2.952 245.769 2.952C245.225 2.952 244.809 3.144 244.521 3.528C244.233 3.912 244.089 4.472 244.089 5.208V6.096H247.161V8.544H244.089V18H240.873Z" fill="black"/>
</svg>
