<svg width="16" height="15" viewBox="0 0 16 15" fill="none" xmlns="http://www.w3.org/2000/svg">
<path d="M5.22297 8.03622C5.21365 8.04809 5.20432 8.06059 5.20013 8.07564L4.48037 10.7145C4.43841 10.8681 4.4814 11.0337 4.59513 11.1504C4.6802 11.2335 4.79229 11.2792 4.91167 11.2792C4.95109 11.2792 4.9906 11.2745 5.02948 11.2641L7.6496 10.5495C7.65381 10.5495 7.65584 10.5532 7.65901 10.5532C7.68911 10.5532 7.71868 10.5422 7.74101 10.5194L14.7473 3.51411C14.9554 3.30573 15.0696 3.02187 15.0696 2.71302C15.0696 2.36308 14.9211 2.01327 14.6612 1.75404L13.9995 1.0913C13.74 0.831385 13.3897 0.682689 13.0399 0.682689C12.7312 0.682689 12.4473 0.796838 12.2387 1.0047L5.2334 8.01186C5.22612 8.01855 5.22817 8.02845 5.22297 8.03622ZM14.0618 2.82804L13.3658 3.52344L12.2377 2.37736L12.9237 1.69128C13.0321 1.58228 13.2423 1.59818 13.3669 1.72319L14.029 2.38593C14.0981 2.45491 14.1375 2.54675 14.1375 2.63756C14.1371 2.712 14.1106 2.77954 14.0618 2.82804ZM6.469 8.14629L11.5246 3.09035L12.6534 4.2372L7.60712 9.2832L6.469 8.14629ZM5.54789 10.1961L5.91324 8.85508L6.88778 9.82972L5.54789 10.1961ZM14.1217 5.60412C13.8564 5.60412 13.623 5.81975 13.622 6.08856V12.6438C13.622 12.9863 13.3438 13.2519 13.0008 13.2519H2.22429C1.88178 13.2519 1.6265 12.9863 1.6265 12.6438V1.85564C1.6265 1.51287 1.88176 1.25481 2.22429 1.25481H9.62001C9.88671 1.25481 10.1031 1.01781 10.1031 0.751032C10.1031 0.484781 9.88669 0.255859 9.62001 0.255859H2.15059C1.31557 0.255859 0.621582 0.946941 0.621582 1.78245V12.7175C0.621582 13.5531 1.31559 14.2559 2.15059 14.2559H13.0739C13.9095 14.2559 14.6207 13.5531 14.6207 12.7175V6.0855C14.6197 5.81975 14.3868 5.60412 14.1217 5.60412Z" fill="#263238"/>
</svg>
