<svg width="19" height="19" viewBox="0 0 19 19" fill="none" xmlns="http://www.w3.org/2000/svg">
<path fill-rule="evenodd" clip-rule="evenodd" d="M4.23519 0.000500608C5.25098 0.0144027 5.97486 0.790138 6.89062 1.77162C7.11705 2.01352 7.36168 2.27766 7.63541 2.5557C8.96221 3.90884 8.58481 5.01266 8.28017 5.89869C7.94915 6.86534 7.66269 7.69947 9.3778 9.44742C11.0929 11.1954 11.9105 10.9034 12.858 10.5633C13.7283 10.2537 14.8087 9.86634 16.1382 11.2195C16.4083 11.4947 16.6629 11.7413 16.8994 11.9702C17.8661 12.9081 18.63 13.6486 18.6428 14.6867C18.6527 15.5708 18.1252 16.4735 16.823 17.8007L16.2464 17.4022L16.7348 17.8869C16.4465 18.1881 15.6799 18.9907 14.1785 19H14.1512C11.885 19 8.93038 17.1612 5.3692 13.5328C1.79347 9.88951 -0.0134884 6.86905 7.58001e-05 4.55482C0.00833698 3.02559 0.794961 2.24244 1.09051 1.94864L1.11574 1.92057L1.17691 1.85782C2.48188 0.527853 3.37854 -0.0189623 4.23519 0.000500608ZM4.21791 1.39071H4.21064C3.80226 1.39071 3.18208 1.80777 2.31713 2.66404L2.14344 2.83788L2.14541 2.83745C2.1465 2.83745 2.13057 2.8548 2.10527 2.88109L2.04447 2.94311C1.82439 3.16091 1.36879 3.61411 1.36419 4.56223C1.35697 5.88849 2.2127 8.35101 6.33316 12.5494C10.4336 16.7275 12.8462 17.6098 14.1512 17.6098H14.1703C15.1006 17.6042 15.5444 17.1399 15.7581 16.9165C15.8227 16.8489 15.8754 16.7979 15.9127 16.7673C16.8194 15.8377 17.2831 15.1473 17.2786 14.7033C17.2731 14.2511 16.7211 13.7172 15.9582 12.9767C15.7154 12.7422 15.4516 12.4855 15.1734 12.2019C14.4513 11.4688 14.0957 11.5939 13.3091 11.8757C12.2224 12.264 10.7337 12.796 8.41385 10.4298C6.09308 8.06556 6.61325 6.54838 6.99247 5.43992C7.2671 4.63916 7.3926 4.27492 6.67145 3.53904C6.38954 3.25173 6.13582 2.97925 5.90211 2.72901C5.18005 1.95606 4.65897 1.3972 4.21791 1.39071ZM12.0461 3.29761C13.9385 3.67204 15.3999 5.16049 15.7682 7.09009C15.84 7.46823 15.599 7.83246 15.2298 7.90568C15.1853 7.91402 15.1416 7.91866 15.098 7.91866C14.7779 7.91866 14.4932 7.68881 14.4296 7.35701C14.1677 5.98534 13.13 4.92786 11.786 4.66187C11.4158 4.58865 11.1749 4.22441 11.2467 3.8472C11.3185 3.46999 11.6823 3.22346 12.0461 3.29761ZM11.9916 0.0057834C15.7001 0.425626 18.5801 3.35711 18.9957 7.13569C19.0375 7.51754 18.7684 7.86138 18.3946 7.90401C18.3691 7.90679 18.3428 7.90865 18.3173 7.90865C17.9745 7.90865 17.6798 7.64636 17.6407 7.2914C17.2961 4.1625 14.9116 1.73427 11.8406 1.38672C11.4669 1.34409 11.1968 1.00117 11.2386 0.619328C11.2795 0.238411 11.6133 -0.0424105 11.9916 0.0057834Z" fill="#263238"/>
</svg>
