<svg width="56" height="66" viewBox="0 0 56 66" fill="none" xmlns="http://www.w3.org/2000/svg">
<path d="M33.4306 19.6988V1.9318C35.9436 2.88082 38.2263 4.35319 40.1272 6.2513L49.592 15.7216C51.4923 17.6202 52.9658 19.9023 53.9142 22.4155H36.1472C35.4267 22.4155 34.7357 22.1292 34.2263 21.6198C33.7168 21.1103 33.4306 20.4193 33.4306 19.6988ZM55.1639 29.1664V52.2988C55.1596 55.9 53.7271 59.3525 51.1807 61.8989C48.6342 64.4453 45.1818 65.8778 41.5806 65.8821H14.4139C10.8127 65.8778 7.36023 64.4453 4.8138 61.8989C2.26736 59.3525 0.83488 55.9 0.830566 52.2988V14.2655C0.83488 10.6643 2.26736 7.2118 4.8138 4.66536C7.36023 2.11893 10.8127 0.686443 14.4139 0.682129L26.6797 0.682129C27.1225 0.682129 27.5599 0.717446 27.9972 0.747329V19.6988C27.9972 21.8603 28.8559 23.9333 30.3843 25.4617C31.9127 26.9901 33.9857 27.8488 36.1472 27.8488H55.0987C55.1286 28.2862 55.1639 28.7236 55.1639 29.1664ZM33.4306 52.2988C33.4306 51.5783 33.1443 50.8873 32.6349 50.3778C32.1254 49.8684 31.4344 49.5821 30.7139 49.5821H17.1306C16.4101 49.5821 15.7191 49.8684 15.2096 50.3778C14.7001 50.8873 14.4139 51.5783 14.4139 52.2988C14.4139 53.0193 14.7001 53.7103 15.2096 54.2198C15.7191 54.7293 16.4101 55.0155 17.1306 55.0155H30.7139C31.4344 55.0155 32.1254 54.7293 32.6349 54.2198C33.1443 53.7103 33.4306 53.0193 33.4306 52.2988ZM41.5806 41.4321C41.5806 40.7116 41.2944 40.0206 40.7849 39.5112C40.2754 39.0017 39.5844 38.7155 38.8639 38.7155H17.1306C16.4101 38.7155 15.7191 39.0017 15.2096 39.5112C14.7001 40.0206 14.4139 40.7116 14.4139 41.4321C14.4139 42.1526 14.7001 42.8436 15.2096 43.3531C15.7191 43.8626 16.4101 44.1488 17.1306 44.1488H38.8639C39.5844 44.1488 40.2754 43.8626 40.7849 43.3531C41.2944 42.8436 41.5806 42.1526 41.5806 41.4321Z" fill="url(#paint0_linear_514_3780)"/>
<defs>
<linearGradient id="paint0_linear_514_3780" x1="14.5226" y1="18.2861" x2="110.868" y2="44.2716" gradientUnits="userSpaceOnUse">
<stop stop-color="#7587D9"/>
<stop offset="1" stop-color="#007EA7"/>
</linearGradient>
</defs>
</svg>
