<svg width="375" height="300" viewBox="0 0 375 300" fill="none" xmlns="http://www.w3.org/2000/svg">
<rect width="375" height="300" fill="url(#paint0_linear_0_1)"/>
<path d="M61.44 240.168C60.272 240.168 59.216 239.968 58.272 239.568C57.344 239.168 56.608 238.592 56.064 237.84C55.52 237.088 55.24 236.2 55.224 235.176H58.824C58.872 235.864 59.112 236.408 59.544 236.808C59.992 237.208 60.6 237.408 61.368 237.408C62.152 237.408 62.768 237.224 63.216 236.856C63.664 236.472 63.888 235.976 63.888 235.368C63.888 234.872 63.736 234.464 63.432 234.144C63.128 233.824 62.744 233.576 62.28 233.4C61.832 233.208 61.208 233 60.408 232.776C59.32 232.456 58.432 232.144 57.744 231.84C57.072 231.52 56.488 231.048 55.992 230.424C55.512 229.784 55.272 228.936 55.272 227.88C55.272 226.888 55.52 226.024 56.016 225.288C56.512 224.552 57.208 223.992 58.104 223.608C59 223.208 60.024 223.008 61.176 223.008C62.904 223.008 64.304 223.432 65.376 224.28C66.464 225.112 67.064 226.28 67.176 227.784H63.48C63.448 227.208 63.2 226.736 62.736 226.368C62.288 225.984 61.688 225.792 60.936 225.792C60.28 225.792 59.752 225.96 59.352 226.296C58.968 226.632 58.776 227.12 58.776 227.76C58.776 228.208 58.92 228.584 59.208 228.888C59.512 229.176 59.88 229.416 60.312 229.608C60.76 229.784 61.384 229.992 62.184 230.232C63.272 230.552 64.16 230.872 64.848 231.192C65.536 231.512 66.128 231.992 66.624 232.632C67.12 233.272 67.368 234.112 67.368 235.152C67.368 236.048 67.136 236.88 66.672 237.648C66.208 238.416 65.528 239.032 64.632 239.496C63.736 239.944 62.672 240.168 61.44 240.168ZM82.641 233.064C82.641 233.544 82.609 233.976 82.545 234.36H72.825C72.905 235.32 73.241 236.072 73.833 236.616C74.425 237.16 75.153 237.432 76.017 237.432C77.265 237.432 78.153 236.896 78.681 235.824H82.305C81.921 237.104 81.185 238.16 80.097 238.992C79.009 239.808 77.673 240.216 76.089 240.216C74.809 240.216 73.657 239.936 72.633 239.376C71.625 238.8 70.833 237.992 70.257 236.952C69.697 235.912 69.417 234.712 69.417 233.352C69.417 231.976 69.697 230.768 70.257 229.728C70.817 228.688 71.601 227.888 72.609 227.328C73.617 226.768 74.777 226.488 76.089 226.488C77.353 226.488 78.481 226.76 79.473 227.304C80.481 227.848 81.257 228.624 81.801 229.632C82.361 230.624 82.641 231.768 82.641 233.064ZM79.161 232.104C79.145 231.24 78.833 230.552 78.225 230.04C77.617 229.512 76.873 229.248 75.993 229.248C75.161 229.248 74.457 229.504 73.881 230.016C73.321 230.512 72.977 231.208 72.849 232.104H79.161ZM88.4535 222.24V240H85.0935V222.24H88.4535ZM97.8692 229.464H95.5412V240H92.1332V229.464H90.6212V226.704H92.1332V226.032C92.1332 224.4 92.5972 223.2 93.5252 222.432C94.4532 221.664 95.8532 221.304 97.7252 221.352V224.184C96.9092 224.168 96.3412 224.304 96.0212 224.592C95.7012 224.88 95.5412 225.4 95.5412 226.152V226.704H97.8692V229.464ZM117.165 223.248V225.96H112.701V240H109.341V225.96H104.877V223.248H117.165ZM118.753 233.304C118.753 231.96 119.017 230.768 119.545 229.728C120.089 228.688 120.817 227.888 121.729 227.328C122.657 226.768 123.689 226.488 124.825 226.488C125.817 226.488 126.681 226.688 127.417 227.088C128.169 227.488 128.769 227.992 129.217 228.6V226.704H132.601V240H129.217V238.056C128.785 238.68 128.185 239.2 127.417 239.616C126.665 240.016 125.793 240.216 124.801 240.216C123.681 240.216 122.657 239.928 121.729 239.352C120.817 238.776 120.089 237.968 119.545 236.928C119.017 235.872 118.753 234.664 118.753 233.304ZM129.217 233.352C129.217 232.536 129.057 231.84 128.737 231.264C128.417 230.672 127.985 230.224 127.441 229.92C126.897 229.6 126.313 229.44 125.689 229.44C125.065 229.44 124.489 229.592 123.961 229.896C123.433 230.2 123.001 230.648 122.665 231.24C122.345 231.816 122.185 232.504 122.185 233.304C122.185 234.104 122.345 234.808 122.665 235.416C123.001 236.008 123.433 236.464 123.961 236.784C124.505 237.104 125.081 237.264 125.689 237.264C126.313 237.264 126.897 237.112 127.441 236.808C127.985 236.488 128.417 236.04 128.737 235.464C129.057 234.872 129.217 234.168 129.217 233.352ZM139.243 228.624C139.675 228.016 140.267 227.512 141.019 227.112C141.787 226.696 142.659 226.488 143.635 226.488C144.771 226.488 145.795 226.768 146.707 227.328C147.635 227.888 148.363 228.688 148.891 229.728C149.435 230.752 149.707 231.944 149.707 233.304C149.707 234.664 149.435 235.872 148.891 236.928C148.363 237.968 147.635 238.776 146.707 239.352C145.795 239.928 144.771 240.216 143.635 240.216C142.659 240.216 141.795 240.016 141.043 239.616C140.307 239.216 139.707 238.712 139.243 238.104V246.336H135.883V226.704H139.243V228.624ZM146.275 233.304C146.275 232.504 146.107 231.816 145.771 231.24C145.451 230.648 145.019 230.2 144.475 229.896C143.947 229.592 143.371 229.44 142.747 229.44C142.139 229.44 141.563 229.6 141.019 229.92C140.491 230.224 140.059 230.672 139.723 231.264C139.403 231.856 139.243 232.552 139.243 233.352C139.243 234.152 139.403 234.848 139.723 235.44C140.059 236.032 140.491 236.488 141.019 236.808C141.563 237.112 142.139 237.264 142.747 237.264C143.371 237.264 143.947 237.104 144.475 236.784C145.019 236.464 145.451 236.008 145.771 235.416C146.107 234.824 146.275 234.12 146.275 233.304ZM164.508 233.064C164.508 233.544 164.476 233.976 164.412 234.36H154.692C154.772 235.32 155.108 236.072 155.7 236.616C156.292 237.16 157.02 237.432 157.884 237.432C159.132 237.432 160.02 236.896 160.548 235.824H164.172C163.788 237.104 163.052 238.16 161.964 238.992C160.876 239.808 159.54 240.216 157.956 240.216C156.676 240.216 155.524 239.936 154.5 239.376C153.492 238.8 152.7 237.992 152.124 236.952C151.564 235.912 151.284 234.712 151.284 233.352C151.284 231.976 151.564 230.768 152.124 229.728C152.684 228.688 153.468 227.888 154.476 227.328C155.484 226.768 156.644 226.488 157.956 226.488C159.22 226.488 160.348 226.76 161.34 227.304C162.348 227.848 163.124 228.624 163.668 229.632C164.228 230.624 164.508 231.768 164.508 233.064ZM161.028 232.104C161.012 231.24 160.7 230.552 160.092 230.04C159.484 229.512 158.74 229.248 157.86 229.248C157.028 229.248 156.324 229.504 155.748 230.016C155.188 230.512 154.844 231.208 154.716 232.104H161.028ZM172.049 240.216C170.961 240.216 169.985 240.024 169.121 239.64C168.257 239.24 167.569 238.704 167.057 238.032C166.561 237.36 166.289 236.616 166.241 235.8H169.625C169.689 236.312 169.937 236.736 170.369 237.072C170.817 237.408 171.369 237.576 172.025 237.576C172.665 237.576 173.161 237.448 173.513 237.192C173.881 236.936 174.065 236.608 174.065 236.208C174.065 235.776 173.841 235.456 173.393 235.248C172.961 235.024 172.265 234.784 171.305 234.528C170.313 234.288 169.497 234.04 168.857 233.784C168.233 233.528 167.689 233.136 167.225 232.608C166.777 232.08 166.553 231.368 166.553 230.472C166.553 229.736 166.761 229.064 167.177 228.456C167.609 227.848 168.217 227.368 169.001 227.016C169.801 226.664 170.737 226.488 171.809 226.488C173.393 226.488 174.657 226.888 175.601 227.688C176.545 228.472 177.065 229.536 177.161 230.88H173.945C173.897 230.352 173.673 229.936 173.273 229.632C172.889 229.312 172.369 229.152 171.713 229.152C171.105 229.152 170.633 229.264 170.297 229.488C169.977 229.712 169.817 230.024 169.817 230.424C169.817 230.872 170.041 231.216 170.489 231.456C170.937 231.68 171.633 231.912 172.577 232.152C173.537 232.392 174.329 232.64 174.953 232.896C175.577 233.152 176.113 233.552 176.561 234.096C177.025 234.624 177.265 235.328 177.281 236.208C177.281 236.976 177.065 237.664 176.633 238.272C176.217 238.88 175.609 239.36 174.809 239.712C174.025 240.048 173.105 240.216 172.049 240.216ZM183.711 236.472L180.903 243.216H178.743L180.303 236.472H183.711ZM210.115 223.248V240H206.755V229.104L202.267 240H199.723L195.211 229.104V240H191.851V223.248H195.667L200.995 235.704L206.323 223.248H210.115ZM212.573 233.304C212.573 231.96 212.837 230.768 213.365 229.728C213.909 228.688 214.637 227.888 215.549 227.328C216.477 226.768 217.509 226.488 218.645 226.488C219.637 226.488 220.501 226.688 221.237 227.088C221.989 227.488 222.589 227.992 223.037 228.6V226.704H226.421V240H223.037V238.056C222.605 238.68 222.005 239.2 221.237 239.616C220.485 240.016 219.613 240.216 218.621 240.216C217.501 240.216 216.477 239.928 215.549 239.352C214.637 238.776 213.909 237.968 213.365 236.928C212.837 235.872 212.573 234.664 212.573 233.304ZM223.037 233.352C223.037 232.536 222.877 231.84 222.557 231.264C222.237 230.672 221.805 230.224 221.261 229.92C220.717 229.6 220.133 229.44 219.509 229.44C218.885 229.44 218.309 229.592 217.781 229.896C217.253 230.2 216.821 230.648 216.485 231.24C216.165 231.816 216.005 232.504 216.005 233.304C216.005 234.104 216.165 234.808 216.485 235.416C216.821 236.008 217.253 236.464 217.781 236.784C218.325 237.104 218.901 237.264 219.509 237.264C220.133 237.264 220.717 237.112 221.261 236.808C221.805 236.488 222.237 236.04 222.557 235.464C222.877 234.872 223.037 234.168 223.037 233.352ZM228.839 233.304C228.839 231.96 229.103 230.768 229.631 229.728C230.175 228.688 230.911 227.888 231.839 227.328C232.767 226.768 233.799 226.488 234.935 226.488C235.799 226.488 236.623 226.68 237.407 227.064C238.191 227.432 238.815 227.928 239.279 228.552V222.24H242.687V240H239.279V238.032C238.863 238.688 238.279 239.216 237.527 239.616C236.775 240.016 235.903 240.216 234.911 240.216C233.791 240.216 232.767 239.928 231.839 239.352C230.911 238.776 230.175 237.968 229.631 236.928C229.103 235.872 228.839 234.664 228.839 233.304ZM239.303 233.352C239.303 232.536 239.143 231.84 238.823 231.264C238.503 230.672 238.071 230.224 237.527 229.92C236.983 229.6 236.399 229.44 235.775 229.44C235.151 229.44 234.575 229.592 234.047 229.896C233.519 230.2 233.087 230.648 232.751 231.24C232.431 231.816 232.271 232.504 232.271 233.304C232.271 234.104 232.431 234.808 232.751 235.416C233.087 236.008 233.519 236.464 234.047 236.784C234.591 237.104 235.167 237.264 235.775 237.264C236.399 237.264 236.983 237.112 237.527 236.808C238.071 236.488 238.503 236.04 238.823 235.464C239.143 234.872 239.303 234.168 239.303 233.352ZM258.329 233.064C258.329 233.544 258.297 233.976 258.233 234.36H248.513C248.593 235.32 248.929 236.072 249.521 236.616C250.113 237.16 250.841 237.432 251.705 237.432C252.953 237.432 253.841 236.896 254.369 235.824H257.993C257.609 237.104 256.873 238.16 255.785 238.992C254.697 239.808 253.361 240.216 251.777 240.216C250.497 240.216 249.345 239.936 248.321 239.376C247.313 238.8 246.521 237.992 245.945 236.952C245.385 235.912 245.104 234.712 245.104 233.352C245.104 231.976 245.385 230.768 245.945 229.728C246.505 228.688 247.289 227.888 248.297 227.328C249.305 226.768 250.465 226.488 251.777 226.488C253.041 226.488 254.169 226.76 255.161 227.304C256.169 227.848 256.945 228.624 257.489 229.632C258.049 230.624 258.329 231.768 258.329 233.064ZM254.849 232.104C254.833 231.24 254.521 230.552 253.913 230.04C253.305 229.512 252.561 229.248 251.681 229.248C250.849 229.248 250.145 229.504 249.569 230.016C249.009 230.512 248.665 231.208 248.537 232.104H254.849ZM269.86 225.96V230.16H275.5V232.824H269.86V237.264H276.22V240H266.5V223.224H276.22V225.96H269.86ZM278.409 233.304C278.409 231.96 278.673 230.768 279.201 229.728C279.745 228.688 280.473 227.888 281.385 227.328C282.313 226.768 283.345 226.488 284.481 226.488C285.473 226.488 286.337 226.688 287.073 227.088C287.825 227.488 288.425 227.992 288.873 228.6V226.704H292.257V240H288.873V238.056C288.441 238.68 287.841 239.2 287.073 239.616C286.321 240.016 285.449 240.216 284.457 240.216C283.337 240.216 282.313 239.928 281.385 239.352C280.473 238.776 279.745 237.968 279.201 236.928C278.673 235.872 278.409 234.664 278.409 233.304ZM288.873 233.352C288.873 232.536 288.713 231.84 288.393 231.264C288.073 230.672 287.641 230.224 287.097 229.92C286.553 229.6 285.969 229.44 285.345 229.44C284.721 229.44 284.145 229.592 283.617 229.896C283.089 230.2 282.657 230.648 282.321 231.24C282.001 231.816 281.841 232.504 281.841 233.304C281.841 234.104 282.001 234.808 282.321 235.416C282.657 236.008 283.089 236.464 283.617 236.784C284.161 237.104 284.737 237.264 285.345 237.264C285.969 237.264 286.553 237.112 287.097 236.808C287.641 236.488 288.073 236.04 288.393 235.464C288.713 234.872 288.873 234.168 288.873 233.352ZM300.627 240.216C299.539 240.216 298.563 240.024 297.699 239.64C296.835 239.24 296.147 238.704 295.635 238.032C295.139 237.36 294.867 236.616 294.819 235.8H298.203C298.267 236.312 298.515 236.736 298.947 237.072C299.395 237.408 299.947 237.576 300.603 237.576C301.243 237.576 301.739 237.448 302.091 237.192C302.459 236.936 302.643 236.608 302.643 236.208C302.643 235.776 302.419 235.456 301.971 235.248C301.539 235.024 300.843 234.784 299.883 234.528C298.891 234.288 298.075 234.04 297.435 233.784C296.811 233.528 296.267 233.136 295.803 232.608C295.355 232.08 295.131 231.368 295.131 230.472C295.131 229.736 295.339 229.064 295.755 228.456C296.187 227.848 296.795 227.368 297.579 227.016C298.379 226.664 299.315 226.488 300.387 226.488C301.971 226.488 303.235 226.888 304.179 227.688C305.123 228.472 305.643 229.536 305.739 230.88H302.523C302.475 230.352 302.251 229.936 301.851 229.632C301.467 229.312 300.947 229.152 300.291 229.152C299.683 229.152 299.211 229.264 298.875 229.488C298.555 229.712 298.395 230.024 298.395 230.424C298.395 230.872 298.619 231.216 299.067 231.456C299.515 231.68 300.211 231.912 301.155 232.152C302.115 232.392 302.907 232.64 303.531 232.896C304.155 233.152 304.691 233.552 305.139 234.096C305.603 234.624 305.843 235.328 305.859 236.208C305.859 236.976 305.643 237.664 305.211 238.272C304.795 238.88 304.187 239.36 303.387 239.712C302.603 240.048 301.683 240.216 300.627 240.216ZM321.337 226.704L313.105 246.288H309.529L312.409 239.664L307.081 226.704H310.849L314.281 235.992L317.761 226.704H321.337Z" fill="white"/>
<path d="M220.165 135.669C219.936 135.783 219.606 136.084 219.448 136.342C219.19 136.772 219.176 137.088 219.176 141.029C219.176 144.913 219.205 145.3 219.448 145.816C219.62 146.16 221.34 147.879 224.221 150.602L228.707 154.845V157.682V160.52H226.055H223.404V157.654V154.787H221.24H219.09L219.133 158.786C219.19 164.519 218.646 164.103 226.055 164.103C231.888 164.103 231.989 164.089 232.634 163.2C232.92 162.813 232.935 162.613 232.935 158.256C232.935 153.784 232.935 153.698 232.605 153.139C232.419 152.824 230.326 150.746 227.847 148.41L223.418 144.253L223.404 141.631V139.022H226.055H228.707V141.674V144.325H230.871H233.021L232.978 140.556C232.935 136.357 232.877 136.113 231.946 135.669C231.516 135.468 230.756 135.439 226.027 135.439C221.498 135.439 220.537 135.482 220.165 135.669Z" fill="white"/>
<path d="M236.446 149.771V164.103H242.393H248.341V162.239V160.376H244.471H240.602L240.63 155.819L240.673 151.276L243.941 151.233L247.194 151.204V149.412V147.621H243.898H240.602V143.393V139.165H244.4H248.198V137.302V135.439H242.322H236.446V149.771Z" fill="white"/>
<path d="M251.351 149.771V164.103H256.94H262.529V162.239V160.376H259.018H255.507V147.908V135.439H253.429H251.351V149.771Z" fill="white"/>
<path d="M265.109 149.771V164.103H267.259H269.409V157.725V151.347H272.562H275.715V149.556V147.764H272.562H269.409V143.465V139.165H273.135H276.861V137.302V135.439H270.985H265.109V149.771Z" fill="white"/>
<path d="M98 150.345V168.689H157.62H217.241V150.345V132H157.62H98V150.345ZM119.168 135.511C119.87 135.798 120.186 136.242 120.358 137.174C120.558 138.22 120.544 150.947 120.343 151.935C120.257 152.365 120.186 152.795 120.171 152.881C120.171 152.982 119.842 153.225 119.44 153.426C118.724 153.784 118.695 153.784 114.811 153.784H110.899L110.87 158.987L110.827 164.175L108.649 164.218L106.456 164.261V149.771V135.296H112.547C117.692 135.296 118.709 135.325 119.168 135.511ZM135.263 137.303V139.309H131.536H127.81V143.394V147.478H131.035H134.26V149.413V151.348H131.035H127.81V155.791V160.234H131.608H135.406V162.24V164.247H129.387H123.367V149.771V135.296H129.315H135.263V137.303ZM151.357 135.626C151.587 135.769 151.888 136.084 152.045 136.342C152.303 136.787 152.318 137.059 152.289 143.351L152.246 149.886L151.888 150.273C151.343 150.846 151.071 150.961 149.767 151.076C149.107 151.133 148.534 151.219 148.491 151.262C148.376 151.377 149.494 154.343 149.623 154.272C149.681 154.229 149.695 154.286 149.666 154.386C149.595 154.558 150.311 156.751 150.569 157.138C150.612 157.224 150.684 157.396 150.698 157.511C150.712 157.625 151.243 159.144 151.888 160.864C152.518 162.598 153.034 164.075 153.034 164.132C153.034 164.189 152.017 164.247 150.755 164.247H148.477L147.817 162.34C145.467 155.69 143.948 151.506 143.862 151.563C143.819 151.592 143.762 150.818 143.733 149.829L143.69 148.052H145.782H147.875V143.609V139.166H145.295H142.715L142.687 151.663L142.644 164.175L140.465 164.218L138.272 164.261V149.771V135.282L144.621 135.325C150.454 135.368 150.999 135.382 151.357 135.626ZM167.438 137.303V139.237L163.754 139.28L160.057 139.309V143.465V147.622H163.21H166.363V149.556V151.491H163.21H160.057L160.028 157.826L159.985 164.175L157.807 164.218L155.614 164.261V149.771V135.296L161.533 135.325L167.438 135.368V137.303ZM181.698 137.303V139.309H177.972H174.245V143.394V147.478H177.47H180.695V149.413V151.348H177.47H174.245V155.791V160.234L178.015 160.262L181.77 160.305L181.813 162.283L181.856 164.247H175.822H169.802V149.771V135.296H175.75H181.698V137.303ZM197.993 135.669C198.853 136.299 198.896 136.543 198.896 140.929V144.913L196.718 144.87L194.525 144.827L194.482 141.989L194.453 139.166H191.73H189.007V149.771V160.377H191.73H194.453V157.367V154.358H196.675H198.896L198.91 154.816C198.925 155.074 198.925 155.332 198.91 155.389C198.91 155.432 198.896 157.152 198.896 159.202L198.882 162.928L198.423 163.43C198.165 163.702 197.75 164.003 197.477 164.089C196.847 164.29 186.857 164.304 186.126 164.103C185.367 163.888 184.88 163.286 184.708 162.355C184.607 161.824 184.564 157.296 184.593 149.255C184.636 137.432 184.65 136.916 184.908 136.385C185.109 135.998 185.367 135.755 185.768 135.569C186.313 135.311 186.743 135.296 191.974 135.325C197.391 135.368 197.606 135.382 197.993 135.669ZM214.776 137.26L214.733 139.237L212.411 139.28L210.075 139.309V151.778V164.247H207.853H205.632V151.778V139.309L203.31 139.28L200.974 139.237L200.931 137.26L200.888 135.296H207.853H214.819L214.776 137.26Z" fill="white"/>
<path d="M110.898 144.54V149.914H113.406H115.914V144.54V139.165H113.406H110.898V144.54Z" fill="white"/>
<defs>
<linearGradient id="paint0_linear_0_1" x1="94.5" y1="81" x2="707.5" y2="329" gradientUnits="userSpaceOnUse">
<stop stop-color="#7587D9"/>
<stop offset="1" stop-color="#007EA7"/>
</linearGradient>
</defs>
</svg>
