<?xml version="1.0" encoding="utf-8"?>
<!-- Generator: Adobe Illustrator 19.0.0, SVG Export Plug-In . SVG Version: 6.00 Build 0)  -->
<svg version="1.1" id="Layer_1" xmlns="http://www.w3.org/2000/svg" xmlns:xlink="http://www.w3.org/1999/xlink" x="0px" y="0px"
	 viewBox="-287 378 37 37" style="enable-background:new -287 378 37 37;" xml:space="preserve">
<style type="text/css">
	.st0{fill:#FFFFFF;fill-opacity:0.23;stroke:#FFFFFF;}
	.st1{fill:#FFFFFF;}
</style>
<path class="st0" d="M-279.5,379h22c3.6,0,6.5,2.9,6.5,6.5v22c0,3.6-2.9,6.5-6.5,6.5h-22c-3.6,0-6.5-2.9-6.5-6.5v-22
	C-286,381.9-283.1,379-279.5,379z"/>
<path class="st1" d="M-269.3,387c-0.6,0.1-1.1,0.4-1.5,0.7c-0.9,0.7-1.5,1.6-1.6,2.8c-0.1,0.6-0.1,5.7,0,6.2
	c0.1,1.6,1.2,2.9,2.8,3.4c0.3,0.1,0.4,0.1,1.1,0.1c0.7,0,0.7,0,1.1-0.1c1.6-0.5,2.6-1.8,2.8-3.4c0.1-0.6,0.1-5.7,0-6.2
	c-0.1-1.6-1.2-2.9-2.8-3.4c-0.3-0.1-0.4-0.1-1-0.1C-268.8,387-269.1,387-269.3,387z M-267.8,388.3c0.7,0.2,1.4,0.7,1.7,1.4
	c0.3,0.6,0.3,0.6,0.3,4s0,3.4-0.3,4c-0.3,0.7-1,1.2-1.7,1.4c-0.3,0.1-0.9,0.1-1.2,0c-0.7-0.2-1.4-0.7-1.7-1.4
	c-0.3-0.6-0.3-0.6-0.3-4s0-3.4,0.3-4c0.1-0.3,0.2-0.4,0.5-0.7c0.3-0.3,0.4-0.3,0.7-0.5c0.2-0.1,0.5-0.2,0.6-0.2s0.2-0.1,0.3-0.1
	C-268.7,388.2-268.1,388.2-267.8,388.3z"/>
<path class="st1" d="M-275.3,395.9c-0.2,0.1-0.3,0.3-0.3,0.7c0,1.1,0.3,2.3,0.9,3.3c0.4,0.7,1,1.5,1.7,2c1,0.8,2.4,1.4,3.6,1.5
	l0.3,0v1v1h-1.4c-1.2,0-1.4,0-1.5,0.1c-0.4,0.2-0.4,0.7-0.1,1l0.1,0.1h3.5h3.5l0.1-0.1c0.3-0.3,0.2-0.8-0.1-1
	c-0.1-0.1-0.3-0.1-1.5-0.1h-1.4v-1v-1l0.3,0c0.9-0.1,2.1-0.5,3-1.1c0.9-0.6,1.8-1.5,2.3-2.4c0.6-1,0.9-2.3,0.9-3.3
	c0-0.4-0.1-0.6-0.3-0.7c-0.2-0.1-0.4-0.1-0.6,0c-0.2,0.1-0.3,0.3-0.3,0.7c-0.1,1.7-0.7,3-1.8,4.1c-1.1,1-2.5,1.6-4,1.6
	s-2.9-0.6-4-1.6c-1.2-1.1-1.7-2.4-1.8-4.1c0-0.4-0.1-0.6-0.3-0.7C-274.9,395.8-275.1,395.8-275.3,395.9z"/>
</svg>
