<?xml version="1.0" encoding="utf-8"?>
<!-- Generator: Adobe Illustrator 19.0.0, SVG Export Plug-In . SVG Version: 6.00 Build 0)  -->
<svg version="1.1" id="Layer_1" xmlns="http://www.w3.org/2000/svg" xmlns:xlink="http://www.w3.org/1999/xlink" x="0px" y="0px"
	 viewBox="-287 378 37 37" style="enable-background:new -287 378 37 37;" xml:space="preserve">
<style type="text/css">
	.st0{fill:#FFFFFF;fill-opacity:0.23;stroke:#FFFFFF;}
	.st1{fill:#FFFFFF;}
</style>
<path class="st0" d="M-279.5,379h22c3.6,0,6.5,2.9,6.5,6.5v22c0,3.6-2.9,6.5-6.5,6.5h-22c-3.6,0-6.5-2.9-6.5-6.5v-22
	C-286,381.9-283.1,379-279.5,379z"/>
<g transform="translate(0.000000,768.000000) scale(0.100000,-0.100000)">
	<path class="st1" d="M-2598.7,3595.3l-42.1,52.9l-18.5-18.5h-21.8l-10.1,10.1c-3.9,3.9-6.7,6.7-8.3,8.1c-1.6-1.9-5-6-10-12.3
		c-6.1-7.7-15.6-19.6-21.2-26.5l-10.7-13.4h-19.3l-0.4,3.3c-0.2,1.9,0.9,3.8,11.8,17.4c4.6,5.8,65.9,82.8,65.9,82.8v34.1h-2.5
		c-5.3,0-6.3,1-6.6,1.3c-1,1-1.3,2.4-1.3,15.2v11.1h-13.7l-3.5-3.4c-12.7-12.4-36.8-22.6-60-25.3c-6.8-0.8-11.2-1.1-13.9-1.1
		c-2,0-3.2,0.2-4,0.6l-2.4,1.4v49.7c0,49.4,0.3,49.7,1.3,50.8c0.7,0.7,1.9,1.3,6,1.3c7.4,0,22.6-2.2,33.6-5.4
		c16.8-4.8,31.7-13,41-22.5l2.1-2.2h36.4c38.1,0,38.4-0.3,39.4-1.5c1.6-1.9,1.6-38.8,0-40.7c-1.1-1.4-3.1-1.6-9.8-1.6h-5.6
		l-0.1-11.6l-0.2-15.6l-10.1-0.4v-33.8c0,0,57.2-71.8,64.4-80.9c0.5-0.7,13.2-16.5,13.7-17.8c0.5-1.1,0.2-2.8-0.7-3.8
		c-1.2-1.4-3.1-1.6-10-1.6H-2598.7z M-2591.8,3603.6c-4.9,6.3-19.5,24.7-52.8,66.6c-6.6,8.3-10.4,13-12.5,15.6v-3.4l10.5-13.1
		c4.3-5.5,31.9-40.2,31.9-40.2l20.5-25.7H-2591.8z M-2745.7,3603.6l62.4,78.6v3.4c-0.8-1-1.7-2.1-2.6-3.3
		c-6.8-8.6-25.4-32.1-48-60.4c-7.4-9.3-12.1-15.4-14.4-18.3H-2745.7z M-2662.8,3637.9l0.9,0.9c-3.6,0.2-3.6,3.1-3.6,49.9v44.5h-8.9
		v-53c0-37.6-0.4-38.3-0.9-39.1c-0.6-1-1.6-1.9-2.8-2.1l1-1H-2662.8z M-2657.2,3661.4c0-3.1,0-5.9,0.1-8.1c0.8,0.8,7,6.8,7,6.8
		s-6.2,7.8-7,8.7C-2657.2,3666.7-2657.2,3664.2-2657.2,3661.4z M-2689.7,3660.1c0.7-0.9,2.2-2.6,4.3-4.7l2.1-2.1c0,0,0,13.1,0,15.1
		C-2685.6,3665.5-2688.4,3661.8-2689.7,3660.1z M-2782.2,3739.6l4.2,0.2c11.7,0.8,24.5,3.8,36.1,8.4c10.9,4.3,18.1,8.7,24.7,14.9
		l3.4,3.1v32.9l-3.8,3.6c-10.4,10-28.5,18.1-48.6,21.5c-3,0.5-8.3,1.1-11.8,1.4l-4.2,0.3V3739.6z M-2655.1,3741.5v19.3h-30.3v-19.3
		H-2655.1z M-2639.1,3769.1v27.3h-66.5l0.3-27L-2639.1,3769.1z"/>
	<path class="st1" d="M-2788.4,3832c-0.6-0.6-0.7-12.3-0.7-49.3v-48.5l1.3-0.7c1.3-0.7,6.1-0.5,16.8,0.7
		c22.6,2.6,46.5,12.6,58.8,24.8l4,4h8.2h8.3v-13.1c0-9.3,0.2-13.2,0.7-13.8c0.4-0.4,2.6-0.7,5.2-0.7h4.5v-18.4v-18.4l-15.5-19.5
		c-8.5-10.7-20.8-26.2-27.4-34.4c-6.6-8.2-17.2-21.5-23.5-29.4c-8.9-11.2-11.5-14.7-11.3-15.9l0.2-1.5h8.3h8.3l10.1,12.6
		c5.6,6.9,15.1,18.9,21.1,26.5c6.1,7.6,11.2,13.9,11.3,13.9c0.2,0,4.7-4.3,9.9-9.5l9.5-9.5h10.1h10.1l9.7,9.7l9.7,9.8l18.4-23.1
		c10.1-12.7,19.8-24.8,21.5-26.9l3.1-3.9h7.8c6.1,0,7.9,0.2,8.5,0.9c0.4,0.5,0.6,1.3,0.4,1.8c-0.2,0.5-6.2,8.3-13.4,17.3
		c-7.2,9.1-17.2,21.7-22.3,28.1c-5.1,6.4-16.7,21-25.9,32.5l-16.6,20.8v18.2v18.2l5.1,0.2l5,0.2l0.2,13.7l0.1,13.6h7.6
		c5.7,0,7.7,0.2,8.3,0.9c0.9,1.1,0.9,37.1-0.1,38.2c-0.5,0.6-8.8,0.8-37.8,0.8h-37.2l-2.7,2.8c-8.9,9.1-23.7,17.2-40.1,21.9
		C-2764.6,3831.5-2786.3,3834-2788.4,3832z M-2766,3826.3c20.4-3.5,39-11.8,49.7-22l4.4-4.2v-17.3v-17.3l-4-3.7
		c-6.8-6.4-14.2-10.9-25.3-15.3c-11.8-4.7-24.8-7.7-36.7-8.5l-6.3-0.4v45.3v45.3l6.3-0.4C-2774.4,3827.4-2769,3826.8-2766,3826.3z
		 M-2637.1,3782.7v-15.6l-35.1,0.1l-35.1,0.2l-0.2,15.5l-0.1,15.4h35.2h35.2V3782.7z M-2653.1,3751.2v-11.6h-17.2h-17.2v11.6v11.6
		h17.2h17.2V3751.2z M-2663.5,3688.8c0-47.9,0-47.9,2.4-47.9c0.5,0,4.4,3.5,8.7,7.8c6.4,6.3,8,7.5,8.3,6.7s-1.7-3.2-8.7-10.2
		l-9.1-9.1h-8h-8l-9.5,9.5c-7.5,7.5-9.3,9.6-8.7,10.2c0.6,0.6,2.4-0.9,8.6-7c4.3-4.3,8.3-7.8,8.8-7.8c0.6,0,1.3,0.6,1.7,1.2
		c0.4,0.8,0.6,13.8,0.6,38.2c0,20.4,0,41,0,46v9h6.4h6.4V3688.8z M-2681.3,3686.2v-4.8l-13.6-17.1c-19.8-24.9-36.6-46-43.6-54.9
		l-6.2-7.8h-3.6c-2.8,0-3.5,0.2-3.2,0.9c0.2,0.5,7.5,9.8,16.1,20.7c22.6,28.3,41.2,51.7,48,60.4c3.2,4.1,5.9,7.5,6.1,7.5
		C-2681.3,3691.1-2681.3,3688.9-2681.3,3686.2z M-2643.1,3671.5c47.4-59.7,55-69.3,55-69.6c0-0.2-1.7-0.3-3.6-0.3h-3.6l-21.1,26.4
		c-11.6,14.6-25.9,32.6-31.9,40.2l-10.9,13.6v4.8c0,4,0.1,4.7,0.8,3.9C-2657.9,3690-2651,3681.4-2643.1,3671.5z M-2681.3,3661.2
		v-12.8l-5.5,5.5c-3.1,3-5.4,5.8-5.3,6.2c0.3,0.7,10.4,13.7,10.7,13.7C-2681.3,3673.9-2681.3,3668.2-2681.3,3661.2z M-2653.1,3666.9
		l5.6-7l-5.6-5.5c-3.1-3-5.8-5.5-5.9-5.5c-0.1,0-0.2,5.6-0.2,12.6s0.1,12.6,0.2,12.6C-2658.8,3673.9-2656.2,3670.7-2653.1,3666.9z"
		/>
</g>
</svg>
