<svg width="312" height="35" viewBox="0 0 312 35" fill="none" xmlns="http://www.w3.org/2000/svg">
<path d="M0.6865 6.24C0.6865 5.55733 0.803833 4.88 1.0385 4.208C1.28383 3.52533 1.63583 2.91733 2.0945 2.384C2.56383 1.84 3.1345 1.40267 3.8065 1.072C4.4785 0.741333 5.24117 0.575999 6.0945 0.575999C7.10783 0.575999 7.97717 0.805333 8.7025 1.264C9.42783 1.72267 9.9665 2.32 10.3185 3.056L9.1825 3.792C9.01183 3.42933 8.80383 3.12533 8.5585 2.88C8.32383 2.63467 8.0625 2.43733 7.7745 2.288C7.49717 2.13867 7.20917 2.032 6.9105 1.968C6.61183 1.904 6.3185 1.872 6.0305 1.872C5.40117 1.872 4.84117 2.00533 4.3505 2.272C3.8705 2.528 3.46517 2.86933 3.1345 3.296C2.80383 3.712 2.55317 4.18667 2.3825 4.72C2.2225 5.24267 2.1425 5.77067 2.1425 6.304C2.1425 6.90133 2.2385 7.472 2.4305 8.016C2.63317 8.54933 2.9105 9.024 3.2625 9.44C3.6145 9.856 4.0305 10.1867 4.5105 10.432C4.9905 10.6773 5.51317 10.8 6.0785 10.8C6.37717 10.8 6.68117 10.7627 6.9905 10.688C7.3105 10.6133 7.6145 10.496 7.9025 10.336C8.1905 10.1653 8.45717 9.95733 8.7025 9.712C8.9585 9.456 9.1665 9.152 9.3265 8.8L10.5265 9.456C10.3452 9.88267 10.0892 10.2613 9.7585 10.592C9.4385 10.912 9.0705 11.184 8.6545 11.408C8.24917 11.632 7.81717 11.8027 7.3585 11.92C6.89983 12.0373 6.45183 12.096 6.0145 12.096C5.23583 12.096 4.52117 11.9253 3.8705 11.584C3.21983 11.2427 2.6545 10.8 2.1745 10.256C1.70517 9.70133 1.33717 9.07733 1.0705 8.384C0.8145 7.68 0.6865 6.96533 0.6865 6.24ZM15.7528 12.16C15.1234 12.16 14.5474 12.0427 14.0248 11.808C13.5128 11.5733 13.0701 11.2587 12.6968 10.864C12.3341 10.4693 12.0514 10.0107 11.8488 9.488C11.6461 8.96533 11.5448 8.416 11.5448 7.84C11.5448 7.25333 11.6461 6.69867 11.8488 6.176C12.0621 5.65333 12.3501 5.19467 12.7128 4.8C13.0861 4.40533 13.5288 4.09067 14.0408 3.856C14.5634 3.62133 15.1341 3.504 15.7528 3.504C16.3714 3.504 16.9421 3.62133 17.4648 3.856C17.9874 4.09067 18.4301 4.40533 18.7928 4.8C19.1661 5.19467 19.4541 5.65333 19.6568 6.176C19.8701 6.69867 19.9768 7.25333 19.9768 7.84C19.9768 8.416 19.8754 8.96533 19.6728 9.488C19.4701 10.0107 19.1821 10.4693 18.8088 10.864C18.4354 11.2587 17.9874 11.5733 17.4648 11.808C16.9528 12.0427 16.3821 12.16 15.7528 12.16ZM12.9848 7.856C12.9848 8.29333 13.0541 8.69867 13.1928 9.072C13.3421 9.44533 13.5394 9.77067 13.7848 10.048C14.0408 10.3253 14.3341 10.544 14.6648 10.704C15.0061 10.864 15.3688 10.944 15.7528 10.944C16.1368 10.944 16.4941 10.864 16.8248 10.704C17.1661 10.544 17.4648 10.3253 17.7208 10.048C17.9768 9.76 18.1741 9.42933 18.3128 9.056C18.4621 8.672 18.5368 8.26133 18.5368 7.824C18.5368 7.39733 18.4621 6.99733 18.3128 6.624C18.1741 6.24 17.9768 5.90933 17.7208 5.632C17.4648 5.344 17.1661 5.12 16.8248 4.96C16.4941 4.8 16.1368 4.72 15.7528 4.72C15.3688 4.72 15.0061 4.80533 14.6648 4.976C14.3341 5.136 14.0408 5.36 13.7848 5.648C13.5394 5.92533 13.3421 6.256 13.1928 6.64C13.0541 7.01333 12.9848 7.41867 12.9848 7.856ZM28.9309 12H27.5229V7.328C27.5229 6.432 27.3842 5.78133 27.1069 5.376C26.8402 4.97067 26.4295 4.768 25.8749 4.768C25.5869 4.768 25.2989 4.82667 25.0109 4.944C24.7229 5.05067 24.4509 5.2 24.1949 5.392C23.9389 5.584 23.7149 5.81333 23.5229 6.08C23.3309 6.34667 23.1869 6.64 23.0909 6.96V12H21.6829V3.648H22.9629V5.44C23.2935 4.85333 23.7682 4.384 24.3869 4.032C25.0162 3.68 25.6989 3.504 26.4349 3.504C26.9149 3.504 27.3149 3.59467 27.6349 3.776C27.9549 3.94667 28.2109 4.192 28.4029 4.512C28.5949 4.82133 28.7282 5.18933 28.8029 5.616C28.8882 6.04267 28.9309 6.50667 28.9309 7.008V12ZM38.3684 12H36.9604V7.328C36.9604 6.432 36.8217 5.78133 36.5444 5.376C36.2777 4.97067 35.867 4.768 35.3124 4.768C35.0244 4.768 34.7364 4.82667 34.4484 4.944C34.1604 5.05067 33.8884 5.2 33.6324 5.392C33.3764 5.584 33.1524 5.81333 32.9604 6.08C32.7684 6.34667 32.6244 6.64 32.5284 6.96V12H31.1204V3.648H32.4004V5.44C32.731 4.85333 33.2057 4.384 33.8244 4.032C34.4537 3.68 35.1364 3.504 35.8724 3.504C36.3524 3.504 36.7524 3.59467 37.0724 3.776C37.3924 3.94667 37.6484 4.192 37.8404 4.512C38.0324 4.82133 38.1657 5.18933 38.2404 5.616C38.3257 6.04267 38.3684 6.50667 38.3684 7.008V12ZM44.2539 12.16C43.6245 12.16 43.0485 12.048 42.5259 11.824C42.0032 11.5893 41.5552 11.2747 41.1819 10.88C40.8085 10.4853 40.5152 10.0267 40.3019 9.504C40.0992 8.97067 39.9979 8.41067 39.9979 7.824C39.9979 7.23733 40.0992 6.68267 40.3019 6.16C40.5152 5.63733 40.8085 5.17867 41.1819 4.784C41.5659 4.38933 42.0192 4.08 42.5419 3.856C43.0645 3.62133 43.6405 3.504 44.2699 3.504C44.8992 3.504 45.4699 3.62133 45.9819 3.856C46.5045 4.09067 46.9472 4.40533 47.3099 4.8C47.6725 5.184 47.9499 5.63733 48.1419 6.16C48.3445 6.672 48.4459 7.20533 48.4459 7.76C48.4459 7.87733 48.4405 7.984 48.4299 8.08C48.4299 8.176 48.4245 8.25067 48.4139 8.304H41.4859C41.5179 8.72 41.6139 9.09867 41.7739 9.44C41.9339 9.78133 42.1419 10.0747 42.3979 10.32C42.6539 10.5653 42.9419 10.7573 43.2619 10.896C43.5925 11.0347 43.9392 11.104 44.3019 11.104C44.5579 11.104 44.8085 11.072 45.0539 11.008C45.2992 10.9333 45.5285 10.8373 45.7419 10.72C45.9552 10.6027 46.1419 10.4587 46.3019 10.288C46.4725 10.1173 46.6005 9.92533 46.6859 9.712L47.9019 10.048C47.7632 10.3573 47.5712 10.64 47.3259 10.896C47.0912 11.152 46.8139 11.376 46.4939 11.568C46.1845 11.7493 45.8379 11.8933 45.4539 12C45.0699 12.1067 44.6699 12.16 44.2539 12.16ZM47.1179 7.264C47.0859 6.86933 46.9845 6.50667 46.8139 6.176C46.6539 5.83467 46.4459 5.54667 46.1899 5.312C45.9445 5.07733 45.6565 4.896 45.3259 4.768C44.9952 4.62933 44.6432 4.56 44.2699 4.56C43.8965 4.56 43.5445 4.62933 43.2139 4.768C42.8832 4.896 42.5899 5.08267 42.3339 5.328C42.0885 5.56267 41.8859 5.84533 41.7259 6.176C41.5765 6.50667 41.4859 6.86933 41.4539 7.264H47.1179ZM49.451 7.808C49.451 7.22133 49.5523 6.66667 49.755 6.144C49.9577 5.62133 50.2457 5.168 50.619 4.784C50.9923 4.38933 51.435 4.08 51.947 3.856C52.4697 3.62133 53.051 3.504 53.691 3.504C54.523 3.504 55.2377 3.69067 55.835 4.064C56.443 4.42667 56.9017 4.91733 57.211 5.536L55.835 5.968C55.6217 5.57333 55.323 5.26933 54.939 5.056C54.555 4.832 54.1283 4.72 53.659 4.72C53.275 4.72 52.9123 4.8 52.571 4.96C52.2297 5.10933 51.9363 5.32267 51.691 5.6C51.4457 5.87733 51.2483 6.20267 51.099 6.576C50.9603 6.94933 50.891 7.36 50.891 7.808C50.891 8.24533 50.9657 8.656 51.115 9.04C51.2643 9.424 51.4617 9.76 51.707 10.048C51.963 10.3253 52.2563 10.544 52.587 10.704C52.9283 10.864 53.291 10.944 53.675 10.944C53.9203 10.944 54.1603 10.912 54.395 10.848C54.6403 10.7733 54.859 10.6773 55.051 10.56C55.2537 10.4427 55.4297 10.3093 55.579 10.16C55.7283 10 55.835 9.82933 55.899 9.648L57.275 10.064C57.147 10.3733 56.9657 10.656 56.731 10.912C56.507 11.168 56.2403 11.3867 55.931 11.568C55.6217 11.7493 55.275 11.8933 54.891 12C54.5177 12.1067 54.123 12.16 53.707 12.16C53.0777 12.16 52.5017 12.0427 51.979 11.808C51.4563 11.5733 51.0083 11.2587 50.635 10.864C50.2617 10.4693 49.9683 10.0107 49.755 9.488C49.5523 8.95467 49.451 8.39467 49.451 7.808ZM63.1904 11.584C63.105 11.6267 62.993 11.68 62.8544 11.744C62.7157 11.7973 62.5557 11.856 62.3744 11.92C62.2037 11.9733 62.0117 12.016 61.7984 12.048C61.5957 12.0907 61.3824 12.112 61.1584 12.112C60.6464 12.112 60.2037 11.9733 59.8304 11.696C59.457 11.408 59.2704 10.9653 59.2704 10.368V4.752H58.1344V3.648H59.2704V0.863999H60.6784V3.648H62.5504V4.752H60.6784V9.936C60.6997 10.2453 60.801 10.4693 60.9824 10.608C61.1637 10.7467 61.377 10.816 61.6224 10.816C61.8997 10.816 62.1504 10.7733 62.3744 10.688C62.609 10.592 62.769 10.5173 62.8544 10.464L63.1904 11.584ZM72.3638 0.704H73.7238L75.2278 4.656L76.7478 0.704H78.1078L76.1398 5.648L78.0918 10.336L81.9318 0.639999H83.4998L78.7478 12H77.4998L75.2438 6.64L72.9718 12H71.7238L66.9878 0.639999H68.5398L72.3958 10.336L74.3318 5.648L72.3638 0.704ZM84.761 12V3.648H86.169V12H84.761ZM84.761 2.08V0.32H86.169V2.08H84.761ZM92.7685 11.584C92.6832 11.6267 92.5712 11.68 92.4325 11.744C92.2938 11.7973 92.1338 11.856 91.9525 11.92C91.7818 11.9733 91.5898 12.016 91.3765 12.048C91.1738 12.0907 90.9605 12.112 90.7365 12.112C90.2245 12.112 89.7818 11.9733 89.4085 11.696C89.0352 11.408 88.8485 10.9653 88.8485 10.368V4.752H87.7125V3.648H88.8485V0.863999H90.2565V3.648H92.1285V4.752H90.2565V9.936C90.2778 10.2453 90.3792 10.4693 90.5605 10.608C90.7418 10.7467 90.9552 10.816 91.2005 10.816C91.4778 10.816 91.7285 10.7733 91.9525 10.688C92.1872 10.592 92.3472 10.5173 92.4325 10.464L92.7685 11.584ZM101.322 12H99.9135V7.328C99.9135 6.464 99.7642 5.824 99.4655 5.408C99.1668 4.98133 98.7295 4.768 98.1535 4.768C97.8762 4.768 97.5988 4.82667 97.3215 4.944C97.0442 5.05067 96.7828 5.2 96.5375 5.392C96.3028 5.584 96.0895 5.81333 95.8975 6.08C95.7162 6.34667 95.5775 6.64 95.4815 6.96V12H94.0735V0.32H95.4815V5.44C95.8122 4.832 96.2602 4.35733 96.8255 4.016C97.3908 3.67467 98.0095 3.504 98.6815 3.504C99.1722 3.504 99.5882 3.59467 99.9295 3.776C100.271 3.95733 100.543 4.20267 100.746 4.512C100.948 4.82133 101.092 5.19467 101.178 5.632C101.274 6.05867 101.322 6.51733 101.322 7.008V12ZM107.782 12V0.639999H112.646C113.147 0.639999 113.606 0.746666 114.022 0.959999C114.449 1.16267 114.811 1.44 115.11 1.792C115.419 2.13333 115.659 2.52267 115.83 2.96C116.001 3.38667 116.086 3.824 116.086 4.272C116.086 4.66667 116.027 5.05067 115.91 5.424C115.803 5.78667 115.643 6.11733 115.43 6.416C115.227 6.71467 114.977 6.97067 114.678 7.184C114.39 7.39733 114.065 7.552 113.702 7.648L116.454 12H114.822L112.23 7.92H109.222V12H107.782ZM109.222 6.64H112.662C112.961 6.64 113.227 6.576 113.462 6.448C113.707 6.32 113.915 6.14933 114.086 5.936C114.257 5.712 114.39 5.456 114.486 5.168C114.582 4.88 114.63 4.58133 114.63 4.272C114.63 3.952 114.571 3.65333 114.454 3.376C114.347 3.088 114.198 2.83733 114.006 2.624C113.825 2.4 113.606 2.22933 113.35 2.112C113.105 1.984 112.843 1.92 112.566 1.92H109.222V6.64ZM121.504 12.16C120.875 12.16 120.299 12.048 119.776 11.824C119.253 11.5893 118.805 11.2747 118.432 10.88C118.059 10.4853 117.765 10.0267 117.552 9.504C117.349 8.97067 117.248 8.41067 117.248 7.824C117.248 7.23733 117.349 6.68267 117.552 6.16C117.765 5.63733 118.059 5.17867 118.432 4.784C118.816 4.38933 119.269 4.08 119.792 3.856C120.315 3.62133 120.891 3.504 121.52 3.504C122.149 3.504 122.72 3.62133 123.232 3.856C123.755 4.09067 124.197 4.40533 124.56 4.8C124.923 5.184 125.2 5.63733 125.392 6.16C125.595 6.672 125.696 7.20533 125.696 7.76C125.696 7.87733 125.691 7.984 125.68 8.08C125.68 8.176 125.675 8.25067 125.664 8.304H118.736C118.768 8.72 118.864 9.09867 119.024 9.44C119.184 9.78133 119.392 10.0747 119.648 10.32C119.904 10.5653 120.192 10.7573 120.512 10.896C120.843 11.0347 121.189 11.104 121.552 11.104C121.808 11.104 122.059 11.072 122.304 11.008C122.549 10.9333 122.779 10.8373 122.992 10.72C123.205 10.6027 123.392 10.4587 123.552 10.288C123.723 10.1173 123.851 9.92533 123.936 9.712L125.152 10.048C125.013 10.3573 124.821 10.64 124.576 10.896C124.341 11.152 124.064 11.376 123.744 11.568C123.435 11.7493 123.088 11.8933 122.704 12C122.32 12.1067 121.92 12.16 121.504 12.16ZM124.368 7.264C124.336 6.86933 124.235 6.50667 124.064 6.176C123.904 5.83467 123.696 5.54667 123.44 5.312C123.195 5.07733 122.907 4.896 122.576 4.768C122.245 4.62933 121.893 4.56 121.52 4.56C121.147 4.56 120.795 4.62933 120.464 4.768C120.133 4.896 119.84 5.08267 119.584 5.328C119.339 5.56267 119.136 5.84533 118.976 6.176C118.827 6.50667 118.736 6.86933 118.704 7.264H124.368ZM129.405 12.16C129.01 12.16 128.642 12.096 128.301 11.968C127.96 11.8293 127.661 11.6427 127.405 11.408C127.16 11.1733 126.962 10.9013 126.813 10.592C126.674 10.272 126.605 9.92533 126.605 9.552C126.605 9.168 126.69 8.82133 126.861 8.512C127.032 8.192 127.272 7.92 127.581 7.696C127.901 7.472 128.274 7.296 128.701 7.168C129.138 7.04 129.613 6.976 130.125 6.976C130.53 6.976 130.941 7.01333 131.357 7.088C131.773 7.16267 132.141 7.264 132.461 7.392V6.72C132.461 6.03733 132.269 5.504 131.885 5.12C131.501 4.72533 130.957 4.528 130.253 4.528C129.41 4.528 128.525 4.85333 127.597 5.504L127.133 4.592C128.21 3.86667 129.293 3.504 130.381 3.504C131.48 3.504 132.333 3.79733 132.941 4.384C133.56 4.97067 133.869 5.79733 133.869 6.864V10.272C133.869 10.6027 134.018 10.7733 134.317 10.784V12C134.168 12.0213 134.045 12.0373 133.949 12.048C133.853 12.0587 133.752 12.064 133.645 12.064C133.368 12.064 133.144 11.984 132.973 11.824C132.813 11.6533 132.717 11.4507 132.685 11.216L132.653 10.624C132.28 11.1253 131.805 11.5093 131.229 11.776C130.664 12.032 130.056 12.16 129.405 12.16ZM129.773 11.104C130.274 11.104 130.738 11.0133 131.165 10.832C131.602 10.64 131.933 10.3893 132.157 10.08C132.36 9.87733 132.461 9.66933 132.461 9.456V8.224C131.778 7.95733 131.069 7.824 130.333 7.824C129.629 7.824 129.053 7.97333 128.605 8.272C128.168 8.57067 127.949 8.96 127.949 9.44C127.949 9.67467 127.992 9.89333 128.077 10.096C128.173 10.2987 128.301 10.4747 128.461 10.624C128.632 10.7733 128.829 10.8907 129.053 10.976C129.277 11.0613 129.517 11.104 129.773 11.104ZM139.56 12.16C138.984 12.16 138.451 12.0427 137.96 11.808C137.47 11.5733 137.048 11.2587 136.696 10.864C136.344 10.4693 136.067 10.0107 135.864 9.488C135.672 8.96533 135.576 8.416 135.576 7.84C135.576 7.25333 135.667 6.69867 135.848 6.176C136.04 5.64267 136.302 5.17867 136.632 4.784C136.974 4.38933 137.374 4.08 137.832 3.856C138.302 3.62133 138.814 3.504 139.368 3.504C140.04 3.504 140.638 3.68 141.16 4.032C141.694 4.384 142.115 4.81067 142.424 5.312V0.32H143.832V10.272C143.832 10.6027 143.982 10.7733 144.28 10.784V12C144.131 12.0213 144.008 12.0373 143.912 12.048C143.827 12.0587 143.742 12.064 143.656 12.064C143.379 12.064 143.134 11.9733 142.92 11.792C142.718 11.6 142.616 11.3813 142.616 11.136V10.432C142.286 10.976 141.843 11.4027 141.288 11.712C140.744 12.0107 140.168 12.16 139.56 12.16ZM139.896 10.944C140.152 10.944 140.414 10.896 140.68 10.8C140.958 10.704 141.214 10.5707 141.448 10.4C141.694 10.2293 141.902 10.032 142.072 9.808C142.254 9.57333 142.371 9.328 142.424 9.072V6.672C142.328 6.40533 142.184 6.15467 141.992 5.92C141.8 5.67467 141.582 5.46667 141.336 5.296C141.102 5.11467 140.846 4.976 140.568 4.88C140.302 4.77333 140.035 4.72 139.768 4.72C139.352 4.72 138.974 4.81067 138.632 4.992C138.302 5.16267 138.014 5.39733 137.768 5.696C137.534 5.984 137.352 6.32 137.224 6.704C137.096 7.07733 137.032 7.46133 137.032 7.856C137.032 8.272 137.107 8.672 137.256 9.056C137.406 9.42933 137.608 9.75467 137.864 10.032C138.12 10.3093 138.419 10.5333 138.76 10.704C139.112 10.864 139.491 10.944 139.896 10.944ZM149.879 12.16C149.25 12.16 148.674 12.048 148.151 11.824C147.628 11.5893 147.18 11.2747 146.807 10.88C146.434 10.4853 146.14 10.0267 145.927 9.504C145.724 8.97067 145.623 8.41067 145.623 7.824C145.623 7.23733 145.724 6.68267 145.927 6.16C146.14 5.63733 146.434 5.17867 146.807 4.784C147.191 4.38933 147.644 4.08 148.167 3.856C148.69 3.62133 149.266 3.504 149.895 3.504C150.524 3.504 151.095 3.62133 151.607 3.856C152.13 4.09067 152.572 4.40533 152.935 4.8C153.298 5.184 153.575 5.63733 153.767 6.16C153.97 6.672 154.071 7.20533 154.071 7.76C154.071 7.87733 154.066 7.984 154.055 8.08C154.055 8.176 154.05 8.25067 154.039 8.304H147.111C147.143 8.72 147.239 9.09867 147.399 9.44C147.559 9.78133 147.767 10.0747 148.023 10.32C148.279 10.5653 148.567 10.7573 148.887 10.896C149.218 11.0347 149.564 11.104 149.927 11.104C150.183 11.104 150.434 11.072 150.679 11.008C150.924 10.9333 151.154 10.8373 151.367 10.72C151.58 10.6027 151.767 10.4587 151.927 10.288C152.098 10.1173 152.226 9.92533 152.311 9.712L153.527 10.048C153.388 10.3573 153.196 10.64 152.951 10.896C152.716 11.152 152.439 11.376 152.119 11.568C151.81 11.7493 151.463 11.8933 151.079 12C150.695 12.1067 150.295 12.16 149.879 12.16ZM152.743 7.264C152.711 6.86933 152.61 6.50667 152.439 6.176C152.279 5.83467 152.071 5.54667 151.815 5.312C151.57 5.07733 151.282 4.896 150.951 4.768C150.62 4.62933 150.268 4.56 149.895 4.56C149.522 4.56 149.17 4.62933 148.839 4.768C148.508 4.896 148.215 5.08267 147.959 5.328C147.714 5.56267 147.511 5.84533 147.351 6.176C147.202 6.50667 147.111 6.86933 147.079 7.264H152.743ZM160.052 4.88C159.348 4.90133 158.724 5.08267 158.18 5.424C157.647 5.76533 157.268 6.24 157.044 6.848V12H155.636V3.648H156.948V5.584C157.236 5.008 157.615 4.544 158.084 4.192C158.553 3.82933 159.055 3.62667 159.588 3.584C159.695 3.584 159.785 3.584 159.86 3.584C159.935 3.584 159.999 3.58933 160.052 3.6V4.88ZM164.377 12.16C163.705 12.16 163.043 12.0587 162.393 11.856C161.742 11.6427 161.182 11.3387 160.713 10.944L161.321 10C161.811 10.3733 162.302 10.656 162.793 10.848C163.283 11.0293 163.801 11.12 164.345 11.12C164.953 11.12 165.433 11.0027 165.785 10.768C166.147 10.5227 166.329 10.1813 166.329 9.744C166.329 9.54133 166.281 9.37067 166.185 9.232C166.089 9.08267 165.945 8.95467 165.753 8.848C165.561 8.74133 165.315 8.64533 165.016 8.56C164.718 8.47467 164.371 8.384 163.977 8.288C163.475 8.16 163.043 8.03733 162.681 7.92C162.318 7.80267 162.019 7.664 161.785 7.504C161.55 7.344 161.379 7.152 161.273 6.928C161.166 6.704 161.113 6.42667 161.113 6.096C161.113 5.68 161.193 5.312 161.353 4.992C161.523 4.66133 161.753 4.38933 162.041 4.176C162.329 3.952 162.665 3.78667 163.049 3.68C163.443 3.56267 163.865 3.504 164.312 3.504C164.942 3.504 165.529 3.60533 166.073 3.808C166.617 4.01067 167.075 4.27733 167.449 4.608L166.809 5.456C166.457 5.14667 166.062 4.91733 165.625 4.768C165.187 4.608 164.739 4.528 164.281 4.528C163.769 4.528 163.331 4.64 162.969 4.864C162.617 5.07733 162.441 5.424 162.441 5.904C162.441 6.096 162.473 6.256 162.537 6.384C162.611 6.512 162.729 6.624 162.889 6.72C163.049 6.816 163.251 6.90133 163.497 6.976C163.753 7.05067 164.057 7.13067 164.409 7.216C164.963 7.344 165.443 7.47733 165.849 7.616C166.265 7.744 166.606 7.89867 166.873 8.08C167.15 8.26133 167.353 8.47467 167.481 8.72C167.619 8.96533 167.689 9.264 167.689 9.616C167.689 10.3947 167.39 11.0133 166.793 11.472C166.195 11.9307 165.39 12.16 164.377 12.16ZM175.546 12.16C175.151 12.16 174.783 12.096 174.442 11.968C174.1 11.8293 173.802 11.6427 173.546 11.408C173.3 11.1733 173.103 10.9013 172.954 10.592C172.815 10.272 172.746 9.92533 172.746 9.552C172.746 9.168 172.831 8.82133 173.002 8.512C173.172 8.192 173.412 7.92 173.722 7.696C174.042 7.472 174.415 7.296 174.842 7.168C175.279 7.04 175.754 6.976 176.266 6.976C176.671 6.976 177.082 7.01333 177.498 7.088C177.914 7.16267 178.282 7.264 178.602 7.392V6.72C178.602 6.03733 178.41 5.504 178.026 5.12C177.642 4.72533 177.098 4.528 176.394 4.528C175.551 4.528 174.666 4.85333 173.738 5.504L173.274 4.592C174.351 3.86667 175.434 3.504 176.522 3.504C177.62 3.504 178.474 3.79733 179.082 4.384C179.7 4.97067 180.01 5.79733 180.01 6.864V10.272C180.01 10.6027 180.159 10.7733 180.458 10.784V12C180.308 12.0213 180.186 12.0373 180.09 12.048C179.994 12.0587 179.892 12.064 179.786 12.064C179.508 12.064 179.284 11.984 179.114 11.824C178.954 11.6533 178.858 11.4507 178.826 11.216L178.794 10.624C178.42 11.1253 177.946 11.5093 177.37 11.776C176.804 12.032 176.196 12.16 175.546 12.16ZM175.914 11.104C176.415 11.104 176.879 11.0133 177.306 10.832C177.743 10.64 178.074 10.3893 178.298 10.08C178.5 9.87733 178.602 9.66933 178.602 9.456V8.224C177.919 7.95733 177.21 7.824 176.474 7.824C175.77 7.824 175.194 7.97333 174.746 8.272C174.308 8.57067 174.09 8.96 174.09 9.44C174.09 9.67467 174.132 9.89333 174.218 10.096C174.314 10.2987 174.442 10.4747 174.602 10.624C174.772 10.7733 174.97 10.8907 175.194 10.976C175.418 11.0613 175.658 11.104 175.914 11.104ZM189.509 12H188.101V7.328C188.101 6.432 187.962 5.78133 187.685 5.376C187.418 4.97067 187.008 4.768 186.453 4.768C186.165 4.768 185.877 4.82667 185.589 4.944C185.301 5.05067 185.029 5.2 184.773 5.392C184.517 5.584 184.293 5.81333 184.101 6.08C183.909 6.34667 183.765 6.64 183.669 6.96V12H182.261V3.648H183.541V5.44C183.872 4.85333 184.346 4.384 184.965 4.032C185.594 3.68 186.277 3.504 187.013 3.504C187.493 3.504 187.893 3.59467 188.213 3.776C188.533 3.94667 188.789 4.192 188.981 4.512C189.173 4.82133 189.306 5.18933 189.381 5.616C189.466 6.04267 189.509 6.50667 189.509 7.008V12ZM195.139 12.16C194.563 12.16 194.029 12.0427 193.539 11.808C193.048 11.5733 192.627 11.2587 192.275 10.864C191.923 10.4693 191.645 10.0107 191.443 9.488C191.251 8.96533 191.155 8.416 191.155 7.84C191.155 7.25333 191.245 6.69867 191.427 6.176C191.619 5.64267 191.88 5.17867 192.211 4.784C192.552 4.38933 192.952 4.08 193.411 3.856C193.88 3.62133 194.392 3.504 194.947 3.504C195.619 3.504 196.216 3.68 196.739 4.032C197.272 4.384 197.693 4.81067 198.003 5.312V0.32H199.411V10.272C199.411 10.6027 199.56 10.7733 199.859 10.784V12C199.709 12.0213 199.587 12.0373 199.491 12.048C199.405 12.0587 199.32 12.064 199.235 12.064C198.957 12.064 198.712 11.9733 198.499 11.792C198.296 11.6 198.195 11.3813 198.195 11.136V10.432C197.864 10.976 197.421 11.4027 196.867 11.712C196.323 12.0107 195.747 12.16 195.139 12.16ZM195.475 10.944C195.731 10.944 195.992 10.896 196.259 10.8C196.536 10.704 196.792 10.5707 197.027 10.4C197.272 10.2293 197.48 10.032 197.651 9.808C197.832 9.57333 197.949 9.328 198.003 9.072V6.672C197.907 6.40533 197.763 6.15467 197.571 5.92C197.379 5.67467 197.16 5.46667 196.915 5.296C196.68 5.11467 196.424 4.976 196.147 4.88C195.88 4.77333 195.613 4.72 195.347 4.72C194.931 4.72 194.552 4.81067 194.211 4.992C193.88 5.16267 193.592 5.39733 193.347 5.696C193.112 5.984 192.931 6.32 192.803 6.704C192.675 7.07733 192.611 7.46133 192.611 7.856C192.611 8.272 192.685 8.672 192.835 9.056C192.984 9.42933 193.187 9.75467 193.443 10.032C193.699 10.3093 193.997 10.5333 194.339 10.704C194.691 10.864 195.069 10.944 195.475 10.944ZM206.032 12V0.639999H213.536V1.92H207.472V5.712H212.576V6.912H207.472V12H206.032ZM215.136 12V3.648H216.544V12H215.136ZM215.136 2.08V0.32H216.544V2.08H215.136ZM218.856 0.32H220.264V9.84C220.264 10.1493 220.344 10.3947 220.504 10.576C220.674 10.7467 220.909 10.832 221.208 10.832C221.325 10.832 221.464 10.816 221.624 10.784C221.784 10.7413 221.933 10.6933 222.072 10.64L222.296 11.776C222.061 11.872 221.784 11.952 221.464 12.016C221.144 12.08 220.861 12.112 220.616 12.112C220.072 12.112 219.64 11.9573 219.32 11.648C219.01 11.3387 218.856 10.9067 218.856 10.352V0.32ZM235.994 12H234.586V7.328C234.586 6.45333 234.442 5.808 234.154 5.392C233.876 4.976 233.46 4.768 232.906 4.768C232.33 4.768 231.812 4.976 231.354 5.392C230.906 5.79733 230.586 6.32533 230.394 6.976V12H228.986V7.328C228.986 6.432 228.847 5.78133 228.57 5.376C228.292 4.97067 227.876 4.768 227.322 4.768C226.756 4.768 226.244 4.97067 225.786 5.376C225.327 5.77067 225.002 6.29867 224.81 6.96V12H223.402V3.648H224.682V5.44C225.023 4.82133 225.466 4.34667 226.01 4.016C226.554 3.67467 227.167 3.504 227.85 3.504C228.554 3.504 229.108 3.696 229.514 4.08C229.93 4.45333 230.186 4.93867 230.282 5.536C231.028 4.18133 232.09 3.504 233.466 3.504C233.946 3.504 234.346 3.59467 234.666 3.776C234.996 3.94667 235.258 4.192 235.45 4.512C235.642 4.82133 235.78 5.18933 235.866 5.616C235.951 6.04267 235.994 6.50667 235.994 7.008V12ZM242.308 0.639999L245.748 6.56L249.22 0.639999H250.788L246.468 7.856V12H245.028V7.824L240.724 0.639999H242.308ZM254.331 12.16C253.702 12.16 253.126 12.0427 252.603 11.808C252.091 11.5733 251.648 11.2587 251.275 10.864C250.912 10.4693 250.63 10.0107 250.427 9.488C250.224 8.96533 250.123 8.416 250.123 7.84C250.123 7.25333 250.224 6.69867 250.427 6.176C250.64 5.65333 250.928 5.19467 251.291 4.8C251.664 4.40533 252.107 4.09067 252.619 3.856C253.142 3.62133 253.712 3.504 254.331 3.504C254.95 3.504 255.52 3.62133 256.043 3.856C256.566 4.09067 257.008 4.40533 257.371 4.8C257.744 5.19467 258.032 5.65333 258.235 6.176C258.448 6.69867 258.555 7.25333 258.555 7.84C258.555 8.416 258.454 8.96533 258.251 9.488C258.048 10.0107 257.76 10.4693 257.387 10.864C257.014 11.2587 256.566 11.5733 256.043 11.808C255.531 12.0427 254.96 12.16 254.331 12.16ZM251.563 7.856C251.563 8.29333 251.632 8.69867 251.771 9.072C251.92 9.44533 252.118 9.77067 252.363 10.048C252.619 10.3253 252.912 10.544 253.243 10.704C253.584 10.864 253.947 10.944 254.331 10.944C254.715 10.944 255.072 10.864 255.403 10.704C255.744 10.544 256.043 10.3253 256.299 10.048C256.555 9.76 256.752 9.42933 256.891 9.056C257.04 8.672 257.115 8.26133 257.115 7.824C257.115 7.39733 257.04 6.99733 256.891 6.624C256.752 6.24 256.555 5.90933 256.299 5.632C256.043 5.344 255.744 5.12 255.403 4.96C255.072 4.8 254.715 4.72 254.331 4.72C253.947 4.72 253.584 4.80533 253.243 4.976C252.912 5.136 252.619 5.36 252.363 5.648C252.118 5.92533 251.92 6.256 251.771 6.64C251.632 7.01333 251.563 7.41867 251.563 7.856ZM262.837 12.16C261.962 12.16 261.301 11.8667 260.853 11.28C260.405 10.6933 260.181 9.81867 260.181 8.656V3.648H261.589V8.384C261.589 10.0907 262.181 10.944 263.365 10.944C263.941 10.944 264.48 10.7627 264.981 10.4C265.493 10.0267 265.872 9.52 266.117 8.88V3.648H267.525V10.272C267.525 10.6027 267.674 10.7733 267.973 10.784V12C267.813 12.0213 267.685 12.032 267.589 12.032C267.504 12.0427 267.418 12.048 267.333 12.048C267.056 12.048 266.821 11.968 266.629 11.808C266.448 11.6373 266.352 11.4293 266.341 11.184L266.309 10.208C265.936 10.8373 265.445 11.3227 264.837 11.664C264.229 11.9947 263.562 12.16 262.837 12.16ZM274.286 4.88C273.582 4.90133 272.958 5.08267 272.414 5.424C271.881 5.76533 271.502 6.24 271.278 6.848V12H269.87V3.648H271.182V5.584C271.47 5.008 271.849 4.544 272.318 4.192C272.788 3.82933 273.289 3.62667 273.822 3.584C273.929 3.584 274.02 3.584 274.094 3.584C274.169 3.584 274.233 3.58933 274.286 3.6V4.88ZM288.299 9.072C288.299 9.50933 288.208 9.90933 288.027 10.272C287.856 10.6347 287.616 10.944 287.307 11.2C287.008 11.456 286.656 11.6533 286.251 11.792C285.856 11.9307 285.429 12 284.971 12H279.579V0.639999H285.227C285.621 0.639999 285.979 0.725333 286.299 0.896C286.619 1.06667 286.891 1.29067 287.115 1.568C287.339 1.83467 287.509 2.144 287.627 2.496C287.755 2.83733 287.819 3.184 287.819 3.536C287.819 4.10133 287.675 4.624 287.387 5.104C287.109 5.584 286.709 5.94133 286.187 6.176C286.837 6.368 287.349 6.72533 287.723 7.248C288.107 7.76 288.299 8.368 288.299 9.072ZM286.843 8.816C286.843 8.56 286.795 8.31467 286.699 8.08C286.613 7.83467 286.491 7.62133 286.331 7.44C286.181 7.25867 286 7.11467 285.787 7.008C285.573 6.90133 285.339 6.848 285.083 6.848H281.019V10.752H284.971C285.237 10.752 285.483 10.6987 285.707 10.592C285.931 10.4853 286.128 10.3467 286.299 10.176C286.469 9.99467 286.603 9.78667 286.699 9.552C286.795 9.31733 286.843 9.072 286.843 8.816ZM281.019 1.888V5.68H284.635C284.891 5.68 285.125 5.632 285.339 5.536C285.552 5.42933 285.733 5.29067 285.883 5.12C286.043 4.94933 286.165 4.752 286.251 4.528C286.347 4.29333 286.395 4.048 286.395 3.792C286.395 3.52533 286.352 3.27467 286.267 3.04C286.181 2.80533 286.064 2.60267 285.915 2.432C285.776 2.26133 285.6 2.128 285.387 2.032C285.184 1.936 284.965 1.888 284.731 1.888H281.019ZM293.785 12.16C293.156 12.16 292.58 12.048 292.057 11.824C291.534 11.5893 291.086 11.2747 290.713 10.88C290.34 10.4853 290.046 10.0267 289.833 9.504C289.63 8.97067 289.529 8.41067 289.529 7.824C289.529 7.23733 289.63 6.68267 289.833 6.16C290.046 5.63733 290.34 5.17867 290.713 4.784C291.097 4.38933 291.55 4.08 292.073 3.856C292.596 3.62133 293.172 3.504 293.801 3.504C294.43 3.504 295.001 3.62133 295.513 3.856C296.036 4.09067 296.478 4.40533 296.841 4.8C297.204 5.184 297.481 5.63733 297.673 6.16C297.876 6.672 297.977 7.20533 297.977 7.76C297.977 7.87733 297.972 7.984 297.961 8.08C297.961 8.176 297.956 8.25067 297.945 8.304H291.017C291.049 8.72 291.145 9.09867 291.305 9.44C291.465 9.78133 291.673 10.0747 291.929 10.32C292.185 10.5653 292.473 10.7573 292.793 10.896C293.124 11.0347 293.47 11.104 293.833 11.104C294.089 11.104 294.34 11.072 294.585 11.008C294.83 10.9333 295.06 10.8373 295.273 10.72C295.486 10.6027 295.673 10.4587 295.833 10.288C296.004 10.1173 296.132 9.92533 296.217 9.712L297.433 10.048C297.294 10.3573 297.102 10.64 296.857 10.896C296.622 11.152 296.345 11.376 296.025 11.568C295.716 11.7493 295.369 11.8933 294.985 12C294.601 12.1067 294.201 12.16 293.785 12.16ZM296.649 7.264C296.617 6.86933 296.516 6.50667 296.345 6.176C296.185 5.83467 295.977 5.54667 295.721 5.312C295.476 5.07733 295.188 4.896 294.857 4.768C294.526 4.62933 294.174 4.56 293.801 4.56C293.428 4.56 293.076 4.62933 292.745 4.768C292.414 4.896 292.121 5.08267 291.865 5.328C291.62 5.56267 291.417 5.84533 291.257 6.176C291.108 6.50667 291.017 6.86933 290.985 7.264H296.649ZM302.47 12.16C301.798 12.16 301.137 12.0587 300.486 11.856C299.836 11.6427 299.276 11.3387 298.806 10.944L299.414 10C299.905 10.3733 300.396 10.656 300.886 10.848C301.377 11.0293 301.894 11.12 302.438 11.12C303.046 11.12 303.526 11.0027 303.878 10.768C304.241 10.5227 304.422 10.1813 304.422 9.744C304.422 9.54133 304.374 9.37067 304.278 9.232C304.182 9.08267 304.038 8.95467 303.846 8.848C303.654 8.74133 303.409 8.64533 303.11 8.56C302.812 8.47467 302.465 8.384 302.07 8.288C301.569 8.16 301.137 8.03733 300.774 7.92C300.412 7.80267 300.113 7.664 299.878 7.504C299.644 7.344 299.473 7.152 299.366 6.928C299.26 6.704 299.206 6.42667 299.206 6.096C299.206 5.68 299.286 5.312 299.446 4.992C299.617 4.66133 299.846 4.38933 300.134 4.176C300.422 3.952 300.758 3.78667 301.142 3.68C301.537 3.56267 301.958 3.504 302.406 3.504C303.036 3.504 303.622 3.60533 304.166 3.808C304.71 4.01067 305.169 4.27733 305.542 4.608L304.902 5.456C304.55 5.14667 304.156 4.91733 303.718 4.768C303.281 4.608 302.833 4.528 302.374 4.528C301.862 4.528 301.425 4.64 301.062 4.864C300.71 5.07733 300.534 5.424 300.534 5.904C300.534 6.096 300.566 6.256 300.63 6.384C300.705 6.512 300.822 6.624 300.982 6.72C301.142 6.816 301.345 6.90133 301.59 6.976C301.846 7.05067 302.15 7.13067 302.502 7.216C303.057 7.344 303.537 7.47733 303.942 7.616C304.358 7.744 304.7 7.89867 304.966 8.08C305.244 8.26133 305.446 8.47467 305.574 8.72C305.713 8.96533 305.782 9.264 305.782 9.616C305.782 10.3947 305.484 11.0133 304.886 11.472C304.289 11.9307 303.484 12.16 302.47 12.16ZM311.769 11.584C311.683 11.6267 311.571 11.68 311.433 11.744C311.294 11.7973 311.134 11.856 310.953 11.92C310.782 11.9733 310.59 12.016 310.377 12.048C310.174 12.0907 309.961 12.112 309.737 12.112C309.225 12.112 308.782 11.9733 308.409 11.696C308.035 11.408 307.849 10.9653 307.849 10.368V4.752H306.713V3.648H307.849V0.863999H309.257V3.648H311.129V4.752H309.257V9.936C309.278 10.2453 309.379 10.4693 309.561 10.608C309.742 10.7467 309.955 10.816 310.201 10.816C310.478 10.816 310.729 10.7733 310.953 10.688C311.187 10.592 311.347 10.5173 311.433 10.464L311.769 11.584ZM129.555 22.024C129.427 21.8747 129.257 21.7307 129.043 21.592C128.83 21.4533 128.59 21.3307 128.323 21.224C128.057 21.1067 127.763 21.016 127.443 20.952C127.134 20.8773 126.809 20.84 126.467 20.84C125.582 20.84 124.931 21.0053 124.515 21.336C124.11 21.6667 123.907 22.12 123.907 22.696C123.907 23.0053 123.966 23.2613 124.083 23.464C124.201 23.6667 124.382 23.8427 124.627 23.992C124.883 24.1307 125.198 24.2533 125.571 24.36C125.945 24.4667 126.387 24.5787 126.899 24.696C127.486 24.824 128.014 24.9733 128.483 25.144C128.963 25.304 129.369 25.5067 129.699 25.752C130.041 25.9973 130.297 26.296 130.467 26.648C130.649 27 130.739 27.432 130.739 27.944C130.739 28.488 130.633 28.9627 130.419 29.368C130.206 29.7627 129.913 30.0933 129.539 30.36C129.177 30.616 128.745 30.808 128.243 30.936C127.742 31.0533 127.198 31.112 126.611 31.112C125.737 31.112 124.905 30.9787 124.115 30.712C123.337 30.4347 122.627 30.0347 121.987 29.512L122.675 28.296C122.846 28.4773 123.065 28.6587 123.331 28.84C123.609 29.0213 123.918 29.1867 124.259 29.336C124.611 29.4747 124.985 29.592 125.379 29.688C125.785 29.7733 126.206 29.816 126.643 29.816C127.454 29.816 128.083 29.672 128.531 29.384C128.979 29.096 129.203 28.664 129.203 28.088C129.203 27.768 129.129 27.5013 128.979 27.288C128.841 27.064 128.633 26.872 128.355 26.712C128.078 26.552 127.731 26.4133 127.315 26.296C126.91 26.168 126.446 26.04 125.923 25.912C125.347 25.7733 124.841 25.624 124.403 25.464C123.966 25.304 123.598 25.112 123.299 24.888C123.011 24.664 122.793 24.392 122.643 24.072C122.494 23.752 122.419 23.368 122.419 22.92C122.419 22.376 122.521 21.896 122.723 21.48C122.926 21.064 123.209 20.712 123.571 20.424C123.934 20.136 124.366 19.9227 124.867 19.784C125.369 19.6347 125.913 19.56 126.499 19.56C127.267 19.56 127.961 19.6773 128.579 19.912C129.198 20.1467 129.747 20.4613 130.227 20.856L129.555 22.024ZM136.105 31.16C135.476 31.16 134.9 31.048 134.377 30.824C133.855 30.5893 133.407 30.2747 133.033 29.88C132.66 29.4853 132.367 29.0267 132.153 28.504C131.951 27.9707 131.849 27.4107 131.849 26.824C131.849 26.2373 131.951 25.6827 132.153 25.16C132.367 24.6373 132.66 24.1787 133.033 23.784C133.417 23.3893 133.871 23.08 134.393 22.856C134.916 22.6213 135.492 22.504 136.121 22.504C136.751 22.504 137.321 22.6213 137.833 22.856C138.356 23.0907 138.799 23.4053 139.161 23.8C139.524 24.184 139.801 24.6373 139.993 25.16C140.196 25.672 140.297 26.2053 140.297 26.76C140.297 26.8773 140.292 26.984 140.281 27.08C140.281 27.176 140.276 27.2507 140.265 27.304H133.337C133.369 27.72 133.465 28.0987 133.625 28.44C133.785 28.7813 133.993 29.0747 134.249 29.32C134.505 29.5653 134.793 29.7573 135.113 29.896C135.444 30.0347 135.791 30.104 136.153 30.104C136.409 30.104 136.66 30.072 136.905 30.008C137.151 29.9333 137.38 29.8373 137.593 29.72C137.807 29.6027 137.993 29.4587 138.153 29.288C138.324 29.1173 138.452 28.9253 138.537 28.712L139.753 29.048C139.615 29.3573 139.423 29.64 139.177 29.896C138.943 30.152 138.665 30.376 138.345 30.568C138.036 30.7493 137.689 30.8933 137.305 31C136.921 31.1067 136.521 31.16 136.105 31.16ZM138.969 26.264C138.937 25.8693 138.836 25.5067 138.665 25.176C138.505 24.8347 138.297 24.5467 138.041 24.312C137.796 24.0773 137.508 23.896 137.177 23.768C136.847 23.6293 136.495 23.56 136.121 23.56C135.748 23.56 135.396 23.6293 135.065 23.768C134.735 23.896 134.441 24.0827 134.185 24.328C133.94 24.5627 133.737 24.8453 133.577 25.176C133.428 25.5067 133.337 25.8693 133.305 26.264H138.969ZM141.895 19.32H143.303V28.84C143.303 29.1493 143.383 29.3947 143.543 29.576C143.713 29.7467 143.948 29.832 144.247 29.832C144.364 29.832 144.503 29.816 144.663 29.784C144.823 29.7413 144.972 29.6933 145.111 29.64L145.335 30.776C145.1 30.872 144.823 30.952 144.503 31.016C144.183 31.08 143.9 31.112 143.655 31.112C143.111 31.112 142.679 30.9573 142.359 30.648C142.049 30.3387 141.895 29.9067 141.895 29.352V19.32ZM146.889 31V23.752H145.753V22.648H146.889V22.472C146.889 21.4373 147.118 20.6267 147.577 20.04C148.035 19.4533 148.659 19.16 149.449 19.16C149.779 19.16 150.105 19.208 150.425 19.304C150.745 19.3893 151.033 19.512 151.289 19.672L150.937 20.712C150.787 20.6053 150.601 20.52 150.377 20.456C150.163 20.392 149.95 20.36 149.737 20.36C149.267 20.36 148.91 20.536 148.665 20.888C148.419 21.24 148.297 21.752 148.297 22.424V22.648H150.521V23.752H148.297V31H146.889ZM163.544 20.92H159.624V31H158.184V20.92H154.264V19.64H163.544V20.92ZM165.475 31.16C165.081 31.16 164.713 31.096 164.371 30.968C164.03 30.8293 163.731 30.6427 163.475 30.408C163.23 30.1733 163.033 29.9013 162.883 29.592C162.745 29.272 162.675 28.9253 162.675 28.552C162.675 28.168 162.761 27.8213 162.931 27.512C163.102 27.192 163.342 26.92 163.651 26.696C163.971 26.472 164.345 26.296 164.771 26.168C165.209 26.04 165.683 25.976 166.195 25.976C166.601 25.976 167.011 26.0133 167.427 26.088C167.843 26.1627 168.211 26.264 168.531 26.392V25.72C168.531 25.0373 168.339 24.504 167.955 24.12C167.571 23.7253 167.027 23.528 166.323 23.528C165.481 23.528 164.595 23.8533 163.667 24.504L163.203 23.592C164.281 22.8667 165.363 22.504 166.451 22.504C167.55 22.504 168.403 22.7973 169.011 23.384C169.63 23.9707 169.939 24.7973 169.939 25.864V29.272C169.939 29.6027 170.089 29.7733 170.387 29.784V31C170.238 31.0213 170.115 31.0373 170.019 31.048C169.923 31.0587 169.822 31.064 169.715 31.064C169.438 31.064 169.214 30.984 169.043 30.824C168.883 30.6533 168.787 30.4507 168.755 30.216L168.723 29.624C168.35 30.1253 167.875 30.5093 167.299 30.776C166.734 31.032 166.126 31.16 165.475 31.16ZM165.843 30.104C166.345 30.104 166.809 30.0133 167.235 29.832C167.673 29.64 168.003 29.3893 168.227 29.08C168.43 28.8773 168.531 28.6693 168.531 28.456V27.224C167.849 26.9573 167.139 26.824 166.403 26.824C165.699 26.824 165.123 26.9733 164.675 27.272C164.238 27.5707 164.019 27.96 164.019 28.44C164.019 28.6747 164.062 28.8933 164.147 29.096C164.243 29.2987 164.371 29.4747 164.531 29.624C164.702 29.7733 164.899 29.8907 165.123 29.976C165.347 30.0613 165.587 30.104 165.843 30.104ZM176.687 31.16C175.993 31.16 175.38 30.9893 174.847 30.648C174.324 30.3067 173.908 29.8747 173.599 29.352V34.408H172.191V22.648H173.439V24.216C173.769 23.704 174.196 23.2933 174.719 22.984C175.252 22.664 175.839 22.504 176.479 22.504C177.055 22.504 177.583 22.6213 178.063 22.856C178.543 23.0907 178.959 23.4107 179.311 23.816C179.663 24.2107 179.935 24.6693 180.127 25.192C180.329 25.7147 180.431 26.2587 180.431 26.824C180.431 27.4213 180.34 27.9867 180.159 28.52C179.977 29.0427 179.721 29.5013 179.391 29.896C179.06 30.28 178.665 30.5893 178.207 30.824C177.748 31.048 177.241 31.16 176.687 31.16ZM176.255 29.944C176.671 29.944 177.044 29.8587 177.375 29.688C177.716 29.5067 178.004 29.272 178.239 28.984C178.484 28.6853 178.671 28.3493 178.799 27.976C178.927 27.6027 178.991 27.2187 178.991 26.824C178.991 26.408 178.916 26.0133 178.767 25.64C178.617 25.256 178.415 24.9253 178.159 24.648C177.903 24.36 177.599 24.136 177.247 23.976C176.905 23.8053 176.532 23.72 176.127 23.72C175.871 23.72 175.604 23.7733 175.327 23.88C175.06 23.976 174.804 24.1093 174.559 24.28C174.324 24.44 174.116 24.6373 173.935 24.872C173.764 25.096 173.652 25.336 173.599 25.592V27.976C173.716 28.2533 173.865 28.5147 174.047 28.76C174.228 28.9947 174.436 29.2027 174.671 29.384C174.905 29.5547 175.156 29.6933 175.423 29.8C175.689 29.896 175.967 29.944 176.255 29.944ZM185.855 31.16C185.226 31.16 184.65 31.048 184.127 30.824C183.605 30.5893 183.157 30.2747 182.783 29.88C182.41 29.4853 182.117 29.0267 181.903 28.504C181.701 27.9707 181.599 27.4107 181.599 26.824C181.599 26.2373 181.701 25.6827 181.903 25.16C182.117 24.6373 182.41 24.1787 182.783 23.784C183.167 23.3893 183.621 23.08 184.143 22.856C184.666 22.6213 185.242 22.504 185.871 22.504C186.501 22.504 187.071 22.6213 187.583 22.856C188.106 23.0907 188.549 23.4053 188.911 23.8C189.274 24.184 189.551 24.6373 189.743 25.16C189.946 25.672 190.047 26.2053 190.047 26.76C190.047 26.8773 190.042 26.984 190.031 27.08C190.031 27.176 190.026 27.2507 190.015 27.304H183.087C183.119 27.72 183.215 28.0987 183.375 28.44C183.535 28.7813 183.743 29.0747 183.999 29.32C184.255 29.5653 184.543 29.7573 184.863 29.896C185.194 30.0347 185.541 30.104 185.903 30.104C186.159 30.104 186.41 30.072 186.655 30.008C186.901 29.9333 187.13 29.8373 187.343 29.72C187.557 29.6027 187.743 29.4587 187.903 29.288C188.074 29.1173 188.202 28.9253 188.287 28.712L189.503 29.048C189.365 29.3573 189.173 29.64 188.927 29.896C188.693 30.152 188.415 30.376 188.095 30.568C187.786 30.7493 187.439 30.8933 187.055 31C186.671 31.1067 186.271 31.16 185.855 31.16ZM188.719 26.264C188.687 25.8693 188.586 25.5067 188.415 25.176C188.255 24.8347 188.047 24.5467 187.791 24.312C187.546 24.0773 187.258 23.896 186.927 23.768C186.597 23.6293 186.245 23.56 185.871 23.56C185.498 23.56 185.146 23.6293 184.815 23.768C184.485 23.896 184.191 24.0827 183.935 24.328C183.69 24.5627 183.487 24.8453 183.327 25.176C183.178 25.5067 183.087 25.8693 183.055 26.264H188.719Z" fill="black"/>
</svg>
