<svg width="182" height="22" viewBox="0 0 182 22" fill="none" xmlns="http://www.w3.org/2000/svg">
<path d="M0.0366718 13.6278V1.27482C0.0366718 1.10325 0.143902 0.996017 0.358363 0.953125C0.572824 0.910232 0.733669 0.888786 0.8409 0.888786H4.92638C5.50542 0.888786 6.11664 0.910232 6.76002 0.953125C7.42485 0.974571 8.07895 1.04963 8.72233 1.17831C9.36572 1.28554 9.97693 1.46783 10.556 1.72518C11.135 1.96109 11.6497 2.2935 12.1001 2.72243C12.8293 3.43015 13.3332 4.12714 13.612 4.81342C13.8908 5.49969 14.0302 6.34681 14.0302 7.35478C14.0302 8.51287 13.6657 9.553 12.9365 10.4752C12.3574 11.1829 11.7462 11.7191 11.1028 12.0836C10.4809 12.4482 9.81608 12.7056 9.10836 12.8557C8.40064 13.0058 7.66075 13.0916 6.88869 13.1131C6.11664 13.1131 5.31241 13.1131 4.47601 13.1131H3.80046C3.80046 14.0567 3.78974 14.9896 3.76829 15.9118C3.74684 16.8125 3.73612 17.7347 3.73612 18.6783C3.73612 18.807 3.71467 18.9142 3.67178 19C3.65034 19.0858 3.55383 19.1287 3.38226 19.1287H0.519209C0.326194 19.1287 0.197517 19.0643 0.133179 18.9357C0.068841 18.807 0.0366718 18.6569 0.0366718 18.4853V14.5607C0.0366718 14.432 0.079564 14.3248 0.165348 14.239C0.272579 14.1532 0.369086 14.0781 0.45487 14.0138C0.411978 13.9709 0.326194 13.9173 0.197517 13.8529C0.090287 13.7672 0.0366718 13.6921 0.0366718 13.6278ZM3.83263 11.7619C3.93986 11.7619 4.04709 11.7727 4.15432 11.7941C4.283 11.7941 4.41167 11.7941 4.54035 11.7941C5.14084 11.7941 5.80567 11.7405 6.53483 11.6333C7.264 11.5046 7.95027 11.3009 8.59366 11.0221C9.23704 10.7218 9.77319 10.3251 10.2021 9.8318C10.6525 9.33854 10.8777 8.70588 10.8777 7.93382V7.77298L11.5532 7.74081L10.942 7.41912V7.35478L10.9742 7.29044C10.9742 5.46752 10.5774 4.15931 9.78391 3.36581C8.99041 2.5723 7.6822 2.17555 5.85928 2.17555C5.7735 2.17555 5.6341 2.17555 5.44108 2.17555C5.26952 2.17555 5.08722 2.18627 4.89421 2.20772C4.70119 2.20772 4.5189 2.22917 4.34733 2.27206C4.19721 2.2935 4.08998 2.3364 4.02564 2.40073C4.0042 2.42218 3.98275 2.6152 3.9613 2.97978C3.93986 3.34436 3.91841 3.79473 3.89697 4.33088C3.89697 4.84559 3.88624 5.42463 3.8648 6.06801C3.8648 6.68995 3.85407 7.29044 3.83263 7.86948C3.83263 8.42708 3.83263 8.92034 3.83263 9.34926C3.83263 9.77819 3.83263 10.0677 3.83263 10.2178V11.7619ZM16.1573 12.534C16.0929 12.4911 16.0393 12.3946 15.9964 12.2445C15.9535 12.0944 15.9214 11.9335 15.8999 11.7619C15.8999 11.5904 15.8999 11.4188 15.8999 11.2472C15.8999 11.0757 15.8999 10.9577 15.8999 10.8934C15.8999 10.6146 15.8999 10.1857 15.8999 9.60662C15.8999 9.00613 15.8999 8.35202 15.8999 7.6443C15.8999 6.93658 15.8999 6.20741 15.8999 5.4568C15.8999 4.68474 15.8999 3.98774 15.8999 3.36581C15.8999 2.74387 15.8999 2.22917 15.8999 1.82169C15.9214 1.39277 15.9321 1.16759 15.9321 1.14614L16.1573 0.985294C17.7657 0.985294 19.3742 0.996017 20.9826 1.01746C22.6125 1.03891 24.2317 1.04963 25.8402 1.04963C25.9688 1.04963 26.1833 1.03891 26.4835 1.01746C26.8052 0.996017 27.1162 0.985294 27.4165 0.985294C27.7381 0.985294 28.0169 1.01746 28.2528 1.0818C28.4888 1.14614 28.6067 1.26409 28.6067 1.43566V2.27206C27.8775 2.2935 27.1484 2.30423 26.4192 2.30423C25.69 2.30423 24.9609 2.30423 24.2317 2.30423C23.5025 2.30423 22.7734 2.30423 22.0442 2.30423C21.3365 2.30423 20.618 2.31495 19.8889 2.3364C19.846 2.37929 19.8031 2.4329 19.7602 2.49724C19.7388 2.56158 19.728 2.62592 19.728 2.69026C19.728 2.9905 19.7388 3.32292 19.7602 3.6875C19.8031 4.03064 19.6744 4.30944 19.3742 4.5239C19.5672 4.73836 19.6744 5.08149 19.6959 5.55331C19.7388 6.00368 19.7602 6.36826 19.7602 6.64706L19.728 7.77298C19.8353 7.79442 19.9318 7.81587 20.0176 7.83732C20.1033 7.83732 20.1998 7.83732 20.3071 7.83732C21.2293 7.83732 22.1407 7.82659 23.0415 7.80515C23.9636 7.76225 24.8858 7.7837 25.808 7.86948C25.808 7.91238 25.8187 7.96599 25.8402 8.03033C25.8616 8.07322 25.8723 8.11611 25.8723 8.15901C25.8723 8.30913 25.8723 8.44853 25.8723 8.57721C25.8723 8.70588 25.8509 8.84528 25.808 8.9954C25.4649 9.01685 25.1324 9.02757 24.8108 9.02757C24.4891 9.02757 24.1566 9.02757 23.8135 9.02757C23.1272 9.02757 22.441 9.02757 21.7547 9.02757C21.0899 9.00613 20.4143 9.01685 19.728 9.05974C19.728 10.2822 19.7066 11.4831 19.6637 12.6627C19.6422 13.8422 19.6315 15.0432 19.6315 16.2656V17.7776C20.4036 17.799 21.1756 17.8097 21.9477 17.8097C22.7412 17.8097 23.524 17.8097 24.296 17.8097C25.0467 17.8097 25.808 17.8097 26.5801 17.8097C27.3521 17.8097 28.1134 17.799 28.8641 17.7776V18.2279C28.8641 18.4638 28.8212 18.6676 28.7354 18.8392C28.671 19.0107 28.4888 19.0965 28.1885 19.0965C27.0304 19.0965 25.8616 19.0858 24.6821 19.0643C23.524 19.0643 22.3659 19.0643 21.2078 19.0643C20.4358 19.0643 19.6637 19.0751 18.8916 19.0965C18.1196 19.1394 17.3475 19.1608 16.5755 19.1608C16.2538 19.1608 16.05 19.0858 15.9642 18.9357C15.8785 18.7855 15.8356 18.5604 15.8356 18.2601C15.8356 17.7669 15.8248 17.2843 15.8034 16.8125C15.8034 16.3407 15.8034 15.8581 15.8034 15.3649C15.8034 14.8716 15.8034 14.3891 15.8034 13.9173C15.8034 13.424 15.9214 12.9629 16.1573 12.534ZM30.9911 1.17831C31.034 0.985294 31.1198 0.86734 31.2484 0.824448C31.3771 0.781556 31.5272 0.749387 31.6988 0.727941C32.1706 0.685049 32.6317 0.652879 33.0821 0.631433C33.5324 0.609987 33.9935 0.599264 34.4653 0.599264C34.6584 0.599264 34.9479 0.609987 35.3339 0.631433C35.7414 0.631433 36.1918 0.652879 36.685 0.695772C37.1997 0.738664 37.7252 0.792279 38.2613 0.856617C38.7975 0.920955 39.28 1.01746 39.7089 1.14614C40.1593 1.27482 40.5239 1.42494 40.8027 1.59651C41.0815 1.76808 41.2209 1.97181 41.2209 2.20772V2.30423L41.6391 2.01471C42.4969 2.48652 43.2261 3.09773 43.8266 3.84835C44.4485 4.59896 44.7595 5.48897 44.7595 6.51838C44.7595 7.86948 44.3734 9.0383 43.6014 10.0248C42.8293 11.0113 41.8321 11.7405 40.6097 12.2123C40.7598 12.4911 41.0493 12.9629 41.4782 13.6278C41.9286 14.2926 42.4111 14.9896 42.9258 15.7187C43.4405 16.4265 43.9338 17.0806 44.4056 17.6811C44.8774 18.2816 45.2206 18.6461 45.435 18.7748C45.6495 18.9035 45.8747 19.0107 46.1106 19.0965C46.3465 19.1823 46.5824 19.2252 46.8183 19.2252C47.1185 19.2252 47.3223 19.1394 47.4295 18.9678C47.5582 18.7748 47.6547 18.5604 47.719 18.3244H47.8155C47.9871 18.3244 48.0836 18.3995 48.1051 18.5496C48.1479 18.6783 48.1694 18.7963 48.1694 18.9035C48.1694 19.2895 48.0622 19.6219 47.8477 19.9007C47.6332 20.201 47.3652 20.4476 47.0435 20.6406C46.7218 20.8551 46.3679 21.0052 45.9819 21.091C45.6173 21.1982 45.2742 21.2518 44.9525 21.2518C44.2019 21.2518 43.4727 21.0052 42.765 20.5119C42.0573 20.0401 41.3924 19.4611 40.7705 18.7748C40.1486 18.0671 39.5802 17.3272 39.0655 16.5551C38.5723 15.7831 38.1541 15.1075 37.8109 14.5285C37.6608 14.2711 37.5107 14.0138 37.3606 13.7564C37.2104 13.4776 37.0282 13.231 36.8137 13.0165C36.6636 12.9308 36.4813 12.8879 36.2668 12.8879H35.1731C35.0015 12.9951 34.9157 13.1774 34.9157 13.4347V18.4853C34.9157 18.6783 34.8514 18.8177 34.7227 18.9035C34.6155 18.9893 34.4653 19.0429 34.2723 19.0643C34.1008 19.1072 33.9185 19.118 33.7255 19.0965C33.5324 19.0965 33.3716 19.0965 33.2429 19.0965H31.1841C30.9911 19.0965 30.8946 18.9786 30.8946 18.7426V15.9118C30.8946 15.8474 30.916 15.7616 30.9589 15.6544C31.0233 15.5472 31.0769 15.4721 31.1198 15.4292L30.8946 14.9789C30.8946 13.0916 30.8946 11.2365 30.8946 9.4136C30.916 7.56924 30.9267 5.70343 30.9267 3.81618C30.9267 3.38725 30.9053 2.94761 30.8624 2.49724C30.841 2.02543 30.8839 1.58578 30.9911 1.17831ZM34.3045 4.65257C34.6691 4.7598 34.8514 4.99571 34.8514 5.36029C34.8514 5.48897 34.8407 5.71415 34.8192 6.03585C34.8192 6.33609 34.8192 6.68995 34.8192 7.09743C34.8192 7.48346 34.8085 7.89093 34.787 8.31985C34.787 8.74877 34.787 9.15625 34.787 9.54228C34.8085 9.90686 34.8192 10.2178 34.8192 10.4752C34.8407 10.7111 34.8621 10.8505 34.8835 10.8934C35.0551 11.0864 35.2481 11.1829 35.4626 11.1829C35.7843 11.1829 36.0953 11.1829 36.3955 11.1829C36.7172 11.1615 37.0389 11.14 37.3606 11.1186C37.8967 11.0971 38.4114 10.9792 38.9047 10.7647C39.3979 10.5502 39.8269 10.2714 40.1915 9.92831C40.556 9.56373 40.8456 9.14553 41.06 8.67371C41.2959 8.18045 41.4139 7.65502 41.4139 7.09743C41.4139 6.26103 41.2423 5.55331 40.8992 4.97426C40.5775 4.37377 40.1378 3.89124 39.5802 3.52665C39.0441 3.16207 38.4222 2.89399 37.7144 2.72243C37.0282 2.55086 36.3204 2.46507 35.5913 2.46507C35.484 2.46507 35.3661 2.4758 35.2374 2.49724C35.1302 2.49724 35.0229 2.52941 34.9157 2.59375C34.8943 2.65809 34.8728 2.7546 34.8514 2.88327C34.8514 2.9905 34.8514 3.11918 34.8514 3.2693C34.8514 3.39798 34.8514 3.53738 34.8514 3.6875C34.8514 3.81618 34.8514 3.91268 34.8514 3.97702V4.07353C34.787 4.18076 34.712 4.29871 34.6262 4.42739C34.5619 4.53462 34.4546 4.60968 34.3045 4.65257ZM50.2964 12.6627C50.1463 12.6198 50.0712 12.5447 50.0712 12.4375C50.0712 11.2151 50.0712 10.0141 50.0712 8.83456C50.0712 7.65502 50.0605 6.45404 50.0391 5.23162C50.0391 4.73836 50.0498 4.18076 50.0712 3.55882C50.1141 2.93689 50.0927 2.37929 50.0069 1.88603C50.0283 1.80024 50.0391 1.72518 50.0391 1.66085C50.0391 1.59651 50.0498 1.52145 50.0712 1.43566C50.157 1.34988 50.2535 1.30698 50.3608 1.30698H61.2339C61.3197 1.30698 61.4377 1.30698 61.5878 1.30698C61.7379 1.28554 61.888 1.28554 62.0381 1.30698C62.1883 1.32843 62.3169 1.37132 62.4242 1.43566C62.5314 1.47855 62.585 1.56434 62.585 1.69301V2.52941C62.0918 2.55086 61.6092 2.56158 61.1374 2.56158C60.6656 2.56158 60.1938 2.56158 59.722 2.56158C58.7569 2.56158 57.8025 2.56158 56.8589 2.56158C55.9153 2.56158 54.9609 2.5723 53.9959 2.59375C53.8672 2.76532 53.8028 2.91544 53.8028 3.04412C53.8028 3.19424 53.8136 3.34436 53.835 3.49448C53.8565 3.64461 53.8672 3.79473 53.8672 3.94485C53.8672 4.09498 53.835 4.2451 53.7707 4.39522C53.7278 4.5239 53.6313 4.64185 53.4812 4.74908C53.6527 4.98499 53.76 5.30668 53.8028 5.71415C53.8457 6.12163 53.8672 6.47549 53.8672 6.77573C53.8672 6.96875 53.8565 7.17249 53.835 7.38695C53.835 7.57996 53.835 7.77298 53.835 7.96599C53.9422 7.98744 54.0388 8.00888 54.1245 8.03033C54.2103 8.05178 54.3068 8.0625 54.4141 8.0625C55.3148 8.0625 56.2155 8.05178 57.1163 8.03033C58.0384 7.98744 58.9499 8.00888 59.8506 8.09467C59.8721 8.18045 59.8828 8.29841 59.8828 8.44853C59.8828 8.57721 59.8828 8.70588 59.8828 8.83456C59.8828 8.94179 59.8614 9.05974 59.8185 9.18842H58.3387C57.5881 9.18842 56.8375 9.18842 56.0869 9.18842C55.3362 9.18842 54.5856 9.20986 53.835 9.25276V15.6222C53.835 15.7509 53.835 15.9868 53.835 16.33C53.8565 16.6731 53.8672 17.027 53.8672 17.3915C53.8672 17.7561 53.8565 18.0885 53.835 18.3888C53.8136 18.689 53.7707 18.882 53.7063 18.9678C53.642 19.0536 53.5669 19.0965 53.4812 19.0965C53.4168 19.118 53.3418 19.1287 53.256 19.1287H53.1916C52.8485 19.193 52.4625 19.2145 52.0335 19.193C51.6261 19.193 51.2508 19.193 50.9076 19.193C50.5216 19.193 50.275 19.1501 50.1677 19.0643C50.0605 18.9786 50.0069 18.7319 50.0069 18.3244V15.7187C50.0069 15.5257 49.9962 15.2898 49.9747 15.011C49.9747 14.7322 49.9747 14.4427 49.9747 14.1425C49.9962 13.8422 50.0283 13.5634 50.0712 13.3061C50.1141 13.0273 50.1892 12.8128 50.2964 12.6627ZM65.2267 12.534C65.1624 12.4911 65.1088 12.3946 65.0659 12.2445C65.023 12.0944 64.9908 11.9335 64.9694 11.7619C64.9694 11.5904 64.9694 11.4188 64.9694 11.2472C64.9694 11.0757 64.9694 10.9577 64.9694 10.8934C64.9694 10.6146 64.9694 10.1857 64.9694 9.60662C64.9694 9.00613 64.9694 8.35202 64.9694 7.6443C64.9694 6.93658 64.9694 6.20741 64.9694 5.4568C64.9694 4.68474 64.9694 3.98774 64.9694 3.36581C64.9694 2.74387 64.9694 2.22917 64.9694 1.82169C64.9908 1.39277 65.0016 1.16759 65.0016 1.14614L65.2267 0.985294C66.8352 0.985294 68.4437 0.996017 70.0521 1.01746C71.682 1.03891 73.3012 1.04963 74.9096 1.04963C75.0383 1.04963 75.2528 1.03891 75.553 1.01746C75.8747 0.996017 76.1857 0.985294 76.4859 0.985294C76.8076 0.985294 77.0864 1.01746 77.3223 1.0818C77.5582 1.14614 77.6762 1.26409 77.6762 1.43566V2.27206C76.947 2.2935 76.2179 2.30423 75.4887 2.30423C74.7595 2.30423 74.0304 2.30423 73.3012 2.30423C72.572 2.30423 71.8429 2.30423 71.1137 2.30423C70.406 2.30423 69.6875 2.31495 68.9584 2.3364C68.9155 2.37929 68.8726 2.4329 68.8297 2.49724C68.8082 2.56158 68.7975 2.62592 68.7975 2.69026C68.7975 2.9905 68.8082 3.32292 68.8297 3.6875C68.8726 4.03064 68.7439 4.30944 68.4437 4.5239C68.6367 4.73836 68.7439 5.08149 68.7653 5.55331C68.8082 6.00368 68.8297 6.36826 68.8297 6.64706L68.7975 7.77298C68.9047 7.79442 69.0013 7.81587 69.087 7.83732C69.1728 7.83732 69.2693 7.83732 69.3766 7.83732C70.2987 7.83732 71.2102 7.82659 72.1109 7.80515C73.0331 7.76225 73.9553 7.7837 74.8775 7.86948C74.8775 7.91238 74.8882 7.96599 74.9096 8.03033C74.9311 8.07322 74.9418 8.11611 74.9418 8.15901C74.9418 8.30913 74.9418 8.44853 74.9418 8.57721C74.9418 8.70588 74.9204 8.84528 74.8775 8.9954C74.5343 9.01685 74.2019 9.02757 73.8802 9.02757C73.5585 9.02757 73.2261 9.02757 72.883 9.02757C72.1967 9.02757 71.5104 9.02757 70.8242 9.02757C70.1593 9.00613 69.4838 9.01685 68.7975 9.05974C68.7975 10.2822 68.7761 11.4831 68.7332 12.6627C68.7117 13.8422 68.701 15.0432 68.701 16.2656V17.7776C69.4731 17.799 70.2451 17.8097 71.0172 17.8097C71.8107 17.8097 72.5935 17.8097 73.3655 17.8097C74.1161 17.8097 74.8775 17.8097 75.6495 17.8097C76.4216 17.8097 77.1829 17.799 77.9335 17.7776V18.2279C77.9335 18.4638 77.8907 18.6676 77.8049 18.8392C77.7405 19.0107 77.5582 19.0965 77.258 19.0965C76.0999 19.0965 74.9311 19.0858 73.7516 19.0643C72.5935 19.0643 71.4354 19.0643 70.2773 19.0643C69.5052 19.0643 68.7332 19.0751 67.9611 19.0965C67.1891 19.1394 66.417 19.1608 65.6449 19.1608C65.3233 19.1608 65.1195 19.0858 65.0337 18.9357C64.9479 18.7855 64.9051 18.5604 64.9051 18.2601C64.9051 17.7669 64.8943 17.2843 64.8729 16.8125C64.8729 16.3407 64.8729 15.8581 64.8729 15.3649C64.8729 14.8716 64.8729 14.3891 64.8729 13.9173C64.8729 13.424 64.9908 12.9629 65.2267 12.534ZM89.2288 0.953125C89.722 0.953125 90.2689 1.01746 90.8694 1.14614C91.4913 1.25337 92.0704 1.44638 92.6065 1.72518C93.1427 1.98254 93.593 2.32567 93.9576 2.7546C94.3222 3.16207 94.5045 3.67678 94.5045 4.29871C94.5045 4.85631 94.3437 5.32812 94.022 5.71415C93.7003 6.07874 93.2606 6.26103 92.703 6.26103C92.2956 6.26103 91.9095 6.12163 91.5449 5.84283C91.2018 5.56403 91.0302 5.21017 91.0302 4.78125C91.0302 4.35233 91.1482 4.04136 91.3841 3.84835C91.6415 3.65533 91.9524 3.49448 92.317 3.36581C91.7809 2.55086 91.041 2.14338 90.0973 2.14338C89.1108 2.14338 88.2423 2.37929 87.4916 2.8511C86.741 3.30147 86.1084 3.89124 85.5937 4.6204C85.1004 5.34957 84.7251 6.16452 84.4677 7.06526C84.2318 7.96599 84.1139 8.856 84.1139 9.73529C84.1139 9.9712 84.1139 10.1857 84.1139 10.3787C84.1353 10.5502 84.0817 10.754 83.953 10.9899C84.2962 11.333 84.5214 11.7619 84.6286 12.2767C84.7358 12.7914 84.8752 13.2632 85.0468 13.6921C85.5615 14.9574 86.3014 15.9868 87.2665 16.7803C88.253 17.5524 89.454 17.9384 90.8694 17.9384C91.3841 17.9384 91.8345 17.8634 92.2205 17.7132C92.6065 17.5631 92.9497 17.4023 93.2499 17.2307C93.5502 17.0591 93.8075 16.8983 94.022 16.7482C94.2579 16.598 94.4723 16.523 94.6654 16.523C94.8155 16.523 94.9334 16.5873 95.0192 16.716C95.1264 16.8232 95.1801 16.9412 95.1801 17.0699C95.0299 17.4773 94.7297 17.8312 94.2793 18.1314C93.8504 18.4317 93.3679 18.689 92.8317 18.9035C92.2956 19.0965 91.7487 19.2359 91.1911 19.3217C90.6335 19.4289 90.1617 19.4825 89.7756 19.4825C88.5103 19.4825 87.2986 19.2681 86.1405 18.8392C84.9824 18.4102 83.953 17.8097 83.0523 17.0377C82.173 16.2656 81.4653 15.3327 80.9291 14.239C80.4144 13.1452 80.1571 11.9442 80.1571 10.636C80.1571 9.4136 80.393 8.22335 80.8648 7.06526C81.3581 5.90717 82.0122 4.87776 82.8271 3.97702C83.6635 3.05484 84.6286 2.32567 85.7223 1.78952C86.8161 1.23192 87.9849 0.953125 89.2288 0.953125ZM98.2078 0.0202201H98.3687L98.433 0.148897C98.4115 0.213235 98.3901 0.277573 98.3687 0.341911C98.3472 0.406249 98.3365 0.470588 98.3365 0.534926C98.3365 0.706495 98.4223 0.792279 98.5938 0.792279C98.9584 0.792279 99.3123 0.803002 99.6554 0.824448C99.9986 0.845894 100.352 0.856617 100.717 0.856617C101.811 0.856617 102.905 0.845894 103.998 0.824448C105.113 0.781556 106.218 0.76011 107.312 0.76011C108.062 0.76011 108.813 0.770833 109.564 0.792279C110.314 0.813725 111.054 0.878063 111.783 0.985294C112.319 1.07108 112.684 1.29626 112.877 1.66085C113.07 2.00398 113.166 2.42218 113.166 2.91544C113.166 3.53738 112.931 4.08425 112.459 4.55607C111.987 5.02788 111.44 5.26379 110.818 5.26379C110.711 5.26379 110.582 5.25306 110.432 5.23162C110.282 5.18873 110.132 5.13511 109.982 5.07077C109.832 5.00643 109.703 4.93137 109.596 4.84559C109.51 4.73836 109.467 4.6204 109.467 4.49173L109.596 4.29871C109.703 4.29871 109.778 4.32016 109.821 4.36305C109.864 4.3845 109.907 4.42739 109.95 4.49173C110.014 4.53462 110.078 4.57751 110.143 4.6204C110.207 4.64185 110.303 4.65257 110.432 4.65257C110.797 4.65257 111.108 4.53462 111.365 4.29871C111.622 4.04136 111.751 3.73039 111.751 3.36581C111.751 3.15135 111.676 3.00123 111.526 2.91544C111.376 2.80821 111.193 2.74387 110.979 2.72243C110.786 2.67953 110.582 2.66881 110.368 2.69026C110.153 2.69026 109.982 2.69026 109.853 2.69026C109.553 2.69026 109.242 2.69026 108.92 2.69026C108.598 2.66881 108.287 2.65809 107.987 2.65809C107.837 2.65809 107.698 2.66881 107.569 2.69026C107.44 2.69026 107.301 2.70098 107.151 2.72243C107.086 3.10846 107.054 3.48376 107.054 3.84835C107.054 4.06281 107.065 4.27727 107.086 4.49173C107.108 4.68474 107.119 4.88848 107.119 5.10294C107.119 5.5962 107.044 6.03585 106.893 6.42187C107.022 6.59344 107.086 6.76501 107.086 6.93658C107.086 8.82384 107.054 10.7111 106.99 12.5983C106.947 14.4856 106.926 16.3729 106.926 18.2601C106.926 18.3673 106.926 18.5282 106.926 18.7426C106.947 18.9357 106.883 19.0536 106.733 19.0965C106.668 19.118 106.529 19.1287 106.314 19.1287C106.121 19.1501 105.896 19.1608 105.639 19.1608C105.403 19.1608 105.178 19.1608 104.963 19.1608C104.749 19.1608 104.599 19.1608 104.513 19.1608C104.213 19.1608 103.934 19.1394 103.677 19.0965C103.419 19.0751 103.291 18.8713 103.291 18.4853V15.8796C103.398 15.708 103.548 15.6222 103.741 15.6222H103.837C103.602 15.5365 103.419 15.3756 103.291 15.1397C103.291 13.231 103.333 11.3437 103.419 9.47794C103.505 7.59069 103.548 5.69271 103.548 3.78401C103.548 3.37653 103.505 3.01195 103.419 2.69026L101.875 2.65809C101.639 2.65809 101.253 2.66881 100.717 2.69026C100.202 2.7117 99.6661 2.70098 99.1085 2.65809C98.5724 2.6152 98.1006 2.51869 97.6931 2.36857C97.2856 2.197 97.0819 1.9182 97.0819 1.53217C97.0819 1.23192 97.1891 0.910232 97.4036 0.567095C97.618 0.202512 97.8861 0.0202201 98.2078 0.0202201ZM125.141 15.3971C125.42 15.3971 125.559 15.515 125.559 15.7509C125.559 15.8367 125.506 15.8689 125.398 15.8474C125.291 15.826 125.238 15.9332 125.238 16.1691C125.238 16.1906 125.238 16.2227 125.238 16.2656C125.259 16.2871 125.27 16.3085 125.27 16.33C125.398 16.6088 125.613 16.8554 125.913 17.0699C126.235 17.2629 126.589 17.4344 126.975 17.5846C127.361 17.7132 127.747 17.8205 128.133 17.9062C128.519 17.9706 128.851 18.0028 129.13 18.0028C129.559 18.0028 130.031 17.9491 130.546 17.8419C131.06 17.7347 131.532 17.5631 131.961 17.3272C132.39 17.0913 132.744 16.7911 133.023 16.4265C133.323 16.0404 133.473 15.5794 133.473 15.0432C133.473 14.2926 133.205 13.6278 132.669 13.0487C132.133 12.4697 131.532 11.9764 130.867 11.5689C130.224 11.14 129.613 10.7862 129.034 10.5074C128.476 10.2286 128.165 10.0034 128.101 9.8318L128.294 9.57445C127.972 9.63879 127.64 9.56373 127.296 9.34926C126.503 8.81311 125.902 8.13756 125.495 7.32261C125.109 6.50766 124.916 5.62837 124.916 4.68474C124.916 4.06281 125.098 3.53738 125.463 3.10846C125.827 2.65809 126.246 2.26134 126.717 1.9182H126.782L126.846 1.88603H127.039C127.168 1.88603 127.275 1.9182 127.361 1.98254C127.318 1.85386 127.296 1.76808 127.296 1.72518C127.296 1.59651 127.447 1.48928 127.747 1.40349C128.047 1.29626 128.379 1.21048 128.744 1.14614C129.13 1.0818 129.495 1.02819 129.838 0.985294C130.202 0.942401 130.449 0.920955 130.578 0.920955C130.985 0.920955 131.403 0.942401 131.832 0.985294C132.261 1.00674 132.679 1.07108 133.087 1.17831C133.516 1.26409 133.923 1.40349 134.309 1.59651C134.695 1.76808 135.038 2.00398 135.339 2.30423C135.596 2.56158 135.864 2.88327 136.143 3.2693C136.422 3.63388 136.561 4.00919 136.561 4.39522C136.561 4.88848 136.368 5.32812 135.982 5.71415C135.596 6.10018 135.156 6.2932 134.663 6.2932C134.148 6.2932 133.73 6.1538 133.409 5.875C133.108 5.5962 132.958 5.19945 132.958 4.68474C132.958 4.27727 133.087 3.99847 133.344 3.84835C133.623 3.69822 133.913 3.5481 134.213 3.39798C133.848 2.96906 133.409 2.65809 132.894 2.46507C132.401 2.25061 131.875 2.14338 131.318 2.14338C130.996 2.14338 130.631 2.18627 130.224 2.27206C129.838 2.35784 129.473 2.48652 129.13 2.65809C128.787 2.82966 128.497 3.06556 128.261 3.36581C128.026 3.64461 127.908 3.98774 127.908 4.39522C127.908 4.86703 128.079 5.32812 128.422 5.77849C128.787 6.20741 129.173 6.59344 129.58 6.93658C130.009 7.27972 130.395 7.56924 130.739 7.80515C131.082 8.01961 131.253 8.16973 131.253 8.25551C131.253 8.27696 131.242 8.29841 131.221 8.31985C131.221 8.3413 131.221 8.36274 131.221 8.38419C131.543 8.31985 131.95 8.40564 132.443 8.64154C132.937 8.87745 133.43 9.1777 133.923 9.54228C134.438 9.88542 134.91 10.2607 135.339 10.6682C135.768 11.0542 136.068 11.3759 136.239 11.6333C136.54 12.0407 136.743 12.4911 136.851 12.9844C136.958 13.4562 137.011 13.9387 137.011 14.432C137.011 15.5043 136.776 16.3836 136.304 17.0699C135.832 17.7347 135.221 18.2601 134.47 18.6461C133.741 19.0322 132.926 19.3002 132.025 19.4504C131.125 19.6005 130.235 19.6756 129.355 19.6756C128.648 19.6756 127.951 19.5898 127.264 19.4182C126.578 19.2681 125.945 18.9786 125.366 18.5496C125.238 18.4638 125.087 18.3566 124.916 18.2279C124.744 18.0778 124.573 17.917 124.401 17.7454C124.251 17.5738 124.112 17.4023 123.983 17.2307C123.876 17.0377 123.822 16.8554 123.822 16.6838C123.822 16.3407 123.951 16.0404 124.208 15.7831C124.487 15.5257 124.798 15.3971 125.141 15.3971ZM139.364 12.534C139.299 12.4911 139.246 12.3946 139.203 12.2445C139.16 12.0944 139.128 11.9335 139.106 11.7619C139.106 11.5904 139.106 11.4188 139.106 11.2472C139.106 11.0757 139.106 10.9577 139.106 10.8934C139.106 10.6146 139.106 10.1857 139.106 9.60662C139.106 9.00613 139.106 8.35202 139.106 7.6443C139.106 6.93658 139.106 6.20741 139.106 5.4568C139.106 4.68474 139.106 3.98774 139.106 3.36581C139.106 2.74387 139.106 2.22917 139.106 1.82169C139.128 1.39277 139.138 1.16759 139.138 1.14614L139.364 0.985294C140.972 0.985294 142.581 0.996017 144.189 1.01746C145.819 1.03891 147.438 1.04963 149.047 1.04963C149.175 1.04963 149.39 1.03891 149.69 1.01746C150.012 0.996017 150.323 0.985294 150.623 0.985294C150.945 0.985294 151.223 1.01746 151.459 1.0818C151.695 1.14614 151.813 1.26409 151.813 1.43566V2.27206C151.084 2.2935 150.355 2.30423 149.626 2.30423C148.896 2.30423 148.167 2.30423 147.438 2.30423C146.709 2.30423 145.98 2.30423 145.251 2.30423C144.543 2.30423 143.824 2.31495 143.095 2.3364C143.052 2.37929 143.01 2.4329 142.967 2.49724C142.945 2.56158 142.934 2.62592 142.934 2.69026C142.934 2.9905 142.945 3.32292 142.967 3.6875C143.01 4.03064 142.881 4.30944 142.581 4.5239C142.774 4.73836 142.881 5.08149 142.902 5.55331C142.945 6.00368 142.967 6.36826 142.967 6.64706L142.934 7.77298C143.042 7.79442 143.138 7.81587 143.224 7.83732C143.31 7.83732 143.406 7.83732 143.513 7.83732C144.436 7.83732 145.347 7.82659 146.248 7.80515C147.17 7.76225 148.092 7.7837 149.014 7.86948C149.014 7.91238 149.025 7.96599 149.047 8.03033C149.068 8.07322 149.079 8.11611 149.079 8.15901C149.079 8.30913 149.079 8.44853 149.079 8.57721C149.079 8.70588 149.057 8.84528 149.014 8.9954C148.671 9.01685 148.339 9.02757 148.017 9.02757C147.695 9.02757 147.363 9.02757 147.02 9.02757C146.334 9.02757 145.647 9.02757 144.961 9.02757C144.296 9.00613 143.621 9.01685 142.934 9.05974C142.934 10.2822 142.913 11.4831 142.87 12.6627C142.849 13.8422 142.838 15.0432 142.838 16.2656V17.7776C143.61 17.799 144.382 17.8097 145.154 17.8097C145.948 17.8097 146.73 17.8097 147.502 17.8097C148.253 17.8097 149.014 17.8097 149.786 17.8097C150.559 17.8097 151.32 17.799 152.07 17.7776V18.2279C152.07 18.4638 152.028 18.6676 151.942 18.8392C151.877 19.0107 151.695 19.0965 151.395 19.0965C150.237 19.0965 149.068 19.0858 147.888 19.0643C146.73 19.0643 145.572 19.0643 144.414 19.0643C143.642 19.0643 142.87 19.0751 142.098 19.0965C141.326 19.1394 140.554 19.1608 139.782 19.1608C139.46 19.1608 139.256 19.0858 139.171 18.9357C139.085 18.7855 139.042 18.5604 139.042 18.2601C139.042 17.7669 139.031 17.2843 139.01 16.8125C139.01 16.3407 139.01 15.8581 139.01 15.3649C139.01 14.8716 139.01 14.3891 139.01 13.9173C139.01 13.424 139.128 12.9629 139.364 12.534ZM154.326 13.0809L154.519 12.7592L154.68 12.6627L154.391 12.534C154.369 12.5126 154.337 12.4697 154.294 12.4053C154.273 12.3195 154.262 12.2659 154.262 12.2445V1.75735C154.262 1.34988 154.348 1.10325 154.519 1.01746C154.691 0.910232 154.959 0.856617 155.323 0.856617C155.817 0.856617 156.299 0.878063 156.771 0.920955C157.243 0.963848 157.725 0.985294 158.219 0.985294C158.39 0.985294 158.487 1.07108 158.508 1.24265C158.551 1.41422 158.573 1.56434 158.573 1.69301V4.23437C158.573 4.3416 158.573 4.58823 158.573 4.97426C158.573 5.36029 158.562 5.76777 158.54 6.19669C158.54 6.60417 158.53 6.97947 158.508 7.32261C158.508 7.66575 158.497 7.85876 158.476 7.90165C158.369 8.07322 158.229 8.16973 158.058 8.19118C158.144 8.23407 158.229 8.26624 158.315 8.28768C158.401 8.30913 158.465 8.37347 158.508 8.4807C158.53 8.50214 158.54 8.72733 158.54 9.15625C158.54 9.56373 158.54 10.0892 158.54 10.7325C158.562 11.3545 158.573 12.0407 158.573 12.7914C158.573 13.542 158.573 14.2604 158.573 14.9467C158.573 15.633 158.573 16.2335 158.573 16.7482C158.573 17.2629 158.573 17.5953 158.573 17.7454H163.591C163.891 17.7454 164.245 17.7561 164.652 17.7776C165.081 17.7776 165.489 17.8312 165.875 17.9384C166.282 18.0242 166.626 18.1743 166.904 18.3888C167.183 18.5818 167.323 18.8928 167.323 19.3217C167.323 19.6863 167.205 19.9329 166.969 20.0616C166.754 20.1903 166.486 20.2546 166.164 20.2546C166.1 20.2546 165.993 20.2439 165.843 20.2224C165.714 20.201 165.65 20.1366 165.65 20.0294C165.65 19.9865 165.671 19.9115 165.714 19.8042C165.778 19.697 165.811 19.579 165.811 19.4504C165.811 19.2574 165.671 19.1394 165.392 19.0965C165.135 19.0751 164.942 19.0643 164.813 19.0643C163.655 19.0643 162.486 19.0643 161.307 19.0643C160.149 19.0858 158.991 19.0965 157.833 19.0965C157.018 19.0965 156.364 19.1072 155.87 19.1287C155.398 19.1716 155.034 19.1287 154.777 19C154.541 18.8928 154.391 18.6569 154.326 18.2923C154.262 17.9277 154.23 17.3487 154.23 16.5551C154.23 16.3192 154.219 16.0512 154.198 15.7509C154.198 15.4292 154.198 15.1075 154.198 14.7858C154.198 14.4642 154.208 14.1532 154.23 13.8529C154.251 13.5312 154.283 13.2739 154.326 13.0809ZM169.546 12.6627C169.396 12.6198 169.321 12.5447 169.321 12.4375C169.321 11.2151 169.321 10.0141 169.321 8.83456C169.321 7.65502 169.31 6.45404 169.289 5.23162C169.289 4.73836 169.299 4.18076 169.321 3.55882C169.364 2.93689 169.342 2.37929 169.257 1.88603C169.278 1.80024 169.289 1.72518 169.289 1.66085C169.289 1.59651 169.299 1.52145 169.321 1.43566C169.407 1.34988 169.503 1.30698 169.61 1.30698H180.484C180.569 1.30698 180.687 1.30698 180.837 1.30698C180.988 1.28554 181.138 1.28554 181.288 1.30698C181.438 1.32843 181.567 1.37132 181.674 1.43566C181.781 1.47855 181.835 1.56434 181.835 1.69301V2.52941C181.341 2.55086 180.859 2.56158 180.387 2.56158C179.915 2.56158 179.443 2.56158 178.972 2.56158C178.007 2.56158 177.052 2.56158 176.109 2.56158C175.165 2.56158 174.211 2.5723 173.245 2.59375C173.117 2.76532 173.052 2.91544 173.052 3.04412C173.052 3.19424 173.063 3.34436 173.085 3.49448C173.106 3.64461 173.117 3.79473 173.117 3.94485C173.117 4.09498 173.085 4.2451 173.02 4.39522C172.977 4.5239 172.881 4.64185 172.731 4.74908C172.902 4.98499 173.01 5.30668 173.052 5.71415C173.095 6.12163 173.117 6.47549 173.117 6.77573C173.117 6.96875 173.106 7.17249 173.085 7.38695C173.085 7.57996 173.085 7.77298 173.085 7.96599C173.192 7.98744 173.288 8.00888 173.374 8.03033C173.46 8.05178 173.556 8.0625 173.664 8.0625C174.564 8.0625 175.465 8.05178 176.366 8.03033C177.288 7.98744 178.2 8.00888 179.1 8.09467C179.122 8.18045 179.132 8.29841 179.132 8.44853C179.132 8.57721 179.132 8.70588 179.132 8.83456C179.132 8.94179 179.111 9.05974 179.068 9.18842H177.588C176.838 9.18842 176.087 9.18842 175.336 9.18842C174.586 9.18842 173.835 9.20986 173.085 9.25276V15.6222C173.085 15.7509 173.085 15.9868 173.085 16.33C173.106 16.6731 173.117 17.027 173.117 17.3915C173.117 17.7561 173.106 18.0885 173.085 18.3888C173.063 18.689 173.02 18.882 172.956 18.9678C172.892 19.0536 172.817 19.0965 172.731 19.0965C172.666 19.118 172.591 19.1287 172.506 19.1287H172.441C172.098 19.193 171.712 19.2145 171.283 19.193C170.876 19.193 170.5 19.193 170.157 19.193C169.771 19.193 169.525 19.1501 169.417 19.0643C169.31 18.9786 169.257 18.7319 169.257 18.3244V15.7187C169.257 15.5257 169.246 15.2898 169.224 15.011C169.224 14.7322 169.224 14.4427 169.224 14.1425C169.246 13.8422 169.278 13.5634 169.321 13.3061C169.364 13.0273 169.439 12.8128 169.546 12.6627Z" fill="black"/>
</svg>
