<svg width="37" height="37" viewBox="0 0 37 37" fill="none" xmlns="http://www.w3.org/2000/svg"><rect x="1.35645" y="1.48267" width="35" height="35" rx="6.5" fill="white" fill-opacity="0.23" stroke="white"/><path d="M25.2259 28.0231C25.1943 28.0298 25.1355 28.0345 25.0627 28.0386C24.9864 28.0428 24.8859 28.0467 24.765 28.0503C24.5231 28.0575 24.1976 28.0635 23.8165 28.0683C23.0542 28.0779 22.0682 28.0827 21.0825 28.0827C20.0968 28.0827 19.1108 28.0779 18.3485 28.0683C17.9675 28.0635 17.6419 28.0575 17.4 28.0503C17.2791 28.0467 17.1786 28.0428 17.1023 28.0386C17.0294 28.0345 16.9707 28.0298 16.9391 28.0231C16.2982 27.8884 15.743 27.4696 15.4609 26.8979L15.4608 26.8978C15.345 26.6626 15.2791 26.5025 15.2447 26.2136C15.2112 25.9328 15.207 25.5274 15.207 24.8009V23.624H14.0301C13.3036 23.624 12.8983 23.6199 12.6175 23.5864C12.3285 23.5519 12.1684 23.486 11.9332 23.3702C11.5238 23.1691 11.2086 22.8539 11.0075 22.4445C10.998 22.4252 10.9887 22.4067 10.9796 22.3885C10.9294 22.2884 10.8862 22.2022 10.8539 22.0878C10.8157 21.9528 10.7928 21.7811 10.7785 21.4937C10.7524 20.9666 10.7547 20.0253 10.7593 18.1552C10.7597 17.9888 10.7601 17.815 10.7606 17.6335L10.7606 17.6335L10.771 13.6602L10.771 13.6429L10.7769 13.6267L10.8741 13.3558C10.8741 13.3558 10.8742 13.3557 10.8742 13.3556C11.0736 12.7901 11.4315 12.376 11.9362 12.1237L11.937 12.1233C12.0983 12.0444 12.3321 11.9576 12.4671 11.9276L12.4689 11.9272C12.5246 11.9159 12.6114 11.9081 12.7563 11.9022C12.9029 11.8961 13.1145 11.8918 13.4233 11.8887C14.0411 11.8826 15.0515 11.8817 16.7162 11.8835H16.7163L20.7174 11.8904L20.7347 11.8905L20.751 11.8963L21.0218 11.9936C21.0219 11.9936 21.022 11.9936 21.0221 11.9936C21.5876 12.1931 22.0016 12.5509 22.254 13.0556L22.2544 13.0564C22.3685 13.29 22.4334 13.4501 22.4674 13.7384C22.5004 14.0187 22.5046 14.423 22.5046 15.1461V16.3237L23.7901 16.3334L25.1713 16.3438L25.1884 16.344L25.2044 16.3497L25.4751 16.4469C25.4752 16.4469 25.4753 16.447 25.4754 16.447C26.2204 16.7088 26.7467 17.2997 26.9037 18.0586C26.9104 18.0902 26.9151 18.149 26.9191 18.2218C26.9234 18.2981 26.9273 18.3986 26.9309 18.5195C26.9381 18.7613 26.9441 19.0869 26.9489 19.468C26.9584 20.2303 26.9632 21.2162 26.9632 22.2019C26.9632 23.1877 26.9584 24.1736 26.9489 24.9359C26.9441 25.317 26.9381 25.6426 26.9309 25.8844C26.9273 26.0053 26.9234 26.1058 26.9191 26.1821C26.9151 26.2548 26.9104 26.3135 26.9037 26.3452L26.8059 26.3248L26.9037 26.3455C26.7285 27.188 26.0684 27.848 25.2259 28.0231ZM25.2259 28.0231C25.226 28.0231 25.226 28.0231 25.2261 28.0231L25.2054 27.9253L25.2257 28.0232C25.2258 28.0232 25.2258 28.0231 25.2259 28.0231ZM12.5375 22.282L12.584 22.1934C12.6165 22.2105 12.6367 22.22 12.6682 22.2279C12.7023 22.2364 12.7527 22.2436 12.8441 22.2491C13.0274 22.2602 13.3526 22.2637 13.9927 22.269C13.9927 22.269 13.9927 22.269 13.9927 22.269L15.204 22.2786L15.214 20.2461L15.2244 18.1134L15.2245 18.0962L15.2303 18.0801L15.3275 17.8092C15.3275 17.8091 15.3276 17.8091 15.3276 17.809C15.527 17.2435 15.8849 16.8294 16.3896 16.5771L16.3901 16.5768C16.5096 16.5179 16.6084 16.47 16.7234 16.4338C16.8393 16.3973 16.968 16.3737 17.1498 16.3581C17.5097 16.3272 18.0948 16.3264 19.2316 16.3264H21.1592L21.1495 15.1121C21.1443 14.4721 21.1408 14.1468 21.1297 13.9636C21.1241 13.8722 21.117 13.8217 21.1085 13.7876C21.1006 13.7561 21.091 13.736 21.074 13.7035C20.986 13.5369 20.8405 13.3915 20.674 13.3035L20.6734 13.3032L20.5528 13.2385L16.6987 13.2316C15.6324 13.2316 14.6514 13.2334 13.9297 13.2368C13.5688 13.2386 13.273 13.2408 13.0637 13.2434C12.959 13.2447 12.8764 13.2461 12.8183 13.2476C12.7891 13.2483 12.7667 13.2491 12.7509 13.2499L12.7338 13.2509C12.5125 13.3072 12.3069 13.4739 12.1839 13.7041L12.1838 13.7043L12.1191 13.8248V17.7485V21.6723L12.1838 21.7928L12.1841 21.7934C12.2721 21.96 12.4176 22.1055 12.5843 22.1935L12.5375 22.282ZM12.5375 22.282C12.6767 22.355 12.715 22.3585 13.9919 22.3689M12.5375 22.282C12.3532 22.1846 12.1931 22.0245 12.0957 21.8401L13.9919 22.3689M13.9919 22.3689L15.2035 22.3786L13.9919 22.3689ZM25.1274 17.7569L25.1268 17.7566L25.0062 17.6919L21.1521 17.685C20.0858 17.685 19.1048 17.6868 18.3831 17.6902C18.0222 17.692 17.7264 17.6942 17.5171 17.6968C17.4124 17.6981 17.3298 17.6995 17.2717 17.701C17.2425 17.7017 17.2201 17.7025 17.2043 17.7033L17.1872 17.7043C16.9659 17.7606 16.7603 17.9273 16.6373 18.1575L16.6372 18.1577L16.5725 18.2782V22.2019V26.1257L16.6372 26.2462L16.6375 26.2468C16.7255 26.4134 16.871 26.5589 17.0377 26.6469L17.0382 26.6473L17.1587 26.7119H21.0825H25.0063L25.1268 26.6472L25.1274 26.6469C25.294 26.5589 25.4395 26.4134 25.5275 26.2468L25.5278 26.2462L25.5925 26.1257V22.2019V18.2782L25.5278 18.1577L25.5275 18.1571C25.4395 17.9905 25.294 17.845 25.1274 17.7569Z" fill="white" stroke="white" stroke-width="0.2"/></svg>