<svg width="19" height="14" viewBox="0 0 19 14" fill="none" xmlns="http://www.w3.org/2000/svg">
<path fill-rule="evenodd" clip-rule="evenodd" d="M9.50249 0C13.4316 0.00260789 16.9599 2.52269 18.9416 6.74225C19.0195 6.90655 19.0195 7.09258 18.9416 7.25688C16.9608 11.4773 13.4316 13.9974 9.50249 14H9.49679C5.56764 13.9974 2.03939 11.4773 0.0577118 7.25688C-0.0192373 7.09258 -0.0192373 6.90655 0.0577118 6.74225C2.03939 2.52269 5.56859 0.00260789 9.49679 0H9.50249ZM9.49964 1.30394C6.23548 1.30481 3.25822 3.4285 1.49124 6.99957C3.25822 10.5715 6.23453 12.6952 9.49964 12.6961C12.7648 12.6952 15.7411 10.5715 17.508 6.99957C15.7411 3.4285 12.7648 1.30481 9.49964 1.30394ZM9.49936 3.59958C11.5485 3.59958 13.2157 5.12519 13.2157 7.00026C13.2157 8.87446 11.5485 10.3992 9.49936 10.3992C7.45023 10.3992 5.78396 8.87446 5.78396 7.00026C5.78396 5.12519 7.45023 3.59958 9.49936 3.59958ZM9.49936 4.90352C8.23588 4.90352 7.20894 5.8441 7.20894 7.00026C7.20894 8.15555 8.23588 9.09526 9.49936 9.09526C10.7628 9.09526 11.7907 8.15555 11.7907 7.00026C11.7907 5.8441 10.7628 4.90352 9.49936 4.90352Z" fill="#263238"/>
</svg>
