<svg width="22" height="22" viewBox="0 0 22 22" fill="none" xmlns="http://www.w3.org/2000/svg">
<path opacity="0.1" d="M15.774 0H6.237C2.508 0 0 2.618 0 6.512V15.499C0 19.382 2.508 22 6.237 22H15.774C19.503 22 22 19.382 22 15.499V6.512C22 2.618 19.503 0 15.774 0Z" fill="#007EA7"/>
<path d="M14.3173 12.9476L12.3604 10.9918L14.3162 9.03595C14.6924 8.66085 14.6924 8.05035 14.3162 7.67525C13.94 7.29685 13.3317 7.29795 12.9555 7.67415L10.9986 9.62995L9.04168 7.67195C8.66548 7.29575 8.05608 7.29795 7.67988 7.67195C7.30478 8.04815 7.30478 8.65865 7.67988 9.03375L9.63788 10.9918L7.68428 12.9443C7.30808 13.3205 7.30808 13.931 7.68428 14.305C7.87238 14.4942 8.11768 14.5877 8.36408 14.5877C8.61158 14.5877 8.85688 14.4942 9.04498 14.3061L10.9986 12.3525L12.9566 14.3094C13.1447 14.4975 13.39 14.591 13.6364 14.591C13.8828 14.591 14.1292 14.4964 14.3173 14.3094C14.6935 13.9332 14.6935 13.3238 14.3173 12.9476Z" fill="#007EA7"/>
</svg>
