<svg width="10" height="10" viewBox="0 0 10 10" fill="none" xmlns="http://www.w3.org/2000/svg">
<path fill-rule="evenodd" clip-rule="evenodd" d="M9.3372 8.68439C9.54336 8.68439 9.71068 8.85171 9.71068 9.05787C9.71068 9.26403 9.54336 9.43135 9.3372 9.43135H5.72541C5.51925 9.43135 5.35193 9.26403 5.35193 9.05787C5.35193 8.85171 5.51925 8.68439 5.72541 8.68439H9.3372ZM7.0295 0.325495C7.0544 0.344916 7.88751 0.992279 7.88751 0.992279C8.19027 1.17254 8.42681 1.49473 8.51644 1.87618C8.60558 2.25364 8.54084 2.64305 8.33319 2.97221C8.3318 2.97441 8.33043 2.97658 8.32562 2.98303L8.32187 2.98802C8.28816 3.03244 8.14164 3.21771 7.40213 4.14423C7.39526 4.15638 7.38747 4.16775 7.37898 4.1788C7.36651 4.19509 7.35293 4.21006 7.33845 4.22369C7.288 4.2872 7.23473 4.35394 7.17871 4.4241L7.06521 4.56625C6.83102 4.85954 6.55323 5.20733 6.22368 5.61984L6.05454 5.83153C5.4183 6.62787 4.60346 7.64747 3.55964 8.95335C3.33107 9.23819 2.98846 9.40401 2.62046 9.40849L0.808344 9.4314H0.803364C0.630568 9.4314 0.480181 9.31288 0.439845 9.14407L0.0320068 7.41561C-0.0521504 7.05757 0.0315088 6.68808 0.261074 6.40124L4.95196 0.534145C4.95396 0.532153 4.95545 0.529664 4.95744 0.527672C5.47185 -0.0873229 6.40206 -0.177954 7.0295 0.325495ZM4.42896 2.38379L0.844198 6.86784C0.759045 6.97441 0.727673 7.11185 0.759045 7.24381L1.09816 8.68046L2.6115 8.66154C2.75541 8.66004 2.88837 8.5958 2.97651 8.48625C3.4304 7.91836 4.00087 7.20459 4.58738 6.47065L4.79488 6.21098L5.00274 5.95086C5.55279 5.26251 6.0962 4.58237 6.55088 4.01308L4.42896 2.38379ZM5.5326 1.00423L4.89556 1.80017L7.0173 3.429C7.42569 2.91746 7.69435 2.58056 7.71919 2.54844C7.80086 2.41598 7.83273 2.22874 7.7899 2.04848C7.74608 1.86373 7.63105 1.70687 7.46522 1.60678C7.42987 1.58238 6.59079 0.931028 6.56489 0.910612C6.24918 0.657642 5.78856 0.701464 5.5326 1.00423Z" fill="white"/>
</svg>
