<svg width="110" height="104" viewBox="0 0 110 104" fill="none" xmlns="http://www.w3.org/2000/svg">
<g clip-path="url(#clip0_4_2180)">
<path d="M106.219 3.33398H89.2993V20.9719H106.219V3.33398Z" fill="#E0E0E0"/>
<path d="M105.076 3.33411H88.1554V20.972H105.076V3.33411Z" fill="#FAFAFA"/>
<path d="M105.08 20.9768H88.1504V3.3291H105.08V20.9768ZM88.1602 20.967H105.071V3.3389H88.1602V20.967Z" fill="#E0E0E0"/>
<path d="M102.8 5.70532H90.4286V18.6006H102.8V5.70532Z" fill="white"/>
<path d="M90.4286 18.6864C90.4384 18.6986 90.3208 18.8334 90.1224 19.0416C89.9239 19.2498 89.6471 19.5315 89.336 19.8377C89.0249 20.144 88.7383 20.4183 88.5276 20.6119C88.3169 20.8054 88.1798 20.9205 88.17 20.9107C88.1602 20.9009 88.2753 20.7662 88.4737 20.558C88.6721 20.3497 88.949 20.0656 89.2625 19.7594C89.5736 19.4531 89.8602 19.1788 90.0734 18.9852C90.284 18.7893 90.4188 18.6766 90.4286 18.6864Z" fill="#E0E0E0"/>
<path d="M102.8 18.6545C102.812 18.6447 102.947 18.7623 103.155 18.9607C103.363 19.1591 103.645 19.436 103.951 19.7471C104.257 20.0582 104.532 20.3448 104.725 20.5555C104.919 20.7661 105.034 20.9033 105.024 20.9131C105.014 20.9229 104.879 20.8078 104.671 20.6094C104.463 20.4109 104.179 20.1341 103.873 19.8206C103.566 19.5094 103.292 19.2228 103.098 19.0097C102.903 18.8015 102.79 18.6643 102.8 18.6545Z" fill="#E0E0E0"/>
<path d="M102.765 5.73956C102.756 5.72732 102.873 5.59258 103.072 5.38436C103.27 5.17613 103.547 4.89441 103.858 4.5882C104.169 4.28199 104.456 4.00762 104.666 3.81409C104.877 3.62057 105.014 3.50543 105.024 3.51523C105.034 3.52503 104.919 3.65976 104.72 3.86799C104.522 4.07621 104.245 4.36038 103.931 4.66659C103.62 4.9728 103.334 5.24717 103.121 5.4407C102.912 5.63668 102.775 5.75181 102.765 5.73956Z" fill="#E0E0E0"/>
<path d="M90.3943 5.77142C90.382 5.78122 90.2473 5.66363 90.0391 5.4652C89.8308 5.26678 89.5491 4.98996 89.2429 4.67885C88.9367 4.36773 88.6623 4.08112 88.4688 3.87044C88.2753 3.65977 88.1602 3.52258 88.17 3.51279C88.1798 3.50299 88.3145 3.61812 88.5227 3.81655C88.7309 4.01498 89.0151 4.29179 89.3213 4.60536C89.63 4.91647 89.9019 5.20309 90.0954 5.41621C90.2938 5.62689 90.4065 5.76162 90.3943 5.77142Z" fill="#E0E0E0"/>
<path d="M102.765 18.6005C102.765 18.6005 102.763 18.5785 102.763 18.5368C102.763 18.4927 102.76 18.434 102.76 18.358C102.758 18.1963 102.758 17.9636 102.756 17.6623C102.753 17.0523 102.748 16.1631 102.743 15.0338C102.738 12.7751 102.729 9.55866 102.719 5.70526L102.765 5.75181C99.1643 5.75425 94.9336 5.7567 90.4286 5.75915H90.4261L90.48 5.70526C90.4776 10.4381 90.4751 14.8672 90.4727 18.6005L90.4261 18.554C94.1227 18.5638 97.202 18.5711 99.3602 18.5785C100.438 18.5834 101.286 18.5883 101.869 18.5907C102.158 18.5932 102.378 18.5956 102.533 18.5956C102.606 18.5956 102.662 18.5981 102.704 18.5981C102.746 18.6005 102.765 18.6005 102.765 18.6005C102.765 18.6005 102.748 18.603 102.711 18.603C102.67 18.603 102.616 18.6054 102.545 18.6054C102.393 18.6079 102.175 18.6079 101.891 18.6103C101.31 18.6128 100.465 18.6177 99.3921 18.6226C97.2265 18.6275 94.1374 18.6373 90.4286 18.6471H90.382V18.6005C90.3796 14.8672 90.3771 10.4381 90.3747 5.70526V5.65137H90.4286H90.431C94.936 5.65382 99.1667 5.65627 102.768 5.65872H102.817V5.70526C102.807 9.5709 102.797 12.7996 102.792 15.0656C102.787 16.19 102.782 17.0744 102.78 17.6819C102.778 17.9808 102.775 18.2086 102.775 18.3678C102.775 18.4413 102.773 18.5001 102.773 18.5417C102.768 18.5834 102.768 18.603 102.765 18.6005Z" fill="#E0E0E0"/>
<path d="M98.6792 10.0903H94.5515V14.2181H98.6792V10.0903Z" fill="#EBEBEB"/>
<path d="M106.219 27.7528H89.2993V45.3907H106.219V27.7528Z" fill="#E0E0E0"/>
<path d="M105.076 27.7529H88.1554V45.3908H105.076V27.7529Z" fill="#FAFAFA"/>
<path d="M105.08 45.3981H88.1504V27.7504H105.08V45.3981ZM88.1602 45.3858H105.071V27.7577H88.1602V45.3858Z" fill="#E0E0E0"/>
<path d="M102.8 30.1241H90.4286V43.0194H102.8V30.1241Z" fill="white"/>
<path d="M90.4286 43.1076C90.4384 43.1198 90.3208 43.2546 90.1224 43.4628C89.9239 43.671 89.6471 43.9527 89.336 44.259C89.0249 44.5652 88.7383 44.8395 88.5276 45.0331C88.3169 45.2266 88.1798 45.3417 88.17 45.3319C88.1602 45.3221 88.2753 45.1874 88.4737 44.9792C88.6721 44.7709 88.949 44.4868 89.2625 44.1806C89.5736 43.8744 89.8602 43.6 90.0734 43.4065C90.284 43.208 90.4188 43.0953 90.4286 43.1076Z" fill="#E0E0E0"/>
<path d="M102.8 43.0758C102.812 43.066 102.947 43.1836 103.155 43.382C103.363 43.5804 103.645 43.8572 103.951 44.1683C104.257 44.4794 104.532 44.7661 104.725 44.9767C104.919 45.1874 105.034 45.3246 105.024 45.3344C105.014 45.3442 104.879 45.2291 104.671 45.0306C104.463 44.8322 104.179 44.5554 103.873 44.2418C103.566 43.9307 103.292 43.6441 103.098 43.431C102.903 43.2203 102.79 43.0856 102.8 43.0758Z" fill="#E0E0E0"/>
<path d="M102.765 30.1584C102.756 30.1461 102.873 30.0114 103.072 29.8032C103.27 29.595 103.547 29.3132 103.858 29.007C104.169 28.7008 104.456 28.4264 104.666 28.2329C104.877 28.0394 105.014 27.9243 105.024 27.9341C105.034 27.9438 104.919 28.0786 104.72 28.2868C104.522 28.495 104.245 28.7792 103.931 29.0854C103.62 29.3916 103.334 29.666 103.121 29.8595C102.912 30.0555 102.775 30.1706 102.765 30.1584Z" fill="#E0E0E0"/>
<path d="M90.3943 30.1902C90.382 30.2 90.2473 30.0825 90.0391 29.884C89.8308 29.6856 89.5491 29.4088 89.2429 29.0977C88.9367 28.7866 88.6623 28.4999 88.4688 28.2893C88.2753 28.0786 88.1602 27.9414 88.17 27.9316C88.1798 27.9218 88.3145 28.0369 88.5227 28.2354C88.7309 28.4338 89.0151 28.7106 89.3213 29.0242C89.63 29.3353 89.9019 29.6219 90.0954 29.835C90.2938 30.0457 90.4065 30.1804 90.3943 30.1902Z" fill="#E0E0E0"/>
<path d="M102.765 43.0194C102.765 43.0194 102.763 42.9973 102.763 42.9557C102.763 42.9116 102.76 42.8528 102.76 42.7768C102.758 42.6152 102.758 42.3824 102.756 42.0811C102.753 41.4711 102.748 40.5819 102.743 39.4526C102.738 37.1939 102.729 33.9775 102.719 30.1241L102.765 30.1706C99.1643 30.1731 94.9336 30.1755 90.4286 30.178H90.4261L90.48 30.1241C90.4776 34.8569 90.4751 39.286 90.4727 43.0194L90.4261 42.9728C94.1227 42.9826 97.202 42.99 99.3602 42.9973C100.438 43.0022 101.286 43.0071 101.869 43.0096C102.158 43.012 102.378 43.0145 102.533 43.0145C102.606 43.0145 102.662 43.0169 102.704 43.0169C102.746 43.0194 102.765 43.0194 102.765 43.0194C102.765 43.0194 102.748 43.0218 102.711 43.0218C102.67 43.0218 102.616 43.0243 102.545 43.0243C102.393 43.0243 102.175 43.0267 101.891 43.0292C101.31 43.0316 100.465 43.0365 99.3921 43.0414C97.2265 43.0463 94.1374 43.0561 90.4286 43.0659H90.382V43.0194C90.3796 39.286 90.3771 34.8569 90.3747 30.1241V30.0702H90.4286H90.431C94.936 30.0726 99.1667 30.0751 102.768 30.0775H102.817V30.1241C102.807 33.9897 102.797 37.2184 102.792 39.4844C102.787 40.6088 102.782 41.4932 102.78 42.1007C102.778 42.3996 102.775 42.6274 102.775 42.7866C102.775 42.8601 102.773 42.9189 102.773 42.9606C102.768 43.0022 102.768 43.0218 102.765 43.0194Z" fill="#E0E0E0"/>
<path d="M98.6792 34.5092H94.5515V38.6369H98.6792V34.5092Z" fill="#EBEBEB"/>
<path d="M17.9196 46.0938H4.57361V60.0081H17.9196V46.0938Z" fill="#E0E0E0"/>
<path d="M17.0158 46.0939H3.6698V60.0082H17.0158V46.0939Z" fill="#FAFAFA"/>
<path d="M17.0206 60.0106H3.66476V46.0889H17.0206V60.0106ZM3.67456 60.0032H17.0132V46.0987H3.67456V60.0032Z" fill="#E0E0E0"/>
<path d="M15.2249 47.9653H5.4653V58.139H15.2249V47.9653Z" fill="white"/>
<path d="M5.46531 58.2052C5.47266 58.215 5.37957 58.3203 5.22523 58.4845C5.06845 58.6486 4.85043 58.8715 4.60546 59.114C4.36049 59.3566 4.13511 59.5721 3.96853 59.724C3.80195 59.8759 3.69417 59.9665 3.68682 59.9592C3.67947 59.9518 3.77011 59.844 3.92689 59.6799C4.08367 59.5158 4.30169 59.2929 4.54911 59.0503C4.79654 58.8078 5.02191 58.5922 5.18849 58.4379C5.35017 58.286 5.45551 58.1954 5.46531 58.2052Z" fill="#E0E0E0"/>
<path d="M15.2225 58.1806C15.2323 58.1732 15.3376 58.2663 15.5018 58.4207C15.6659 58.5774 15.8888 58.7955 16.1313 59.0404C16.3739 59.2854 16.5894 59.5108 16.7413 59.6774C16.8932 59.8439 16.9838 59.9517 16.9765 59.9591C16.9691 59.9664 16.8614 59.8758 16.6972 59.719C16.5331 59.5622 16.3102 59.3442 16.0676 59.0968C15.8251 58.8518 15.6095 58.624 15.4552 58.4574C15.3033 58.2933 15.2127 58.1879 15.2225 58.1806Z" fill="#E0E0E0"/>
<path d="M15.1955 47.9923C15.1882 47.9825 15.2813 47.8772 15.4356 47.7131C15.5924 47.5489 15.8104 47.326 16.0554 47.0835C16.3004 46.841 16.5257 46.6254 16.6923 46.4735C16.8589 46.3216 16.9667 46.231 16.974 46.2383C16.9814 46.2457 16.8907 46.3535 16.734 46.5176C16.5772 46.6817 16.3591 46.9047 16.1117 47.1472C15.8668 47.3897 15.6389 47.6053 15.4724 47.7596C15.3107 47.9115 15.2029 48.0021 15.1955 47.9923Z" fill="#E0E0E0"/>
<path d="M5.43837 48.0168C5.42857 48.0242 5.32323 47.9311 5.1591 47.7767C4.99497 47.62 4.77205 47.4019 4.52953 47.157C4.287 46.912 4.07143 46.6866 3.91955 46.52C3.76767 46.3535 3.67703 46.2457 3.68438 46.2383C3.69172 46.231 3.79951 46.3216 3.96364 46.4784C4.12777 46.6352 4.3507 46.8532 4.59322 47.1006C4.83574 47.348 5.05131 47.5734 5.20565 47.74C5.35753 47.9017 5.44572 48.0095 5.43837 48.0168Z" fill="#E0E0E0"/>
<path d="M15.1955 58.1366C15.1955 58.1366 15.1931 58.1194 15.1931 58.0876C15.1931 58.0533 15.1906 58.0067 15.1906 57.9455C15.1906 57.8181 15.1882 57.6344 15.1857 57.3967C15.1833 56.9142 15.1808 56.2135 15.1759 55.3243C15.171 53.5433 15.1637 51.0055 15.1563 47.9654L15.1931 48.0021C12.3514 48.0046 9.01491 48.0046 5.46283 48.007L5.50693 47.9629C5.50448 51.6963 5.50203 55.1896 5.50203 58.1366L5.46528 58.0998C8.38044 58.1072 10.8106 58.1145 12.5107 58.1194C13.3607 58.1243 14.0295 58.1268 14.49 58.1292C14.7178 58.1317 14.8918 58.1317 15.0143 58.1341C15.073 58.1341 15.1171 58.1366 15.149 58.1366C15.1808 58.1366 15.1955 58.1366 15.1955 58.1366C15.1955 58.1366 15.1808 58.139 15.1514 58.139C15.1196 58.139 15.0755 58.139 15.0192 58.1415C14.8991 58.1415 14.7276 58.1439 14.5023 58.1464C14.0442 58.1488 13.3778 58.1513 12.5302 58.1562C10.8228 58.1611 8.38534 58.1684 5.46039 58.1758H5.42364V58.139C5.42119 55.192 5.41874 51.7012 5.41629 47.9654V47.9213H5.46039C9.01491 47.9237 12.3514 47.9262 15.1906 47.9262H15.2274V47.9629C15.22 51.0128 15.2127 53.558 15.2078 55.3463C15.2029 56.2331 15.2004 56.9313 15.198 57.4114C15.1955 57.6466 15.1955 57.8279 15.1931 57.9528C15.1931 58.0116 15.1906 58.0582 15.1906 58.09C15.198 58.1219 15.198 58.139 15.1955 58.1366Z" fill="#E0E0E0"/>
<path d="M11.9717 51.4219H8.71606V54.6775H11.9717V51.4219Z" fill="#EBEBEB"/>
<path d="M104.47 52.5757C101.847 53.9353 99.8355 56.2747 98.3902 58.8494C96.9449 61.424 96.0115 64.251 95.088 67.0584L94.2796 81.5313C97.3319 76.3379 99.7816 70.2356 100.443 64.2486C99.7669 64.1873 99.0884 64.1285 98.4122 64.0673C99.7743 63.859 100.918 62.8718 101.643 61.7033C102.371 60.5323 102.746 59.185 103.111 57.8548C102.285 57.9773 101.46 58.0998 100.632 58.2223C102.574 56.9288 103.983 54.8588 104.47 52.5757Z" fill="#E0E0E0"/>
<path d="M93.8288 84.9217C93.8288 84.9217 87.2048 76.992 87.2808 69.4224H89.9558C89.9558 69.4224 87.048 67.5116 87.2783 66.4411C87.5086 65.3706 87.5845 61.3187 87.5845 61.3187L90.0318 61.9312C90.0318 61.9312 88.1969 61.0125 87.9667 59.5598C87.7364 58.1072 88.5007 51.3778 88.5007 51.3778C88.5007 51.3778 91.482 54.5134 92.4007 57.725C93.3193 60.9366 95.7274 64.6822 95.0194 74.4688C94.3114 84.2554 93.8288 84.9217 93.8288 84.9217Z" fill="#EBEBEB"/>
<path d="M97.1874 85.6713C97.1874 85.6713 104.365 80.8895 105.96 74.7873L103.809 74.2018C103.809 74.2018 106.565 73.3003 106.614 72.389C106.663 71.4777 107.488 68.2025 107.488 68.2025L105.387 68.1584C105.387 68.1584 107.062 67.8228 107.564 66.7032C108.067 65.5862 108.924 60.0082 108.924 60.0082C108.924 60.0082 105.84 61.8773 104.399 64.2584C102.959 66.6395 100.203 69.1235 98.6302 77.1488C97.0575 85.174 97.1874 85.6713 97.1874 85.6713Z" fill="#EBEBEB"/>
<path d="M90.3135 58.2909C90.3159 58.2909 90.3233 58.3178 90.338 58.3742C90.3527 58.4354 90.3723 58.5163 90.3968 58.6192C90.4458 58.8421 90.5168 59.1581 90.6075 59.5598C90.7005 59.9689 90.8059 60.4687 90.9235 61.0517C91.0411 61.6347 91.1782 62.2986 91.313 63.0335C91.5971 64.5034 91.896 66.2623 92.2047 68.2171C92.5035 70.1744 92.8024 72.3302 93.067 74.5986C93.3266 76.8695 93.5275 79.0375 93.6843 81.012C93.8313 82.9864 93.9391 84.7674 93.9978 86.2617C94.0346 87.0089 94.0517 87.6874 94.0713 88.2802C94.0909 88.8755 94.1007 89.3875 94.1056 89.8064C94.1105 90.218 94.113 90.5413 94.1154 90.7692C94.1154 90.8745 94.1154 90.9578 94.1154 91.019C94.1154 91.0754 94.113 91.1048 94.1105 91.1048C94.1081 91.1048 94.1056 91.0754 94.1032 91.019C94.1007 90.9553 94.0958 90.872 94.0909 90.7692C94.0836 90.5413 94.0713 90.218 94.0566 89.8064C94.0444 89.3875 94.0272 88.8755 94.0003 88.2827C93.9758 87.6899 93.9513 87.0113 93.9097 86.2641C93.8386 84.7698 93.721 82.9913 93.5692 81.0193C93.4075 79.0473 93.2017 76.8817 92.942 74.6133C92.6775 72.3449 92.3835 70.1916 92.0895 68.2343C91.7882 66.2794 91.4967 64.5205 91.2248 63.0507C91.0949 62.3133 90.9651 61.6494 90.8524 61.0664C90.7422 60.4809 90.6442 59.9787 90.5585 59.5696C90.4776 59.1654 90.4164 58.847 90.3723 58.6241C90.3527 58.5212 90.338 58.4403 90.3257 58.3766C90.3159 58.3203 90.311 58.2933 90.3135 58.2909Z" fill="#E0E0E0"/>
<path d="M92.9102 89.7771C92.9102 89.7771 86.8472 82.8983 84.9658 78.7411L86.3866 78.1336C85.3577 78.3026 84.3019 77.8617 83.5033 77.188C82.7047 76.5168 82.1192 75.6324 81.5435 74.7603L83.4151 74.4443C81.7126 73.9666 80.2133 72.8055 79.3241 71.2769C81.5337 71.6394 83.5327 72.8545 85.1789 74.3708C86.5115 75.5981 87.6409 77.0239 88.7261 78.4815C89.2552 79.1919 89.7182 79.9488 90.1028 80.7474C91.1219 82.8517 92.9126 87.2514 92.9102 89.7771Z" fill="#EBEBEB"/>
<path d="M106.055 64.0159C106.058 64.0159 106.048 64.0404 106.028 64.087C106.004 64.1384 105.974 64.2046 105.935 64.2878C105.847 64.4691 105.725 64.7263 105.565 65.0522C105.24 65.7136 104.781 66.6739 104.223 67.8644C103.664 69.055 103.02 70.4856 102.329 72.0804C101.643 73.68 100.913 75.4463 100.188 77.3179C99.4656 79.1919 98.8164 80.9924 98.2481 82.6362C97.6847 84.2824 97.1996 85.7718 96.8126 87.031C96.4231 88.2877 96.1168 89.3092 95.9135 90.0147C95.8106 90.3601 95.7298 90.632 95.6734 90.828C95.6465 90.9137 95.6244 90.9848 95.6073 91.0387C95.5926 91.0852 95.5828 91.1097 95.5804 91.1097C95.5779 91.1097 95.5828 91.0852 95.5951 91.0362C95.6098 90.9823 95.6269 90.9113 95.6489 90.8231C95.7004 90.6271 95.7739 90.3528 95.867 90.0049C96.0556 89.2945 96.3496 88.2681 96.7293 87.0089C97.1065 85.7473 97.5842 84.253 98.1403 82.6043C98.7037 80.9557 99.3505 79.1551 100.073 77.2787C100.801 75.4046 101.533 73.6359 102.226 72.0387C102.925 70.444 103.576 69.0182 104.145 67.8301C104.713 66.642 105.186 65.6866 105.524 65.0326C105.69 64.7116 105.82 64.4593 105.913 64.2805C105.957 64.1997 105.992 64.136 106.019 64.087C106.041 64.0355 106.053 64.0135 106.055 64.0159Z" fill="#E0E0E0"/>
<path d="M93.4246 92.7265C93.4197 92.7265 93.4099 92.6824 93.3952 92.5991C93.3781 92.5011 93.3585 92.3811 93.3364 92.2341C93.2899 91.9157 93.2115 91.4576 93.0988 90.8966C92.991 90.3331 92.8342 89.6693 92.6358 88.9368C92.43 88.2068 92.1802 87.4131 91.8739 86.5949C91.5628 85.7767 91.2272 85.0148 90.899 84.3314C90.5658 83.6503 90.2424 83.0502 89.9509 82.5553C89.6619 82.0605 89.4193 81.6636 89.2454 81.3942C89.167 81.2692 89.1009 81.1639 89.0494 81.0806C89.0053 81.0071 88.9833 80.9679 88.9882 80.9655C88.9906 80.963 89.02 80.9973 89.0715 81.0659C89.1303 81.1467 89.2013 81.2447 89.2871 81.3672C89.4757 81.6269 89.7305 82.0188 90.0293 82.5088C90.3306 82.9987 90.6638 83.5989 91.0043 84.2799C91.3399 84.9634 91.6804 85.7277 91.994 86.5508C92.3026 87.3739 92.5525 88.1725 92.7509 88.9074C92.9445 89.6448 93.0915 90.3135 93.1894 90.8794C93.2899 91.4453 93.356 91.9083 93.3879 92.2268C93.4026 92.3738 93.4148 92.4962 93.4246 92.5942C93.4271 92.68 93.4295 92.7241 93.4246 92.7265Z" fill="#E0E0E0"/>
<path d="M101.423 91.1072H88.1553V93.8141H101.423V91.1072Z" fill="#E0E0E0"/>
<path d="M89.4193 93.8142L90.7814 101.575H98.7993L100.21 93.8142H89.4193Z" fill="#E0E0E0"/>
<path d="M100.61 93.8142C100.61 93.8485 98.0987 93.8779 95.0047 93.8779C91.9083 93.8779 89.3973 93.8485 89.3973 93.8142C89.3973 93.7799 91.9058 93.7505 95.0047 93.7505C98.1011 93.7505 100.61 93.7799 100.61 93.8142Z" fill="#EBEBEB"/>
<path d="M22.6843 1.91321H1.13669V36.9098H22.6843V1.91321Z" fill="#E0E0E0"/>
<path d="M21.969 1.91321H0.421356V36.9098H21.969V1.91321Z" fill="#EBEBEB"/>
<path d="M21.0504 2.62366H1.33755V36.2018H21.0504V2.62366Z" fill="white"/>
<path d="M17.2116 6.98657H5.09045V31.8389H17.2116V6.98657Z" fill="#EBEBEB"/>
<path d="M5.09049 23.0444C5.06355 20.7221 7.18989 18.4561 9.53182 18.1327C10.6489 17.9784 11.837 18.1964 12.8806 17.7751C14.7448 17.0254 15.3376 14.5953 17.2117 13.8751L17.2974 31.8364H5.09049V23.0444Z" fill="#E0E0E0"/>
<path d="M109.019 101.683C109.019 101.717 84.613 101.746 54.5134 101.746C24.4016 101.746 0 101.719 0 101.683C0 101.646 24.4016 101.619 54.5134 101.619C84.613 101.619 109.019 101.648 109.019 101.683Z" fill="#263238"/>
<path d="M79.1918 80.4632H29.8252C28.4901 80.4632 27.4049 79.3437 27.4049 77.962V2.5036C27.4049 1.12196 28.4877 0.00244141 29.8252 0.00244141H79.1918C80.5269 0.00244141 81.6121 1.12196 81.6121 2.50604V77.9645C81.6121 79.3437 80.5293 80.4632 79.1918 80.4632Z" fill="#263238"/>
<path d="M55.4541 76.8033C55.4541 78.0502 54.4252 79.0595 53.1563 79.0595C51.8873 79.0595 50.8584 78.0478 50.8584 76.8033C50.8584 75.5564 51.8873 74.5471 53.1563 74.5471C54.4252 74.5471 55.4541 75.5564 55.4541 76.8033Z" fill="#455A64"/>
<path d="M60.0644 4.25273H48.9942C48.5679 4.25273 48.2225 3.89507 48.2225 3.45412C48.2225 3.01318 48.5679 2.65552 48.9942 2.65552H60.0644C60.4907 2.65552 60.8361 3.01318 60.8361 3.45412C60.8361 3.89507 60.4907 4.25273 60.0644 4.25273Z" fill="#455A64"/>
<path d="M79.8557 5.73962H29.0707V72.9376H79.8557V5.73962Z" fill="white"/>
<path d="M79.9022 5.73962H29.1172V72.9376H79.9022V5.73962Z" fill="#EBEBEB"/>
<path d="M73.2267 67.4185H35.7927C34.4601 67.4185 33.3773 66.3382 33.3773 65.0031V13.6327C33.3773 12.3001 34.4576 11.2173 35.7927 11.2173H73.2267C74.5594 11.2173 75.6421 12.2976 75.6421 13.6327V65.0056C75.6397 66.3382 74.5594 67.4185 73.2267 67.4185Z" fill="white"/>
<path d="M47.0785 18.4707L47.3161 17.9343C47.544 18.0837 47.8673 18.1866 48.1637 18.1866C48.4651 18.1866 48.5826 18.1033 48.5826 17.9784C48.5826 17.5717 47.1226 17.8681 47.1226 16.9152C47.1226 16.4571 47.4974 16.0823 48.2593 16.0823C48.5924 16.0823 48.9379 16.1582 49.1902 16.3052L48.9673 16.8441C48.7223 16.7119 48.4798 16.6457 48.2568 16.6457C47.9531 16.6457 47.8428 16.7486 47.8428 16.876C47.8428 17.2679 49.298 16.974 49.298 17.922C49.298 18.3703 48.9232 18.75 48.1613 18.75C47.7375 18.7525 47.321 18.6398 47.0785 18.4707Z" fill="#7587D9"/>
<path d="M49.5209 16.1239C49.5209 15.9157 49.6899 15.754 49.9471 15.754C50.2043 15.754 50.3734 15.9035 50.3734 16.1141C50.3734 16.3346 50.2043 16.4963 49.9471 16.4963C49.6899 16.4938 49.5209 16.3322 49.5209 16.1239ZM49.5968 16.7143H50.2925V18.701H49.5968V16.7143Z" fill="#7587D9"/>
<path d="M52.8844 16.7143V18.3385C52.8844 19.0906 52.4581 19.4458 51.7183 19.4458C51.3361 19.4458 50.9736 19.3576 50.7311 19.1861L50.9834 18.6986C51.1475 18.8309 51.4194 18.9117 51.6546 18.9117C52.0294 18.9117 52.1862 18.7427 52.1862 18.4316V18.3654C52.0514 18.5222 51.8481 18.6006 51.5958 18.6006C51.0667 18.6006 50.6208 18.2258 50.6208 17.6403C50.6208 17.0573 51.0691 16.6825 51.5958 16.6825C51.8702 16.6825 52.0833 16.7707 52.218 16.9569V16.7143H52.8844ZM52.1935 17.6379C52.1935 17.3954 52.0098 17.2337 51.7599 17.2337C51.5101 17.2337 51.3239 17.3954 51.3239 17.6379C51.3239 17.8804 51.5101 18.0445 51.7599 18.0445C52.0098 18.0445 52.1935 17.8804 52.1935 17.6379Z" fill="#7587D9"/>
<path d="M55.4467 17.5644V18.7011H54.751V17.6771C54.751 17.3905 54.6261 17.2704 54.4252 17.2704C54.2023 17.2704 54.0284 17.4101 54.0284 17.7408V18.7011H53.3326V16.7144H53.9965V16.9299C54.1533 16.7658 54.3787 16.6801 54.6261 16.6801C55.0915 16.6801 55.4467 16.9471 55.4467 17.5644Z" fill="#7587D9"/>
<path d="M59.0429 16.7144V18.7011H58.379V18.488C58.2296 18.6521 58.0165 18.7329 57.7887 18.7329C57.3012 18.7329 56.946 18.4537 56.946 17.8241V16.7119H57.6417V17.709C57.6417 18.0176 57.7617 18.1377 57.9724 18.1377C58.1782 18.1377 58.3472 18.0029 58.3472 17.6673V16.7095H59.0429V16.7144Z" fill="#7587D9"/>
<path d="M61.7155 17.7065C61.7155 18.3361 61.2795 18.7329 60.7406 18.7329C60.5103 18.7329 60.3217 18.6643 60.1869 18.5247V19.4115H59.4912V16.7144H60.1551V16.9128C60.2874 16.756 60.4809 16.6825 60.743 16.6825C61.2795 16.6801 61.7155 17.0769 61.7155 17.7065ZM61.0125 17.7065C61.0125 17.4052 60.8288 17.2337 60.5936 17.2337C60.3584 17.2337 60.1747 17.4052 60.1747 17.7065C60.1747 18.0078 60.3584 18.1793 60.5936 18.1793C60.8288 18.1793 61.0125 18.0078 61.0125 17.7065Z" fill="#7587D9"/>
<path d="M38.2081 33.0441V33.316H38.6834V33.5071H38.2081V33.8819H37.9705V32.853H38.7471V33.0441H38.2081Z" fill="#263238"/>
<path d="M39.6682 33.0906V33.8818H39.4502V33.7887C39.3889 33.8573 39.3007 33.8941 39.2052 33.8941C39.0068 33.8941 38.8671 33.7814 38.8671 33.5389V33.093H39.0974V33.507C39.0974 33.6393 39.1562 33.6981 39.2566 33.6981C39.362 33.6981 39.4379 33.6295 39.4379 33.485V33.0955H39.6682V33.0906Z" fill="#263238"/>
<path d="M39.8813 32.7917H40.1116V33.8819H39.8813V32.7917Z" fill="#263238"/>
<path d="M40.3247 32.7917H40.5549V33.8819H40.3247V32.7917Z" fill="#263238"/>
<path d="M42.1424 32.853V33.8819H41.9464L41.4344 33.2572V33.8819H41.1992V32.853H41.3952L41.9072 33.4777V32.853H42.1424Z" fill="#263238"/>
<path d="M43.0684 33.4311V33.8819H42.8528V33.7839C42.8112 33.8549 42.7279 33.8941 42.6127 33.8941C42.4265 33.8941 42.3163 33.7912 42.3163 33.6541C42.3163 33.5144 42.4143 33.4164 42.6568 33.4164H42.8381C42.8381 33.3184 42.7793 33.2596 42.6568 33.2596C42.5735 33.2596 42.4853 33.2866 42.429 33.3331L42.3457 33.1739C42.4314 33.1127 42.5613 33.0784 42.6862 33.0784C42.9287 33.0808 43.0684 33.1911 43.0684 33.4311ZM42.8406 33.632V33.5512H42.6838C42.576 33.5512 42.5417 33.5904 42.5417 33.6443C42.5417 33.7006 42.5907 33.7398 42.6715 33.7398C42.7475 33.7398 42.8136 33.703 42.8406 33.632Z" fill="#263238"/>
<path d="M44.6117 33.4287V33.8819H44.3814V33.4654C44.3814 33.3381 44.3251 33.2793 44.232 33.2793C44.1291 33.2793 44.058 33.3454 44.058 33.4875V33.8843H43.8278V33.4679C43.8278 33.3405 43.7739 33.2817 43.6783 33.2817C43.5779 33.2817 43.5044 33.3479 43.5044 33.4899V33.8868H43.2741V33.0955H43.4922V33.1862C43.551 33.1176 43.6391 33.0833 43.7396 33.0833C43.8498 33.0833 43.9429 33.1249 43.9993 33.2131C44.0629 33.1323 44.1658 33.0833 44.2834 33.0833C44.4769 33.0808 44.6117 33.1886 44.6117 33.4287Z" fill="#263238"/>
<path d="M45.5965 33.5512H44.9987C45.0208 33.6491 45.1041 33.7104 45.2241 33.7104C45.3074 33.7104 45.3686 33.6859 45.4225 33.6344L45.545 33.7667C45.4715 33.85 45.3613 33.8941 45.2192 33.8941C44.9448 33.8941 44.7685 33.7226 44.7685 33.4875C44.7685 33.2498 44.9497 33.0808 45.1898 33.0808C45.4225 33.0808 45.6014 33.2376 45.6014 33.4899C45.6014 33.5071 45.5989 33.5316 45.5965 33.5512ZM44.9963 33.4164H45.3858C45.3686 33.316 45.2951 33.2523 45.1923 33.2523C45.0869 33.2523 45.0134 33.316 44.9963 33.4164Z" fill="#263238"/>
<path d="M38.7667 40.4911V40.6822H37.9705V39.6533H38.7471V39.8444H38.2057V40.0673H38.6834V40.2535H38.2057V40.4911H38.7667Z" fill="#263238"/>
<path d="M40.2757 40.2316V40.6848H40.0454V40.2683C40.0454 40.1409 39.9891 40.0821 39.896 40.0821C39.7931 40.0821 39.7221 40.1483 39.7221 40.2903V40.6872H39.4918V40.2707C39.4918 40.1434 39.4379 40.0846 39.3424 40.0846C39.2419 40.0846 39.1684 40.1507 39.1684 40.2928V40.6897H38.9382V39.8984H39.1562V39.989C39.215 39.9204 39.3032 39.8861 39.4036 39.8861C39.5139 39.8861 39.6069 39.9278 39.6633 40.016C39.727 39.9351 39.8299 39.8861 39.9475 39.8861C40.1385 39.8812 40.2757 39.989 40.2757 40.2316Z" fill="#263238"/>
<path d="M41.1796 40.2315V40.6823H40.9641V40.5843C40.9224 40.6553 40.8391 40.6945 40.724 40.6945C40.5378 40.6945 40.4276 40.5917 40.4276 40.4545C40.4276 40.3148 40.5256 40.2168 40.7681 40.2168H40.9494C40.9494 40.1189 40.8906 40.0601 40.7681 40.0601C40.6848 40.0601 40.5966 40.087 40.5403 40.1336L40.457 39.9743C40.5427 39.9131 40.6726 39.8788 40.7975 39.8788C41.04 39.8812 41.1796 39.9939 41.1796 40.2315ZM40.9518 40.4349V40.354H40.795C40.6873 40.354 40.653 40.3932 40.653 40.4471C40.653 40.5035 40.7019 40.5427 40.7828 40.5427C40.8587 40.5402 40.9249 40.5059 40.9518 40.4349Z" fill="#263238"/>
<path d="M41.3609 39.6558C41.3609 39.5848 41.4172 39.5284 41.503 39.5284C41.5887 39.5284 41.6451 39.5823 41.6451 39.6509C41.6451 39.7269 41.5887 39.7832 41.503 39.7832C41.4172 39.7832 41.3609 39.7269 41.3609 39.6558ZM41.3878 39.8935H41.6181V40.6847H41.3878V39.8935Z" fill="#263238"/>
<path d="M41.8313 39.5922H42.0615V40.6823H41.8313V39.5922Z" fill="#263238"/>
<path d="M43.3819 40.4643H42.9042L42.8136 40.6848H42.5686L43.0267 39.6559H43.2619L43.7224 40.6848H43.4726L43.3819 40.4643ZM43.3084 40.283L43.1443 39.8886L42.9802 40.283H43.3084Z" fill="#263238"/>
<path d="M44.6117 39.5922V40.6823H44.3937V40.5916C44.3373 40.6602 44.2516 40.6945 44.1462 40.6945C43.9233 40.6945 43.7518 40.5353 43.7518 40.2879C43.7518 40.0405 43.9233 39.8812 44.1462 39.8812C44.2442 39.8812 44.3251 39.9131 44.3839 39.9768V39.5922H44.6117ZM44.3888 40.2879C44.3888 40.1507 44.3006 40.0699 44.1879 40.0699C44.0727 40.0699 43.9846 40.1531 43.9846 40.2879C43.9846 40.4251 44.0727 40.5059 44.1879 40.5059C44.3006 40.5059 44.3888 40.4251 44.3888 40.2879Z" fill="#263238"/>
<path d="M45.6308 39.5922V40.6823H45.4127V40.5916C45.3564 40.6602 45.2706 40.6945 45.1653 40.6945C44.9424 40.6945 44.7709 40.5353 44.7709 40.2879C44.7709 40.0405 44.9424 39.8812 45.1653 39.8812C45.2633 39.8812 45.3441 39.9131 45.4029 39.9768V39.5922H45.6308ZM45.4054 40.2879C45.4054 40.1507 45.3172 40.0699 45.2045 40.0699C45.0894 40.0699 45.0012 40.1531 45.0012 40.2879C45.0012 40.4251 45.0894 40.5059 45.2045 40.5059C45.3172 40.5059 45.4054 40.4251 45.4054 40.2879Z" fill="#263238"/>
<path d="M46.3314 39.8812V40.0919C46.3118 40.0895 46.2971 40.0894 46.2799 40.0894C46.1526 40.0894 46.0693 40.158 46.0693 40.3099V40.6823H45.839V39.891H46.057V39.9964C46.1158 39.9204 46.2113 39.8812 46.3314 39.8812Z" fill="#263238"/>
<path d="M47.2329 40.354H46.6352C46.6572 40.452 46.7405 40.5132 46.8605 40.5132C46.9438 40.5132 47.0051 40.4887 47.059 40.4373L47.1814 40.5696C47.1079 40.6529 46.9977 40.697 46.8556 40.697C46.5813 40.697 46.4049 40.5255 46.4049 40.2903C46.4049 40.0527 46.5862 39.8837 46.8262 39.8837C47.0589 39.8837 47.2378 40.0404 47.2378 40.2928C47.2353 40.3099 47.2329 40.3344 47.2329 40.354ZM46.6303 40.2193H47.0198C47.0026 40.1188 46.9291 40.0551 46.8262 40.0551C46.7209 40.0551 46.6474 40.1188 46.6303 40.2193Z" fill="#263238"/>
<path d="M47.3137 40.6088L47.3897 40.4447C47.4607 40.4912 47.5685 40.5206 47.664 40.5206C47.7694 40.5206 47.8086 40.4937 47.8086 40.4496C47.8086 40.3197 47.3309 40.452 47.3309 40.136C47.3309 39.9866 47.4656 39.8812 47.6959 39.8812C47.8037 39.8812 47.9261 39.9057 47.9996 39.9498L47.9237 40.1139C47.8453 40.0699 47.7669 40.0552 47.6959 40.0552C47.593 40.0552 47.5489 40.087 47.5489 40.1286C47.5489 40.2634 48.0266 40.1335 48.0266 40.4447C48.0266 40.5916 47.8894 40.697 47.6542 40.697C47.5219 40.6945 47.3872 40.6578 47.3137 40.6088Z" fill="#263238"/>
<path d="M48.0927 40.6088L48.1687 40.4447C48.2397 40.4912 48.3475 40.5206 48.443 40.5206C48.5484 40.5206 48.5876 40.4937 48.5876 40.4496C48.5876 40.3197 48.1099 40.452 48.1099 40.136C48.1099 39.9866 48.2446 39.8812 48.4749 39.8812C48.5827 39.8812 48.7051 39.9057 48.7786 39.9498L48.7027 40.1139C48.6243 40.0699 48.5459 40.0552 48.4749 40.0552C48.372 40.0552 48.3279 40.087 48.3279 40.1286C48.3279 40.2634 48.8056 40.1335 48.8056 40.4447C48.8056 40.5916 48.6684 40.697 48.4332 40.697C48.3009 40.6945 48.1662 40.6578 48.0927 40.6088Z" fill="#263238"/>
<path d="M39.0165 46.5934C39.0165 46.8237 38.8451 46.9658 38.5707 46.9658H38.3625V47.25H38.1248V46.2211H38.5707C38.8451 46.2211 39.0165 46.3632 39.0165 46.5934ZM38.7765 46.5934C38.7765 46.4807 38.703 46.4146 38.5584 46.4146H38.3649V46.7723H38.5584C38.703 46.7698 38.7765 46.7037 38.7765 46.5934Z" fill="#263238"/>
<path d="M39.8617 46.7967V47.2475H39.6461V47.1495C39.6045 47.2205 39.5212 47.2597 39.406 47.2597C39.2199 47.2597 39.1096 47.1568 39.1096 47.0196C39.1096 46.88 39.2076 46.7845 39.4501 46.7845H39.6314C39.6314 46.6865 39.5726 46.6277 39.4501 46.6277C39.3668 46.6277 39.2787 46.6546 39.2223 46.7012L39.139 46.5419C39.2248 46.4807 39.3546 46.4464 39.4795 46.4464C39.722 46.4464 39.8617 46.5591 39.8617 46.7967ZM39.6314 46.9976V46.9168H39.4746C39.3668 46.9168 39.3325 46.9559 39.3325 47.0098C39.3325 47.0662 39.3815 47.1054 39.4624 47.1054C39.5408 47.1054 39.6069 47.0711 39.6314 46.9976Z" fill="#263238"/>
<path d="M39.994 47.174L40.0699 47.0098C40.141 47.0564 40.2488 47.0858 40.3443 47.0858C40.4496 47.0858 40.4888 47.0588 40.4888 47.0147C40.4888 46.8849 40.0111 47.0172 40.0111 46.7012C40.0111 46.5517 40.1459 46.4464 40.3761 46.4464C40.4839 46.4464 40.6064 46.4709 40.6799 46.515L40.604 46.6767C40.5256 46.6326 40.4472 46.6179 40.3761 46.6179C40.2733 46.6179 40.2292 46.6497 40.2292 46.6914C40.2292 46.8261 40.7069 46.6963 40.7069 47.0074C40.7069 47.1544 40.5697 47.2597 40.3345 47.2597C40.2022 47.2597 40.0675 47.223 39.994 47.174Z" fill="#263238"/>
<path d="M40.773 47.174L40.8489 47.0098C40.92 47.0564 41.0277 47.0858 41.1233 47.0858C41.2286 47.0858 41.2678 47.0588 41.2678 47.0147C41.2678 46.8849 40.7901 47.0172 40.7901 46.7012C40.7901 46.5517 40.9249 46.4464 41.1551 46.4464C41.2629 46.4464 41.3854 46.4709 41.4589 46.515L41.383 46.6767C41.3046 46.6326 41.2262 46.6179 41.1551 46.6179C41.0522 46.6179 41.0081 46.6497 41.0081 46.6914C41.0081 46.8261 41.4858 46.6963 41.4858 47.0074C41.4858 47.1544 41.3487 47.2597 41.1135 47.2597C40.9812 47.2597 40.8465 47.223 40.773 47.174Z" fill="#263238"/>
<path d="M42.8846 46.4586L42.598 47.2499H42.3775L42.1987 46.7599L42.015 47.2499H41.7945L41.5103 46.4586H41.7259L41.9121 46.9927L42.1056 46.4586H42.2992L42.4878 46.9927L42.6813 46.4586H42.8846Z" fill="#263238"/>
<path d="M42.9116 46.8531C42.9116 46.6154 43.0953 46.4464 43.3452 46.4464C43.5975 46.4464 43.7788 46.6154 43.7788 46.8531C43.7788 47.0907 43.5975 47.2597 43.3452 47.2597C43.0953 47.2597 42.9116 47.0907 42.9116 46.8531ZM43.5485 46.8531C43.5485 46.7159 43.4627 46.635 43.3476 46.635C43.2325 46.635 43.1443 46.7183 43.1443 46.8531C43.1443 46.9902 43.2325 47.0711 43.3476 47.0711C43.4603 47.0711 43.5485 46.9902 43.5485 46.8531Z" fill="#263238"/>
<path d="M44.4231 46.4464V46.6571C44.4035 46.6546 44.3888 46.6546 44.3716 46.6546C44.2442 46.6546 44.1609 46.7232 44.1609 46.8751V47.2475H43.9307V46.4562H44.1487V46.5615C44.2075 46.4856 44.303 46.4464 44.4231 46.4464Z" fill="#263238"/>
<path d="M45.3588 46.1573V47.2475H45.1408V47.1568C45.0845 47.2254 44.9987 47.2597 44.8934 47.2597C44.6705 47.2597 44.499 47.1005 44.499 46.8531C44.499 46.6056 44.6705 46.4464 44.8934 46.4464C44.9914 46.4464 45.0722 46.4783 45.131 46.542V46.1598H45.3588V46.1573ZM45.1335 46.8531C45.1335 46.7159 45.0453 46.635 44.9326 46.635C44.8175 46.635 44.7293 46.7183 44.7293 46.8531C44.7293 46.9902 44.8175 47.0711 44.9326 47.0711C45.0453 47.0711 45.1335 46.9902 45.1335 46.8531Z" fill="#263238"/>
<path d="M65.1598 63.7341H45.5842C44.9375 63.7341 44.4132 63.2098 44.4132 62.5631V60.4196C44.4132 59.7729 44.9375 59.2487 45.5842 59.2487H65.1598C65.8066 59.2487 66.3308 59.7729 66.3308 60.4196V62.5631C66.3308 63.2098 65.8066 63.7341 65.1598 63.7341Z" fill="#7587D9"/>
<path d="M48.3401 61.3897C48.3401 61.0247 48.6194 60.765 49.0015 60.765C49.222 60.765 49.4008 60.8459 49.5184 60.9904L49.3029 61.1864C49.2269 61.0957 49.1338 61.0443 49.0187 61.0443C48.8203 61.0443 48.6831 61.1815 48.6831 61.3872C48.6831 61.593 48.8203 61.7302 49.0187 61.7302C49.1338 61.7302 49.2269 61.6812 49.3029 61.5906L49.5184 61.7865C49.4008 61.9311 49.222 62.0119 49.0015 62.0119C48.6194 62.0119 48.3401 61.7547 48.3401 61.3897Z" fill="white"/>
<path d="M50.2754 61.0443V61.3383C50.246 61.3358 50.2264 61.3334 50.2019 61.3334C50.0696 61.3334 49.979 61.3995 49.979 61.5636V61.9899H49.6532V61.059H49.9643V61.1717C50.0304 61.086 50.1382 61.0443 50.2754 61.0443Z" fill="white"/>
<path d="M51.3459 61.6077H50.6698C50.6967 61.7008 50.7776 61.7572 50.8976 61.7572C50.9882 61.7572 51.0495 61.7302 51.1132 61.6763L51.2847 61.8552C51.1965 61.9556 51.0642 62.007 50.8878 62.007C50.5571 62.007 50.3415 61.8037 50.3415 61.5244C50.3415 61.2452 50.5595 61.0468 50.8535 61.0468C51.1279 61.0468 51.3508 61.2207 51.3508 61.5293C51.3508 61.5489 51.3484 61.5808 51.3459 61.6077ZM50.6649 61.4338H51.0446C51.0274 61.3358 50.9564 61.2746 50.8535 61.2746C50.7506 61.2746 50.682 61.3383 50.6649 61.4338Z" fill="white"/>
<path d="M52.3478 61.473V61.9899H52.0441V61.8699C51.9975 61.9581 51.9044 62.0046 51.7697 62.0046C51.5468 62.0046 51.4218 61.8797 51.4218 61.718C51.4218 61.5465 51.5468 61.4412 51.8358 61.4412H52.022C52.0171 61.3481 51.9534 61.2942 51.8236 61.2942C51.7354 61.2942 51.635 61.3261 51.5713 61.375L51.461 61.1546C51.5664 61.0835 51.7256 61.0468 51.8701 61.0468C52.1739 61.0443 52.3478 61.1766 52.3478 61.473ZM52.022 61.6911V61.6102H51.8824C51.777 61.6102 51.7403 61.647 51.7403 61.7033C51.7403 61.7572 51.7844 61.7988 51.8628 61.7988C51.9314 61.7988 51.9951 61.7646 52.022 61.6911Z" fill="white"/>
<path d="M53.193 61.9506C53.1366 61.9874 53.0534 62.0045 52.9676 62.0045C52.73 62.0045 52.5904 61.8869 52.5904 61.6493V61.3382H52.4556V61.0932H52.5904V60.8507H52.9162V61.0932H53.1293V61.3382H52.9162V61.6469C52.9162 61.7155 52.9554 61.7522 53.0142 61.7522C53.0509 61.7522 53.0852 61.7424 53.1146 61.7228L53.193 61.9506Z" fill="white"/>
<path d="M54.2366 61.6077H53.5604C53.5874 61.7008 53.6682 61.7572 53.7883 61.7572C53.8789 61.7572 53.9401 61.7302 54.0038 61.6763L54.1753 61.8552C54.0871 61.9556 53.9548 62.007 53.7785 62.007C53.4478 62.007 53.2322 61.8037 53.2322 61.5244C53.2322 61.2452 53.4502 61.0468 53.7442 61.0468C54.0185 61.0468 54.2415 61.2207 54.2415 61.5293C54.2415 61.5489 54.239 61.5808 54.2366 61.6077ZM53.5555 61.4338H53.9377C53.9205 61.3358 53.8495 61.2746 53.7466 61.2746C53.6437 61.2746 53.5751 61.3383 53.5555 61.4338Z" fill="white"/>
<path d="M55.7113 61.7547H55.2042L55.1087 61.9875H54.7632L55.2924 60.7871H55.628L56.1596 61.9875H55.8068L55.7113 61.7547ZM55.6108 61.5049L55.4565 61.1203L55.3022 61.5049H55.6108Z" fill="white"/>
<path d="M56.1718 61.522C56.1718 61.2427 56.3923 61.0443 56.7059 61.0443C56.9166 61.0443 57.0782 61.1398 57.1419 61.2991L56.8896 61.4289C56.8455 61.3407 56.7794 61.304 56.7034 61.304C56.5907 61.304 56.5001 61.3824 56.5001 61.5245C56.5001 61.669 56.5883 61.7474 56.7034 61.7474C56.7794 61.7474 56.8431 61.7106 56.8896 61.6224L57.1419 61.7523C57.0782 61.914 56.9166 62.007 56.7059 62.007C56.3923 62.0046 56.1718 61.8062 56.1718 61.522Z" fill="white"/>
<path d="M57.1958 61.522C57.1958 61.2427 57.4163 61.0443 57.7298 61.0443C57.9405 61.0443 58.1022 61.1398 58.1659 61.2991L57.9136 61.4289C57.8695 61.3407 57.8033 61.304 57.7274 61.304C57.6147 61.304 57.5241 61.3824 57.5241 61.5245C57.5241 61.669 57.6123 61.7474 57.7274 61.7474C57.8033 61.7474 57.867 61.7106 57.9136 61.6224L58.1659 61.7523C58.1022 61.914 57.9405 62.007 57.7298 62.007C57.4163 62.0046 57.1958 61.8062 57.1958 61.522Z" fill="white"/>
<path d="M58.2198 61.522C58.2198 61.2427 58.4403 61.0443 58.744 61.0443C59.0502 61.0443 59.2683 61.2427 59.2683 61.522C59.2683 61.8037 59.0502 62.0046 58.744 62.0046C58.4403 62.0046 58.2198 61.8037 58.2198 61.522ZM58.94 61.522C58.94 61.3824 58.8567 61.3015 58.744 61.3015C58.6338 61.3015 58.548 61.3799 58.548 61.522C58.548 61.6641 58.6338 61.7449 58.744 61.7449C58.8567 61.7449 58.94 61.6641 58.94 61.522Z" fill="white"/>
<path d="M60.3976 61.059V61.9899H60.0865V61.8894C60.0154 61.9678 59.9174 62.0045 59.8097 62.0045C59.5818 62.0045 59.4153 61.8747 59.4153 61.5783V61.059H59.7411V61.5269C59.7411 61.6714 59.7974 61.7277 59.8954 61.7277C59.9909 61.7277 60.0693 61.664 60.0693 61.5073V61.059H60.3976Z" fill="white"/>
<path d="M61.5955 61.4583V61.9899H61.2697V61.5122C61.2697 61.3775 61.2109 61.3211 61.1178 61.3211C61.0125 61.3211 60.9316 61.3873 60.9316 61.5416V61.9899H60.6058V61.059H60.9169V61.1595C60.9904 61.0811 61.0957 61.0419 61.2109 61.0419C61.4289 61.0443 61.5955 61.1693 61.5955 61.4583Z" fill="white"/>
<path d="M62.4406 61.9506C62.3843 61.9874 62.301 62.0045 62.2153 62.0045C61.9776 62.0045 61.838 61.8869 61.838 61.6493V61.3382H61.7033V61.0932H61.838V60.8507H62.1638V61.0932H62.3769V61.3382H62.1638V61.6469C62.1638 61.7155 62.203 61.7522 62.2618 61.7522C62.2986 61.7522 62.3329 61.7424 62.3623 61.7228L62.4406 61.9506Z" fill="white"/>
<path d="M55.4271 33.4287V32.853H55.6647V33.4189C55.6647 33.6149 55.7505 33.6957 55.895 33.6957C56.0396 33.6957 56.1228 33.6149 56.1228 33.4189V32.853H56.358V33.4287C56.358 33.7325 56.1841 33.8991 55.8926 33.8991C55.6011 33.8991 55.4271 33.7325 55.4271 33.4287Z" fill="#263238"/>
<path d="M56.5026 33.8084L56.5785 33.6442C56.6495 33.6908 56.7573 33.7202 56.8529 33.7202C56.9582 33.7202 56.9974 33.6932 56.9974 33.6491C56.9974 33.5193 56.5197 33.6516 56.5197 33.3356C56.5197 33.1862 56.6544 33.0808 56.8847 33.0808C56.9925 33.0808 57.115 33.1053 57.1885 33.1494L57.1125 33.3135C57.0342 33.2694 56.9582 33.2547 56.8847 33.2547C56.7818 33.2547 56.7377 33.2866 56.7377 33.3282C56.7377 33.463 57.2154 33.3331 57.2154 33.6442C57.2154 33.7912 57.0782 33.8966 56.8431 33.8966C56.7108 33.8941 56.5761 33.8574 56.5026 33.8084Z" fill="#263238"/>
<path d="M58.1291 33.5512H57.5314C57.5535 33.6491 57.6368 33.7104 57.7568 33.7104C57.8401 33.7104 57.9013 33.6859 57.9552 33.6344L58.0777 33.7667C58.0042 33.85 57.894 33.8941 57.7519 33.8941C57.4775 33.8941 57.3011 33.7226 57.3011 33.4875C57.3011 33.2498 57.4824 33.0808 57.7225 33.0808C57.9552 33.0808 58.134 33.2376 58.134 33.4899C58.134 33.5071 58.1316 33.5316 58.1291 33.5512ZM57.529 33.4164H57.9185C57.9013 33.316 57.8278 33.2523 57.7249 33.2523C57.6196 33.2523 57.5437 33.316 57.529 33.4164Z" fill="#263238"/>
<path d="M58.7783 33.0784V33.289C58.7587 33.2866 58.744 33.2866 58.7269 33.2866C58.5995 33.2866 58.5162 33.3552 58.5162 33.5071V33.8794H58.2859V33.0882H58.504V33.1935C58.5628 33.12 58.6559 33.0784 58.7783 33.0784Z" fill="#263238"/>
<path d="M59.7215 33.4287V33.8819H59.4937V33.4655C59.4937 33.3381 59.4349 33.2793 59.3344 33.2793C59.2242 33.2793 59.1458 33.3479 59.1458 33.4924V33.8844H58.9155V33.0931H59.1336V33.1862C59.1948 33.1176 59.2879 33.0809 59.3957 33.0809C59.5819 33.0784 59.7215 33.1886 59.7215 33.4287Z" fill="#263238"/>
<path d="M60.6303 33.4311V33.8819H60.4148V33.7839C60.3731 33.8549 60.2898 33.8941 60.1747 33.8941C59.991 33.8941 59.8783 33.7912 59.8783 33.6541C59.8783 33.5144 59.9763 33.4164 60.2188 33.4164H60.4001C60.4001 33.3184 60.3413 33.2596 60.2188 33.2596C60.1355 33.2596 60.0473 33.2866 59.991 33.3331L59.9077 33.1739C59.9934 33.1127 60.1232 33.0784 60.2482 33.0784C60.4907 33.0784 60.6303 33.1911 60.6303 33.4311ZM60.4001 33.632V33.5512H60.2433C60.1355 33.5512 60.1012 33.5904 60.1012 33.6443C60.1012 33.7006 60.1502 33.7398 60.231 33.7398C60.307 33.7398 60.3731 33.703 60.4001 33.632Z" fill="#263238"/>
<path d="M62.1712 33.4287V33.8819H61.9409V33.4654C61.9409 33.3381 61.8846 33.2793 61.7915 33.2793C61.6886 33.2793 61.6176 33.3454 61.6176 33.4875V33.8843H61.3873V33.4679C61.3873 33.3405 61.3334 33.2817 61.2378 33.2817C61.1374 33.2817 61.0639 33.3479 61.0639 33.4899V33.8868H60.8336V33.0955H61.0517V33.1862C61.1105 33.1176 61.1987 33.0833 61.2991 33.0833C61.4093 33.0833 61.5024 33.1249 61.5588 33.2131C61.6225 33.1323 61.7253 33.0833 61.8429 33.0833C62.0365 33.0784 62.1712 33.1886 62.1712 33.4287Z" fill="#263238"/>
<path d="M63.1584 33.5512H62.5607C62.5827 33.6491 62.666 33.7104 62.7861 33.7104C62.8693 33.7104 62.9306 33.6859 62.9845 33.6344L63.107 33.7667C63.0335 33.85 62.9232 33.8941 62.7812 33.8941C62.5068 33.8941 62.3304 33.7226 62.3304 33.4875C62.3304 33.2498 62.5117 33.0808 62.7518 33.0808C62.9845 33.0808 63.1633 33.2376 63.1633 33.4899C63.1609 33.5071 63.1584 33.5316 63.1584 33.5512ZM62.5558 33.4164H62.9453C62.9281 33.316 62.8547 33.2523 62.7518 33.2523C62.6464 33.2523 62.5729 33.316 62.5558 33.4164Z" fill="#263238"/>
<path d="M38.1224 30.2392C42.8993 30.2392 47.6738 30.2392 52.4507 30.2392C52.4899 30.2392 52.4899 30.178 52.4507 30.178C47.6738 30.178 42.8993 30.178 38.1224 30.178C38.0832 30.178 38.0832 30.2392 38.1224 30.2392Z" fill="#263238"/>
<path d="M56.701 30.2392C61.4779 30.2392 66.2524 30.2392 71.0293 30.2392C71.0685 30.2392 71.0685 30.178 71.0293 30.178C66.2524 30.178 61.4779 30.178 56.701 30.178C56.6618 30.178 56.6593 30.2392 56.701 30.2392Z" fill="#263238"/>
<path d="M53.6389 30.0824C53.6389 29.8006 53.8569 29.59 54.1508 29.59C54.4448 29.59 54.6604 29.7982 54.6604 30.0824C54.6604 30.3665 54.4424 30.5747 54.1508 30.5747C53.8569 30.5747 53.6389 30.3641 53.6389 30.0824ZM54.5256 30.0824C54.5256 29.8692 54.3664 29.7125 54.1533 29.7125C53.9377 29.7125 53.7785 29.8692 53.7785 30.0824C53.7785 30.2955 53.9377 30.4523 54.1533 30.4523C54.3664 30.4523 54.5256 30.2955 54.5256 30.0824Z" fill="#263238"/>
<path d="M55.2459 29.8276V29.955C55.2361 29.9526 55.2263 29.9526 55.2165 29.9526C55.0744 29.9526 54.9862 30.0383 54.9862 30.2V30.5625H54.8539V29.8325H54.9813V29.955C55.0278 29.8717 55.1185 29.8276 55.2459 29.8276Z" fill="#263238"/>
<path d="M52.9358 38.1248H38.6148C38.191 38.1248 37.8456 37.7818 37.8456 37.3556V35.7853C37.8456 35.3615 38.1885 35.0161 38.6148 35.0161H52.9358C53.3596 35.0161 53.705 35.3591 53.705 35.7853V37.3556C53.705 37.7818 53.3596 38.1248 52.9358 38.1248Z" fill="#EBEBEB"/>
<path d="M70.1132 44.7218H38.6148C38.191 44.7218 37.8456 44.3789 37.8456 43.9526V42.3824C37.8456 41.9586 38.1885 41.6132 38.6148 41.6132H70.1107C70.5345 41.6132 70.8799 41.9561 70.8799 42.3824V43.9526C70.8799 44.3789 70.537 44.7218 70.1132 44.7218Z" fill="#EBEBEB"/>
<path d="M70.1132 51.3361H38.6172C38.1934 51.3361 37.848 50.9931 37.848 50.5669V48.9966C37.848 48.5728 38.191 48.2274 38.6172 48.2274H70.1132C70.537 48.2274 70.8824 48.5704 70.8824 48.9966V50.5669C70.8799 50.9907 70.537 51.3361 70.1132 51.3361Z" fill="#EBEBEB"/>
<path d="M70.1131 38.1248H56.0837C55.6599 38.1248 55.3145 37.7818 55.3145 37.3556V35.7853C55.3145 35.3615 55.6574 35.0161 56.0837 35.0161H70.1131C70.5369 35.0161 70.8824 35.3591 70.8824 35.7853V37.3556C70.8799 37.7818 70.5369 38.1248 70.1131 38.1248Z" fill="#EBEBEB"/>
<path d="M39.2909 54.4105H38.4825C38.3477 54.4105 38.24 54.3027 38.24 54.168V53.3596C38.24 53.2249 38.3477 53.1171 38.4825 53.1171H39.2909C39.4256 53.1171 39.5334 53.2249 39.5334 53.3596V54.168C39.5334 54.3027 39.4256 54.4105 39.2909 54.4105Z" fill="#7587D9"/>
<path d="M69.4052 54.3223H40.9371C40.6725 54.3223 40.4594 54.1092 40.4594 53.8446C40.4594 53.5801 40.6725 53.3669 40.9371 53.3669H69.4052C69.6698 53.3669 69.8829 53.5801 69.8829 53.8446C69.8804 54.1092 69.6673 54.3223 69.4052 54.3223Z" fill="#E0E0E0"/>
<path d="M45.6185 56.1081H41.0816C40.8171 56.1081 40.6039 55.895 40.6039 55.6304C40.6039 55.3658 40.8171 55.1527 41.0816 55.1527H45.6185C45.8831 55.1527 46.0962 55.3658 46.0962 55.6304C46.0962 55.895 45.8831 56.1081 45.6185 56.1081Z" fill="#E0E0E0"/>
<path d="M69.9539 27.1967H39.0655C38.4727 27.1967 37.9926 26.7165 37.9926 26.1237V24.1933C37.9926 23.6005 38.4727 23.1204 39.0655 23.1204H69.9539C70.5468 23.1204 71.0269 23.6005 71.0269 24.1933V26.1213C71.0269 26.7165 70.5468 27.1967 69.9539 27.1967Z" fill="#EBEBEB"/>
<path d="M48.2593 25.4746L48.3132 25.3594C48.3891 25.428 48.5214 25.4795 48.6537 25.4795C48.8325 25.4795 48.9084 25.4109 48.9084 25.3202C48.9084 25.0679 48.2862 25.2271 48.2862 24.845C48.2862 24.6858 48.4087 24.551 48.6806 24.551C48.8007 24.551 48.9256 24.5829 49.0113 24.6417L48.9623 24.7593C48.8717 24.7029 48.7713 24.676 48.6806 24.676C48.5067 24.676 48.4308 24.7495 48.4308 24.8401C48.4308 25.0924 49.053 24.9332 49.053 25.3104C49.053 25.4672 48.9256 25.602 48.6561 25.602C48.4969 25.602 48.3426 25.5505 48.2593 25.4746Z" fill="#263238"/>
<path d="M49.222 24.5706C49.222 24.5192 49.2637 24.4775 49.3176 24.4775C49.3715 24.4775 49.4131 24.5167 49.4131 24.5682C49.4131 24.6221 49.3739 24.6613 49.3176 24.6613C49.2637 24.6637 49.222 24.6221 49.222 24.5706ZM49.2465 24.8132H49.3886V25.5922H49.2465V24.8132Z" fill="#263238"/>
<path d="M50.4003 24.8131V25.4868C50.4003 25.7612 50.2607 25.8861 49.9961 25.8861C49.854 25.8861 49.7095 25.8469 49.6238 25.771L49.6924 25.6632C49.7634 25.7244 49.8785 25.7636 49.9912 25.7636C50.175 25.7636 50.2582 25.6779 50.2582 25.5015V25.4403C50.1897 25.5211 50.0892 25.5603 49.9765 25.5603C49.7512 25.5603 49.5821 25.4084 49.5821 25.183C49.5821 24.9577 49.7536 24.8058 49.9765 24.8058C50.0917 24.8058 50.1995 24.8474 50.2656 24.9332V24.8131H50.4003ZM50.2631 25.1806C50.2631 25.0287 50.1505 24.9283 49.9961 24.9283C49.8393 24.9283 49.7267 25.0287 49.7267 25.1806C49.7267 25.33 49.8393 25.4354 49.9961 25.4354C50.1505 25.4354 50.2631 25.33 50.2631 25.1806Z" fill="#263238"/>
<path d="M51.4096 25.1439V25.5922H51.2675V25.161C51.2675 25.0091 51.1916 24.9332 51.0569 24.9332C50.9074 24.9332 50.8094 25.0238 50.8094 25.1929V25.5946H50.6674V24.8156H50.8021V24.9332C50.8584 24.8548 50.9589 24.8083 51.0838 24.8083C51.2749 24.8058 51.4096 24.9136 51.4096 25.1439Z" fill="#263238"/>
<path d="M52.7937 24.8131V25.5921H52.659V25.4745C52.6026 25.5554 52.5046 25.6019 52.3944 25.6019C52.1935 25.6019 52.0588 25.4917 52.0588 25.2614V24.8131H52.2009V25.2443C52.2009 25.3961 52.2768 25.4745 52.4115 25.4745C52.5585 25.4745 52.6516 25.3839 52.6516 25.2149V24.8131H52.7937Z" fill="#263238"/>
<path d="M53.8691 25.2026C53.8691 25.4427 53.7025 25.6019 53.4747 25.6019C53.3645 25.6019 53.2665 25.5603 53.2028 25.4746V25.8763H53.0607V24.8131H53.1954V24.9356C53.2591 24.8499 53.3596 24.8058 53.4722 24.8058C53.7025 24.8058 53.8691 24.965 53.8691 25.2026ZM53.727 25.2026C53.727 25.0385 53.6143 24.9283 53.4649 24.9283C53.3155 24.9283 53.2028 25.0361 53.2028 25.2026C53.2028 25.3692 53.3155 25.477 53.4649 25.477C53.6119 25.477 53.727 25.3668 53.727 25.2026Z" fill="#263238"/>
<path d="M55.6378 24.8131L55.3463 25.5921H55.2116L54.9862 25.0017L54.7584 25.5921H54.6236L54.3346 24.8131H54.4693L54.6947 25.4329L54.9298 24.8131H55.0499L55.2802 25.4353L55.5129 24.8131H55.6378Z" fill="#263238"/>
<path d="M55.7554 24.5706C55.7554 24.5192 55.797 24.4775 55.8509 24.4775C55.9048 24.4775 55.9465 24.5167 55.9465 24.5682C55.9465 24.6221 55.9073 24.6613 55.8509 24.6613C55.797 24.6637 55.7554 24.6221 55.7554 24.5706ZM55.7823 24.8132H55.9244V25.5922H55.7823V24.8132Z" fill="#263238"/>
<path d="M56.6299 25.5456C56.5883 25.5823 56.5221 25.5994 56.4584 25.5994C56.3017 25.5994 56.211 25.5137 56.211 25.3545V24.9258H56.0787V24.8106H56.211V24.6392H56.3531V24.8106H56.576V24.9258H56.3531V25.3471C56.3531 25.4304 56.3972 25.477 56.4756 25.477C56.5172 25.477 56.5564 25.4647 56.5858 25.4402L56.6299 25.5456Z" fill="#263238"/>
<path d="M57.5388 25.1439V25.5922H57.3967V25.161C57.3967 25.0092 57.3207 24.9332 57.186 24.9332C57.0366 24.9332 56.9386 25.0239 56.9386 25.1929V25.5946H56.7965V24.5045H56.9386V24.9259C56.9974 24.8499 57.0954 24.8083 57.213 24.8083C57.404 24.8058 57.5388 24.9136 57.5388 25.1439Z" fill="#263238"/>
<path d="M58.9302 25.0704H59.0723V25.4721C58.9694 25.5579 58.8273 25.602 58.6828 25.602C58.3668 25.602 58.1341 25.379 58.1341 25.0753C58.1341 24.7715 58.3668 24.5486 58.6852 24.5486C58.8494 24.5486 58.9866 24.6025 59.0797 24.7078L58.989 24.7985C58.9033 24.7152 58.8077 24.6784 58.6901 24.6784C58.4525 24.6784 58.281 24.845 58.281 25.0728C58.281 25.2982 58.4525 25.4672 58.6901 25.4672C58.7759 25.4672 58.8567 25.4476 58.9302 25.4011V25.0704Z" fill="#263238"/>
<path d="M59.2585 25.2026C59.2585 24.9699 59.43 24.8058 59.6651 24.8058C59.8979 24.8058 60.0693 24.9699 60.0693 25.2026C60.0693 25.4354 59.8979 25.6019 59.6651 25.6019C59.43 25.5995 59.2585 25.4329 59.2585 25.2026ZM59.9248 25.2026C59.9248 25.0361 59.8121 24.9283 59.6627 24.9283C59.5133 24.9283 59.4006 25.0361 59.4006 25.2026C59.4006 25.3692 59.5133 25.477 59.6627 25.477C59.8146 25.477 59.9248 25.3668 59.9248 25.2026Z" fill="#263238"/>
<path d="M60.1918 25.2026C60.1918 24.9699 60.3633 24.8058 60.5985 24.8058C60.8312 24.8058 61.0027 24.9699 61.0027 25.2026C61.0027 25.4354 60.8312 25.6019 60.5985 25.6019C60.3633 25.5995 60.1918 25.4329 60.1918 25.2026ZM60.8582 25.2026C60.8582 25.0361 60.7455 24.9283 60.596 24.9283C60.4466 24.9283 60.3339 25.0361 60.3339 25.2026C60.3339 25.3692 60.4466 25.477 60.596 25.477C60.7479 25.477 60.8582 25.3668 60.8582 25.2026Z" fill="#263238"/>
<path d="M61.9434 24.8131V25.4868C61.9434 25.7612 61.8037 25.8861 61.5392 25.8861C61.3971 25.8861 61.2525 25.8469 61.1668 25.771L61.2354 25.6632C61.3064 25.7244 61.4216 25.7636 61.5343 25.7636C61.718 25.7636 61.8013 25.6779 61.8013 25.5015V25.4403C61.7327 25.5211 61.6322 25.5603 61.5196 25.5603C61.2942 25.5603 61.1252 25.4084 61.1252 25.183C61.1252 24.9577 61.2966 24.8058 61.5196 24.8058C61.6347 24.8058 61.7425 24.8474 61.8062 24.9332V24.8131H61.9434ZM61.8037 25.1806C61.8037 25.0287 61.691 24.9283 61.5367 24.9283C61.3799 24.9283 61.2672 25.0287 61.2672 25.1806C61.2672 25.33 61.3799 25.4354 61.5367 25.4354C61.6935 25.4354 61.8037 25.33 61.8037 25.1806Z" fill="#263238"/>
<path d="M62.2104 24.5021H62.3525V25.5922H62.2104V24.5021Z" fill="#263238"/>
<path d="M63.3225 25.2492H62.6905C62.7077 25.3864 62.8179 25.477 62.9722 25.477C63.0629 25.477 63.1388 25.4452 63.1976 25.3839L63.276 25.4746C63.2049 25.5578 63.0972 25.6019 62.9698 25.6019C62.7175 25.6019 62.5509 25.4354 62.5509 25.2026C62.5509 24.9724 62.7175 24.8058 62.9404 24.8058C63.1657 24.8058 63.325 24.9675 63.325 25.2075C63.325 25.2173 63.3225 25.2345 63.3225 25.2492ZM62.6905 25.1463H63.1903C63.1756 25.0165 63.0776 24.9234 62.9404 24.9234C62.8056 24.9234 62.7052 25.0165 62.6905 25.1463Z" fill="#263238"/>
<path d="M46.3191 25.161V25.3913H46.8825C46.8335 25.5897 46.6547 25.7146 46.4097 25.7146C46.0937 25.7146 45.8659 25.4892 45.8659 25.1806C45.8659 25.0042 45.9565 24.8327 46.1035 24.7372C46.3412 24.5804 46.6278 24.6416 46.7772 24.8107C46.8164 24.8548 46.8776 24.8695 46.9266 24.8401C46.9903 24.8033 47.0075 24.7176 46.9609 24.6612C46.8237 24.5069 46.6204 24.4138 46.4024 24.4138C45.9614 24.4138 45.6307 24.7421 45.6307 25.1781C45.6307 25.6142 45.9663 25.9424 46.4097 25.9424C46.8286 25.9424 47.13 25.6632 47.13 25.2761V25.1585H46.3191V25.161Z" fill="#263238"/>
<path d="M75.3823 14.5222C76.6924 13.9835 77.3178 12.4847 76.7791 11.1746C76.2404 9.86443 74.7416 9.23906 73.4315 9.77776C72.1213 10.3165 71.4959 11.8153 72.0346 13.1254C72.5734 14.4355 74.0721 15.0609 75.3823 14.5222Z" fill="#7587D9"/>
<path d="M75.4426 11.4948L75.0633 11.1155L73.3675 12.8113L73.7468 13.1906L75.4426 11.4948Z" fill="white"/>
<path d="M73.7464 11.115L73.367 11.4944L75.0628 13.1902L75.4422 12.8109L73.7464 11.115Z" fill="white"/>
<path d="M18.1474 79.8729L16.5576 79.6818C15.5507 80.353 14.3308 80.7376 13.0128 80.7033C9.90172 80.6249 7.31237 78.1458 7.09435 75.042C6.84203 71.4557 9.72289 68.4205 13.3436 68.5136C16.4179 68.592 18.9852 71.0147 19.2498 74.0793C19.3796 75.6006 18.946 77.0239 18.1303 78.1605L18.1327 78.1581L18.1474 79.8729Z" fill="white"/>
<path d="M18.1475 79.8728C18.1475 79.8728 18.145 79.8312 18.1426 79.7577C18.1401 79.6793 18.1377 79.5691 18.1352 79.427C18.1303 79.133 18.1205 78.7092 18.1107 78.158L18.1475 78.1752L18.145 78.1776C18.1352 78.185 18.1205 78.185 18.1132 78.1752C18.1058 78.1678 18.1058 78.1556 18.1132 78.1482C18.5468 77.5334 19.0269 76.6221 19.1837 75.4315C19.2645 74.8387 19.2547 74.187 19.1322 73.506C19.0049 72.8275 18.7476 72.1293 18.3434 71.4679C17.9368 70.8113 17.3832 70.1989 16.6972 69.7065C16.0138 69.2166 15.2005 68.8344 14.3088 68.6752C13.4195 68.5086 12.4641 68.5429 11.5455 68.7952C10.622 69.0427 9.74986 69.5448 9.02719 70.2283C8.65239 70.5664 8.35107 70.9681 8.07426 71.3748C7.95177 71.5879 7.82439 71.801 7.71905 72.0191L7.57451 72.3547L7.50347 72.5212L7.44958 72.6952C7.14337 73.6114 7.07477 74.5741 7.19971 75.478C7.31974 76.3844 7.67495 77.2222 8.1404 77.9302C8.61074 78.6406 9.20602 79.2212 9.85275 79.6548C10.5019 80.086 11.1952 80.3701 11.8738 80.522C12.0452 80.5514 12.2118 80.5808 12.3784 80.6102C12.545 80.6347 12.7091 80.6396 12.8708 80.6543C13.1941 80.6788 13.5053 80.6641 13.8041 80.6371C15.002 80.5196 15.9256 80.0713 16.5478 79.6646C16.5527 79.6622 16.5576 79.6597 16.5625 79.6622C17.0671 79.7283 17.4615 79.7797 17.7335 79.8165C17.8657 79.8336 17.9662 79.8483 18.0421 79.8581C18.1107 79.8655 18.1475 79.8728 18.1475 79.8728C18.1475 79.8728 18.1156 79.8704 18.047 79.8655C17.9735 79.8581 17.8731 79.8483 17.7433 79.8336C17.4664 79.8042 17.0671 79.7601 16.5552 79.7038L16.5698 79.7013C15.9501 80.1202 15.0192 80.5808 13.809 80.7082C13.5077 80.7376 13.1917 80.7547 12.8659 80.7327C12.7018 80.718 12.5352 80.7155 12.3661 80.691C12.1996 80.6616 12.0281 80.6322 11.8542 80.6028C11.1682 80.451 10.4603 80.1668 9.8013 79.7332C9.14478 79.2971 8.53725 78.7068 8.05711 77.9866C7.58186 77.2663 7.21931 76.4187 7.09437 75.4952C6.96699 74.5766 7.03558 73.5967 7.34669 72.6633L7.40058 72.4869L7.47163 72.3155C7.52062 72.2028 7.56962 72.0876 7.61861 71.975C7.7264 71.752 7.85378 71.5365 7.97872 71.3184C8.26043 70.9044 8.56665 70.4929 8.9488 70.1499C9.68371 69.4542 10.573 68.9422 11.5136 68.6924C12.4519 68.4351 13.422 68.4033 14.3259 68.5748C15.2348 68.7389 16.0603 69.1308 16.7536 69.6306C17.4493 70.1328 18.0103 70.755 18.4194 71.4238C18.826 72.095 19.0833 72.8054 19.2106 73.4938C19.3307 74.1846 19.3356 74.8436 19.2523 75.4438C19.0857 76.6466 18.5933 77.5628 18.1475 78.1776L18.1156 78.1482L18.1181 78.1458C18.1279 78.1384 18.1426 78.1384 18.1499 78.1482C18.1524 78.1531 18.1548 78.158 18.1548 78.1629C18.1548 78.719 18.1524 79.1477 18.1524 79.4441C18.1524 79.5838 18.1499 79.6916 18.1499 79.7699C18.1499 79.8385 18.1475 79.8728 18.1475 79.8728Z" fill="#263238"/>
<path d="M10.4848 74.9832L11.2491 74.165L12.8193 75.4682L15.7149 72.4869L16.4743 73.2512L12.7581 76.9969L10.4848 74.9832Z" fill="#7587D9"/>
<path d="M27.8973 61.1791C28.0467 60.6989 28.4362 60.2996 28.9139 60.1379C29.1075 60.0718 29.3328 60.0302 29.4455 59.8562C29.5264 59.7337 29.5239 59.577 29.5582 59.4349C29.666 58.9988 30.1951 58.722 30.6165 58.8837C30.7194 58.9229 30.8174 58.9866 30.93 58.989C31.3783 59.0013 31.4445 58.1414 31.8903 58.1586C31.7703 58.3056 31.6625 58.4746 31.6454 58.6632C31.6307 58.8518 31.736 59.0625 31.9173 59.1115C32.3925 59.2414 32.6203 58.3203 33.1103 58.3815C33.3749 58.4133 33.5684 58.7416 33.8281 58.6828C33.9285 58.6608 34.0069 58.5848 34.0926 58.5285C34.3841 58.3448 34.8177 58.4427 35.0015 58.7367C35.1582 58.9866 35.1827 59.3736 35.4669 59.4545C35.6433 59.5035 35.8197 59.3957 35.9715 59.2903C36.0867 59.5353 36.1455 59.8048 36.1406 60.0742C36.6918 60.111 37.1523 60.6597 37.0935 61.2085C37.3826 61.2697 37.679 61.3383 37.924 61.5049C38.1689 61.6715 38.3502 61.9654 38.2988 62.2569C38.2865 62.3231 38.2645 62.3892 38.2718 62.4554C38.2792 62.5289 38.3208 62.5926 38.3649 62.6489C38.5364 62.8718 38.7618 63.058 38.8769 63.3128C38.992 63.5675 38.9406 63.9374 38.6785 64.0379C38.6172 64.0624 38.5437 64.0746 38.5094 64.1285C38.485 64.1702 38.4923 64.2241 38.5045 64.2731C38.5584 64.4666 38.6932 64.6283 38.8059 64.7948C38.9186 64.9614 39.0141 65.1598 38.9798 65.3583C38.9455 65.5567 38.7226 65.7282 38.5413 65.6424C38.7495 65.8874 38.9602 66.1348 39.1684 66.3798C39.2934 66.5268 39.4256 66.7105 39.3644 66.8918C39.2836 67.1294 38.9332 67.1441 38.7201 67.0118C38.507 66.8795 38.3576 66.6591 38.1395 66.5317C38.0514 66.4802 37.9509 66.4459 37.875 66.3774C37.8137 66.3235 37.7672 66.2475 37.6863 66.2279C37.5271 66.1887 37.4316 66.4337 37.5173 66.5709C37.6031 66.7081 37.7745 66.7644 37.9215 66.833C38.0685 66.9016 38.2228 67.0265 38.2106 67.1907C38.2032 67.269 38.1591 67.3401 38.1542 67.4185C38.1395 67.6904 38.5535 67.7443 38.7103 67.9697C38.8255 68.1362 38.774 68.3616 38.7079 68.5502C38.627 68.783 38.387 69.0573 38.191 68.9055C38.1224 68.854 38.0954 68.7634 38.0342 68.7046C37.9632 68.636 37.8578 68.6164 37.7623 68.587C37.5247 68.5184 37.3066 68.3788 37.1474 68.1877C37.4463 68.3273 37.7892 68.5355 37.7868 68.8638C37.7868 69.001 37.7206 69.1284 37.6765 69.2607C37.5933 69.5179 37.6006 69.7972 37.5198 70.0544C37.4414 70.3116 37.2258 70.5664 36.9563 70.5517C37.1425 70.7476 37.1744 71.0759 37.0249 71.3037C36.8755 71.5315 36.5619 71.6344 36.3072 71.5413C36.2361 71.5168 36.1675 71.4752 36.094 71.4825C36.0132 71.4874 35.9471 71.5438 35.8834 71.5928C35.4963 71.8794 34.9427 71.9186 34.5164 71.6932C34.5752 71.632 34.6365 71.5707 34.6953 71.512C34.2421 71.6638 33.7693 71.8206 33.2965 71.7496C32.8237 71.6785 32.3582 71.3086 32.3533 70.8309C32.3509 70.6227 32.4195 70.3777 32.2651 70.2381C32.1598 70.1426 31.9981 70.1524 31.856 70.1695C31.2632 70.2381 30.6704 70.3067 30.0751 70.3777C29.786 70.412 29.4823 70.4414 29.2201 70.3189C28.958 70.1965 28.7743 69.8584 28.9213 69.6061C28.6886 69.4297 28.4068 69.3195 28.1178 69.295C27.792 69.2656 27.4637 69.3415 27.1354 69.3293C26.8072 69.3146 26.4495 69.1774 26.3221 68.8761C26.1972 68.5723 26.4912 68.1485 26.7974 68.2636C26.5402 67.8398 25.7391 68.1975 25.4549 67.7933C25.2247 67.4626 25.5921 67.0535 25.6926 66.6664C25.5848 66.566 25.4182 66.5488 25.308 66.4508C25.0752 66.2475 25.2149 65.8605 25.4084 65.6155C25.6019 65.373 25.8493 65.1011 25.7783 64.7997C25.7048 64.4911 25.3129 64.2927 25.3398 63.9766C25.357 63.8003 25.5284 63.6557 25.7048 63.6704C25.6583 63.0604 26.8072 62.9747 26.8562 62.3672C26.8611 62.3182 26.8562 62.2667 26.8292 62.2275C26.8072 62.1933 26.768 62.1688 26.7312 62.1516C26.5524 62.0659 26.3442 62.0757 26.1507 62.034C25.9571 61.9948 25.7489 61.8699 25.7318 61.6715C25.7146 61.473 26.0331 61.3261 26.1164 61.5049C26.2193 61.255 26.5941 61.1742 26.79 61.3628C26.839 61.1521 27.0816 61.037 27.2971 61.0541C27.5127 61.0713 27.7038 61.1889 27.8875 61.3016" fill="#263238"/>
<path d="M33.0686 65.6351C32.537 64.9933 31.6992 64.6822 30.8786 64.5376C30.5332 64.4764 30.1731 64.4421 29.8399 64.5523C29.5092 64.6626 29.2152 64.9516 29.1981 65.3019L29.5092 65.7968C29.8693 66.6542 30.8639 67.0167 31.5645 67.6267C31.8683 67.8937 32.1843 68.2391 32.5885 68.2097C32.7992 68.195 32.9927 68.0726 33.1372 67.9182C33.7129 67.3181 33.6002 66.2769 33.0686 65.6351Z" fill="#7587D9"/>
<path d="M35.1166 69.4003C35.2587 68.5404 34.6781 67.6218 33.8427 67.3768C33.9407 66.8379 33.5194 66.3136 33.0147 66.1054C32.5101 65.8972 31.9418 65.9266 31.3955 65.9584C30.5626 64.9834 28.9066 64.8732 27.9512 65.7281C26.9272 65.1941 25.6387 65.7159 24.8156 66.5267C24.6147 66.7252 24.4236 66.9432 24.1762 67.0755C23.9925 67.1735 23.7891 67.2176 23.5956 67.2911C22.53 67.6904 21.92 68.9201 22.0302 70.0519C22.0474 70.2332 22.0817 70.4169 22.0498 70.5957C22.0106 70.8309 21.8661 71.0342 21.7706 71.2522C21.5599 71.7226 21.5672 72.286 21.7926 72.7515C21.9837 73.1459 22.3267 73.4888 22.3512 73.9273C22.3634 74.1478 22.2924 74.3683 22.3291 74.5838C22.4295 75.2134 23.309 75.4388 23.4952 76.0463C23.5344 76.1713 23.5393 76.3011 23.5662 76.4285C23.6225 76.6881 23.7793 76.9233 23.9925 77.0801C24.159 77.2001 24.3648 77.281 24.4726 77.4574C24.5534 77.5896 24.5632 77.7538 24.6073 77.9008C24.7176 78.2658 26.1066 79.1501 26.4863 79.177L35.0064 74.699C35.5771 74.2237 35.7878 73.3614 35.4987 72.6755C35.4498 72.5604 35.3885 72.4428 35.4106 72.3203C35.4277 72.2174 35.5036 72.1341 35.5624 72.0459C35.9519 71.4605 35.6139 70.6741 35.2244 70.0886C35.1705 70.0078 35.1141 69.922 35.0896 69.8265C35.0529 69.6869 35.0921 69.5423 35.1166 69.4003Z" fill="#263238"/>
<path d="M32.6938 70.7183C31.9124 69.2044 30.0457 67.9844 28.1594 68.0505C26.9713 68.0922 26.2364 68.4841 25.7122 68.6924C24.5363 69.1578 23.9386 70.1867 23.9386 70.1867C23.5295 70.5468 22.6598 73.0357 23.4854 74.7848C24.4016 76.7299 25.597 79.0669 26.5916 80.3456C28.593 82.9178 30.9496 82.0849 30.9496 82.0849C30.9472 82.08 32.0006 84.2603 32.0006 84.2603L34.9451 86.7541L37.5688 82.4769L38.1395 81.5533L32.6938 70.7183Z" fill="#AE7461"/>
<path d="M30.3519 77.6951C30.2662 77.5628 30.1265 77.477 29.9869 77.4378C29.7052 77.3619 29.4063 77.4868 29.2618 77.7367C29.1197 77.9866 29.2128 78.2512 29.3892 78.5108C29.5876 78.6186 29.7542 78.7386 29.9673 78.6578C29.9991 78.6456 30.0334 78.6309 30.0628 78.6162C30.2147 78.5378 30.347 78.4104 30.4082 78.2414C30.4719 78.0723 30.4597 77.8592 30.3519 77.6951Z" fill="#6F4439"/>
<path d="M25.6215 76.7152C25.7195 76.9087 25.9669 76.9871 26.1703 76.8891C26.376 76.7911 26.4618 76.5535 26.3638 76.3575C26.2658 76.164 26.0184 76.0856 25.815 76.1836C25.6093 76.284 25.5235 76.5217 25.6215 76.7152Z" fill="#263238"/>
<path d="M24.7249 75.5099C24.796 75.532 24.9576 75.1792 25.3471 74.9661C25.7342 74.7481 26.1286 74.7897 26.1457 74.7187C26.1555 74.6868 26.0625 74.6256 25.8885 74.6036C25.717 74.5815 25.4598 74.6085 25.2173 74.7432C24.9748 74.8779 24.8205 75.0788 24.7543 75.2356C24.6857 75.3948 24.6906 75.5026 24.7249 75.5099Z" fill="#263238"/>
<path d="M28.6935 77.3275C28.6837 77.3055 28.4191 77.3961 27.9978 77.5627C27.8924 77.6068 27.7871 77.6386 27.7332 77.5798C27.6695 77.521 27.6523 77.3912 27.6376 77.2491C27.5984 76.9576 27.5568 76.6514 27.5152 76.3305C27.329 75.0297 27.1379 73.9812 27.084 73.9886C27.0326 73.9959 27.1404 75.0591 27.3241 76.3599C27.3731 76.6783 27.4172 76.9846 27.4613 77.2761C27.4858 77.4108 27.4907 77.5725 27.6254 77.695C27.694 77.7538 27.7944 77.7685 27.8679 77.7513C27.9414 77.7366 27.9978 77.7048 28.0492 77.6827C28.4583 77.4843 28.7033 77.352 28.6935 77.3275Z" fill="#263238"/>
<path d="M30.9472 82.0849C30.9472 82.0849 32.9241 81.1565 34.1808 78.991C34.1808 78.991 34.2714 81.5313 31.3048 82.8223L30.9472 82.0849Z" fill="#6F4439"/>
<path d="M24.2007 74.6916C24.3183 74.7504 24.5804 74.5226 24.9454 74.3609C25.303 74.187 25.6485 74.1306 25.6778 74.0032C25.6901 73.942 25.5995 73.871 25.4255 73.8416C25.254 73.8122 24.9993 73.8367 24.7519 73.9518C24.5044 74.0669 24.3232 74.2458 24.235 74.3952C24.1468 74.5495 24.1468 74.6622 24.2007 74.6916Z" fill="#263238"/>
<path d="M29.9379 74.4982C30.0432 74.6893 29.9673 74.9367 29.7689 75.0494C29.5704 75.1621 29.3255 75.0984 29.2226 74.9073C29.1172 74.7162 29.1932 74.4688 29.3916 74.3561C29.5876 74.2434 29.835 74.3071 29.9379 74.4982Z" fill="#263238"/>
<path d="M30.1314 72.7319C30.1094 72.803 29.7272 72.7368 29.3304 72.9377C28.9311 73.1312 28.7424 73.484 28.6763 73.4571C28.6444 73.4473 28.6469 73.337 28.7277 73.1802C28.8061 73.0259 28.9752 72.8299 29.2226 72.705C29.47 72.5825 29.7248 72.5678 29.8913 72.6021C30.0579 72.6315 30.1437 72.6976 30.1314 72.7319Z" fill="#263238"/>
<path d="M29.3083 71.1959C29.2765 71.3258 28.9213 71.387 28.5514 71.5658C28.1766 71.7349 27.9022 71.9676 27.7822 71.9112C27.7283 71.8818 27.7307 71.7667 27.8238 71.6124C27.9144 71.4605 28.1055 71.2768 28.3603 71.1567C28.6175 71.0367 28.8772 71.0073 29.0511 71.0367C29.2299 71.0636 29.3206 71.1347 29.3083 71.1959Z" fill="#263238"/>
<path d="M33.7105 73.6407C33.5953 73.4301 33.5659 72.8029 33.7546 72.656C34.2616 72.264 35.2832 71.7594 36.0671 73.1606C37.1376 75.0763 34.9941 75.7573 34.9598 75.7034C34.9353 75.6593 34.1073 74.3659 33.7105 73.6407Z" fill="#AE7461"/>
<path d="M35.097 74.7064C35.1019 74.6966 35.1436 74.7113 35.2146 74.7064C35.2832 74.7015 35.3885 74.6648 35.4669 74.5717C35.6286 74.3831 35.6188 73.9666 35.4351 73.6163C35.342 73.4399 35.2121 73.2929 35.075 73.1901C34.9378 73.0823 34.7932 73.0357 34.6806 73.0749C34.5654 73.1092 34.5287 73.2097 34.5336 73.2758C34.5385 73.3444 34.5728 73.3762 34.563 73.3836C34.5605 73.3909 34.5042 73.3738 34.4748 73.288C34.4625 73.2464 34.4576 73.1876 34.4821 73.1264C34.5066 73.0627 34.563 73.0063 34.6389 72.9745C34.7932 72.901 35.0015 72.9647 35.1534 73.0774C35.315 73.1852 35.4645 73.3468 35.5674 73.5453C35.7707 73.9372 35.7756 74.41 35.5429 74.6452C35.4277 74.7554 35.293 74.7775 35.2097 74.7652C35.1264 74.7505 35.0921 74.7138 35.097 74.7064Z" fill="#6F4439"/>
<path d="M23.0714 75.0469C23.3261 74.5913 23.3923 74.1234 23.1155 73.68C23.4143 73.6138 23.4952 73.1386 23.5221 72.8348C23.5491 72.5286 23.6716 72.3155 23.5123 72.0534C23.4805 72.0019 23.4462 71.948 23.4462 71.8868C23.4437 71.7912 23.5221 71.7177 23.5883 71.6492C23.9288 71.2964 24.0684 70.7624 23.9435 70.2871C24.4555 70.2406 24.9528 70.0642 25.3815 69.78C25.7391 69.9589 26.1899 69.9417 26.5304 69.7335C26.8733 69.5253 27.0962 69.1357 27.1011 68.734C27.3486 68.9104 27.6842 68.9275 27.9781 68.8516C28.2721 68.7756 28.5391 68.614 28.7988 68.4572C28.9678 69.0378 29.6195 69.4297 30.2123 69.3072C30.2931 69.2901 30.3838 69.268 30.4499 69.3146C30.5185 69.3636 30.5258 69.4616 30.5381 69.5449C30.6116 70.0764 31.2093 70.4708 31.7262 70.3312C31.5449 70.7477 31.8879 71.2939 32.3411 71.3135C32.4342 71.3184 32.5542 71.3184 32.586 71.4042C32.5983 71.436 32.5934 71.4752 32.5885 71.5095C32.5493 71.779 32.5224 72.0656 32.635 72.3106C32.7477 72.558 33.0564 72.7368 33.2989 72.6143C33.2352 72.7932 33.196 73.0014 33.2867 73.1704C33.3749 73.3395 33.6394 73.4154 33.7619 73.2709C33.8134 73.2096 34.6683 72.4943 34.6781 72.4135C34.8153 71.3748 33.6835 70.9363 33.125 70.0495C32.5665 69.1627 31.7605 68.4523 30.8664 67.9084C30.4915 67.6806 30.0971 67.4797 29.6733 67.3573C29.1932 67.2176 28.6886 67.1882 28.1888 67.1613C27.5372 67.127 26.8709 67.1 26.2413 67.274C25.0703 67.5998 24.1982 68.5699 23.478 69.5498C23.2037 69.9221 22.9366 70.3067 22.7725 70.7403C22.5741 71.2572 22.53 71.8206 22.5251 72.3743C22.5177 73.1753 22.5961 73.9911 22.9121 74.726" fill="#263238"/>
<path d="M22.3242 74.5815C22.3242 74.5815 22.2997 74.4908 22.3144 74.3194C22.3193 74.2336 22.3365 74.1258 22.3389 74.0009C22.3389 73.876 22.3144 73.7314 22.2507 73.582C22.187 73.4326 22.089 73.2782 21.9812 73.1117C21.8735 72.9451 21.7534 72.7589 21.6824 72.5311C21.6089 72.3082 21.577 72.0534 21.604 71.7864C21.6162 71.6541 21.6456 71.5169 21.6922 71.3846C21.7363 71.2499 21.8049 71.12 21.871 70.9927C21.9372 70.8628 22.0033 70.7281 22.0253 70.5811C22.0474 70.4341 22.0278 70.2773 22.0082 70.1181C21.9714 69.7972 21.9861 69.4567 22.067 69.1186C22.1478 68.7806 22.285 68.4401 22.4981 68.1363C22.5986 67.9795 22.7284 67.8423 22.8656 67.7076C23.0101 67.5827 23.1645 67.4626 23.3408 67.372C23.4266 67.3254 23.5197 67.2887 23.6103 67.2495C23.7034 67.2152 23.7989 67.1883 23.892 67.1564C24.0806 67.0976 24.2546 67.007 24.4065 66.8747C24.5608 66.7473 24.6955 66.5905 24.8474 66.4509C24.9968 66.3064 25.1659 66.1765 25.3398 66.0565C25.5162 65.9365 25.7048 65.8336 25.9008 65.7429C26.0992 65.6547 26.3074 65.5862 26.523 65.5372C26.9517 65.449 27.4245 65.4588 27.841 65.6449C27.8826 65.6645 27.9242 65.6817 27.9634 65.7013L27.9267 65.7062C28.4362 65.253 29.1295 65.0766 29.7664 65.133C30.4083 65.1869 31.0182 65.4735 31.4175 65.9414L31.3906 65.9316C31.6845 65.9144 31.9736 65.8997 32.2602 65.9169C32.5444 65.9365 32.8286 65.9904 33.0809 66.1079C33.3332 66.228 33.5488 66.4117 33.6958 66.6346C33.8427 66.8576 33.9162 67.1295 33.8672 67.3867L33.8476 67.3548C34.2739 67.4798 34.612 67.7688 34.8324 68.0996C35.0529 68.4303 35.1656 68.81 35.1558 69.1652C35.1582 69.2534 35.1435 69.3416 35.1313 69.4248C35.1166 69.5081 35.0994 69.589 35.0921 69.6698C35.0872 69.7482 35.097 69.8266 35.1264 69.8952C35.1558 69.9662 35.1999 70.0275 35.2415 70.0912C35.4081 70.3459 35.5355 70.5958 35.6212 70.8334C35.7045 71.0711 35.7462 71.2964 35.7364 71.4924C35.729 71.6884 35.6727 71.8501 35.609 71.9676C35.5453 72.0877 35.4718 72.1612 35.4424 72.2224C35.4106 72.2837 35.4057 72.3204 35.4032 72.318C35.4032 72.318 35.4032 72.2812 35.4351 72.2175C35.462 72.1538 35.5355 72.0754 35.5943 71.9578C35.6555 71.8403 35.707 71.681 35.7119 71.4875C35.7192 71.294 35.6776 71.0735 35.5918 70.8383C35.5061 70.6056 35.3763 70.3582 35.2097 70.1083C35.168 70.0446 35.1239 69.9809 35.0896 69.9074C35.0554 69.8339 35.0431 69.7458 35.0505 69.6625C35.0554 69.5792 35.0749 69.4959 35.0872 69.4126C35.097 69.3293 35.1117 69.246 35.1092 69.1578C35.1166 68.8124 35.0039 68.4425 34.7883 68.1216C34.5728 67.8007 34.242 67.5214 33.8305 67.4014L33.806 67.394L33.8109 67.3695C33.855 67.1295 33.7864 66.8722 33.6443 66.6591C33.5022 66.446 33.294 66.2672 33.0539 66.1545C32.809 66.0418 32.5346 65.9879 32.2553 65.9708C31.9736 65.9536 31.687 65.9683 31.393 65.9855H31.3783L31.3685 65.9732C30.9815 65.52 30.3862 65.2407 29.7615 65.1893C29.1393 65.1354 28.4632 65.3069 27.9708 65.7478L27.9536 65.7625L27.9316 65.7527C27.8924 65.7356 27.8532 65.716 27.8116 65.6988C27.4074 65.5176 26.9517 65.5078 26.5328 65.5935C26.3221 65.64 26.1188 65.7086 25.9253 65.7944C25.7318 65.885 25.5456 65.983 25.3741 66.103C25.2026 66.2206 25.036 66.348 24.8891 66.4901C24.7372 66.6297 24.6024 66.7841 24.4432 66.9163C24.3648 66.9825 24.2791 67.0437 24.1884 67.0927C24.0978 67.1417 24.0023 67.1785 23.9067 67.2103C23.8112 67.2422 23.7181 67.2691 23.6275 67.3034C23.5393 67.3401 23.4486 67.3744 23.3653 67.421C23.1939 67.5067 23.0444 67.6243 22.9023 67.7443C22.7701 67.8742 22.6427 68.0089 22.5422 68.1608C22.3316 68.4572 22.1968 68.7904 22.116 69.1235C22.0351 69.4567 22.018 69.7899 22.0547 70.1059C22.0719 70.2651 22.0939 70.4243 22.0694 70.5811C22.0449 70.7379 21.9763 70.8775 21.9078 71.0074C21.8392 71.1372 21.773 71.2621 21.7289 71.392C21.6848 71.5218 21.6554 71.6541 21.6407 71.7839C21.6138 72.0436 21.6432 72.2935 21.7142 72.5139C21.7828 72.7344 21.898 72.9206 22.0033 73.0872C22.1086 73.2562 22.2091 73.4105 22.2703 73.5649C22.3365 73.7167 22.3585 73.8662 22.3561 73.9936C22.3512 74.1209 22.334 74.2263 22.3242 74.312C22.3144 74.3978 22.3144 74.4639 22.3169 74.508C22.3218 74.5594 22.3242 74.5815 22.3242 74.5815Z" fill="#455A64"/>
<path d="M26.8145 65.8017C26.8145 65.8066 26.7484 65.7993 26.6283 65.8066C26.5108 65.8115 26.3368 65.8336 26.1409 65.9144C25.9473 65.9928 25.7269 66.1324 25.5578 66.3529C25.3888 66.5709 25.2712 66.8698 25.2663 67.1907C25.2639 67.2838 25.2712 67.3769 25.2908 67.4602C25.3104 67.5435 25.3496 67.6243 25.4157 67.6561L25.499 67.6953L25.4084 67.7149C25.161 67.7713 24.965 67.933 24.8523 68.1118C24.7372 68.2931 24.7102 68.489 24.72 68.6458C24.7323 68.8051 24.7788 68.9251 24.818 69.0035C24.8572 69.0819 24.8866 69.1211 24.8817 69.1235C24.8793 69.126 24.8719 69.1162 24.8572 69.099C24.8425 69.0819 24.8205 69.0525 24.7984 69.0157C24.7519 68.9398 24.6955 68.8149 24.6784 68.6507C24.6612 68.4866 24.6833 68.2784 24.8033 68.0824C24.9209 67.8889 25.1267 67.7149 25.3937 67.6512L25.3863 67.7125C25.2908 67.6659 25.2467 67.5655 25.2247 67.4749C25.2051 67.3818 25.1977 67.2862 25.2002 67.1882C25.2051 66.8526 25.33 66.5415 25.5088 66.3162C25.6877 66.0859 25.9179 65.9462 26.1213 65.8703C26.3246 65.7944 26.5034 65.7797 26.6234 65.7797C26.6847 65.7797 26.7312 65.7846 26.7631 65.7895C26.7974 65.7944 26.8145 65.7993 26.8145 65.8017Z" fill="#455A64"/>
<path d="M31.1456 66.3014C31.1481 66.3038 31.1407 66.3406 31.1162 66.4067C31.0917 66.4729 31.0501 66.5684 30.9815 66.6762C30.9105 66.784 30.81 66.9065 30.6606 67.002C30.5136 67.0951 30.3127 67.1588 30.1045 67.1196L30.1437 67.0902C30.1388 67.1269 30.1339 67.1637 30.1314 67.2004C30.1241 67.2372 30.1143 67.2739 30.1069 67.3131C30.0457 67.536 29.9281 67.732 29.7909 67.8765C29.6538 68.0235 29.5019 68.124 29.3647 68.1852C29.2275 68.2465 29.1075 68.271 29.0242 68.2832C28.9409 68.2906 28.8943 68.2881 28.8943 68.2857C28.8919 68.271 29.083 68.2759 29.3451 68.146C29.4749 68.0823 29.6195 67.9794 29.7468 67.8374C29.8767 67.6977 29.9869 67.5115 30.0457 67.2984C30.0531 67.2617 30.0629 67.2274 30.0678 67.1931C30.0727 67.1588 30.0776 67.122 30.08 67.0902L30.0849 67.0534L30.1192 67.0608C30.3078 67.0975 30.494 67.0412 30.6336 66.9579C30.7757 66.8746 30.8762 66.7595 30.9496 66.6566C31.0868 66.4459 31.1358 66.2965 31.1456 66.3014Z" fill="#455A64"/>
<path d="M33.1397 67.5287C33.1421 67.5287 33.147 67.5409 33.1544 67.5679C33.1593 67.5948 33.1666 67.634 33.1617 67.6855C33.1568 67.7859 33.1005 67.9353 32.9633 68.0603C32.8286 68.1877 32.613 68.2636 32.3803 68.3003C32.2627 68.3199 32.1427 68.3395 32.0104 68.3469C31.883 68.3518 31.7336 68.342 31.6111 68.2513C31.6013 68.244 31.5915 68.2342 31.5817 68.2269L31.6356 68.2146C31.5302 68.462 31.4077 68.6923 31.2534 68.8687C31.1015 69.05 30.9129 69.1675 30.7439 69.2214C30.5748 69.2778 30.4254 69.2729 30.3274 69.2533C30.2784 69.2435 30.2417 69.2312 30.2196 69.219C30.1951 69.2092 30.1829 69.2018 30.1853 69.1994C30.1878 69.1945 30.2368 69.2141 30.3323 69.2263C30.4254 69.2386 30.5675 69.2361 30.7292 69.1773C30.8909 69.121 31.0648 69.0059 31.2093 68.8295C31.3563 68.6556 31.4739 68.4302 31.5768 68.1877L31.5939 68.146L31.6282 68.1754C31.6356 68.1828 31.6429 68.1877 31.6527 68.195C31.7507 68.2709 31.8854 68.2832 32.0079 68.2783C32.1329 68.2734 32.2553 68.2538 32.3705 68.2366C32.6007 68.2024 32.8016 68.1338 32.9315 68.0211C33.0637 67.9084 33.1201 67.7712 33.1348 67.6781C33.1519 67.585 33.1323 67.5311 33.1397 67.5287Z" fill="#455A64"/>
<path d="M31.4396 59.528C31.442 59.5329 31.4077 59.5476 31.3563 59.5941C31.3073 59.6406 31.2461 59.7239 31.2167 59.8513C31.1873 59.9763 31.1946 60.1355 31.273 60.2972C31.3465 60.4613 31.4812 60.6181 31.6331 60.7822L31.6576 60.8092L31.6258 60.8263C31.4053 60.939 31.1971 61.1325 31.0721 61.3946C30.9447 61.6543 30.9252 61.9875 31.077 62.2692C31.2069 62.5288 31.4518 62.715 31.7091 62.7567L31.8021 62.7714L31.7189 62.8155C31.42 62.9747 31.2314 63.2613 31.1652 63.5357C31.0966 63.8125 31.153 64.0722 31.2436 64.2608C31.3343 64.4519 31.4543 64.5744 31.54 64.6503C31.6282 64.7262 31.6846 64.7556 31.6821 64.7605C31.6821 64.763 31.6674 64.7556 31.6405 64.7409C31.6135 64.7262 31.5743 64.7017 31.5278 64.6674C31.4347 64.5964 31.3073 64.4739 31.2069 64.2779C31.1089 64.0869 31.0427 63.8149 31.1113 63.521C31.1775 63.2319 31.371 62.9306 31.6895 62.7567L31.6993 62.8155C31.42 62.7714 31.1579 62.5705 31.0207 62.2961C30.9423 62.1467 30.9031 61.9801 30.908 61.8184C30.9105 61.6568 30.9545 61.5024 31.0182 61.3652C31.1505 61.0909 31.3734 60.89 31.6037 60.7749L31.5964 60.819C31.4469 60.6524 31.3122 60.4882 31.2363 60.3143C31.1579 60.1428 31.1554 59.9689 31.1897 59.8415C31.224 59.7117 31.2926 59.6235 31.349 59.5794C31.3759 59.5574 31.4004 59.5427 31.4175 59.5353C31.4298 59.5304 31.4371 59.528 31.4396 59.528Z" fill="#455A64"/>
<path d="M37.1572 61.8185C37.1596 61.8185 37.1523 61.8308 37.1351 61.8553C37.118 61.8773 37.0984 61.9116 37.0641 61.9508C36.998 62.0316 36.8877 62.1419 36.7236 62.2521C36.5619 62.3599 36.3439 62.4628 36.0793 62.5118C35.8172 62.5632 35.5036 62.5534 35.1974 62.4432L35.2391 62.4162C35.2244 62.791 35.0578 63.2222 34.6977 63.4843C34.3155 63.7611 33.7864 63.7538 33.4606 63.499L33.5096 63.4696C33.5341 63.6288 33.5096 63.7881 33.4581 63.9228C33.4042 64.06 33.3258 64.1776 33.2401 64.2731C33.0637 64.4691 32.858 64.5793 32.6889 64.6553C32.5174 64.7312 32.3754 64.7729 32.2774 64.8023C32.1794 64.8292 32.1255 64.8414 32.1255 64.839C32.1255 64.8365 32.1769 64.817 32.27 64.7827C32.3656 64.7484 32.5052 64.7018 32.6718 64.621C32.8359 64.5401 33.0343 64.4275 33.2009 64.2388C33.3626 64.0526 33.4973 63.7758 33.4483 63.477L33.4361 63.401L33.4973 63.4476C33.7986 63.6827 34.3008 63.6876 34.6585 63.428C34.999 63.1805 35.1607 62.7714 35.1754 62.4113L35.1778 62.3697L35.217 62.3844C35.511 62.4922 35.8123 62.5069 36.0671 62.4603C36.3243 62.4187 36.5374 62.3207 36.6991 62.2203C37.0298 62.0145 37.1474 61.8063 37.1572 61.8185Z" fill="#455A64"/>
<path d="M36.682 65.738C36.6844 65.738 36.6869 65.7551 36.6795 65.7845C36.6697 65.8139 36.6452 65.8556 36.5962 65.8923C36.5007 65.9634 36.3415 66.0295 36.1332 66.054C35.9275 66.0785 35.6653 66.0516 35.4204 65.9144C35.1779 65.7796 34.9574 65.5371 34.8594 65.226L34.8569 65.2187L34.9157 65.2285C34.732 65.4955 34.4625 65.6694 34.2029 65.7576C33.9407 65.8482 33.686 65.8531 33.4802 65.8262C33.2744 65.7992 33.1152 65.7429 33.0099 65.6964C32.9045 65.6498 32.8506 65.6155 32.8531 65.6131C32.858 65.5984 33.0833 65.7355 33.4876 65.7796C33.6884 65.7992 33.9334 65.7919 34.1857 65.7013C34.4356 65.6131 34.6904 65.444 34.8643 65.1917L34.901 65.1378L34.9231 65.2015L34.9255 65.2064C35.0186 65.4979 35.2244 65.7307 35.4547 65.8605C35.6849 65.9928 35.9348 66.0246 36.1332 66.0075C36.3341 65.9903 36.4933 65.9291 36.5864 65.8703C36.6771 65.809 36.6746 65.7355 36.682 65.738Z" fill="#455A64"/>
<path d="M27.2702 61.9017C27.2849 61.8968 27.2849 62.1785 27.5078 62.541C27.618 62.7199 27.7895 62.911 28.0296 63.0506C28.2696 63.1878 28.5759 63.2662 28.8943 63.2417C29.0731 63.227 29.2446 63.1829 29.3965 63.1143L29.4333 63.0971L29.4406 63.1363C29.492 63.3887 29.5925 63.614 29.7101 63.7953C29.8301 63.9766 29.9624 64.1211 30.0873 64.224C30.1486 64.2754 30.2074 64.322 30.2613 64.3538C30.3151 64.3857 30.369 64.393 30.4058 64.3759C30.445 64.3587 30.4646 64.3318 30.4695 64.3097C30.4744 64.2877 30.4719 64.2754 30.4744 64.2754C30.4744 64.2754 30.4842 64.2877 30.4793 64.3122C30.4768 64.3367 30.4572 64.3734 30.4131 64.3955C30.369 64.42 30.3029 64.4126 30.2441 64.3808C30.1853 64.3489 30.1265 64.3073 30.0604 64.2558C29.9305 64.1554 29.7885 64.0109 29.6635 63.8271C29.5386 63.641 29.4308 63.4107 29.3769 63.1486L29.421 63.1706C29.2642 63.2441 29.0854 63.2907 28.8968 63.3054C28.5636 63.3299 28.2427 63.2466 27.9953 63.0996C27.7454 62.9501 27.5739 62.7468 27.4637 62.5606C27.3534 62.3745 27.3045 62.2005 27.2824 62.083C27.2726 62.0242 27.2677 61.9776 27.2653 61.9458C27.2677 61.9188 27.2677 61.9017 27.2702 61.9017Z" fill="#455A64"/>
<path d="M30.0555 77.1585C29.9942 77.1732 30.1192 77.5774 29.862 77.9718C29.6072 78.3662 29.1613 78.4544 29.176 78.5132C29.1785 78.5401 29.2961 78.5622 29.4798 78.5107C29.6611 78.4617 29.9036 78.3246 30.0604 78.082C30.2172 77.842 30.2343 77.5774 30.1976 77.4084C30.1584 77.232 30.0824 77.1463 30.0555 77.1585Z" fill="#263238"/>
<path d="M31.9516 84.0936C31.9516 84.0936 33.6786 95.5289 35.7658 97.5327C37.9999 99.6762 42.0125 100.732 42.0125 100.732C42.0125 100.732 47.3553 102.844 49.2122 102.383L52.5708 90.8695C52.5708 90.8695 52.4213 90.2056 51.6595 90.1787C51.3263 90.1664 50.366 90.6147 49.9324 90.5094C48.1931 90.0905 44.1168 83.8535 44.1168 83.8535C44.1168 83.8535 40.2438 78.5156 36.9416 78.9958C34.6781 79.3265 33.7399 80.3333 32.8874 82.6164C32.6816 83.1701 32.3656 83.6747 31.9516 84.0936Z" fill="#7587D9"/>
<path d="M31.9516 84.0936L30.445 91.7196L23.4829 89.7427L22.2801 93.8067L34.0583 99.1251L36.3758 89.483L31.9516 84.0936Z" fill="#7587D9"/>
<path d="M47.6983 97.545C47.6665 97.5327 48.1785 96.1046 48.8424 94.3555C49.5062 92.6064 50.0721 91.2002 50.1064 91.2125C50.1382 91.2247 49.6263 92.6529 48.9624 94.402C48.2985 96.1511 47.7326 97.5572 47.6983 97.545Z" fill="#263238"/>
<path d="M47.5685 95.9453C47.5366 95.933 47.8233 95.0707 48.2103 94.0222C48.5974 92.9713 48.9379 92.1311 48.9697 92.1433C49.0016 92.1556 48.715 93.0154 48.3279 94.0663C47.9433 95.1173 47.6028 95.9575 47.5685 95.9453Z" fill="#263238"/>
<path d="M31.7703 86.3008C31.807 86.3008 31.8315 87.0994 31.8707 88.0842C31.8903 88.5766 31.9124 89.0224 31.932 89.3433C31.9516 89.6642 31.9687 89.8627 31.9516 89.8676C31.9344 89.87 31.8854 89.674 31.8438 89.3531C31.7997 89.0322 31.7654 88.5839 31.7458 88.0891C31.7262 87.5942 31.7238 87.1484 31.7311 86.825C31.736 86.4992 31.7507 86.3008 31.7703 86.3008Z" fill="#263238"/>
<g opacity="0.3">
<path d="M27.9365 96.3593L30.5308 95.2324L31.9516 90.2007L30.984 96.4009L29.0732 96.8737L27.9365 96.3593Z" fill="black"/>
</g>
<g opacity="0.3">
<path d="M49.5919 92.2021C49.4205 92.1017 49.2 92.1752 49.0604 92.3197C48.9183 92.4642 48.8374 92.6676 48.759 92.8635C48.2471 94.1619 47.7326 95.4578 47.2206 96.7561C47.1471 96.9423 47.0736 97.1383 47.0932 97.3392C47.1153 97.54 47.2721 97.7385 47.4533 97.7115C47.6224 97.687 47.7228 97.4984 47.7963 97.3318C48.5263 95.6881 49.151 93.9855 49.6605 92.2413" fill="black"/>
</g>
<path d="M12.6968 90.7618C12.6968 90.7618 13.6351 89.51 14.1863 89.2405C14.6248 89.0274 17.2337 88.5669 17.5522 88.6281C17.8706 88.6894 23.4829 89.9191 23.4829 89.9191L22.7553 92.3713L22.3977 92.2047C22.3977 92.2047 21.2635 92.773 20.4012 92.5011C19.5364 92.2292 18.4316 91.4673 18.4316 91.4673L17.6599 91.7564C17.6599 91.7564 18.5075 92.021 18.5712 92.3737C18.6349 92.724 18.1523 92.7632 18.1523 92.7632L18.118 92.9176C18.0568 93.187 17.7922 93.361 17.5203 93.3046C17.023 93.2042 16.3053 93.0351 16.1436 92.8563C16.0774 92.7828 15.7369 92.1581 15.7369 92.1581C15.2127 91.7882 15.22 91.4208 15.2494 91.1954C15.3082 90.7471 15.7859 90.2425 15.7859 90.2425L14.8403 90.191C14.8379 90.191 13.3117 91.7564 12.6968 90.7618Z" fill="#AE7461"/>
<path d="M20.58 90.3502C19.4409 90.3502 18.3606 90.1983 17.513 90.409C17.29 90.4653 17.0622 90.5462 16.9005 90.7103C16.7389 90.8744 16.6654 91.1439 16.7805 91.3423C16.8809 91.5138 17.0892 91.5897 17.2851 91.602C17.4811 91.6142 17.6795 91.5726 17.8755 91.5677C18.3508 91.5555 18.8015 91.7563 19.2229 91.9744C19.6442 92.1948 20.0582 92.4423 20.5237 92.5402C20.9867 92.6407 22.0768 92.5525 22.3977 92.2022" fill="#AE7461"/>
<path d="M22.3977 92.2047C22.4001 92.2071 22.3781 92.2365 22.3266 92.2855C22.2727 92.3296 22.1821 92.3884 22.0572 92.4374C21.8073 92.5354 21.4251 92.6211 20.9475 92.626C20.7098 92.6309 20.4379 92.5942 20.1733 92.4962C19.9063 92.4006 19.6393 92.2634 19.3649 92.1165C19.0881 91.9719 18.8015 91.8201 18.483 91.7221C18.3238 91.6731 18.1597 91.6412 17.9907 91.6339C17.8216 91.6241 17.6501 91.6535 17.464 91.6657C17.2802 91.678 17.0794 91.6608 16.9103 91.5579C16.7364 91.4624 16.6335 91.2468 16.6654 91.0582C16.6899 90.8696 16.7976 90.703 16.9373 90.5976C17.0769 90.4899 17.2361 90.4286 17.388 90.3845C18.0078 90.2155 18.5835 90.2498 19.0538 90.262C19.5095 90.2865 19.8867 90.3086 20.1709 90.3233C20.4355 90.338 20.58 90.3453 20.58 90.3551C20.58 90.36 20.5433 90.3625 20.4747 90.3674C20.4061 90.3723 20.3032 90.3747 20.1709 90.3747C19.9063 90.3772 19.5242 90.3625 19.0514 90.3551C18.5835 90.3527 18.0127 90.3331 17.4223 90.5021C17.2778 90.5462 17.1333 90.605 17.0132 90.6981C16.8932 90.7912 16.8099 90.9259 16.7903 91.0778C16.7683 91.2272 16.8393 91.3766 16.9765 91.455C17.1112 91.5359 17.2827 91.5555 17.4566 91.5432C17.6305 91.5334 17.8118 91.5016 17.9956 91.5114C18.1768 91.5187 18.3532 91.5555 18.5198 91.6069C18.853 91.7098 19.1469 91.869 19.4213 92.016C19.9651 92.3198 20.4771 92.5574 20.9499 92.5378C21.4178 92.5452 21.7951 92.4741 22.0425 92.3933C22.2899 92.3075 22.3903 92.1949 22.3977 92.2047Z" fill="#6F4439"/>
<path d="M16.9373 90.0881C16.9422 90.1028 16.832 90.1567 16.6409 90.191C16.4498 90.2278 16.1852 90.2523 15.8937 90.2596C15.3082 90.2743 14.8379 90.2278 14.8379 90.1935C14.8379 90.1567 15.3107 90.1469 15.8888 90.1322C16.1779 90.1249 16.44 90.1151 16.6286 90.1004C16.8173 90.0881 16.9324 90.0686 16.9373 90.0881Z" fill="#6F4439"/>
<path d="M18.1915 92.7633C18.1989 92.7927 17.5914 92.8907 16.8687 92.6971C16.146 92.511 15.6634 92.1264 15.6855 92.1043C15.7051 92.07 16.2048 92.3958 16.9005 92.5747C17.5963 92.7608 18.1891 92.7241 18.1915 92.7633Z" fill="#6F4439"/>
<path d="M16.6237 91.4845C16.6286 91.4502 16.8834 91.4551 17.1872 91.531C17.4909 91.607 17.7187 91.7245 17.7041 91.7564C17.6918 91.7907 17.4493 91.7294 17.1553 91.656C16.8614 91.58 16.6188 91.5212 16.6237 91.4845Z" fill="#6F4439"/>
<path d="M5.10275 93.4074L11.2834 90.3821C11.3838 90.3331 11.5038 90.3429 11.5969 90.4066L18.3924 94.7254C18.5492 94.8356 18.5786 95.061 18.4561 95.208L14.8648 100.014L5.10275 93.4074Z" fill="#263238"/>
<path d="M5.87195 93.6303L14.1912 99.1079L17.9711 94.8944L11.423 90.8279L5.87195 93.6303Z" fill="white"/>
<path d="M9.10557 91.9965L16.2465 96.815L14.1912 99.108L5.87195 93.6304L9.10557 91.9965Z" fill="#E0E0E0"/>
<path d="M12.7556 92.1385L11.6631 93.0253C11.5896 93.0841 11.4842 93.0719 11.4254 93.0008C11.3666 92.9273 11.3789 92.822 11.4499 92.7632L12.5425 91.8764C12.616 91.8176 12.7213 91.8299 12.7801 91.9009C12.8389 91.9744 12.8291 92.0797 12.7556 92.1385Z" fill="#E0E0E0"/>
<path d="M13.2505 92.5403L12.1579 93.427C12.0844 93.4858 11.9791 93.476 11.9203 93.4025C11.8615 93.3315 11.8737 93.2237 11.9448 93.1649L13.0374 92.2781C13.1084 92.2193 13.2162 92.2316 13.275 92.3026C13.3338 92.3761 13.3215 92.4815 13.2505 92.5403Z" fill="#E0E0E0"/>
<path d="M13.7796 93.0131L12.6871 93.8999C12.6136 93.9587 12.5082 93.9464 12.4494 93.8754C12.3906 93.8019 12.4029 93.6965 12.4739 93.6378L13.5665 92.751C13.6375 92.6922 13.7453 92.702 13.8041 92.7755C13.8629 92.8465 13.8507 92.9543 13.7796 93.0131Z" fill="#E0E0E0"/>
<path d="M13.9952 93.6524L13.3754 94.1546C13.3019 94.2134 13.1966 94.2012 13.1378 94.1301C13.079 94.0566 13.0912 93.9513 13.1623 93.8925L13.7821 93.3903C13.8555 93.3315 13.9609 93.3438 14.0197 93.4148C14.0785 93.4859 14.0687 93.5936 13.9952 93.6524Z" fill="#E0E0E0"/>
<path d="M11.8394 91.9916L11.1192 92.4962C11.0433 92.5501 10.938 92.5305 10.8841 92.4546C10.8302 92.3786 10.8498 92.2733 10.9257 92.2194L11.6459 91.7148C11.7219 91.6609 11.8272 91.6805 11.8811 91.7564C11.9325 91.8323 11.9154 91.9377 11.8394 91.9916Z" fill="#7587D9"/>
<path d="M15.5508 94.4045L14.9285 95.0268C14.8624 95.0929 14.757 95.0929 14.6909 95.0268C14.6248 94.9606 14.6248 94.8553 14.6909 94.7891L15.3131 94.1669C15.3793 94.1008 15.4846 94.1008 15.5508 94.1669C15.6144 94.2331 15.6144 94.3408 15.5508 94.4045Z" fill="#7587D9"/>
<path d="M14.8624 100.014C14.7007 100.269 14.3626 100.343 14.1079 100.181L5.0219 94.3678C4.76713 94.2061 4.69364 93.868 4.85532 93.6132C5.017 93.3585 5.35506 93.285 5.60983 93.4467L14.6983 99.2623C14.9506 99.424 15.0265 99.762 14.8624 100.014Z" fill="#263238"/>
<path d="M84.6399 82.2004L84.9045 75.7282C84.9045 75.7282 91.531 74.2927 91.6951 73.1021L79.2065 71.6691L78.3785 81.7374L84.6399 82.2004Z" fill="#455A64"/>
<g opacity="0.6">
<path d="M80.9874 75.9704C80.7498 75.8847 80.6028 75.6005 80.6788 75.358C80.7547 75.118 81.0438 74.9661 81.2814 75.0469C81.5215 75.1278 81.7077 75.4658 81.6048 75.6961C81.5043 75.9264 81.154 76.0856 80.9409 75.9509" fill="white"/>
</g>
<path d="M79.2065 71.6663L79.1232 72.6804L91.2321 73.6456C91.2321 73.6456 91.6534 73.5158 91.771 73.0161L79.2065 71.6663Z" fill="#263238"/>
<path d="M85.1029 75.8063C85.1054 75.7451 84.8016 75.6936 84.515 75.4732C84.2235 75.26 84.0888 74.9832 84.03 75.0028C83.9736 75.0102 84.0349 75.3825 84.3876 75.6446C84.7355 75.9068 85.1103 75.8627 85.1029 75.8063Z" fill="#263238"/>
<path d="M86.4576 75.3629C86.4772 75.3041 86.22 75.1792 86.0314 74.9048C85.8354 74.6353 85.8035 74.3512 85.7423 74.3487C85.686 74.334 85.6149 74.6892 85.855 75.0273C86.0951 75.3678 86.4527 75.4217 86.4576 75.3629Z" fill="#263238"/>
<path d="M87.3273 73.8465C87.2734 73.8294 87.1631 74.1282 87.2954 74.4761C87.4252 74.824 87.7021 74.9783 87.7315 74.9293C87.7707 74.8828 87.5967 74.6868 87.4938 74.4002C87.3836 74.1184 87.386 73.8588 87.3273 73.8465Z" fill="#263238"/>
<path d="M84.8776 77.2736C84.8555 77.2148 84.5689 77.2785 84.2259 77.2295C83.8805 77.1854 83.6209 77.0507 83.5841 77.0997C83.5449 77.1413 83.7899 77.3887 84.1965 77.4402C84.6032 77.4965 84.9045 77.3251 84.8776 77.2736Z" fill="#263238"/>
<g opacity="0.3">
<path d="M84.6399 82.2004L84.9045 75.7282C84.9045 75.7282 91.531 74.2927 91.6951 73.1021L79.2065 71.6691L78.3785 81.7374L84.6399 82.2004Z" fill="black"/>
</g>
<path d="M85.6884 77.4525C85.588 77.6533 84.8359 96.4475 84.8359 96.4475L78.3662 93.8949C78.3662 93.8949 77.2222 91.7588 77.4231 88.8338C77.624 85.9088 79.3388 76.9331 79.3388 76.9331L85.6884 77.4525Z" fill="#263238"/>
<path d="M83.9638 82.6115L80.8356 76.938C80.8356 76.938 85.757 72.2762 85.2818 71.1714L73.8563 76.4162L78.3662 85.4556L83.9638 82.6115Z" fill="#455A64"/>
<g opacity="0.6">
<path d="M77.6117 79.177C77.3643 79.2285 77.0924 79.0594 77.0312 78.8145C76.9699 78.5695 77.1389 78.2902 77.3864 78.2363C77.6313 78.1824 77.9669 78.3735 77.9988 78.6234C78.0306 78.8733 77.8151 79.1917 77.5627 79.1844" fill="white"/>
</g>
<path d="M73.859 76.4162L74.3147 77.3275L85.1694 71.8769C85.1694 71.8769 85.4609 71.5486 85.3041 71.0612L73.859 76.4162Z" fill="#263238"/>
<path d="M81.0462 76.9013C81.0168 76.8474 80.7302 76.96 80.3726 76.9209C80.0125 76.8915 79.7552 76.7224 79.7136 76.7714C79.6695 76.8082 79.9145 77.0948 80.3505 77.134C80.7866 77.1781 81.083 76.9454 81.0462 76.9013Z" fill="#263238"/>
<path d="M81.9771 75.821C81.9624 75.7622 81.6782 75.7891 81.3745 75.6495C81.0683 75.5196 80.8943 75.2943 80.8404 75.3237C80.7841 75.3408 80.909 75.6813 81.2887 75.8454C81.6684 76.0145 82.0016 75.8748 81.9771 75.821Z" fill="#263238"/>
<path d="M81.933 74.0743C81.8767 74.089 81.9404 74.4001 82.2319 74.6279C82.5234 74.8582 82.8419 74.8459 82.8419 74.7896C82.8492 74.7283 82.6018 74.6524 82.3642 74.4613C82.1241 74.2751 81.9918 74.0522 81.933 74.0743Z" fill="#263238"/>
<path d="M81.617 78.2756C81.568 78.2364 81.3549 78.4397 81.0364 78.5744C80.718 78.7165 80.4265 78.7337 80.4216 78.7949C80.4093 78.8512 80.7474 78.9345 81.1222 78.7704C81.4945 78.6087 81.6636 78.305 81.617 78.2756Z" fill="#263238"/>
<g opacity="0.3">
<path d="M83.344 81.4872L82.788 80.4755L77.2982 83.3122L77.7611 84.2431L83.344 81.4872Z" fill="black"/>
</g>
<path d="M52.5708 90.8695L54.3787 90.2938C54.3787 90.2938 57.7078 87.6211 61.4387 87.9739C65.1696 88.3267 68.195 90.0807 68.195 90.0807L72.0778 92.2095L82.0628 94.8821L76.3134 81.318L81.9893 78.9639C81.9893 78.9639 87.6629 88.1013 89.3777 90.6735C91.0925 93.2457 92.3957 95.8424 92.599 97.9614C92.7999 100.08 91.2076 103.047 86.8202 103.549C82.4327 104.054 63.6557 102.8 63.6557 102.8L49.2098 102.383L52.5708 90.8695Z" fill="#263238"/>
<path d="M52.5708 90.8695C52.5708 90.8695 52.5536 90.9381 52.5169 91.0679C52.4801 91.2002 52.4238 91.3937 52.3528 91.6509C52.2058 92.1654 51.9877 92.9223 51.7036 93.9071C51.1328 95.8767 50.2999 98.7551 49.2465 102.393L49.2122 102.346C52.1911 102.43 55.6697 102.525 59.5623 102.633C63.4573 102.677 67.7565 103.032 72.3914 103.248C74.7088 103.363 77.1095 103.468 79.5837 103.542C80.8208 103.576 82.0751 103.603 83.3465 103.606C83.9834 103.603 84.6228 103.606 85.2646 103.579C85.5855 103.571 85.9089 103.561 86.2298 103.532C86.5532 103.51 86.8765 103.488 87.195 103.429C88.4713 103.241 89.75 102.775 90.7642 101.92C91.7784 101.082 92.4864 99.8232 92.5451 98.4758C92.5623 98.3092 92.5378 98.1402 92.5353 97.9736C92.5133 97.8071 92.4986 97.638 92.4668 97.4714C92.408 97.1383 92.3345 96.8051 92.2365 96.4769C92.0479 95.8203 91.798 95.1785 91.5114 94.5489C90.9381 93.2922 90.2277 92.087 89.4561 90.9111C88.121 88.8901 86.8569 86.8617 85.6027 84.8726C84.3582 82.8785 83.1334 80.9163 81.933 78.9933L82.0089 79.0178C80.0761 79.8188 78.1825 80.6027 76.333 81.3695L76.3648 81.2887C78.4103 86.1219 80.3358 90.671 82.1069 94.8551L82.151 94.958L82.0432 94.9286C78.4348 93.961 75.0983 93.0644 72.0607 92.2487L72.0558 92.2462L72.0509 92.2438C71.0146 91.6754 70.0176 91.1267 69.0573 90.6C68.5747 90.3403 68.1117 90.0684 67.6463 89.8357C67.1784 89.603 66.7081 89.3948 66.2426 89.211C64.3808 88.4786 62.5876 88.0548 60.9757 87.9788C60.1698 87.9543 59.4153 88.0572 58.7318 88.2164C58.0483 88.383 57.4359 88.6108 56.8872 88.846C55.7946 89.3286 54.9666 89.8577 54.3787 90.2987L54.3762 90.3011H54.3738C53.7589 90.4922 53.3081 90.6343 53.0068 90.7274C52.7178 90.8278 52.5708 90.8695 52.5708 90.8695C52.5708 90.8695 52.7104 90.8205 53.0093 90.7225C53.3106 90.6245 53.7613 90.48 54.3762 90.2791L54.3713 90.2815C54.9592 89.8332 55.7848 89.2968 56.8774 88.8093C57.4261 88.5692 58.041 88.3389 58.7269 88.1674C59.4153 88.0033 60.1747 87.898 60.9855 87.92C62.6072 87.9911 64.4078 88.41 66.2794 89.1424C66.7472 89.3286 67.2176 89.5344 67.6904 89.7671C68.1632 90.0023 68.6262 90.2717 69.1063 90.5314C70.0666 91.0556 71.0661 91.6019 72.1023 92.1703L72.0925 92.1654C75.1302 92.9762 78.4691 93.8679 82.0775 94.8307L82.0138 94.9041C80.2378 90.72 78.3099 86.1734 76.2595 81.3425L76.235 81.2862L76.2913 81.2617C78.1433 80.4949 80.0345 79.7086 81.9673 78.9075L82.0163 78.8879L82.0432 78.932C83.2436 80.8526 84.4685 82.8148 85.7154 84.8089C86.9696 86.7981 88.2361 88.8264 89.5687 90.845C90.3429 92.0233 91.0557 93.2334 91.6314 94.4999C91.918 95.132 92.1703 95.7811 92.3614 96.445C92.4594 96.7757 92.5354 97.1138 92.5941 97.4543C92.626 97.6233 92.6407 97.7948 92.6627 97.9663C92.6652 98.1402 92.6897 98.3117 92.6725 98.4856C92.6113 99.8746 91.8813 101.163 90.845 102.021C89.8088 102.895 88.508 103.363 87.2146 103.554C86.8912 103.615 86.5654 103.635 86.2396 103.659C85.9138 103.689 85.5904 103.699 85.2695 103.706C84.6252 103.733 83.9834 103.728 83.3465 103.73C82.0726 103.728 80.8159 103.699 79.5788 103.664C77.1046 103.591 74.7039 103.481 72.3865 103.363C67.7492 103.145 63.4548 102.782 59.5598 102.731C55.6672 102.613 52.1911 102.51 49.2122 102.42L49.1657 102.417L49.1779 102.373C50.2485 98.733 51.0936 95.8546 51.6717 93.8851C51.9608 92.9052 52.1862 92.1507 52.3356 91.6387C52.4115 91.3864 52.4679 91.1953 52.5071 91.063C52.5487 90.9332 52.5708 90.8695 52.5708 90.8695Z" fill="#455A64"/>
<path d="M81.3745 94.6641C81.3769 94.6543 81.4602 94.6666 81.6072 94.6935C81.7542 94.7205 81.9673 94.767 82.2294 94.8307C82.7488 94.963 83.4739 95.1565 84.2186 95.5166C84.9682 95.8669 85.5561 96.3691 85.8893 96.7954C85.9775 96.8983 86.0461 97.0011 86.1049 97.0893C86.1661 97.1775 86.2151 97.2559 86.2494 97.3245C86.3204 97.4568 86.3572 97.5327 86.3498 97.5376C86.3278 97.5499 86.171 97.2559 85.8207 96.8542C85.4753 96.45 84.8996 95.9772 84.1647 95.6318C83.4322 95.279 82.7194 95.0708 82.2074 94.9189C81.6905 94.7695 81.3696 94.6837 81.3745 94.6641Z" fill="#455A64"/>
<path d="M19.0269 98.9365C19.0269 98.9365 16.4669 97.4813 15.9672 97.4519C15.2543 97.4078 12.1187 97.5156 11.7341 97.4911C11.3911 97.4691 11.2466 97.8316 11.3936 98.0766C11.5381 98.3216 11.8933 98.7184 12.8634 98.6939C13.8335 98.6695 14.392 98.8385 14.6346 98.9365C14.8771 99.0345 14.8085 99.3309 14.8085 99.3309C14.8085 99.3309 13.3999 99.4044 12.9908 99.3088C12.4298 99.1765 10.5705 97.9149 10.5705 97.9149L9.82822 97.4397C9.82822 97.4397 9.51711 97.8169 10.0022 98.5225C10.4872 99.2255 11.0947 99.8576 11.0947 99.8576C11.0947 99.8576 10.4284 100.276 11.0114 100.918C11.0114 100.918 10.5827 101.727 11.5577 102.197C11.5577 102.197 11.7733 102.763 12.1946 103.099C12.4911 103.336 13.2407 103.292 13.7012 103.319C14.2255 103.351 15.3744 103.238 15.7541 103.157C16.805 102.937 17.5595 102.68 17.5595 102.68L19.8769 102.812L20.0876 98.8605L19.0269 98.9365Z" fill="#AE7461"/>
<path d="M12.5719 100.676C12.5597 100.708 12.1457 100.58 11.6778 100.325C11.2099 100.073 10.8743 99.7987 10.8939 99.7718C10.9159 99.7424 11.276 99.9653 11.7366 100.213C12.1995 100.463 12.5842 100.644 12.5719 100.676Z" fill="#6F4439"/>
<path d="M12.2632 101.563C12.2534 101.594 11.9154 101.521 11.5406 101.323C11.1658 101.127 10.911 100.889 10.933 100.864C10.9551 100.835 11.2343 101.019 11.5993 101.21C11.9644 101.401 12.2755 101.526 12.2632 101.563Z" fill="#6F4439"/>
<path d="M12.3196 102.511C12.3122 102.542 12.0109 102.501 11.6753 102.334C11.3421 102.168 11.1266 101.952 11.1486 101.925C11.1707 101.896 11.4132 102.06 11.7341 102.219C12.0501 102.381 12.3269 102.474 12.3196 102.511Z" fill="#6F4439"/>
<g opacity="0.3">
<path d="M37.9362 99.0295C39.2444 97.3221 39.9156 95.1957 40.19 93.0645C40.4619 90.9308 40.3982 88.9049 40.2928 86.7565C39.8396 91.0974 39.0631 95.1222 37.9362 99.0295Z" fill="black"/>
</g>
<path d="M40.5182 84.2675C40.5402 84.4855 40.5231 83.7923 40.5157 84.0348C40.4545 86.9622 38.7275 99.441 36.4884 101.869C34.7785 103.723 18.7476 102.934 18.7476 102.934L18.924 98.76C18.924 98.76 19.3576 98.6351 22.236 98.275C25.1144 97.9149 30.9839 96.4034 30.9839 96.4034L32.9608 83.3464" fill="#7587D9"/>
<path d="M32.9608 83.344C32.9608 83.344 32.9535 83.4248 32.9339 83.5792C32.9119 83.7384 32.88 83.9662 32.8384 84.2651C32.7502 84.8702 32.6203 85.7545 32.4562 86.8863C32.1181 89.1596 31.6307 92.4226 31.0378 96.4083L31.0329 96.4426L31.0011 96.4499C29.2838 96.8884 27.4049 97.3441 25.3863 97.7703C24.3771 97.981 23.3335 98.1868 22.2483 98.3313C21.1704 98.4734 20.0509 98.6008 18.9461 98.8164L18.9901 98.76C18.9338 100.09 18.875 101.499 18.8162 102.934L18.755 102.868C19.8867 102.92 21.0871 102.959 22.3046 102.988C24.5975 103.042 26.839 103.054 28.9997 102.996C30.08 102.964 31.1407 102.915 32.1769 102.831C33.2107 102.743 34.2273 102.633 35.1876 102.398C35.4253 102.337 35.6604 102.268 35.8858 102.175C36.1063 102.082 36.3267 101.974 36.4762 101.8C36.7873 101.442 37.0176 101.021 37.2135 100.597C37.6055 99.7473 37.8872 98.8752 38.1371 98.03C38.6295 96.3348 38.9724 94.7229 39.2615 93.2482C39.8274 90.2963 40.1483 87.8833 40.3345 86.2126C40.4276 85.3773 40.4815 84.7256 40.5035 84.2847C40.5084 84.1744 40.5133 84.0765 40.5182 83.9932V83.9834C40.5182 83.9858 40.5157 83.976 40.5304 83.9736C40.5378 83.976 40.5353 83.976 40.5378 83.9785C40.5402 83.9858 40.5378 83.9834 40.5402 83.9858L40.5427 84.003L40.5451 84.0324C40.5451 84.052 40.5451 84.0691 40.5476 84.0887C40.5476 84.123 40.5476 84.1548 40.5476 84.1842C40.5427 84.2406 40.5549 84.2847 40.5353 84.3141C40.528 84.2822 40.5304 84.27 40.5304 84.27C40.5304 84.27 40.5329 84.2847 40.5378 84.3116C40.5329 84.2871 40.5353 84.2406 40.5329 84.1867C40.5329 84.1573 40.5304 84.1254 40.528 84.0912C40.528 84.074 40.5255 84.0544 40.5255 84.0348L40.5231 84.0054L40.5207 83.9907C40.5182 83.9883 40.5206 83.9907 40.5378 83.9883V83.9956C40.5353 84.0814 40.5329 84.1769 40.5304 84.2871C40.5157 84.7305 40.4692 85.3822 40.3859 86.22C40.2144 87.8931 39.9058 90.311 39.3521 93.2678C39.0704 94.7449 38.7299 96.3593 38.2424 98.0619C37.9925 98.9119 37.7133 99.7864 37.3189 100.649C37.1229 101.077 36.8902 101.506 36.5668 101.883C36.3978 102.079 36.1626 102.192 35.9348 102.288C35.7045 102.383 35.4644 102.454 35.2219 102.515C34.2494 102.756 33.2303 102.866 32.1941 102.956C31.1554 103.042 30.0922 103.094 29.0095 103.125C26.8439 103.187 24.6024 103.174 22.3071 103.121C21.0895 103.091 19.8892 103.052 18.755 102.998L18.6913 102.996L18.6937 102.932C18.755 101.496 18.8138 100.088 18.8726 98.7576L18.875 98.7086L18.9167 98.6988C19.4874 98.5763 20.0411 98.5077 20.5972 98.4269C21.1508 98.3534 21.6995 98.2823 22.2385 98.2137C23.3163 98.0717 24.3599 97.8659 25.3667 97.6577C27.3829 97.2363 29.2642 96.7831 30.979 96.352L30.9423 96.3936C31.5547 92.4128 32.0569 89.1498 32.4048 86.8789C32.5811 85.7496 32.7208 84.8653 32.8139 84.2626C32.8629 83.9662 32.8996 83.7384 32.9241 83.5792C32.9437 83.4224 32.9608 83.344 32.9608 83.344Z" fill="#263238"/>
</g>
<defs>
<clipPath id="clip0_4_2180">
<rect width="109.019" height="103.728" fill="white"/>
</clipPath>
</defs>
</svg>
