<svg width="37" height="37" viewBox="0 0 37 37" fill="none" xmlns="http://www.w3.org/2000/svg"><rect x="1.35645" y="1.48267" width="35" height="35" rx="6.5" fill="white" fill-opacity="0.23" stroke="white"/><path d="M23.9751 12.7561L23.9517 12.8315C23.9261 12.9142 23.9083 12.9673 23.8888 13.0061C23.8678 13.0479 23.8452 13.0726 23.8139 13.1006L23.8136 13.1009L23.8136 13.1009C23.7453 13.1609 23.6723 13.1849 23.5728 13.1849C23.4792 13.1849 23.3987 13.1537 23.3359 13.092L23.3345 13.0907L23.3346 13.0907C23.3235 13.079 23.2891 13.0339 23.2454 12.9752C23.2004 12.9147 23.1425 12.8356 23.0827 12.7524L23.9751 12.7561ZM23.9751 12.7561C23.9811 12.7618 23.9876 12.768 23.9946 12.7746C24.0455 12.823 24.1212 12.8967 24.2209 12.9946C24.4201 13.1903 24.7143 13.4825 25.0957 13.8634M23.9751 12.7561L25.131 13.828M21.8733 12.0003L21.8276 11.9802C21.8124 12.0148 21.8064 12.068 21.8064 12.1147C21.8064 12.1459 21.8076 12.1709 21.8135 12.1959C21.8193 12.2211 21.8292 12.2435 21.8425 12.2703C21.8616 12.3083 21.8823 12.3398 21.9107 12.3668C21.939 12.3937 21.9725 12.4139 22.0137 12.4326L22.0671 12.4573L22.0768 12.4618L22.0875 12.462L22.4972 12.4669L22.8807 12.4716L23.0827 12.7524L24.6262 11.2089L24.3454 11.0069L24.3407 10.6234L24.3358 10.2138L24.3356 10.2031L24.3311 10.1934L24.3064 10.14C24.3064 10.1399 24.3064 10.1399 24.3063 10.1398C24.2876 10.0986 24.2674 10.0652 24.2406 10.037C24.2136 10.0085 24.1821 9.98778 24.144 9.96877C24.1173 9.95538 24.0949 9.94552 24.0697 9.93968C24.0447 9.93387 24.0197 9.93266 23.9884 9.93266C23.9421 9.93266 23.8893 9.93849 23.8547 9.95349C23.8475 9.95644 23.8396 9.96109 23.8334 9.96482C23.8257 9.96947 23.8163 9.97548 23.8056 9.98254C23.7842 9.99669 23.7562 10.0159 23.7238 10.0385C23.659 10.084 23.5756 10.1441 23.4893 10.208L23.4892 10.2081L23.197 10.4261L22.852 10.3092L22.8519 10.3092C22.6515 10.2416 22.5387 10.2044 22.4635 10.1892C22.4248 10.1814 22.3935 10.1788 22.3636 10.1815C22.3338 10.1841 22.3082 10.1918 22.2817 10.2009L22.2817 10.2009C22.2384 10.2157 22.1938 10.2488 22.1582 10.2844C22.1226 10.32 22.0895 10.3646 22.0747 10.4079L22.0747 10.4079C22.0656 10.4344 22.0579 10.46 22.0552 10.4898C22.0526 10.5197 22.0552 10.551 22.063 10.5897C22.0782 10.6649 22.1153 10.7778 22.183 10.9781L22.183 10.9782L22.2998 11.3232L22.0819 11.6154L22.0818 11.6156C22.0179 11.7018 21.9577 11.7852 21.9123 11.85C21.8896 11.8824 21.8705 11.9104 21.8563 11.9319C21.8493 11.9426 21.8432 11.952 21.8386 11.9596C21.8347 11.9662 21.8297 11.9746 21.8268 11.9821L21.8733 12.0003ZM21.8733 12.0003C21.8823 11.9774 21.9947 11.8173 22.1219 11.6453L22.0344 12.3871C21.9579 12.3523 21.9221 12.3175 21.8873 12.2479C21.8614 12.1962 21.8564 12.1753 21.8564 12.1147C21.8564 12.0699 21.8624 12.0252 21.8733 12.0003ZM25.0957 13.8634C25.5088 14.2761 25.806 14.5715 26.004 14.7658C26.1029 14.863 26.1772 14.935 26.2289 14.9839C26.2547 15.0083 26.2752 15.0271 26.2903 15.0405C26.2979 15.0472 26.3045 15.0529 26.31 15.0573C26.3143 15.0607 26.3214 15.0663 26.3288 15.07L26.3511 15.0252M25.0957 13.8634L25.131 13.828M25.0957 13.8634L25.131 13.828M26.3511 15.0252C26.4217 15.062 26.4704 15.074 26.55 15.074C26.6653 15.074 26.7558 15.0372 26.8334 14.9596C26.911 14.8821 26.9478 14.7916 26.9478 14.6762C26.9478 14.5967 26.9358 14.5479 26.899 14.4773M26.3511 15.0252L26.328 15.0696C26.4057 15.1101 26.4624 15.124 26.55 15.124C26.678 15.124 26.7814 15.0823 26.8688 14.995C26.9561 14.9076 26.9978 14.8042 26.9978 14.6762C26.9978 14.5887 26.9839 14.5321 26.9435 14.4544M26.3511 15.0252C26.3193 15.0093 25.9573 14.6533 25.131 13.828M26.899 14.4773L26.9437 14.455C26.9437 14.4548 26.9436 14.4546 26.9435 14.4544M26.899 14.4773C26.8831 14.4455 26.5271 14.0836 25.7018 13.2572M26.899 14.4773L26.9434 14.4542L25.7018 13.2572M26.9435 14.4544C26.9398 14.4473 26.9344 14.4404 26.9311 14.4362C26.9267 14.4307 26.921 14.4241 26.9143 14.4165C26.9009 14.4014 26.882 14.3809 26.8576 14.3551C26.8088 14.3035 26.7368 14.2291 26.6396 14.1302C26.4453 13.9323 26.1498 13.6351 25.7372 13.2219M26.9435 14.4544L24.6262 11.2089C24.7094 11.2687 24.7885 11.3266 24.849 11.3716C24.9077 11.4153 24.9528 11.4497 24.9645 11.4608L24.9658 11.4621L24.9658 11.4621C25.0274 11.5249 25.0587 11.6055 25.0587 11.699C25.0587 11.7985 25.0347 11.8715 24.9746 11.9398L24.9743 11.9402C24.9464 11.9714 24.9217 11.994 24.8798 12.015C24.8411 12.0345 24.788 12.0523 24.7053 12.0779C24.7053 12.0779 24.7053 12.0779 24.7053 12.0779L24.6299 12.1013C24.6356 12.1073 24.6417 12.1138 24.6484 12.1208C24.6968 12.1717 24.7704 12.2475 24.8683 12.3471C25.0641 12.5463 25.3563 12.8406 25.7372 13.2219M25.7018 13.2572L25.7372 13.2219M25.7018 13.2572L25.7372 13.2219M22.4945 10.9332C22.5535 11.1063 22.5872 11.2068 22.6051 11.2679C22.622 11.3254 22.6289 11.3591 22.6207 11.3897L22.6199 11.3926L22.6198 11.3926C22.617 11.4012 22.6112 11.4108 22.608 11.4161C22.6035 11.4235 22.5975 11.4327 22.5905 11.4434C22.5763 11.4648 22.5567 11.4933 22.5332 11.5267C22.4862 11.5935 22.4227 11.6809 22.3539 11.7727C22.2493 11.9122 22.1879 11.9955 22.1526 12.0473C22.1349 12.0734 22.1248 12.0899 22.1193 12.1007C22.1168 12.1056 22.1157 12.1085 22.1153 12.1098C22.1156 12.123 22.1192 12.1316 22.1234 12.1372C22.1275 12.1429 22.1344 12.1483 22.1462 12.1517C22.1464 12.1517 22.1485 12.152 22.1536 12.1525C22.16 12.1531 22.169 12.1537 22.1805 12.1543C22.2035 12.1555 22.2352 12.1565 22.2744 12.1574C22.3528 12.1591 22.4598 12.1601 22.5843 12.1601H22.999H23.0179L23.032 12.1726L23.0569 12.1945L23.0593 12.1966L23.0592 12.1966C23.0654 12.2028 23.0772 12.218 23.0902 12.2349C23.1045 12.2535 23.1234 12.2788 23.1457 12.3089C23.1903 12.369 23.2483 12.4488 23.3091 12.534C23.3702 12.6184 23.4283 12.6983 23.4728 12.7591C23.495 12.7895 23.5139 12.815 23.528 12.8339L23.5452 12.8567L23.5506 12.8636L23.552 12.8654C23.5657 12.8784 23.5909 12.8801 23.6044 12.8705L23.6047 12.8703C23.6063 12.8691 23.6069 12.8687 23.6074 12.8682C23.6078 12.8678 23.6081 12.8673 23.6088 12.8661C23.6123 12.8601 23.6182 12.8474 23.6289 12.8177C23.6498 12.7593 23.6844 12.6489 23.7527 12.43C23.7527 12.4299 23.7528 12.4299 23.7528 12.4299L22.4945 10.9332ZM22.4945 10.9332C22.4583 10.8246 22.4251 10.7229 22.4009 10.6467C22.3889 10.6086 22.3791 10.577 22.3725 10.5543C22.3691 10.5428 22.3666 10.534 22.3651 10.5277L22.3644 10.5249C22.3647 10.5238 22.3654 10.5223 22.3664 10.5203C22.3689 10.5154 22.373 10.5099 22.3783 10.5045C22.3836 10.4992 22.3892 10.4951 22.3941 10.4926C22.396 10.4916 22.3976 10.491 22.3987 10.4906L22.4015 10.4913C22.4077 10.4929 22.4166 10.4953 22.428 10.4987C22.4508 10.5054 22.4824 10.5151 22.5205 10.5272C22.5967 10.5513 22.6983 10.5845 22.807 10.6207C22.98 10.6797 23.0806 10.7134 23.1417 10.7313C23.1992 10.7482 23.2329 10.7551 23.2635 10.7469L23.2635 10.747L23.2664 10.7461C23.275 10.7432 23.2846 10.7374 23.2899 10.7342C23.2973 10.7297 23.3065 10.7238 23.3172 10.7167C23.3386 10.7025 23.3671 10.683 23.4004 10.6595C23.4673 10.6124 23.5547 10.549 23.6465 10.4801C23.7915 10.3715 23.8747 10.3102 23.9254 10.2759C23.9509 10.2587 23.9663 10.2497 23.9762 10.245C23.9811 10.2426 23.9837 10.2418 23.9848 10.2415C23.9971 10.242 24.005 10.2455 24.0104 10.2497C24.0158 10.2539 24.0215 10.2611 24.0255 10.2737C24.0256 10.2743 24.0259 10.2765 24.0263 10.2808C24.0269 10.2873 24.0275 10.2964 24.0281 10.308C24.0293 10.3311 24.0303 10.363 24.0312 10.4023C24.0329 10.4807 24.0339 10.5875 24.0339 10.7106V11.1252V11.1441L24.0464 11.1583L24.0682 11.1831L24.0682 11.1832L24.0704 11.1854C24.0766 11.1916 24.0918 11.2035 24.1087 11.2164C24.1273 11.2307 24.1526 11.2497 24.1827 11.2719C24.2428 11.3165 24.3225 11.3745 24.4077 11.4353C24.4922 11.4964 24.5721 11.5545 24.6327 11.599C24.663 11.6212 24.6884 11.64 24.7071 11.6541L24.7295 11.6712C24.7358 11.676 24.7379 11.6779 24.7379 11.6779L24.7385 11.6784C24.7458 11.685 24.7474 11.6882 24.748 11.6894C24.7486 11.6908 24.7499 11.6944 24.7499 11.705C24.7499 11.7158 24.7485 11.7206 24.7474 11.723C24.7467 11.7247 24.745 11.7278 24.7388 11.7325C24.7233 11.7442 24.6919 11.7577 24.6251 11.7785L22.4945 10.9332ZM23.9327 12.059C23.9427 12.048 24.073 12.0023 24.239 11.9506C24.3153 11.9271 24.3968 11.9017 24.4676 11.8796L23.9327 12.059ZM22.0653 12.1077C22.0653 12.1544 22.0901 12.1882 22.1339 12.2002L22.5724 11.3768C22.5664 11.3947 22.4511 11.5598 22.3139 11.7427C22.105 12.0212 22.0653 12.0798 22.0653 12.1077ZM22.1476 12.1521L22.147 12.1519L22.1476 12.1521ZM24.1641 12.247L24.1641 12.247L24.1658 12.2465C24.1858 12.2396 24.211 12.2319 24.2337 12.225C24.2467 12.221 24.2589 12.2173 24.2688 12.2141L24.2855 12.209L25.4685 13.392C25.4685 13.392 25.4685 13.392 25.4685 13.392C25.7991 13.7236 26.1016 14.0283 26.3225 14.2523C26.4329 14.3643 26.523 14.4561 26.5859 14.5209C26.6173 14.5534 26.6419 14.5789 26.6588 14.5969C26.6673 14.6059 26.6736 14.6127 26.6779 14.6175L26.6798 14.6197C26.6813 14.624 26.6834 14.6311 26.6852 14.6407C26.6876 14.6532 26.6889 14.6664 26.6889 14.6772C26.6889 14.7866 26.5688 14.8522 26.4785 14.7955C26.478 14.795 26.4762 14.7935 26.4727 14.7902L26.4509 14.7699C26.4324 14.7523 26.4064 14.7272 26.3736 14.6953C26.308 14.6315 26.2159 14.541 26.1041 14.4305C25.8805 14.2094 25.578 13.9085 25.2509 13.5809C25.2509 13.5809 25.2509 13.5809 25.2509 13.5809L24.0821 12.4101L24.1057 12.3356L24.1306 12.2572L24.1641 12.247Z" fill="white" stroke="white" stroke-width="0.1"/><path d="M16.3555 15.0364C16.2431 15.0645 16.0837 15.1301 15.9962 15.1801C15.9025 15.2332 15.5088 15.5988 15.012 16.0893C14.3277 16.7704 14.1622 16.9173 14.059 16.9454C13.9809 16.9673 13.5779 16.9798 13.0092 16.9798C12.175 16.9798 12.0625 16.986 11.8844 17.0423C11.422 17.1829 11.0595 17.5453 10.9189 18.0077C10.8596 18.1983 10.8564 18.3202 10.8564 22.4789C10.8564 26.5876 10.8596 26.7626 10.9158 26.9438C11.0689 27.4343 11.4751 27.8093 11.9875 27.9311C12.2843 27.9999 25.4259 27.9999 25.7228 27.9311C26.1039 27.8405 26.4226 27.6155 26.6382 27.2843C26.8694 26.9219 26.8569 27.2219 26.8476 22.3851L26.8382 18.0577L26.7507 17.8703C26.5539 17.4547 26.2383 17.1673 25.8321 17.0423C25.6478 16.986 25.5415 16.9798 24.701 16.9798C24.1293 16.9798 23.7293 16.9673 23.6512 16.9454C23.5481 16.9173 23.3794 16.7673 22.6826 16.0737C22.0609 15.4582 21.7953 15.2176 21.6765 15.1551C21.3297 14.9832 21.3172 14.9801 18.8395 14.9832C16.7961 14.9832 16.5368 14.9895 16.3555 15.0364ZM21.161 15.9956C21.236 16.0268 21.5609 16.3268 22.089 16.8517C22.5358 17.2954 22.9513 17.689 23.0138 17.7265C23.0794 17.764 23.2107 17.8234 23.3106 17.8609C23.4794 17.9234 23.5762 17.9296 24.5323 17.9453C25.5134 17.964 25.5728 17.9671 25.654 18.0296C25.779 18.1202 25.854 18.2327 25.8852 18.3733C25.9227 18.5264 25.9227 26.3814 25.8883 26.5688C25.854 26.7469 25.7727 26.8532 25.604 26.9375L25.4665 27.0094H18.8551H12.2437L12.1062 26.9375C11.9406 26.8532 11.8563 26.7438 11.8282 26.5845C11.8188 26.5157 11.8157 24.6192 11.825 22.3633C11.8407 18.2671 11.8407 18.264 11.9063 18.1765C11.9406 18.1296 12.0188 18.0577 12.075 18.0171C12.175 17.9484 12.1968 17.9484 13.0561 17.9484C14.5683 17.9453 14.4808 17.9827 15.6057 16.8673C16.09 16.3893 16.4805 16.0268 16.543 15.9987C16.7086 15.9268 20.9892 15.9268 21.161 15.9956Z" fill="white"/><path d="M18.2459 18.5296C16.4525 18.8514 15.1933 20.5106 15.3808 22.3071C15.5589 24.0006 16.868 25.3004 18.5459 25.4472C20.4706 25.6128 22.1359 24.2318 22.3328 22.3009C22.4734 20.9105 21.7485 19.5576 20.5081 18.8889C19.8519 18.5359 18.9864 18.3984 18.2459 18.5296ZM19.4957 19.5263C20.2987 19.7451 20.9767 20.3793 21.2423 21.1604C21.3954 21.6041 21.4204 22.0103 21.3267 22.4665C21.2298 22.9352 21.0111 23.3476 20.6705 23.71C19.8707 24.5536 18.6365 24.7349 17.6054 24.1568C17.3242 24.0006 16.8587 23.5507 16.7024 23.2851C16.4462 22.8445 16.3431 22.4634 16.3431 21.9634C16.3431 21.4229 16.4712 21.0011 16.7649 20.5668C17.1242 20.0356 17.7054 19.6388 18.3397 19.4982C18.6115 19.4389 19.2239 19.4513 19.4957 19.5263Z" fill="white"/></svg>