<svg width="19" height="19" viewBox="0 0 19 19" fill="none" xmlns="http://www.w3.org/2000/svg">
<path fill-rule="evenodd" clip-rule="evenodd" d="M13.8382 0C16.781 0 19 2.64733 19 6.15795V12.8498C19 14.6466 18.4238 16.2698 17.3766 17.4215C16.4372 18.4534 15.2186 19 13.8523 19H5.14502C3.78144 19 2.56367 18.4544 1.6234 17.4215C0.576186 16.2698 0 14.6466 0 12.8498V6.15795C0 2.64733 2.21902 0 5.16181 0H13.8382ZM13.8382 1.46154H5.16181C2.93926 1.46154 1.32558 3.43656 1.32558 6.15795V12.8498C1.32558 14.2558 1.76391 15.5118 2.55926 16.3858C3.24502 17.1409 4.14023 17.5385 5.14767 17.5385H13.8382C13.84 17.5365 13.847 17.5385 13.8523 17.5385C14.8607 17.5385 15.755 17.1409 16.4407 16.3858C17.237 15.5118 17.6744 14.2558 17.6744 12.8498V6.15795C17.6744 3.43656 16.0607 1.46154 13.8382 1.46154ZM15.2309 5.97165C15.4616 6.28442 15.4183 6.74432 15.1346 6.9996L11.2073 10.519C10.7107 10.9535 10.1168 11.1708 9.52386 11.1708C8.93265 11.1708 8.34321 10.9555 7.85009 10.5248L3.8866 7.00155C3.60116 6.74822 3.55698 6.28734 3.78586 5.9736C4.01651 5.66083 4.43363 5.61114 4.71819 5.8635L8.67814 9.38288C9.17567 9.81745 9.87646 9.81745 10.3775 9.37898L14.2977 5.86545C14.5823 5.60919 14.9994 5.65791 15.2309 5.97165Z" fill="#263238"/>
</svg>
