<svg width="15" height="22" viewBox="0 0 15 22" fill="none" xmlns="http://www.w3.org/2000/svg">
<path fill-rule="evenodd" clip-rule="evenodd" d="M6.54494 0.0354797C4.87945 0.267383 3.40635 1.00887 2.20926 2.21781C1.14069 3.2969 0.492404 4.50003 0.133394 6.07014C0.0281134 6.53068 0.0243554 6.70019 0.00697382 11.7567C-0.0122346 17.3635 -0.00972914 17.4284 0.258458 18.2436C1.16762 21.0068 4.11675 22.5394 6.85515 21.6718C8.53093 21.1408 9.92422 19.6943 10.3763 18.0161C10.577 17.2708 10.5956 16.7471 10.5767 12.3727C10.5604 8.63253 10.549 8.14852 10.4709 7.89014C10.1681 6.88853 9.43054 6.09983 8.49309 5.77526C8.04289 5.61941 7.28838 5.58313 6.81851 5.69478C5.74252 5.95037 4.88284 6.78194 4.54883 7.89014C4.47158 8.14651 4.45952 8.6042 4.44413 11.8717L4.42674 15.5636L4.54586 15.8005C4.72087 16.1484 4.95748 16.2901 5.32088 16.2644C5.66308 16.2403 5.89113 16.0989 6.01572 15.8336C6.09125 15.6726 6.10044 15.2709 6.10044 12.1238C6.10044 8.22637 6.09725 8.26777 6.42896 7.82838C6.95412 7.13267 8.06586 7.1333 8.59143 7.82954C8.93311 8.28217 8.92554 8.16081 8.90654 12.8821C8.88738 17.6474 8.90847 17.3683 8.50436 18.2006C8.0728 19.0894 7.35911 19.7138 6.38752 20.0526C6.01535 20.1823 5.89614 20.1982 5.29138 20.1984C4.69503 20.1986 4.56225 20.1817 4.19525 20.0581C3.61315 19.862 3.16254 19.5816 2.73452 19.1492C2.30896 18.7191 2.03174 18.2658 1.83198 17.6732L1.6898 17.2513L1.67466 12.2145C1.66188 7.94663 1.67148 7.10123 1.73767 6.67667C1.96806 5.19901 2.7173 3.89187 3.86672 2.9622C5.6435 1.52516 8.08971 1.26905 10.1339 2.3061C11.7152 3.10829 12.7954 4.51812 13.2402 6.36022C13.3112 6.65425 13.3272 7.34611 13.3525 11.2218C13.3816 15.7009 13.3828 15.7418 13.4911 15.8894C13.8709 16.4072 14.5112 16.4072 14.8908 15.8893C14.9996 15.7409 15 15.7243 15 11.1953C15 6.94586 14.9936 6.61944 14.9016 6.17562C14.5723 4.58674 13.9048 3.32343 12.8102 2.21749C11.7172 1.11304 10.4108 0.406146 8.9152 0.10995C8.39078 0.00610273 7.05684 -0.0358265 6.54494 0.0354797Z" fill="#7587D9"/>
</svg>
