<svg width="224" height="224" viewBox="0 0 224 224" fill="none" xmlns="http://www.w3.org/2000/svg">
<path d="M168 168C198.928 137.072 198.928 86.9279 168 56C137.072 25.0721 86.9279 25.0721 56 56C25.0721 86.9279 25.0721 137.072 56 168C86.9279 198.928 137.072 198.928 168 168Z" fill="#4383C4" fill-opacity="0.13"/>
<path d="M107.025 203.081C107.025 208.272 92.9143 212.481 75.5117 212.481C58.1092 212.481 43.9989 208.272 43.9989 203.081C43.9989 197.89 58.1092 193.681 75.5117 193.681C92.9143 193.685 107.025 197.894 107.025 203.081Z" fill="#E1EAEE"/>
<path d="M58.8759 117.926C58.8759 117.926 60.2152 111.598 60.1779 109.222C60.1406 106.846 59.8172 102.891 59.8172 102.891L60.8828 88.5524L53.017 82.9506C53.017 82.9506 51.5533 89.2822 50.9024 91.3388C50.2514 93.3954 50.0897 98.6199 50.0897 100.519C50.0897 102.418 50.5789 108.115 51.7151 111.913C53.3446 117.341 55.1317 121.881 55.1317 121.881L58.8759 117.926Z" fill="#FAC4A8"/>
<path d="M61.9197 70.4947C59.8796 70.3828 55.4098 73.4718 53.602 77.158C51.7941 80.8483 49.9324 89.8046 49.9324 89.8046C49.9324 89.8046 52.2419 91.0278 54.9247 91.9608C58.0096 93.0347 61.2646 93.9137 61.2646 93.9137C61.2646 93.9137 62.2265 85.3472 63.1678 82.0176C64.109 78.6839 63.9639 70.6067 61.9197 70.4947Z" fill="#7587D9"/>
<path d="M86.2341 194.199L94.6057 194.033C94.6057 194.033 96.4218 198.557 96.1855 201.372C96.0694 202.786 95.0908 203.081 93.1462 204.354C91.9271 205.154 90.2893 206.837 88.3695 207.87C86.3336 208.965 80.964 209.193 78.7788 208.355C74.1929 206.605 75.7229 204.375 78.2771 202.5C79.181 201.837 80.7442 200.444 81.5154 199.498C83.8001 196.716 86.2341 194.199 86.2341 194.199Z" fill="#6496AC"/>
<path d="M89.0206 197.715C89.0206 197.715 86.7401 196.708 84.3393 197.01" stroke="#9CC0C9" stroke-width="0.418955" stroke-miterlimit="10"/>
<path d="M87.4906 199.946C87.4906 199.946 85.2101 198.939 82.8052 199.237" stroke="#9CC0C9" stroke-width="0.418955" stroke-miterlimit="10"/>
<path d="M95.8871 200.473C95.8871 200.473 93.2956 201.812 91.5624 203.408C89.8292 205.005 88.4111 206.983 86.0601 207.638C83.7091 208.297 78.4307 208.326 75.9636 206.51" stroke="#9CC0C9" stroke-width="0.418955" stroke-miterlimit="10"/>
<path d="M74.0685 137.974C73.4466 133.802 72.7997 129.635 72.4058 125.435C71.7838 118.85 71.7341 122.275 71.6802 115.67C72.9034 115.413 73.9441 115.231 74.6117 115.185C77.8169 114.965 89.5596 112.85 89.5596 112.85C89.5596 112.85 93.3453 115.844 93.764 122.429C94.2658 130.29 94.2326 137.377 93.764 141.349C93.2955 145.321 92.8311 152.793 92.8311 152.793C92.8311 152.793 96.5961 165.017 96.8034 168.209C96.9734 170.863 96.3348 179.189 95.7129 187.055C95.4019 190.961 95.5511 193.905 95.5511 193.905C95.5511 193.905 92.8601 195.58 89.5596 195.771C85.5873 196.003 83.7214 194.369 83.7214 194.369C83.7214 194.369 83.3441 191.081 82.7885 187.362C81.6357 179.674 79.4381 166.65 77.651 156.993C75.8017 147.013 73.9607 131.999 73.9607 131.999C73.9607 131.999 74.0312 134.495 74.0685 137.974Z" fill="#1B5E7A"/>
<path d="M92.7107 128.329C92.7107 128.329 87.0467 126.882 85.6286 120.223" stroke="#4B7BA5" stroke-width="0.414643" stroke-miterlimit="10"/>
<path d="M92.4785 130.336C92.4785 130.336 85.9769 128.677 84.422 121.782" stroke="#4B7BA5" stroke-width="0.414643" stroke-miterlimit="10" stroke-dasharray="1.24 1.24"/>
<path d="M91.6619 130.448C91.6619 130.448 91.6454 130.672 91.6122 131.066" stroke="#4B7BA5" stroke-width="0.414643" stroke-miterlimit="10"/>
<path d="M91.55 131.883C91.2929 135.096 90.6958 142.866 90.5756 146.64C90.4263 151.309 91.3717 156.433 91.3717 156.433C91.3717 156.433 94.2368 164.59 94.2368 167.04C94.2368 169.242 94.3944 178.148 94.2368 180.823C94.1125 182.975 93.7351 189.982 93.59 192.636" stroke="#4B7BA5" stroke-width="0.414643" stroke-miterlimit="10" stroke-dasharray="1.23 1.23"/>
<path d="M93.5651 193.051C93.5444 193.445 93.5319 193.673 93.5319 193.673" stroke="#4B7BA5" stroke-width="0.414643" stroke-miterlimit="10"/>
<path d="M53.9295 200.025C54.8831 199.453 57.0144 198.225 57.8686 197.371C59.9335 195.298 62.0813 193.884 62.7862 193.274L71.7633 193.171C71.7633 193.171 72.5842 198.524 72.2359 200.493C71.9913 201.866 70.992 202.065 68.952 203.139C67.6707 203.815 64.9838 205.772 62.9936 206.609C60.8747 207.497 55.5341 207.248 53.4485 206.24C49.0574 204.122 51.2301 201.621 53.9295 200.025Z" fill="#6496AC"/>
<path d="M65.4648 196.285C65.4648 196.285 63.2962 195.103 60.8871 195.182" stroke="#9CC0C9" stroke-width="0.418955" stroke-miterlimit="10"/>
<path d="M63.744 198.329C63.744 198.329 61.5795 197.147 59.1663 197.226" stroke="#9CC0C9" stroke-width="0.418955" stroke-miterlimit="10"/>
<path d="M54.2155 206.058C54.2155 206.058 58.0385 206.721 61.1732 206.029C63.8476 205.432 65.9125 202.542 68.4667 201.733C71.0251 200.925 71.9497 199.399 71.9497 199.399" stroke="#9CC0C9" stroke-width="0.418955" stroke-miterlimit="10"/>
<path d="M77.9123 117.735C74.7029 117.847 60.4268 116.105 60.4268 116.105C60.4268 116.105 57.8933 133.86 58.6936 140.793C59.328 146.262 58.9963 154.8 59.1041 156.803C59.216 158.805 60.0329 165.991 60.1656 167.563C60.8995 176.39 61.7619 192.972 61.7619 192.972C61.7619 192.972 63.1634 193.905 66.1986 194.373C68.8482 194.78 72.0368 193.673 72.0368 193.673C72.0368 193.673 74.1639 174.147 74.8398 167.057C75.3083 162.156 73.7119 156.301 73.7119 156.301L76.121 141.129C76.121 141.129 79.5211 131.771 79.4879 125.534C79.4672 119.298 77.9123 117.735 77.9123 117.735Z" fill="#1B5E7A"/>
<path d="M63.2838 120.94C63.2838 120.94 62.8111 126.252 59.4235 128.59" stroke="#4B7BA5" stroke-width="0.414643" stroke-miterlimit="10"/>
<path d="M64.4904 121.351C64.4904 121.351 64.2541 124.85 62.836 127.205C61.4221 129.561 59.7593 130.278 59.7593 130.278" stroke="#4B7BA5" stroke-width="0.414643" stroke-miterlimit="10" stroke-dasharray="1.24 1.24"/>
<path d="M91.4297 118.224C89.8748 119.995 79.5543 122.296 72.5386 122.101C61.223 121.79 60.1573 119.53 60.1573 119.53" stroke="#4B7BA5" stroke-width="0.414643" stroke-miterlimit="10"/>
<path d="M72.2567 122.69C72.2567 122.69 73.2103 137.377 75.3126 143.215" stroke="#4B7BA5" stroke-width="0.414643" stroke-miterlimit="10"/>
<path d="M68.8442 122.031C68.8442 122.031 71.5394 134.117 74.2553 133.176" stroke="#4B7BA5" stroke-width="0.414643" stroke-miterlimit="10"/>
<path d="M57.0061 79.8864C57.2217 78.0868 57.1222 73.6584 58.9923 72.0455C60.8623 70.4325 63.1138 69.5784 65.2451 69.0352C66.7419 68.6579 71.4854 67.4139 74.1516 67.132C82.0879 66.2861 89.6136 68.9066 91.6661 71.3904C93.0717 73.0904 92.7151 80.3839 92.599 84.0038C92.4829 87.6236 91.7698 93.4618 91.7698 98.9765C91.7698 104.491 92.8727 116.168 92.8727 116.168C92.8727 116.168 88.7014 119.845 76.5938 120.791C62.4753 121.894 59.465 118 59.465 118C59.465 118 60.0247 98.5494 59.0586 95.0416C57.8396 90.6256 56.6951 82.4986 57.0061 79.8864Z" fill="#7587D9"/>
<path d="M67.6085 64.1341L76.7597 59.772L80.0437 69.2756C80.0437 69.2756 77.6429 76.1711 73.0943 76.2914C68.2139 76.4199 66.9327 70.9508 66.9327 70.9508L67.6085 64.1341Z" fill="#FAC4A8"/>
<path d="M61.8077 50.2269C61.8077 50.2269 58.9301 52.694 59.8506 57.1017C60.7711 61.5135 62.6992 61.4264 64.0012 60.0664C65.3031 58.7022 68.8732 52.3209 68.8732 52.3209L65.9749 47.6686L61.8077 50.2269Z" fill="#123A5E"/>
<path d="M61.1318 53.3658C59.8796 56.542 60.8665 58.5074 61.8409 61.5384C62.7863 64.4741 64.0965 67.0946 66.5885 68.0566C69.8932 69.3296 73.3514 68.5459 75.6236 65.0173C76.6395 63.4416 77.8088 60.4645 78.0493 57.4459C78.3478 53.739 74.3133 47.3577 70.395 46.8103C66.4766 46.263 62.3841 50.1897 61.1318 53.3658Z" fill="#FAC4A8"/>
<path d="M69.8226 51.0687L75.7229 46.6445C75.7229 46.6445 77.9952 46.263 79.2142 48.3569C80.3586 50.3223 79.4174 52.9304 79.293 53.2456C79.3925 54.2739 79.4589 55.8495 78.9862 56.1854C78.2688 56.6954 76.6808 56.9359 76.4195 58.1715C76.1542 59.4071 75.1632 58.8308 75.0761 57.5661C75.0471 57.1681 75.0719 56.6456 75.0719 56.0776C74.7154 55.75 74.1763 54.7175 73.3304 54.4522C70.7431 53.6395 69.8226 51.0687 69.8226 51.0687Z" fill="#123A5E"/>
<path d="M67.2561 68.351C67.2561 68.351 70.0591 69.7525 73.0528 67.7912C75.2048 66.3814 76.4487 63.0353 76.4487 63.0353" stroke="#D58069" stroke-width="0.414643" stroke-miterlimit="10"/>
<path d="M65.4317 61.3809C65.2658 61.8328 64.7682 62.065 64.3163 61.8992C63.8643 61.7375 63.6321 61.2357 63.7938 60.7838C63.9597 60.3318 64.4573 60.0996 64.9092 60.2655C65.3653 60.4313 65.5975 60.9289 65.4317 61.3809Z" fill="#2A2529"/>
<path d="M71.73 59.8425C71.6222 60.3111 71.1578 60.6055 70.6893 60.4977C70.2207 60.3899 69.9263 59.9255 70.03 59.4569C70.1378 58.9884 70.6022 58.694 71.0707 58.8018C71.5434 58.9055 71.8378 59.374 71.73 59.8425Z" fill="#2A2529"/>
<path d="M66.5014 58.8225C66.6797 59.2289 66.8207 59.6394 66.9492 60.054C67.0778 60.4686 67.1856 60.8874 67.2851 61.3062L67.2975 61.356L67.2768 61.4638C67.2105 61.8038 67.1524 62.1562 67.0944 62.4962C67.0446 62.8321 66.9907 63.1845 67.0031 63.4582C67.0031 63.4831 67.0073 63.5328 67.0073 63.5328C67.0031 63.537 66.999 63.5411 67.0031 63.5453C67.0031 63.5577 67.0239 63.5909 67.0695 63.6241C67.1566 63.6987 67.3058 63.7609 67.4593 63.8107C67.7744 63.9185 68.1351 63.9931 68.5042 64.0926C68.1559 64.2585 67.7827 64.3455 67.3805 64.358C67.1773 64.358 66.97 64.3373 66.7336 64.2419C66.6175 64.188 66.4931 64.1092 66.3895 63.9724C66.3397 63.906 66.2941 63.8272 66.2692 63.7443C66.2402 63.6572 66.2402 63.6199 66.2236 63.5536C66.1656 63.1016 66.2195 62.7326 66.2858 62.3553C66.3522 61.9821 66.4558 61.6296 66.5844 61.2689L66.5761 61.4265C66.5346 60.9994 66.4973 60.5682 66.489 60.1328C66.4641 59.7016 66.4641 59.2662 66.5014 58.8225Z" fill="#D58069"/>
<path d="M65.3446 59.0132C65.187 58.951 65.0377 58.9013 64.8719 58.8723C64.6065 58.8266 64.3287 58.7686 64.0592 58.7852C63.7523 58.8018 63.4662 58.9635 63.205 59.1128C63.0682 59.1915 62.9355 59.2745 62.8028 59.3615C62.6618 59.4569 62.4835 59.5481 62.4338 59.7181C62.3757 59.9255 62.5374 60.1037 62.7365 60.1162C62.8899 60.1245 63.0143 60.0042 63.1345 59.9255C63.2548 59.8467 63.3792 59.7679 63.5035 59.6932C63.6321 59.6186 63.7648 59.544 63.9057 59.4818C63.9431 59.4652 63.9472 59.4652 63.9182 59.4776C63.9389 59.4693 63.9555 59.4611 63.9762 59.4528C64.0011 59.4445 64.0219 59.4362 64.0467 59.4279C64.0633 59.4237 64.0799 59.4196 64.0965 59.4154C64.0053 59.4403 64.0758 59.4196 64.1048 59.4196C64.2209 59.4113 64.337 59.4196 64.4531 59.432C64.5194 59.4362 64.5816 59.4445 64.648 59.4528C64.677 59.4569 64.706 59.4611 64.735 59.4652C64.7931 59.4735 64.7102 59.4611 64.7806 59.4735C64.9465 59.4984 65.1082 59.5025 65.2782 59.5108C65.4026 59.515 65.5104 59.4113 65.5229 59.2952C65.5353 59.1542 65.4607 59.063 65.3446 59.0132Z" fill="#123A5E"/>
<path d="M69.1428 58.8184C69.3004 58.7354 69.4538 58.6566 69.6113 58.5779C69.9016 58.4327 70.1794 58.2586 70.4697 58.1093C70.5277 58.0803 70.5899 58.0513 70.6521 58.0222C70.7309 57.9849 70.5982 58.0388 70.6687 58.0139C70.6894 58.0057 70.7143 57.9974 70.735 57.9891C70.7475 57.9849 70.818 57.9766 70.7765 57.9808C70.7392 57.9849 70.8719 57.9891 70.8926 57.9891C71.0128 57.9932 71.1331 58.0057 71.2533 58.0222C71.726 58.0844 72.1863 58.2005 72.6548 58.2544C72.5346 58.0969 72.4143 57.9352 72.2899 57.7776C72.2899 57.7817 72.2858 57.7859 72.2858 57.79C72.319 57.7361 72.3521 57.6781 72.3812 57.6242C72.377 57.6283 72.377 57.6283 72.3729 57.6325C72.4268 57.5993 72.4848 57.5661 72.5387 57.5371C72.5512 57.533 72.7377 57.562 72.6797 57.533C72.6465 57.5164 72.3853 57.5413 72.5429 57.533C72.6673 57.5288 72.5512 57.5122 72.5014 57.4956C72.3977 57.4583 72.3148 57.4376 72.207 57.4583C72.2609 57.4708 72.3107 57.4874 72.3646 57.4998C72.3314 57.4708 72.3355 57.4956 72.3812 57.5744C72.3687 57.6076 72.3521 57.6449 72.3397 57.6781C72.3231 57.6864 72.3065 57.6988 72.2899 57.7071C72.4309 57.6656 72.4185 57.4791 72.2899 57.4334C72.2236 57.4086 72.149 57.4376 72.1116 57.4998C72.0909 57.5288 72.0951 57.5537 72.0868 57.5869C72.0743 57.6366 72.0826 57.6491 72.0826 57.6117C72.0785 57.8149 72.1614 57.96 72.2982 58.1135C72.2692 58.0637 72.2402 58.0139 72.2112 57.96C72.2816 58.1259 72.3812 58.242 72.5677 58.271C72.7212 58.2918 72.9119 58.2254 72.9782 58.0761C73.0695 57.8647 73.0114 57.5827 72.7543 57.5205C72.2443 57.4003 71.7177 57.3173 71.1953 57.2759C70.9921 57.2593 70.7599 57.2303 70.5609 57.2883C70.424 57.3256 70.2955 57.3961 70.1711 57.4625C69.6611 57.732 69.2506 58.0347 68.8152 58.3954C68.5664 58.5944 68.8816 58.9552 69.1428 58.8184Z" fill="#123A5E"/>
<path d="M67.8324 64.9343C69.3168 64.7851 70.0715 63.226 71.0873 63.7526C72.0991 64.2792 71.4398 66.85 69.3292 66.9039C67.2187 66.9578 66.348 65.0836 66.348 65.0836C66.348 65.0836 66.3438 65.0836 67.8324 64.9343Z" fill="white"/>
<path d="M73.8738 49.2733C73.8738 49.2733 70.7557 51.6492 68.4212 53.287C66.0868 54.9207 65.2699 55.2732 63.6321 55.5054C61.9984 55.7376 61.0613 55.3893 61.0613 55.3893C61.0613 55.3893 61.1774 58.6608 60.5928 58.7769C60.0081 58.893 59.8547 56.1522 59.3862 53.9463C58.9176 51.728 60.6716 44.3681 68.1434 43.2029C75.6194 42.0336 76.3202 46.9389 76.3202 46.9389L73.8738 49.2733Z" fill="#123A5E"/>
<path d="M76.3284 56.8654C76.8467 55.0907 78.7748 52.9636 79.716 55.58C80.45 57.6201 78.7831 61.5301 76.8592 60.9413C75.8184 60.6262 75.8101 58.6401 76.3284 56.8654Z" fill="#FAC4A8"/>
<path d="M58.648 92.6076C58.648 92.6076 56.5748 79.5339 57.5575 75.5948" stroke="#3C6672" stroke-width="0.414643" stroke-miterlimit="10"/>
<path d="M53.5895 118.224C53.6724 120.546 53.1209 123.83 54.9827 126.579C56.0441 128.147 58.7186 129.353 58.7186 129.353C58.7186 129.353 60.2154 128.084 61.4096 126.364C62.2472 125.157 62.8567 122.35 62.8567 122.35C62.8567 122.35 62.4918 119.663 61.3972 118.859C59.5852 117.523 58.8596 116.727 57.7152 116.122C55.6917 115.044 53.5065 115.898 53.5895 118.224Z" fill="#FAC4A8"/>
<path d="M56.1104 125.029C56.1104 125.029 56.9397 127.645 59.5851 128.424" stroke="#D58069" stroke-width="0.414643" stroke-miterlimit="10"/>
<path d="M62.2969 124.357C62.2969 124.357 59.9625 123.266 59.3364 121.243" stroke="#D58069" stroke-width="0.414643" stroke-miterlimit="10"/>
<path d="M57.4041 123.129C57.4041 123.129 57.9804 124.813 60.8829 126.952" stroke="#D58069" stroke-width="0.414643" stroke-miterlimit="10"/>
<path d="M88.6597 79.82C85.4794 80.9022 84.4718 83.7259 85.4877 89.3609C86.5036 94.9959 87.8055 98.7194 87.8055 98.7194C87.8055 98.7194 86.7233 98.3089 85.0233 97.5003C83.3232 96.6918 79.8693 95.5806 79.8693 95.5806L77.5182 99.5653C77.5182 99.5653 84.1608 110.014 89.5636 111.349C92.86 112.162 95.8579 111.507 96.9525 109.732C99.8426 105.055 98.1467 86.2055 96.8655 82.3535C95.5801 78.5014 91.84 78.7378 88.6597 79.82Z" fill="#FAC4A8"/>
<path d="M92.8021 102.24C92.8021 102.24 89.5886 99.1423 87.6522 98.5618" stroke="#D58069" stroke-width="0.414643" stroke-miterlimit="10"/>
<path d="M71.8876 84.2816C72.1115 84.2443 72.3271 84.4018 72.3644 84.6257L74.6823 98.2841C74.7196 98.508 74.5662 98.7277 74.3423 98.7692L66.4392 100.212C66.2153 100.254 66.0038 100.1 65.9706 99.8763L63.8642 85.9775C63.8311 85.7536 63.9845 85.538 64.2125 85.5006L71.8876 84.2816Z" fill="#292929"/>
<path d="M65.8213 95.8252C65.6762 95.3152 65.8835 94.4652 65.8835 94.4652C65.8835 94.4652 65.191 93.0886 65.9042 92.5537C66.6216 92.0188 67.7867 92.7693 68.8275 93.0015C69.238 93.0927 70.9753 93.4286 71.6221 93.4037C72.6256 93.3664 73.7327 92.9766 73.7327 92.9766L73.43 90.4017C73.43 90.4017 75.893 91.2724 76.5108 91.6788C77.593 92.392 79.6869 94.1542 79.9191 95.0291C80.1513 95.8998 79.6538 99.5694 78.7167 100.465C77.7754 101.369 76.5937 101.978 74.4334 102.161C72.4639 102.327 69.3167 101.954 68.2304 101.29C66.0825 99.9799 67.2435 98.9226 67.2435 98.9226C67.2435 98.9226 66.7377 98.9226 66.4018 98.0974C66.0659 97.2723 66.4267 96.7747 66.4267 96.7747C66.4267 96.7747 65.9706 96.3311 65.8213 95.8252Z" fill="#FAC4A8"/>
<path d="M72.2316 96.0616C72.2316 96.0616 68.8813 96.8535 66.0037 94.5771" stroke="#D58069" stroke-width="0.414643" stroke-miterlimit="10"/>
<path d="M71.1537 98.0228C71.1537 98.0228 68.5041 98.2094 66.5387 96.924" stroke="#D58069" stroke-width="0.414643" stroke-miterlimit="10"/>
<path d="M70.4654 100.196C70.4654 100.196 68.3259 99.8349 67.1607 99.2751" stroke="#D58069" stroke-width="0.414643" stroke-miterlimit="10"/>
<path d="M85.2391 89.3734C83.4146 86.6492 81.4202 81.4413 81.5156 76.7683C81.6109 72.0994 83.9246 68.6496 86.6613 68.8693C89.3938 69.0891 93.3992 70.9757 94.9749 74.3758C96.1068 76.8222 98.1096 84.8745 98.0266 87.2255C96.7703 86.9104 94.2948 86.7985 91.666 87.1675C89.4104 87.4909 87.0427 88.1668 85.2391 89.3734Z" fill="#7587D9"/>
<path d="M81.8513 77.4607C81.8513 77.4607 82.436 85.8696 85.1228 89.2573" stroke="#3C6672" stroke-width="0.414643" stroke-miterlimit="10"/>
<path d="M176.104 138.115C173.658 138.007 169.01 139.529 165.157 140.984C160.717 142.659 156.409 144.624 156.724 144.098C157.113 143.451 163.627 139.96 168.852 137.281C171.555 135.896 173.683 133.976 174.499 133.305C177.277 131.02 176.979 124.033 174.562 121.952C172.148 119.87 169.851 121.504 165.896 123.482C163.731 124.564 161.451 125.804 159.431 126.94C162.234 125.236 165.539 123.129 168.334 121.081C170.531 119.468 172.911 118.075 173.985 116.756C178.115 111.689 173.857 106.034 172.061 104.823C170.266 103.612 166.903 105.748 162.371 108.953C156.873 112.842 150.915 117.345 150.72 116.877C150.367 116.018 161.21 107.597 165.518 103.861C168.043 101.672 171.485 94.432 171.871 90.3892C172.19 87.0348 173.077 82.9795 167.181 82.2249C161.281 81.4702 159.763 90.8204 154.953 94.3947C150.143 97.9689 115.981 119.211 115.981 119.211C115.981 119.211 102.658 148.062 102.285 158.341C101.916 168.62 102.609 174.968 102.609 174.968L90.1694 221.188H133.852L135.962 193.536C137.816 192.574 142.211 188.332 146.283 185.002C150.355 181.673 160.377 164.407 161.115 162.728C161.405 162.064 163.71 160.381 165.908 158.129C169.262 154.692 174.939 151.877 177.07 150.429C181.042 147.734 179.056 138.243 176.104 138.115Z" fill="#FAC4A8"/>
<path d="M102.986 170.374C95.539 157.238 146.117 152.08 160.534 163.835C159.299 166.09 156.384 171.07 153.378 175.698C147.415 177.725 139.881 180.785 133.184 185.019C119.456 193.697 111.863 186.043 102.986 170.374Z" fill="#E5A98E"/>
<path d="M105.291 65.1333L146.727 57.1639C147.303 57.052 147.875 57.0105 148.439 57.0271L149.629 56.799C153.871 55.9822 158.017 59.0008 158.863 63.5245L176.821 159.332C177.613 163.553 173.289 167.413 173.289 167.413C173.289 167.413 171.456 169.797 167.965 170.477C164.473 171.157 126.525 178.447 126.525 178.447C122.002 179.318 117.581 176.1 116.678 171.274L98.7152 75.4662C97.8196 70.6356 100.764 66.0041 105.291 65.1333Z" fill="#292929"/>
<path d="M129.191 176.564C124.95 177.377 120.807 174.363 119.961 169.835L101.999 74.0274C101.149 69.5037 103.915 65.1582 108.157 64.3414L149.596 56.3678C153.838 55.551 157.984 58.5696 158.83 63.0933L176.788 158.901C177.638 163.429 174.872 167.77 170.631 168.587L129.191 176.564Z" fill="#383838"/>
<path d="M173.156 158.577C173.625 161.077 171.962 163.52 169.466 164.001L128.623 171.858C126.123 172.339 123.693 170.685 123.225 168.184L105.631 74.3508C105.163 71.8505 106.826 69.4083 109.322 68.9273L150.164 61.0698C152.664 60.5888 155.094 62.2433 155.563 64.7436L173.156 158.577Z" fill="#E6E6E6"/>
<path d="M173.156 158.577C173.625 161.077 171.962 163.52 169.466 164.001L128.623 171.858C126.123 172.339 123.693 170.685 123.225 168.184L105.631 74.3508C105.163 71.8505 106.826 69.4083 109.322 68.9273L150.164 61.0698C152.664 60.5888 155.094 62.2433 155.563 64.7436L173.156 158.577Z" fill="#ABCCD5"/>
<path d="M115.156 125.804L165.444 116.221L154.829 60.0457L104.541 69.6281L115.156 125.804Z" fill="#E9F6FF"/>
<path d="M122.798 154.356C123.133 156.147 124.875 157.337 126.67 156.993L165.075 149.675C166.866 149.335 168.056 147.585 167.72 145.794L163.283 122.184C162.947 120.393 161.206 119.203 159.41 119.547L121.002 126.865C119.211 127.205 118.021 128.955 118.357 130.746L122.798 154.356Z" fill="#C7E1E8"/>
<path d="M125.111 167.442C125.443 169.238 127.185 170.428 128.98 170.092L147.506 166.625C149.298 166.29 150.496 164.548 150.16 162.753L149.302 158.133C148.97 156.338 147.228 155.148 145.433 155.484L126.907 158.95C125.111 159.286 123.917 161.028 124.253 162.823L125.111 167.442Z" fill="#C7E1E8"/>
<path d="M151.798 162.57C152.129 164.366 153.871 165.56 155.666 165.228L167.517 163.035C169.312 162.703 170.506 160.961 170.171 159.17L169.312 154.551C168.98 152.756 167.239 151.561 165.444 151.893L153.593 154.087C151.798 154.418 150.604 156.16 150.939 157.951L151.798 162.57Z" fill="#C7E1E8"/>
<path d="M147.946 101.883L140.739 103.251L139.155 94.8258L146.362 93.4575L147.946 101.883Z" fill="#63C9E0"/>
<path d="M113.934 81.0552L113.722 81.0952L122.493 127.657L122.704 127.617L113.934 81.0552Z" fill="white"/>
<path d="M121.202 79.6759L120.99 79.7158L129.76 126.277L129.972 126.237L121.202 79.6759Z" fill="white"/>
<path d="M128.471 78.2938L128.259 78.3337L137.029 124.895L137.241 124.855L128.471 78.2938Z" fill="white"/>
<path d="M144.301 123.519L135.527 76.9589L135.739 76.9175L144.513 123.478L144.301 123.519Z" fill="white"/>
<path d="M143.004 75.5372L142.792 75.5771L151.562 122.139L151.774 122.099L143.004 75.5372Z" fill="white"/>
<path d="M158.834 120.762L150.065 74.1974L150.276 74.1559L159.046 120.72L158.834 120.762Z" fill="white"/>
<path d="M161.665 81.442L107.715 91.6829L107.761 91.9233L161.711 81.6824L161.665 81.442Z" fill="white"/>
<path d="M109.376 100.502L109.33 100.262L163.279 90.0243L163.325 90.2689L109.376 100.502Z" fill="white"/>
<path d="M164.902 98.6292L110.946 108.821L110.992 109.061L164.947 98.8696L164.902 98.6292Z" fill="white"/>
<path d="M112.61 117.681L112.564 117.44L166.513 107.203L166.559 107.443L112.61 117.681Z" fill="white"/>
<path d="M115.923 82.2663L116.288 84.2061L116.054 84.2506L115.735 82.5571L115.723 82.5592L115.309 82.9635L115.264 82.7248L115.688 82.3108L115.923 82.2663Z" fill="#7587D9"/>
<path d="M122.78 82.9742L122.748 82.8037L123.256 81.9814C123.315 81.885 123.364 81.8019 123.401 81.7321C123.438 81.6616 123.463 81.5973 123.477 81.5392C123.49 81.4804 123.492 81.4212 123.48 81.3619C123.468 81.2937 123.44 81.2378 123.398 81.1941C123.356 81.1503 123.305 81.1202 123.243 81.1037C123.182 81.0872 123.116 81.0856 123.046 81.0989C122.972 81.1131 122.91 81.1409 122.86 81.1824C122.811 81.2231 122.776 81.2738 122.756 81.3345C122.737 81.395 122.734 81.4623 122.748 81.5361L122.525 81.5785C122.503 81.4649 122.511 81.3602 122.547 81.2643C122.583 81.1685 122.642 81.088 122.723 81.0229C122.805 80.9577 122.902 80.9143 123.015 80.8929C123.129 80.8713 123.234 80.8762 123.331 80.9076C123.428 80.9389 123.509 80.9906 123.574 81.0626C123.639 81.1346 123.681 81.2204 123.7 81.3202C123.713 81.3916 123.714 81.4638 123.701 81.5369C123.688 81.6093 123.658 81.6931 123.611 81.7884C123.564 81.883 123.496 82.0005 123.407 82.1409L123.06 82.6896L123.062 82.7048L123.964 82.5337L124.003 82.7421L122.78 82.9742Z" fill="#7587D9"/>
<path d="M130.637 81.5107C130.512 81.5345 130.397 81.5341 130.291 81.5098C130.185 81.4853 130.097 81.4403 130.025 81.3748C129.954 81.3085 129.906 81.225 129.882 81.1243L130.12 81.079C130.137 81.1406 130.169 81.1905 130.215 81.2288C130.262 81.2664 130.318 81.2918 130.384 81.3048C130.449 81.3178 130.52 81.3172 130.594 81.3031C130.677 81.2873 130.749 81.2587 130.807 81.2175C130.866 81.1762 130.909 81.1262 130.936 81.0675C130.963 81.0088 130.97 80.9453 130.957 80.8771C130.944 80.8057 130.914 80.7463 130.869 80.6987C130.823 80.6504 130.763 80.6173 130.689 80.5993C130.615 80.5813 130.529 80.5817 130.43 80.6003L130.275 80.6298L130.236 80.4214L130.391 80.392C130.468 80.3774 130.533 80.3506 130.586 80.3118C130.639 80.2729 130.678 80.2251 130.701 80.1683C130.725 80.1115 130.731 80.0489 130.718 79.9807C130.705 79.9151 130.68 79.8607 130.642 79.8176C130.604 79.7745 130.555 79.7444 130.497 79.7273C130.44 79.7101 130.375 79.7082 130.304 79.7218C130.237 79.7345 130.176 79.7588 130.122 79.7946C130.067 79.8298 130.026 79.8739 129.998 79.9271C129.969 79.9796 129.959 80.0384 129.968 80.1034L129.741 80.1465C129.725 80.0441 129.739 79.9493 129.782 79.862C129.825 79.7741 129.889 79.6998 129.974 79.6393C130.059 79.5786 130.158 79.5377 130.269 79.5165C130.389 79.4937 130.497 79.4985 130.592 79.5308C130.687 79.5625 130.765 79.6135 130.826 79.6836C130.886 79.7538 130.926 79.8347 130.943 79.9263C130.963 80.0355 130.952 80.1341 130.909 80.222C130.867 80.3098 130.8 80.3779 130.707 80.4261L130.71 80.4413C130.837 80.4382 130.942 80.4722 131.027 80.5431C131.111 80.6134 131.165 80.7101 131.188 80.8332C131.208 80.9387 131.197 81.0389 131.156 81.1338C131.114 81.2279 131.049 81.3083 130.96 81.375C130.87 81.4416 130.763 81.4869 130.637 81.5107Z" fill="#7587D9"/>
<path d="M137.062 79.8519L137.026 79.6587L137.624 78.1482L137.764 78.1216L137.821 78.4209L137.726 78.4389L137.274 79.5803L137.277 79.5954L138.425 79.3776L138.464 79.586L137.062 79.8519ZM138.05 80.0765L137.964 79.62L137.947 79.53L137.685 78.1367L137.908 78.0943L138.274 80.0341L138.05 80.0765Z" fill="#7587D9"/>
<path d="M144.971 78.7908C144.86 78.8119 144.756 78.8088 144.658 78.7815C144.561 78.7542 144.478 78.7071 144.41 78.6402C144.342 78.5734 144.296 78.4912 144.272 78.3936L144.5 78.3505C144.525 78.4366 144.578 78.5017 144.66 78.5457C144.742 78.589 144.833 78.6013 144.932 78.5825C145.011 78.5674 145.078 78.5353 145.133 78.4863C145.189 78.4372 145.228 78.3768 145.251 78.305C145.275 78.2325 145.279 78.1549 145.263 78.0722C145.247 77.9876 145.214 77.9157 145.165 77.8564C145.115 77.7964 145.055 77.7533 144.983 77.727C144.912 77.7007 144.834 77.6951 144.752 77.7101C144.692 77.7208 144.633 77.7415 144.574 77.7723C144.515 77.8025 144.468 77.8359 144.433 77.8726L144.208 77.8878L144.146 76.9108L145.154 76.7196L145.193 76.928L144.382 77.0818L144.422 77.6668L144.433 77.6646C144.467 77.6255 144.512 77.5898 144.568 77.5576C144.624 77.5254 144.685 77.5031 144.75 77.4908C144.868 77.4683 144.979 77.4766 145.083 77.5158C145.187 77.5543 145.275 77.6175 145.346 77.7053C145.418 77.793 145.466 77.8996 145.49 78.0253C145.513 78.1491 145.506 78.2648 145.469 78.3726C145.432 78.4796 145.371 78.5704 145.285 78.645C145.199 78.7188 145.094 78.7675 144.971 78.7908Z" fill="#7587D9"/>
<path d="M152.329 77.3946C152.249 77.4084 152.167 77.4084 152.082 77.3944C151.997 77.3805 151.915 77.3453 151.836 77.2889C151.757 77.2319 151.687 77.1482 151.625 77.0376C151.563 76.9265 151.515 76.7812 151.481 76.6019C151.449 76.4301 151.436 76.2749 151.443 76.1362C151.451 75.9969 151.476 75.8759 151.52 75.7734C151.564 75.6702 151.625 75.5867 151.703 75.5229C151.781 75.459 151.875 75.4167 151.984 75.396C152.092 75.3754 152.193 75.3789 152.286 75.4064C152.379 75.4332 152.46 75.48 152.528 75.5468C152.596 75.6137 152.648 75.6958 152.682 75.7932L152.451 75.837C152.413 75.754 152.358 75.6896 152.285 75.6439C152.213 75.5981 152.125 75.585 152.023 75.6044C151.873 75.6329 151.767 75.7207 151.705 75.8678C151.644 76.0148 151.635 76.2065 151.679 76.4428L151.694 76.4399C151.719 76.3795 151.753 76.3258 151.794 76.2786C151.836 76.2308 151.885 76.1908 151.94 76.1587C151.995 76.1266 152.056 76.1043 152.123 76.0917C152.234 76.0706 152.341 76.0791 152.443 76.1172C152.546 76.1546 152.634 76.2167 152.708 76.3034C152.782 76.3895 152.83 76.495 152.854 76.6201C152.876 76.74 152.87 76.855 152.835 76.9649C152.8 77.0743 152.74 77.1675 152.654 77.2447C152.568 77.3211 152.46 77.3711 152.329 77.3946ZM152.29 77.1862C152.369 77.1711 152.437 77.1377 152.492 77.086C152.549 77.0341 152.589 76.9712 152.613 76.8973C152.637 76.8233 152.642 76.7453 152.627 76.6632C152.611 76.583 152.58 76.5135 152.531 76.4546C152.483 76.395 152.425 76.3516 152.355 76.3243C152.286 76.2969 152.211 76.2907 152.132 76.3058C152.072 76.3172 152.018 76.3398 151.971 76.3736C151.923 76.4068 151.884 76.4476 151.853 76.4961C151.822 76.5445 151.8 76.5972 151.788 76.6545C151.776 76.7111 151.775 76.7684 151.786 76.8265C151.801 76.9036 151.832 76.9721 151.881 77.0322C151.93 77.0922 151.99 77.1367 152.061 77.1658C152.133 77.1948 152.209 77.2016 152.29 77.1862Z" fill="#7587D9"/>
<path d="M110.405 94.115L110.949 92.2341L110.946 92.219L109.946 92.4087L109.907 92.2004L111.149 91.9646L111.191 92.1844L110.651 94.0683L110.405 94.115Z" fill="#7587D9"/>
<path d="M117.832 92.733C117.702 92.7577 117.583 92.7565 117.474 92.7293C117.366 92.7014 117.277 92.652 117.206 92.581C117.135 92.5095 117.09 92.4212 117.071 92.3163C117.055 92.2343 117.057 92.1555 117.076 92.0798C117.096 92.0035 117.13 91.9366 117.178 91.8791C117.226 91.8208 117.285 91.7787 117.353 91.7526L117.351 91.7413C117.254 91.7349 117.17 91.6968 117.1 91.627C117.03 91.5566 116.985 91.4699 116.967 91.3668C116.947 91.2685 116.956 91.1756 116.992 91.0884C117.027 91.0011 117.085 90.9267 117.165 90.8651C117.246 90.8034 117.343 90.7617 117.457 90.7402C117.569 90.7189 117.674 90.7222 117.77 90.7503C117.867 90.7784 117.948 90.8264 118.013 90.8945C118.079 90.9625 118.122 91.0457 118.141 91.144C118.159 91.2471 118.149 91.3443 118.108 91.4357C118.069 91.5263 118.005 91.5922 117.919 91.6334L117.921 91.6448C117.994 91.6441 118.062 91.6622 118.128 91.6989C118.193 91.7349 118.248 91.7848 118.295 91.8486C118.342 91.9117 118.373 91.9842 118.389 92.0662C118.408 92.1711 118.397 92.27 118.357 92.3627C118.316 92.4547 118.251 92.5335 118.161 92.599C118.071 92.6638 117.961 92.7085 117.832 92.733ZM117.793 92.5246C117.88 92.508 117.954 92.4794 118.012 92.4389C118.07 92.3984 118.112 92.3489 118.137 92.2906C118.162 92.2322 118.168 92.1682 118.156 92.0987C118.141 92.0255 118.11 91.9644 118.062 91.9153C118.015 91.8661 117.955 91.8316 117.885 91.8116C117.815 91.7915 117.739 91.7892 117.657 91.8048C117.574 91.8205 117.504 91.8506 117.445 91.8952C117.386 91.9396 117.344 91.9934 117.317 92.0567C117.291 92.1198 117.285 92.188 117.3 92.2611C117.312 92.3307 117.34 92.3881 117.384 92.4334C117.429 92.4786 117.486 92.5093 117.556 92.5255C117.625 92.5417 117.704 92.5414 117.793 92.5246ZM117.619 91.604C117.689 91.5908 117.748 91.5653 117.796 91.5273C117.845 91.4892 117.88 91.4423 117.902 91.3865C117.924 91.3308 117.928 91.2694 117.916 91.2023C117.903 91.1368 117.877 91.0826 117.838 91.0397C117.798 90.9962 117.749 90.9663 117.69 90.9499C117.632 90.933 117.566 90.9312 117.495 90.9448C117.423 90.9585 117.362 90.9842 117.312 91.0216C117.263 91.0584 117.228 91.1043 117.208 91.1592C117.187 91.2134 117.184 91.2733 117.197 91.3389C117.209 91.4059 117.234 91.4615 117.274 91.5057C117.315 91.5497 117.364 91.5804 117.424 91.5979C117.483 91.6154 117.549 91.6174 117.619 91.604Z" fill="#7587D9"/>
<path d="M124.626 89.3798C124.706 89.3654 124.788 89.3654 124.873 89.38C124.958 89.3946 125.04 89.4301 125.119 89.4864C125.197 89.5422 125.268 89.6253 125.33 89.7358C125.392 89.8464 125.439 89.9907 125.473 90.1687C125.505 90.3411 125.518 90.4974 125.51 90.6375C125.503 90.7768 125.478 90.8981 125.434 91.0012C125.39 91.1043 125.329 91.1878 125.251 91.2517C125.174 91.3154 125.08 91.3577 124.971 91.3784C124.863 91.399 124.762 91.3959 124.668 91.3692C124.575 91.3416 124.495 91.2945 124.426 91.2278C124.358 91.1603 124.306 91.0768 124.272 90.9774L124.503 90.9336C124.54 91.0187 124.596 91.0844 124.668 91.1307C124.742 91.1763 124.83 91.1894 124.932 91.17C125.081 91.1416 125.187 91.0539 125.249 90.9068C125.312 90.7595 125.32 90.5666 125.275 90.3279L125.26 90.3308C125.235 90.3905 125.201 90.4442 125.16 90.492C125.119 90.5397 125.07 90.5797 125.015 90.6118C124.96 90.6438 124.898 90.6662 124.831 90.6789C124.72 90.7 124.613 90.6919 124.51 90.6546C124.407 90.6165 124.319 90.5544 124.246 90.4684C124.172 90.3815 124.124 90.2756 124.1 90.1506C124.078 90.0319 124.084 89.9182 124.119 89.8097C124.154 89.7003 124.214 89.6072 124.299 89.5301C124.385 89.4529 124.494 89.4028 124.626 89.3798ZM124.665 89.5882C124.586 89.6033 124.518 89.6368 124.462 89.6887C124.406 89.7398 124.366 89.8023 124.341 89.8763C124.317 89.9496 124.312 90.0266 124.328 90.1075C124.343 90.1883 124.374 90.2585 124.422 90.3181C124.471 90.3769 124.529 90.4201 124.599 90.4475C124.668 90.4741 124.743 90.4799 124.823 90.4648C124.883 90.4534 124.936 90.4312 124.984 90.398C125.031 90.3641 125.07 90.3231 125.101 90.2747C125.132 90.2256 125.154 90.1728 125.166 90.1162C125.178 90.0589 125.179 90.0016 125.168 89.9441C125.154 89.8683 125.122 89.8008 125.073 89.7414C125.024 89.6819 124.964 89.6377 124.893 89.6088C124.822 89.5797 124.746 89.5729 124.665 89.5882Z" fill="#7587D9"/>
<path d="M131.892 88.0284L132.258 89.9682L132.023 90.0128L131.704 88.3192L131.693 88.3214L131.278 88.7257L131.233 88.487L131.658 88.073L131.892 88.0284ZM133.453 89.7689C133.31 89.7959 133.182 89.7802 133.067 89.7215C132.952 89.6623 132.853 89.5635 132.772 89.4252C132.691 89.2862 132.631 89.1113 132.591 88.9004C132.552 88.6907 132.545 88.5067 132.57 88.3482C132.595 88.189 132.651 88.0608 132.736 87.9634C132.823 87.8653 132.936 87.8028 133.078 87.776C133.219 87.7492 133.348 87.7657 133.463 87.8256C133.579 87.8847 133.677 87.9838 133.758 88.1227C133.84 88.2609 133.9 88.4349 133.94 88.6445C133.979 88.8554 133.987 89.0404 133.962 89.1995C133.937 89.3579 133.881 89.4858 133.796 89.5832C133.71 89.6799 133.596 89.7418 133.453 89.7689ZM133.414 89.5605C133.555 89.5336 133.652 89.4446 133.705 89.2934C133.757 89.1421 133.76 88.9402 133.712 88.6876C133.681 88.5197 133.636 88.3801 133.578 88.2688C133.52 88.1574 133.452 88.0771 133.373 88.028C133.295 87.9787 133.21 87.9629 133.116 87.9806C132.976 88.0072 132.88 88.0971 132.827 88.2504C132.774 88.403 132.771 88.6053 132.819 88.8572C132.85 89.0252 132.895 89.1646 132.952 89.2753C133.01 89.386 133.077 89.4658 133.155 89.5144C133.234 89.563 133.32 89.5783 133.414 89.5605Z" fill="#7587D9"/>
<path d="M139.099 86.661L139.464 88.6008L139.229 88.6453L138.91 86.9518L138.899 86.9539L138.485 87.3582L138.44 87.1196L138.864 86.7055L139.099 86.661ZM140.338 86.4258L140.704 88.3656L140.469 88.4101L140.15 86.7166L140.138 86.7187L139.724 87.123L139.679 86.8844L140.103 86.4703L140.338 86.4258Z" fill="#7587D9"/>
<path d="M146.275 85.2991L146.641 87.2389L146.406 87.2835L146.087 85.5899L146.076 85.5921L145.661 85.9964L145.616 85.7577L146.041 85.3437L146.275 85.2991ZM147.199 87.1331L147.166 86.9626L147.675 86.1402C147.734 86.0439 147.783 85.9608 147.82 85.8909C147.857 85.8204 147.882 85.7562 147.895 85.698C147.909 85.6392 147.91 85.5801 147.899 85.5207C147.886 85.4525 147.859 85.3966 147.817 85.353C147.775 85.3092 147.724 85.279 147.662 85.2626C147.601 85.2461 147.535 85.2445 147.465 85.2578C147.391 85.2719 147.329 85.2997 147.279 85.3412C147.23 85.3819 147.195 85.4326 147.175 85.4933C147.156 85.5539 147.153 85.6211 147.167 85.695L146.944 85.7374C146.922 85.6237 146.93 85.519 146.966 85.4232C147.002 85.3273 147.061 85.2469 147.142 85.1818C147.224 85.1165 147.321 85.0732 147.434 85.0517C147.548 85.0302 147.653 85.0351 147.75 85.0664C147.847 85.0977 147.928 85.1494 147.993 85.2214C148.058 85.2934 148.1 85.3793 148.119 85.479C148.132 85.5504 148.133 85.6226 148.12 85.6957C148.107 85.7681 148.077 85.8519 148.03 85.9473C147.983 86.0418 147.915 86.1593 147.826 86.2998L147.478 86.8484L147.481 86.8636L148.383 86.6925L148.422 86.9009L147.199 87.1331Z" fill="#7587D9"/>
<path d="M153.595 83.9101L153.961 85.8499L153.726 85.8945L153.407 84.2009L153.396 84.2031L152.981 84.6074L152.936 84.3687L153.361 83.9547L153.595 83.9101ZM155.179 85.6463C155.054 85.67 154.938 85.6697 154.832 85.6453C154.727 85.6208 154.639 85.5758 154.567 85.5103C154.495 85.444 154.448 85.3606 154.423 85.2598L154.662 85.2146C154.679 85.2761 154.711 85.326 154.757 85.3643C154.803 85.402 154.859 85.4273 154.925 85.4403C154.991 85.4533 155.061 85.4527 155.136 85.4386C155.219 85.4228 155.29 85.3942 155.349 85.353C155.408 85.3117 155.451 85.2617 155.478 85.203C155.505 85.1443 155.512 85.0808 155.499 85.0126C155.485 84.9413 155.456 84.8818 155.41 84.8342C155.365 84.786 155.305 84.7528 155.231 84.7348C155.157 84.7168 155.071 84.7172 154.972 84.7359L154.817 84.7653L154.778 84.557L154.933 84.5275C155.01 84.5129 155.075 84.4862 155.128 84.4474C155.181 84.4084 155.22 84.3606 155.243 84.3039C155.267 84.247 155.272 84.1845 155.259 84.1163C155.247 84.0506 155.222 83.9962 155.184 83.9531C155.145 83.91 155.097 83.8799 155.039 83.8628C154.982 83.8456 154.917 83.8437 154.846 83.8573C154.779 83.87 154.718 83.8943 154.663 83.9302C154.609 83.9653 154.568 84.0094 154.539 84.0626C154.511 84.1151 154.501 84.1739 154.51 84.2389L154.282 84.282C154.267 84.1797 154.281 84.0848 154.324 83.9975C154.367 83.9096 154.431 83.8353 154.515 83.7748C154.601 83.7141 154.699 83.6732 154.811 83.652C154.931 83.6292 155.039 83.634 155.134 83.6663C155.228 83.698 155.306 83.749 155.367 83.8192C155.428 83.8893 155.467 83.9702 155.485 84.0618C155.505 84.171 155.494 84.2696 155.451 84.3575C155.409 84.4454 155.341 84.5134 155.249 84.5616L155.252 84.5768C155.378 84.5738 155.484 84.6077 155.568 84.6786C155.653 84.7489 155.707 84.8456 155.73 84.9688C155.75 85.0742 155.739 85.1744 155.697 85.2693C155.656 85.3634 155.591 85.4438 155.501 85.5105C155.412 85.5772 155.305 85.6224 155.179 85.6463Z" fill="#7587D9"/>
<path d="M112.259 100.544L112.624 102.484L112.389 102.529L112.07 100.835L112.059 100.837L111.645 101.241L111.6 101.003L112.024 100.589L112.259 100.544ZM113.062 101.989L113.025 101.796L113.623 100.285L113.764 100.259L113.82 100.558L113.725 100.576L113.273 101.717L113.276 101.732L114.424 101.515L114.463 101.723L113.062 101.989ZM114.049 102.214L113.963 101.757L113.946 101.667L113.684 100.274L113.907 100.231L114.273 102.171L114.049 102.214Z" fill="#7587D9"/>
<path d="M119.121 99.2421L119.486 101.182L119.251 101.227L118.932 99.533L118.921 99.5351L118.506 99.9394L118.462 99.7007L118.886 99.2867L119.121 99.2421ZM120.655 100.988C120.544 101.009 120.439 101.006 120.342 100.978C120.245 100.951 120.162 100.904 120.094 100.837C120.026 100.77 119.98 100.688 119.956 100.59L120.183 100.547C120.209 100.633 120.262 100.698 120.344 100.743C120.426 100.786 120.516 100.798 120.615 100.779C120.695 100.764 120.762 100.732 120.817 100.683C120.872 100.634 120.912 100.574 120.935 100.502C120.958 100.429 120.963 100.352 120.947 100.269C120.931 100.184 120.898 100.112 120.848 100.053C120.799 99.9932 120.739 99.9501 120.667 99.9238C120.595 99.8975 120.518 99.8919 120.435 99.9069C120.376 99.9176 120.317 99.9383 120.258 99.9691C120.199 99.9993 120.152 100.033 120.117 100.069L119.892 100.085L119.83 99.1076L120.837 98.9164L120.877 99.1248L120.066 99.2786L120.106 99.8636L120.117 99.8614C120.151 99.8223 120.196 99.7866 120.252 99.7544C120.308 99.7222 120.368 99.6999 120.433 99.6876C120.552 99.6651 120.663 99.6734 120.767 99.7126C120.871 99.7511 120.958 99.8143 121.03 99.9021C121.102 99.9898 121.15 100.096 121.173 100.222C121.197 100.346 121.19 100.462 121.153 100.569C121.116 100.676 121.054 100.767 120.968 100.842C120.882 100.916 120.778 100.964 120.655 100.988Z" fill="#7587D9"/>
<path d="M126.294 97.881L126.659 99.8208L126.424 99.8654L126.105 98.1718L126.094 98.174L125.68 98.5783L125.635 98.3396L126.059 97.9256L126.294 97.881ZM127.866 99.6193C127.786 99.6331 127.704 99.6331 127.619 99.6191C127.534 99.6052 127.452 99.57 127.373 99.5136C127.294 99.4566 127.224 99.3729 127.162 99.2623C127.1 99.1512 127.052 99.0059 127.018 98.8266C126.986 98.6548 126.973 98.4996 126.98 98.3609C126.988 98.2215 127.013 98.1006 127.057 97.9981C127.101 97.8949 127.162 97.8114 127.24 97.7476C127.318 97.6837 127.411 97.6414 127.521 97.6207C127.629 97.6001 127.73 97.6036 127.823 97.6311C127.916 97.6578 127.997 97.7047 128.065 97.7715C128.133 97.8384 128.185 97.9205 128.219 98.0179L127.988 98.0617C127.95 97.9787 127.895 97.9143 127.822 97.8686C127.75 97.8228 127.662 97.8097 127.56 97.8291C127.41 97.8576 127.304 97.9454 127.242 98.0925C127.181 98.2395 127.172 98.4312 127.216 98.6675L127.231 98.6646C127.256 98.6042 127.289 98.5505 127.331 98.5033C127.373 98.4555 127.422 98.4155 127.477 98.3834C127.532 98.3513 127.593 98.329 127.66 98.3164C127.771 98.2953 127.878 98.3038 127.98 98.3419C128.083 98.3793 128.171 98.4414 128.245 98.5281C128.319 98.6142 128.367 98.7197 128.391 98.8447C128.413 98.9647 128.407 99.0797 128.372 99.1896C128.337 99.299 128.277 99.3922 128.191 99.4694C128.105 99.5458 127.997 99.5958 127.866 99.6193ZM127.827 99.4109C127.906 99.3958 127.974 99.3624 128.029 99.3106C128.086 99.2588 128.126 99.1959 128.15 99.122C128.174 99.048 128.179 98.97 128.163 98.8879C128.148 98.8077 128.117 98.7382 128.068 98.6793C128.02 98.6197 127.962 98.5763 127.892 98.549C127.822 98.5216 127.748 98.5154 127.669 98.5305C127.609 98.5419 127.555 98.5645 127.508 98.5983C127.46 98.6315 127.421 98.6723 127.39 98.7208C127.359 98.7691 127.337 98.8219 127.325 98.8792C127.313 98.9358 127.312 98.9931 127.323 99.0512C127.338 99.1283 127.369 99.1968 127.418 99.2569C127.467 99.3169 127.527 99.3614 127.598 99.3905C127.67 99.4195 127.746 99.4263 127.827 99.4109Z" fill="#7587D9"/>
<path d="M133.491 96.5153L133.856 98.4551L133.621 98.4997L133.302 96.8062L133.291 96.8083L132.877 97.2126L132.832 96.9739L133.256 96.5599L133.491 96.5153ZM134.475 98.3378L135.019 96.4569L135.016 96.4418L134.016 96.6315L133.977 96.4232L135.219 96.1874L135.26 96.4072L134.721 98.2911L134.475 98.3378Z" fill="#7587D9"/>
<path d="M140.697 95.148L141.062 97.0878L140.827 97.1323L140.508 95.4388L140.497 95.4409L140.083 95.8452L140.038 95.6066L140.462 95.1925L140.697 95.148ZM142.246 96.8906C142.116 96.9153 141.997 96.914 141.888 96.8868C141.781 96.8589 141.691 96.8095 141.62 96.7386C141.549 96.667 141.504 96.5788 141.485 96.4739C141.469 96.3919 141.471 96.3131 141.491 96.2374C141.51 96.1611 141.544 96.0941 141.592 96.0366C141.641 95.9784 141.699 95.9362 141.767 95.9102L141.765 95.8988C141.668 95.8924 141.584 95.8543 141.514 95.7846C141.444 95.7142 141.4 95.6274 141.381 95.5244C141.362 95.426 141.37 95.3332 141.406 95.2459C141.442 95.1587 141.5 95.0843 141.58 95.0227C141.66 94.9609 141.757 94.9193 141.871 94.8977C141.983 94.8764 142.088 94.8798 142.185 94.9078C142.281 94.9359 142.362 94.984 142.428 95.0521C142.493 95.12 142.536 95.2032 142.555 95.3016C142.574 95.4046 142.563 95.5018 142.523 95.5932C142.483 95.6838 142.42 95.7498 142.333 95.791L142.335 95.8024C142.408 95.8017 142.477 95.8197 142.542 95.8564C142.607 95.8925 142.663 95.9424 142.709 96.0061C142.756 96.0692 142.787 96.1418 142.803 96.2237C142.822 96.3287 142.811 96.4275 142.771 96.5203C142.731 96.6123 142.665 96.691 142.575 96.7566C142.485 96.8214 142.376 96.866 142.246 96.8906ZM142.207 96.6822C142.295 96.6656 142.368 96.637 142.426 96.5965C142.485 96.5559 142.526 96.5065 142.551 96.4481C142.576 96.3898 142.582 96.3258 142.57 96.2562C142.556 96.1831 142.524 96.122 142.477 96.0728C142.429 96.0237 142.37 95.9891 142.299 95.9692C142.229 95.949 142.153 95.9468 142.071 95.9624C141.989 95.978 141.918 96.0082 141.859 96.0527C141.801 96.0971 141.758 96.151 141.731 96.2142C141.705 96.2774 141.7 96.3455 141.714 96.4187C141.726 96.4882 141.755 96.5457 141.798 96.591C141.843 96.6362 141.9 96.6669 141.97 96.6831C142.039 96.6993 142.119 96.699 142.207 96.6822ZM142.034 95.7616C142.103 95.7484 142.162 95.7228 142.21 95.6848C142.259 95.6468 142.295 95.5998 142.316 95.5441C142.338 95.4883 142.343 95.4269 142.331 95.3599C142.318 95.2943 142.291 95.2401 142.252 95.1972C142.212 95.1537 142.163 95.1238 142.105 95.1075C142.046 95.0905 141.981 95.0888 141.909 95.1023C141.837 95.1161 141.776 95.1417 141.727 95.1792C141.677 95.216 141.643 95.2618 141.622 95.3167C141.602 95.371 141.598 95.4309 141.611 95.4964C141.623 95.5635 141.649 95.6191 141.688 95.6632C141.729 95.7072 141.779 95.738 141.838 95.7555C141.898 95.7729 141.963 95.775 142.034 95.7616Z" fill="white"/>
<path d="M147.874 93.786L148.239 95.7258L148.004 95.7704L147.685 94.0769L147.674 94.079L147.26 94.4833L147.215 94.2446L147.639 93.8306L147.874 93.786ZM149.044 93.5365C149.124 93.5221 149.206 93.5221 149.291 93.5367C149.376 93.5513 149.458 93.5868 149.537 93.6431C149.615 93.6989 149.686 93.782 149.748 93.8925C149.81 94.0031 149.857 94.1474 149.891 94.3254C149.923 94.4978 149.936 94.6541 149.928 94.7942C149.921 94.9335 149.896 95.0548 149.852 95.1579C149.808 95.261 149.747 95.3445 149.669 95.4084C149.592 95.4721 149.498 95.5144 149.389 95.5351C149.28 95.5557 149.179 95.5526 149.086 95.5259C148.993 95.4983 148.913 95.4512 148.844 95.3845C148.775 95.317 148.724 95.2336 148.69 95.1341L148.921 95.0903C148.958 95.1754 149.014 95.2411 149.086 95.2874C149.16 95.333 149.248 95.3461 149.35 95.3267C149.499 95.2983 149.605 95.2106 149.667 95.0635C149.729 94.9162 149.738 94.7233 149.693 94.4846L149.678 94.4875C149.653 94.5472 149.619 94.6009 149.578 94.6487C149.537 94.6964 149.488 94.7364 149.433 94.7685C149.378 94.8005 149.316 94.8229 149.249 94.8356C149.138 94.8567 149.031 94.8486 148.928 94.8113C148.825 94.7732 148.737 94.7111 148.663 94.6251C148.59 94.5382 148.542 94.4323 148.518 94.3073C148.496 94.1886 148.502 94.0749 148.536 93.9664C148.571 93.857 148.632 93.7639 148.717 93.6868C148.803 93.6096 148.912 93.5595 149.044 93.5365ZM149.083 93.7449C149.004 93.76 148.936 93.7935 148.879 93.8454C148.824 93.8965 148.784 93.959 148.759 94.033C148.735 94.1063 148.73 94.1833 148.746 94.2642C148.761 94.345 148.792 94.4152 148.84 94.4748C148.889 94.5336 148.947 94.5768 149.017 94.6042C149.086 94.6308 149.161 94.6366 149.24 94.6215C149.3 94.6101 149.354 94.5879 149.401 94.5547C149.449 94.5209 149.488 94.4798 149.519 94.4314C149.55 94.3823 149.572 94.3295 149.584 94.2729C149.596 94.2156 149.597 94.1583 149.586 94.1008C149.571 94.025 149.54 93.9575 149.491 93.8981C149.442 93.8386 149.382 93.7944 149.311 93.7655C149.24 93.7364 149.164 93.7296 149.083 93.7449Z" fill="#7587D9"/>
<path d="M154.877 94.4662L154.845 94.2957L155.353 93.4734C155.413 93.377 155.461 93.2939 155.499 93.2241C155.536 93.1536 155.561 93.0893 155.574 93.0312C155.588 92.9724 155.589 92.9133 155.578 92.8539C155.565 92.7857 155.538 92.7298 155.495 92.6861C155.454 92.6423 155.402 92.6122 155.341 92.5957C155.28 92.5792 155.214 92.5776 155.144 92.5909C155.07 92.6051 155.007 92.6329 154.958 92.6744C154.908 92.7151 154.874 92.7658 154.854 92.8265C154.835 92.887 154.832 92.9543 154.846 93.0281L154.622 93.0706C154.601 92.9569 154.608 92.8522 154.645 92.7563C154.681 92.6605 154.74 92.58 154.821 92.5149C154.903 92.4497 155 92.4063 155.113 92.3849C155.227 92.3633 155.332 92.3682 155.429 92.3996C155.525 92.4309 155.606 92.4826 155.672 92.5546C155.737 92.6266 155.779 92.7124 155.798 92.8122C155.811 92.8836 155.811 92.9558 155.798 93.0289C155.786 93.1013 155.756 93.1851 155.708 93.2804C155.661 93.375 155.594 93.4925 155.505 93.6329L155.157 94.1816L155.16 94.1968L156.062 94.0257L156.101 94.2341L154.877 94.4662ZM157.129 94.0664C156.987 94.0934 156.858 94.0777 156.743 94.019C156.628 93.9598 156.53 93.861 156.449 93.7227C156.368 93.5837 156.307 93.4088 156.268 93.1979C156.228 92.9882 156.221 92.8042 156.246 92.6457C156.272 92.4865 156.327 92.3583 156.413 92.2609C156.499 92.1628 156.613 92.1003 156.754 92.0735C156.896 92.0467 157.024 92.0632 157.139 92.1231C157.255 92.1822 157.353 92.2813 157.434 92.4202C157.516 92.5584 157.577 92.7324 157.616 92.942C157.656 93.1529 157.663 93.3379 157.638 93.497C157.613 93.6554 157.558 93.7833 157.472 93.8807C157.386 93.9774 157.272 94.0393 157.129 94.0664ZM157.09 93.858C157.232 93.8311 157.329 93.7421 157.381 93.5909C157.434 93.4396 157.436 93.2377 157.389 92.9851C157.357 92.8172 157.312 92.6775 157.254 92.5663C157.196 92.4549 157.128 92.3746 157.05 92.3255C156.972 92.2762 156.886 92.2604 156.793 92.2781C156.652 92.3047 156.556 92.3946 156.503 92.5479C156.45 92.7005 156.447 92.9028 156.495 93.1547C156.526 93.3227 156.571 93.4621 156.629 93.5728C156.686 93.6835 156.754 93.7632 156.831 93.8119C156.91 93.8605 156.996 93.8758 157.09 93.858Z" fill="#7587D9"/>
<path d="M113.542 111.102L113.509 110.932L114.018 110.109C114.077 110.013 114.126 109.93 114.163 109.86C114.2 109.789 114.225 109.725 114.238 109.667C114.252 109.608 114.253 109.549 114.242 109.49C114.229 109.422 114.202 109.366 114.16 109.322C114.118 109.278 114.067 109.248 114.005 109.232C113.944 109.215 113.878 109.213 113.808 109.227C113.734 109.241 113.672 109.269 113.622 109.31C113.573 109.351 113.538 109.402 113.518 109.462C113.499 109.523 113.496 109.59 113.51 109.664L113.287 109.706C113.265 109.593 113.273 109.488 113.309 109.392C113.345 109.296 113.404 109.216 113.485 109.151C113.567 109.085 113.664 109.042 113.777 109.021C113.891 108.999 113.996 109.004 114.093 109.035C114.19 109.067 114.271 109.118 114.336 109.19C114.401 109.262 114.443 109.348 114.462 109.448C114.475 109.519 114.476 109.592 114.463 109.665C114.45 109.737 114.42 109.821 114.373 109.916C114.326 110.011 114.258 110.128 114.169 110.269L113.821 110.817L113.824 110.833L114.726 110.661L114.765 110.87L113.542 111.102ZM115.473 108.726L115.838 110.666L115.603 110.711L115.284 109.017L115.273 109.019L114.858 109.424L114.814 109.185L115.238 108.771L115.473 108.726Z" fill="#7587D9"/>
<path d="M120.403 109.8L120.371 109.629L120.879 108.807C120.939 108.711 120.987 108.628 121.024 108.558C121.062 108.487 121.087 108.423 121.1 108.365C121.114 108.306 121.115 108.247 121.104 108.188C121.091 108.119 121.063 108.064 121.021 108.02C120.98 107.976 120.928 107.946 120.867 107.929C120.806 107.913 120.74 107.911 120.67 107.925C120.595 107.939 120.533 107.967 120.484 108.008C120.434 108.049 120.4 108.1 120.38 108.16C120.36 108.221 120.358 108.288 120.372 108.362L120.148 108.404C120.127 108.291 120.134 108.186 120.17 108.09C120.207 107.994 120.265 107.914 120.347 107.849C120.428 107.783 120.526 107.74 120.639 107.719C120.753 107.697 120.858 107.702 120.955 107.733C121.051 107.765 121.132 107.816 121.198 107.888C121.263 107.96 121.305 108.046 121.324 108.146C121.337 108.217 121.337 108.29 121.324 108.363C121.312 108.435 121.282 108.519 121.234 108.614C121.187 108.709 121.12 108.826 121.031 108.967L120.683 109.515L120.686 109.53L121.587 109.359L121.627 109.568L120.403 109.8ZM122.018 109.494L121.986 109.323L122.494 108.501C122.553 108.404 122.602 108.321 122.639 108.251C122.676 108.181 122.701 108.117 122.714 108.059C122.728 108 122.73 107.941 122.718 107.881C122.706 107.813 122.678 107.757 122.636 107.713C122.594 107.67 122.543 107.64 122.481 107.623C122.42 107.607 122.354 107.605 122.284 107.618C122.21 107.632 122.148 107.66 122.098 107.702C122.049 107.742 122.014 107.793 121.994 107.854C121.975 107.914 121.972 107.982 121.986 108.056L121.763 108.098C121.741 107.984 121.749 107.88 121.785 107.784C121.821 107.688 121.88 107.607 121.961 107.542C122.043 107.477 122.14 107.434 122.253 107.412C122.367 107.391 122.472 107.396 122.569 107.427C122.666 107.458 122.747 107.51 122.812 107.582C122.877 107.654 122.919 107.74 122.938 107.84C122.951 107.911 122.952 107.983 122.939 108.056C122.926 108.129 122.896 108.212 122.849 108.308C122.802 108.402 122.734 108.52 122.645 108.66L122.298 109.209L122.3 109.224L123.202 109.053L123.241 109.261L122.018 109.494Z" fill="#7587D9"/>
<path d="M127.576 108.439L127.544 108.268L128.052 107.446C128.112 107.35 128.16 107.267 128.197 107.197C128.235 107.126 128.26 107.062 128.273 107.004C128.287 106.945 128.288 106.886 128.277 106.827C128.264 106.758 128.236 106.702 128.194 106.659C128.153 106.615 128.101 106.585 128.04 106.568C127.979 106.552 127.913 106.55 127.843 106.564C127.768 106.578 127.706 106.606 127.657 106.647C127.607 106.688 127.573 106.738 127.553 106.799C127.533 106.86 127.531 106.927 127.545 107.001L127.321 107.043C127.3 106.93 127.307 106.825 127.343 106.729C127.38 106.633 127.438 106.553 127.52 106.488C127.601 106.422 127.699 106.379 127.812 106.358C127.925 106.336 128.031 106.341 128.127 106.372C128.224 106.404 128.305 106.455 128.37 106.527C128.436 106.599 128.478 106.685 128.497 106.785C128.51 106.856 128.51 106.928 128.497 107.002C128.485 107.074 128.455 107.158 128.407 107.253C128.36 107.348 128.292 107.465 128.204 107.606L127.856 108.154L127.859 108.169L128.76 107.998L128.8 108.207L127.576 108.439ZM129.851 108.035C129.726 108.058 129.611 108.058 129.505 108.034C129.399 108.009 129.311 107.964 129.239 107.899C129.168 107.832 129.12 107.749 129.096 107.648L129.334 107.603C129.351 107.665 129.383 107.714 129.429 107.753C129.475 107.79 129.532 107.816 129.597 107.829C129.663 107.842 129.733 107.841 129.808 107.827C129.891 107.811 129.962 107.783 130.021 107.741C130.08 107.7 130.123 107.65 130.15 107.591C130.177 107.533 130.184 107.469 130.171 107.401C130.158 107.33 130.128 107.27 130.082 107.223C130.037 107.174 129.977 107.141 129.903 107.123C129.829 107.105 129.743 107.106 129.644 107.124L129.489 107.154L129.45 106.945L129.605 106.916C129.682 106.901 129.747 106.875 129.8 106.836C129.853 106.797 129.892 106.749 129.915 106.692C129.939 106.635 129.944 106.573 129.932 106.505C129.919 106.439 129.894 106.385 129.856 106.342C129.818 106.298 129.769 106.268 129.711 106.251C129.654 106.234 129.589 106.232 129.518 106.246C129.451 106.258 129.39 106.283 129.336 106.319C129.281 106.354 129.24 106.398 129.211 106.451C129.183 106.504 129.173 106.562 129.182 106.627L128.955 106.67C128.939 106.568 128.953 106.473 128.996 106.386C129.039 106.298 129.103 106.224 129.188 106.163C129.273 106.103 129.371 106.062 129.483 106.04C129.603 106.018 129.711 106.022 129.806 106.055C129.901 106.086 129.978 106.137 130.039 106.208C130.1 106.278 130.139 106.359 130.157 106.45C130.177 106.559 130.166 106.658 130.123 106.746C130.081 106.834 130.014 106.902 129.921 106.95L129.924 106.965C130.05 106.962 130.156 106.996 130.241 107.067C130.325 107.137 130.379 107.234 130.402 107.357C130.422 107.463 130.411 107.563 130.369 107.658C130.328 107.752 130.263 107.832 130.174 107.899C130.084 107.966 129.977 108.011 129.851 108.035Z" fill="#7587D9"/>
<path d="M134.774 107.073L134.741 106.903L135.25 106.08C135.309 105.984 135.358 105.901 135.395 105.831C135.432 105.761 135.457 105.696 135.47 105.638C135.484 105.579 135.485 105.52 135.474 105.461C135.461 105.393 135.434 105.337 135.392 105.293C135.35 105.249 135.299 105.219 135.237 105.203C135.176 105.186 135.11 105.185 135.04 105.198C134.966 105.212 134.904 105.24 134.854 105.281C134.805 105.322 134.77 105.373 134.75 105.433C134.731 105.494 134.728 105.561 134.742 105.635L134.518 105.677C134.497 105.564 134.504 105.459 134.541 105.363C134.577 105.267 134.636 105.187 134.717 105.122C134.799 105.057 134.896 105.013 135.009 104.992C135.123 104.97 135.228 104.975 135.325 105.007C135.422 105.038 135.503 105.09 135.568 105.162C135.633 105.233 135.675 105.319 135.694 105.419C135.707 105.49 135.707 105.563 135.694 105.636C135.682 105.708 135.652 105.792 135.605 105.887C135.558 105.982 135.49 106.099 135.401 106.24L135.053 106.789L135.056 106.804L135.958 106.633L135.997 106.841L134.774 107.073ZM136.226 106.386L136.19 106.192L136.788 104.682L136.928 104.655L136.984 104.955L136.89 104.972L136.438 106.114L136.441 106.129L137.588 105.911L137.627 106.12L136.226 106.386ZM137.214 106.61L137.128 106.154L137.111 106.064L136.848 104.67L137.072 104.628L137.437 106.568L137.214 106.61Z" fill="#7587D9"/>
<path d="M141.98 105.706L141.947 105.535L142.456 104.713C142.515 104.617 142.564 104.533 142.601 104.464C142.638 104.393 142.663 104.329 142.676 104.271C142.69 104.212 142.691 104.153 142.68 104.093C142.667 104.025 142.64 103.969 142.598 103.926C142.556 103.882 142.505 103.852 142.443 103.835C142.382 103.819 142.316 103.817 142.246 103.83C142.172 103.845 142.11 103.872 142.06 103.914C142.011 103.955 141.976 104.005 141.956 104.066C141.937 104.127 141.934 104.194 141.948 104.268L141.724 104.31C141.703 104.196 141.71 104.092 141.747 103.996C141.783 103.9 141.842 103.82 141.923 103.754C142.005 103.689 142.102 103.646 142.215 103.624C142.329 103.603 142.434 103.608 142.531 103.639C142.628 103.67 142.709 103.722 142.774 103.794C142.839 103.866 142.881 103.952 142.9 104.052C142.913 104.123 142.913 104.195 142.9 104.268C142.888 104.341 142.858 104.425 142.811 104.52C142.764 104.615 142.696 104.732 142.607 104.872L142.259 105.421L142.262 105.436L143.164 105.265L143.203 105.474L141.98 105.706ZM144.205 105.311C144.094 105.332 143.99 105.329 143.892 105.302C143.795 105.274 143.712 105.227 143.644 105.16C143.576 105.093 143.53 105.011 143.506 104.914L143.734 104.871C143.759 104.957 143.813 105.022 143.894 105.066C143.976 105.109 144.067 105.121 144.166 105.103C144.245 105.087 144.313 105.055 144.367 105.006C144.423 104.957 144.462 104.897 144.485 104.825C144.509 104.753 144.513 104.675 144.497 104.592C144.481 104.508 144.449 104.436 144.399 104.376C144.35 104.317 144.289 104.273 144.218 104.247C144.146 104.221 144.069 104.215 143.986 104.23C143.926 104.241 143.867 104.262 143.808 104.292C143.749 104.323 143.702 104.356 143.667 104.393L143.443 104.408L143.38 103.431L144.388 103.24L144.427 103.448L143.616 103.602L143.656 104.187L143.667 104.185C143.701 104.146 143.746 104.11 143.802 104.078C143.858 104.045 143.919 104.023 143.984 104.011C144.102 103.988 144.214 103.997 144.317 104.036C144.421 104.074 144.509 104.138 144.58 104.225C144.652 104.313 144.7 104.42 144.724 104.545C144.747 104.669 144.74 104.785 144.703 104.893C144.666 105 144.605 105.09 144.519 105.165C144.433 105.239 144.328 105.288 144.205 105.311Z" fill="#7587D9"/>
<path d="M149.157 104.344L149.124 104.173L149.633 103.351C149.692 103.255 149.741 103.172 149.778 103.102C149.815 103.031 149.84 102.967 149.853 102.909C149.867 102.85 149.868 102.791 149.857 102.732C149.844 102.663 149.817 102.607 149.775 102.564C149.733 102.52 149.682 102.49 149.62 102.473C149.559 102.457 149.493 102.455 149.423 102.469C149.349 102.483 149.287 102.51 149.237 102.552C149.188 102.593 149.153 102.643 149.133 102.704C149.114 102.765 149.111 102.832 149.125 102.906L148.901 102.948C148.88 102.835 148.887 102.73 148.924 102.634C148.96 102.538 149.019 102.458 149.1 102.393C149.182 102.327 149.279 102.284 149.392 102.263C149.506 102.241 149.611 102.246 149.708 102.277C149.805 102.309 149.886 102.36 149.951 102.432C150.016 102.504 150.058 102.59 150.077 102.69C150.09 102.761 150.09 102.833 150.077 102.907C150.065 102.979 150.035 103.063 149.988 103.158C149.941 103.253 149.873 103.37 149.784 103.511L149.436 104.059L149.439 104.074L150.341 103.903L150.38 104.112L149.157 104.344ZM151.42 103.942C151.34 103.956 151.258 103.956 151.173 103.942C151.088 103.928 151.006 103.893 150.927 103.836C150.849 103.779 150.778 103.695 150.716 103.585C150.654 103.474 150.606 103.328 150.572 103.149C150.54 102.977 150.527 102.822 150.535 102.683C150.542 102.544 150.567 102.423 150.611 102.321C150.655 102.217 150.716 102.134 150.794 102.07C150.872 102.006 150.966 101.964 151.075 101.943C151.183 101.923 151.284 101.926 151.377 101.954C151.47 101.98 151.551 102.027 151.619 102.094C151.687 102.161 151.739 102.243 151.773 102.34L151.542 102.384C151.505 102.301 151.449 102.237 151.377 102.191C151.304 102.145 151.216 102.132 151.114 102.152C150.964 102.18 150.858 102.268 150.796 102.415C150.735 102.562 150.726 102.754 150.77 102.99L150.785 102.987C150.81 102.927 150.844 102.873 150.885 102.826C150.927 102.778 150.976 102.738 151.031 102.706C151.087 102.674 151.147 102.651 151.214 102.639C151.325 102.618 151.432 102.626 151.534 102.664C151.637 102.702 151.725 102.764 151.799 102.851C151.873 102.937 151.921 103.042 151.945 103.167C151.967 103.287 151.961 103.402 151.926 103.512C151.892 103.621 151.831 103.715 151.745 103.792C151.659 103.868 151.551 103.918 151.42 103.942ZM151.381 103.733C151.46 103.718 151.528 103.685 151.583 103.633C151.64 103.581 151.68 103.518 151.704 103.445C151.729 103.371 151.733 103.292 151.718 103.21C151.703 103.13 151.671 103.061 151.622 103.002C151.575 102.942 151.516 102.899 151.446 102.872C151.377 102.844 151.302 102.838 151.223 102.853C151.163 102.864 151.109 102.887 151.062 102.921C151.015 102.954 150.975 102.995 150.944 103.043C150.913 103.092 150.892 103.144 150.879 103.202C150.867 103.258 150.867 103.316 150.877 103.374C150.892 103.451 150.924 103.519 150.972 103.579C151.021 103.639 151.081 103.684 151.152 103.713C151.224 103.742 151.3 103.749 151.381 103.733Z" fill="#7587D9"/>
<path d="M156.477 102.955L156.444 102.784L156.953 101.962C157.012 101.866 157.061 101.783 157.098 101.713C157.135 101.642 157.16 101.578 157.173 101.52C157.187 101.461 157.188 101.402 157.177 101.343C157.164 101.274 157.137 101.218 157.095 101.175C157.053 101.131 157.002 101.101 156.94 101.084C156.879 101.068 156.813 101.066 156.743 101.08C156.669 101.094 156.607 101.122 156.557 101.163C156.508 101.204 156.473 101.254 156.453 101.315C156.434 101.376 156.431 101.443 156.445 101.517L156.221 101.559C156.2 101.446 156.207 101.341 156.244 101.245C156.28 101.149 156.339 101.069 156.42 101.004C156.502 100.938 156.599 100.895 156.712 100.874C156.826 100.852 156.931 100.857 157.028 100.888C157.125 100.92 157.206 100.971 157.271 101.043C157.336 101.115 157.378 101.201 157.397 101.301C157.41 101.372 157.41 101.444 157.397 101.518C157.385 101.59 157.355 101.674 157.308 101.769C157.261 101.864 157.193 101.981 157.104 102.122L156.756 102.67L156.759 102.685L157.661 102.514L157.7 102.723L156.477 102.955ZM158.152 102.637L158.696 100.756L158.693 100.741L157.693 100.931L157.654 100.722L158.896 100.487L158.937 100.706L158.398 102.59L158.152 102.637Z" fill="#7587D9"/>
<path d="M115.141 119.59L115.108 119.42L115.617 118.597C115.676 118.501 115.725 118.418 115.762 118.348C115.799 118.278 115.824 118.213 115.837 118.155C115.851 118.096 115.852 118.037 115.841 117.978C115.828 117.91 115.801 117.854 115.759 117.81C115.717 117.766 115.666 117.736 115.604 117.72C115.543 117.703 115.477 117.702 115.407 117.715C115.333 117.729 115.271 117.757 115.221 117.798C115.172 117.839 115.137 117.89 115.117 117.95C115.098 118.011 115.095 118.078 115.109 118.152L114.885 118.195C114.864 118.081 114.871 117.976 114.908 117.88C114.944 117.784 115.003 117.704 115.084 117.639C115.166 117.574 115.263 117.53 115.376 117.509C115.49 117.487 115.595 117.492 115.692 117.524C115.789 117.555 115.87 117.607 115.935 117.679C116 117.751 116.042 117.836 116.061 117.936C116.074 118.008 116.074 118.08 116.061 118.153C116.049 118.225 116.019 118.309 115.972 118.404C115.925 118.499 115.857 118.616 115.768 118.757L115.42 119.306L115.423 119.321L116.325 119.15L116.364 119.358L115.141 119.59ZM117.381 119.192C117.251 119.217 117.132 119.216 117.024 119.189C116.916 119.161 116.826 119.111 116.755 119.04C116.684 118.969 116.639 118.881 116.62 118.776C116.604 118.694 116.606 118.615 116.626 118.539C116.645 118.463 116.679 118.396 116.727 118.339C116.776 118.28 116.834 118.238 116.902 118.212L116.9 118.201C116.803 118.194 116.719 118.156 116.649 118.086C116.579 118.016 116.535 117.929 116.516 117.826C116.497 117.728 116.505 117.635 116.541 117.548C116.577 117.461 116.635 117.386 116.715 117.325C116.795 117.263 116.892 117.221 117.006 117.2C117.118 117.178 117.223 117.182 117.32 117.21C117.416 117.238 117.497 117.286 117.563 117.354C117.628 117.422 117.671 117.505 117.69 117.603C117.709 117.707 117.698 117.804 117.658 117.895C117.618 117.986 117.555 118.052 117.468 118.093L117.47 118.104C117.543 118.104 117.612 118.122 117.677 118.158C117.742 118.194 117.798 118.244 117.844 118.308C117.891 118.371 117.922 118.444 117.938 118.526C117.957 118.631 117.947 118.729 117.906 118.822C117.866 118.914 117.8 118.993 117.71 119.058C117.62 119.123 117.511 119.168 117.381 119.192ZM117.342 118.984C117.43 118.967 117.503 118.939 117.561 118.898C117.62 118.858 117.661 118.808 117.686 118.75C117.711 118.692 117.718 118.628 117.705 118.558C117.691 118.485 117.659 118.424 117.612 118.375C117.564 118.326 117.505 118.291 117.434 118.271C117.364 118.251 117.288 118.249 117.206 118.264C117.124 118.28 117.053 118.31 116.994 118.355C116.936 118.399 116.893 118.453 116.866 118.516C116.84 118.579 116.835 118.647 116.849 118.721C116.861 118.79 116.89 118.848 116.933 118.893C116.978 118.938 117.035 118.969 117.105 118.985C117.175 119.001 117.254 119.001 117.342 118.984ZM117.169 118.063C117.238 118.05 117.297 118.025 117.345 117.987C117.394 117.949 117.43 117.902 117.451 117.846C117.473 117.79 117.478 117.729 117.466 117.662C117.453 117.596 117.426 117.542 117.387 117.499C117.347 117.456 117.298 117.426 117.24 117.409C117.181 117.392 117.116 117.391 117.044 117.404C116.972 117.418 116.911 117.444 116.862 117.481C116.812 117.518 116.778 117.564 116.757 117.619C116.737 117.673 116.733 117.733 116.746 117.798C116.758 117.865 116.784 117.921 116.823 117.965C116.864 118.009 116.914 118.04 116.973 118.057C117.033 118.075 117.098 118.077 117.169 118.063Z" fill="#7587D9"/>
<path d="M122.002 118.288L121.97 118.118L122.478 117.295C122.538 117.199 122.586 117.116 122.623 117.046C122.661 116.976 122.686 116.911 122.699 116.853C122.713 116.794 122.714 116.735 122.703 116.676C122.69 116.608 122.662 116.552 122.62 116.508C122.579 116.464 122.527 116.434 122.466 116.418C122.405 116.401 122.339 116.4 122.269 116.413C122.194 116.427 122.132 116.455 122.082 116.496C122.033 116.537 121.999 116.588 121.979 116.648C121.959 116.709 121.957 116.776 121.971 116.85L121.747 116.892C121.726 116.779 121.733 116.674 121.769 116.578C121.806 116.482 121.864 116.402 121.946 116.337C122.027 116.272 122.125 116.228 122.238 116.207C122.351 116.185 122.457 116.19 122.553 116.221C122.65 116.253 122.731 116.304 122.796 116.376C122.862 116.448 122.904 116.534 122.922 116.634C122.936 116.705 122.936 116.778 122.923 116.851C122.911 116.923 122.881 117.007 122.833 117.102C122.786 117.197 122.718 117.314 122.63 117.455L122.282 118.003L122.285 118.019L123.186 117.848L123.226 118.056L122.002 118.288ZM123.864 115.898C123.943 115.884 124.026 115.884 124.111 115.898C124.196 115.913 124.278 115.949 124.357 116.005C124.435 116.061 124.505 116.144 124.567 116.254C124.629 116.365 124.677 116.509 124.711 116.687C124.743 116.86 124.756 117.016 124.748 117.156C124.741 117.295 124.715 117.417 124.671 117.52C124.628 117.623 124.567 117.706 124.489 117.77C124.411 117.834 124.318 117.876 124.209 117.897C124.1 117.917 123.999 117.914 123.906 117.888C123.813 117.86 123.732 117.813 123.664 117.746C123.595 117.679 123.544 117.595 123.509 117.496L123.741 117.452C123.778 117.537 123.833 117.603 123.906 117.649C123.979 117.695 124.067 117.708 124.17 117.689C124.319 117.66 124.425 117.572 124.487 117.425C124.549 117.278 124.558 117.085 124.513 116.846L124.498 116.849C124.473 116.909 124.439 116.963 124.398 117.01C124.356 117.058 124.308 117.098 124.253 117.13C124.197 117.162 124.136 117.185 124.069 117.197C123.958 117.218 123.851 117.21 123.748 117.173C123.645 117.135 123.557 117.073 123.483 116.987C123.41 116.9 123.362 116.794 123.338 116.669C123.316 116.55 123.322 116.437 123.356 116.328C123.391 116.219 123.451 116.126 123.537 116.049C123.623 115.971 123.732 115.921 123.864 115.898ZM123.903 116.107C123.823 116.122 123.756 116.155 123.699 116.207C123.643 116.258 123.603 116.321 123.579 116.395C123.555 116.468 123.55 116.545 123.565 116.626C123.581 116.707 123.612 116.777 123.66 116.837C123.708 116.895 123.767 116.939 123.836 116.966C123.906 116.993 123.981 116.998 124.06 116.983C124.12 116.972 124.174 116.95 124.221 116.916C124.268 116.883 124.307 116.842 124.338 116.793C124.37 116.744 124.391 116.691 124.404 116.635C124.416 116.577 124.416 116.52 124.405 116.463C124.391 116.387 124.359 116.319 124.31 116.26C124.262 116.2 124.202 116.156 124.13 116.127C124.06 116.098 123.984 116.091 123.903 116.107Z" fill="#7587D9"/>
<path d="M129.835 116.829C129.71 116.853 129.595 116.853 129.489 116.828C129.384 116.804 129.295 116.759 129.223 116.693C129.152 116.627 129.104 116.544 129.08 116.443L129.319 116.398C129.335 116.459 129.367 116.509 129.414 116.547C129.46 116.585 129.516 116.61 129.582 116.623C129.648 116.636 129.718 116.636 129.792 116.622C129.876 116.606 129.947 116.577 130.006 116.536C130.065 116.495 130.108 116.445 130.134 116.386C130.161 116.327 130.168 116.264 130.155 116.196C130.142 116.124 130.112 116.065 130.067 116.017C130.021 115.969 129.961 115.936 129.887 115.918C129.813 115.9 129.727 115.9 129.629 115.919L129.473 115.948L129.434 115.74L129.589 115.71C129.666 115.696 129.731 115.669 129.784 115.63C129.838 115.591 129.876 115.544 129.899 115.487C129.923 115.43 129.929 115.367 129.916 115.299C129.904 115.234 129.878 115.179 129.84 115.136C129.802 115.093 129.754 115.063 129.696 115.046C129.638 115.029 129.574 115.027 129.502 115.04C129.435 115.053 129.375 115.077 129.32 115.113C129.266 115.148 129.224 115.192 129.196 115.246C129.167 115.298 129.157 115.357 129.166 115.422L128.939 115.465C128.924 115.363 128.937 115.268 128.981 115.18C129.023 115.093 129.087 115.018 129.172 114.958C129.257 114.897 129.356 114.856 129.468 114.835C129.588 114.812 129.695 114.817 129.79 114.849C129.885 114.881 129.963 114.932 130.024 115.002C130.085 115.072 130.124 115.153 130.141 115.245C130.162 115.354 130.151 115.453 130.108 115.541C130.065 115.628 129.998 115.696 129.906 115.745L129.909 115.76C130.035 115.757 130.14 115.791 130.225 115.862C130.309 115.932 130.363 116.029 130.386 116.152C130.406 116.257 130.395 116.357 130.354 116.452C130.313 116.546 130.247 116.627 130.158 116.693C130.069 116.76 129.961 116.805 129.835 116.829ZM131.511 116.511C131.368 116.538 131.239 116.523 131.124 116.464C131.009 116.405 130.911 116.306 130.83 116.168C130.749 116.029 130.688 115.854 130.649 115.643C130.609 115.433 130.602 115.249 130.627 115.091C130.653 114.932 130.708 114.803 130.794 114.706C130.88 114.608 130.994 114.545 131.135 114.519C131.277 114.492 131.405 114.508 131.52 114.568C131.636 114.627 131.734 114.726 131.815 114.865C131.897 115.003 131.958 115.177 131.997 115.387C132.037 115.598 132.044 115.783 132.019 115.942C131.994 116.1 131.939 116.228 131.853 116.326C131.767 116.422 131.653 116.484 131.511 116.511ZM131.471 116.303C131.613 116.276 131.71 116.187 131.762 116.036C131.815 115.885 131.817 115.683 131.77 115.43C131.738 115.262 131.693 115.123 131.635 115.011C131.577 114.9 131.509 114.82 131.431 114.77C131.353 114.721 131.267 114.705 131.174 114.723C131.034 114.75 130.937 114.84 130.884 114.993C130.831 115.146 130.828 115.348 130.876 115.6C130.908 115.768 130.952 115.907 131.01 116.018C131.067 116.129 131.135 116.208 131.213 116.257C131.291 116.305 131.377 116.321 131.471 116.303Z" fill="#7587D9"/>
<path d="M143.119 98.5866L144.935 100.253L147.647 95.4146" stroke="#263238" stroke-width="1.24393" stroke-miterlimit="10"/>
<path d="M107.141 83.39L157.429 73.8035L154.829 60.0415L104.541 69.628L107.141 83.39Z" fill="#7587D9"/>
<path d="M126.003 73.268L126.387 73.195L126.815 75.4661C126.853 75.6688 126.848 75.8481 126.801 76.0039C126.753 76.1597 126.668 76.2872 126.547 76.3863C126.425 76.4854 126.272 76.5524 126.088 76.5874C125.915 76.6203 125.754 76.6181 125.607 76.5807C125.459 76.5423 125.336 76.4715 125.236 76.3683C125.136 76.2651 125.071 76.1324 125.04 75.97L125.419 75.8982C125.436 75.9882 125.473 76.0625 125.53 76.1213C125.588 76.1789 125.66 76.2188 125.745 76.2411C125.831 76.2635 125.924 76.2651 126.024 76.2461C126.135 76.2251 126.224 76.184 126.293 76.1227C126.362 76.0615 126.408 75.982 126.431 75.8844C126.455 75.7855 126.455 75.6704 126.43 75.5391L126.003 73.268ZM129.242 72.6533L129.627 72.5803L130.023 74.6838C130.064 74.901 130.05 75.1046 129.979 75.2947C129.91 75.4835 129.792 75.6446 129.625 75.778C129.459 75.9103 129.251 76.0001 129.002 76.0474C128.752 76.0947 128.526 76.0873 128.323 76.0252C128.119 75.962 127.95 75.8554 127.816 75.7052C127.682 75.5538 127.595 75.3695 127.554 75.1523L127.158 73.0488L127.543 72.9758L127.933 75.0483C127.962 75.2034 128.022 75.335 128.113 75.4431C128.204 75.5501 128.319 75.6263 128.459 75.6716C128.599 75.7158 128.757 75.721 128.934 75.6875C129.111 75.6539 129.256 75.591 129.37 75.4986C129.485 75.4052 129.564 75.2921 129.609 75.1594C129.654 75.0254 129.662 74.8809 129.633 74.7258L129.242 72.6533ZM132.914 71.9566L133.512 75.1336L133.14 75.2043L130.939 73.0382L130.908 73.0441L131.378 75.5386L130.994 75.6115L130.395 72.4345L130.767 72.3639L132.975 74.535L133.006 74.5291L132.535 72.0284L132.914 71.9566ZM134.282 74.9876L133.683 71.8106L135.6 71.4468L135.665 71.7881L134.132 72.0789L134.335 73.1523L135.768 72.8804L135.832 73.2217L134.399 73.4936L134.602 74.5733L136.159 74.2779L136.224 74.6191L134.282 74.9876Z" fill="white"/>
<path d="M151.089 70.3329L152.399 70.8761L151.379 71.8588L151.089 70.3329Z" fill="white"/>
<path d="M110.769 78.7751L111.789 77.7882L112.079 79.3182L110.769 78.7751Z" fill="white"/>
<path d="M142.771 62.4631L142.725 64.839C142.725 64.839 142.978 68.1686 140.644 68.6205L120.857 72.4394C118.523 72.8913 117.548 69.7027 117.548 69.7027L116.644 67.5093L142.771 62.4631Z" fill="#212121"/>
<path d="M105.267 104.18C109.173 103.625 112.054 107.626 113.078 113.161C114.107 118.697 114.306 123.382 114.434 125.775C114.563 128.167 118.129 138.206 118.224 139.508C118.398 141.909 125.708 146.731 130.046 157.901C134.383 169.076 130.493 186.42 119.568 188.133C108.642 189.85 104.922 184.99 102.053 178.273C99.1838 171.556 95.6469 156.649 98.2094 149.028C103.135 134.383 105.246 125.717 104.155 118.021C103.065 110.325 101.361 104.736 105.267 104.18Z" fill="#FAC4A8"/>
<path d="M103.069 106.245C103.873 105.238 105.399 104.462 106.61 107.29C107.634 109.683 109.384 114.878 108.949 117.237C108.513 119.597 104.545 121.251 104.325 119.982C104.106 118.713 101.995 107.593 103.069 106.245Z" fill="#FFE8DB"/>
<path d="M134.37 214.409C129.121 200.008 117.519 193.66 117.519 193.66C125.584 194.834 132.326 193.954 137.588 192.416C136.941 192.922 136.381 193.316 135.958 193.536L134.37 214.409Z" fill="#E5A98E"/>
<path d="M166.857 104.139C166.364 104.425 164.154 107 165.576 112.009C166.998 117.018 169.681 118.469 171.833 117.304C175.532 115.301 175.959 111.582 175.246 109.003C174.939 107.887 174.288 104.91 172.115 103.708C169.947 102.509 167.421 103.815 166.857 104.139Z" fill="#FAC4A8"/>
<path d="M169.499 104.114C169.499 104.114 171.435 105.408 172.447 108.016C173.571 110.91 173.571 113.804 173.571 113.804C173.571 113.804 175.677 112.672 174.624 109.085C173.985 106.909 173.081 105.391 171.887 104.616C171.112 104.114 169.996 103.89 169.499 104.114Z" fill="#FFE8DB"/>
<path d="M169.934 120.803C169.544 121.056 167.737 123.436 168.566 128.283C169.395 133.135 171.22 135.299 173.015 134.321C176.063 132.658 176.199 126.559 175.789 124.067C175.374 121.575 170.722 120.293 169.934 120.803Z" fill="#FAC4A8"/>
<path d="M176 126.919C175.768 124.813 175.154 123.258 174.13 122.321C173.467 121.715 172.422 121.297 171.895 121.409C171.895 121.409 173.55 122.959 174.072 125.53C174.648 128.383 174.134 131.024 174.134 131.024C174.134 131.024 176.386 130.394 176 126.919Z" fill="#FFE8DB"/>
<path d="M175.685 138.181C174.027 137.65 170.598 138.471 170.784 143.43C170.967 148.394 173.363 152.822 175.947 151.051C178.526 149.277 179.081 146.619 178.712 143.961C178.339 141.307 177.344 138.712 175.685 138.181Z" fill="#FAC4A8"/>
<path d="M178.028 144.09C177.775 142.149 177.116 140.714 176.013 139.852C175.296 139.292 174.168 138.911 173.604 139.01C173.604 139.01 175.391 140.441 175.951 142.808C176.573 145.441 176.017 147.875 176.017 147.875C176.017 147.875 178.443 147.291 178.028 144.09Z" fill="#FFE8DB"/>
<path d="M179.699 140.718C180.064 142.642 179.081 144.438 177.497 144.732L133.541 152.814C131.957 153.104 130.377 151.781 130.008 149.853L123.129 113.833C122.764 111.909 123.747 110.11 125.331 109.819L169.287 101.738C170.871 101.448 172.451 102.77 172.82 104.694L179.699 140.718Z" fill="#E3E3E3"/>
<g opacity="0.9">
<path d="M182.112 137.563C182.477 139.487 181.494 141.282 179.91 141.577L135.954 149.654C134.37 149.944 132.79 148.622 132.421 146.694L125.543 110.674C125.173 108.75 126.16 106.95 127.744 106.66L171.701 98.5825C173.284 98.2923 174.864 99.615 175.233 101.539L182.112 137.563Z" fill="white"/>
<path d="M141.573 132.985C142 135.229 139.852 142.083 139.852 142.083C139.852 142.083 135.32 136.46 134.889 134.213C134.462 131.97 135.61 129.876 137.455 129.536C139.3 129.196 141.146 130.738 141.573 132.985Z" fill="#263238"/>
<path d="M139.815 133.309C140.018 134.374 139.475 135.365 138.6 135.523C137.725 135.685 136.85 134.951 136.651 133.889C136.448 132.824 136.991 131.833 137.866 131.671C138.737 131.513 139.611 132.243 139.815 133.309Z" fill="white"/>
<path d="M176.54 133.773L144.815 139.607L144.508 137.978L176.233 132.148L176.54 133.773Z" fill="#D9D9D9"/>
<path d="M175.789 129.826L144.065 135.656L143.754 134.03L175.478 128.196L175.789 129.826Z" fill="#D9D9D9"/>
<path d="M175.034 125.874L143.31 131.704L142.999 130.079L174.723 124.249L175.034 125.874Z" fill="#D9D9D9"/>
<path d="M139.143 116.354C139.632 118.921 138.318 121.317 136.207 121.703C134.096 122.093 131.986 120.326 131.497 117.76C131.007 115.193 132.322 112.797 134.432 112.411C136.543 112.025 138.653 113.788 139.143 116.354Z" fill="#7587D9"/>
<path d="M173.21 115.023L141.486 120.857L141.175 119.232L172.899 113.398L173.21 115.023Z" fill="#D9D9D9"/>
<path d="M172.455 111.076L140.731 116.906L140.42 115.28L172.144 109.446L172.455 111.076Z" fill="#D9D9D9"/>
<path d="M171.701 107.124L139.976 112.954L139.665 111.329L171.39 105.499L171.701 107.124Z" fill="#D9D9D9"/>
<path d="M134.198 115.875L134.818 118.767L134.468 118.842L133.926 116.317L133.91 116.321L133.304 116.941L133.228 116.585L133.848 115.95L134.198 115.875ZM136.584 118.43C136.391 118.471 136.212 118.474 136.048 118.437C135.886 118.399 135.75 118.328 135.641 118.224C135.532 118.12 135.461 117.989 135.428 117.833C135.401 117.711 135.401 117.593 135.428 117.478C135.454 117.363 135.503 117.262 135.572 117.174C135.643 117.085 135.729 117.02 135.83 116.979L135.827 116.962C135.681 116.956 135.554 116.902 135.446 116.8C135.339 116.697 135.269 116.568 135.237 116.415C135.204 116.268 135.213 116.129 135.264 115.997C135.314 115.865 135.398 115.751 135.516 115.656C135.634 115.561 135.778 115.495 135.948 115.459C136.115 115.423 136.272 115.424 136.418 115.463C136.564 115.501 136.687 115.57 136.787 115.67C136.889 115.769 136.955 115.893 136.988 116.039C137.02 116.193 137.007 116.339 136.95 116.477C136.894 116.614 136.802 116.715 136.674 116.78L136.678 116.797C136.786 116.793 136.89 116.818 136.989 116.871C137.087 116.922 137.173 116.995 137.245 117.089C137.317 117.182 137.367 117.289 137.394 117.411C137.427 117.568 137.414 117.716 137.357 117.857C137.3 117.996 137.205 118.116 137.072 118.217C136.94 118.318 136.777 118.388 136.584 118.43ZM136.518 118.119C136.649 118.091 136.757 118.046 136.843 117.983C136.929 117.92 136.99 117.845 137.025 117.756C137.06 117.668 137.067 117.572 137.046 117.468C137.022 117.359 136.973 117.269 136.899 117.197C136.826 117.125 136.736 117.075 136.629 117.048C136.524 117.02 136.41 117.02 136.288 117.046C136.164 117.072 136.059 117.12 135.973 117.189C135.887 117.257 135.825 117.34 135.788 117.435C135.751 117.531 135.745 117.633 135.769 117.742C135.791 117.846 135.835 117.931 135.902 117.997C135.971 118.063 136.057 118.107 136.163 118.129C136.268 118.151 136.386 118.147 136.518 118.119ZM136.224 116.747C136.327 116.724 136.415 116.684 136.486 116.625C136.558 116.567 136.609 116.495 136.639 116.411C136.669 116.327 136.674 116.234 136.654 116.134C136.632 116.037 136.59 115.956 136.53 115.894C136.469 115.83 136.394 115.787 136.306 115.765C136.217 115.741 136.119 115.741 136.013 115.764C135.905 115.787 135.814 115.827 135.742 115.885C135.67 115.942 135.619 116.012 135.591 116.095C135.562 116.177 135.559 116.267 135.58 116.365C135.601 116.465 135.642 116.547 135.703 116.612C135.765 116.676 135.841 116.72 135.931 116.744C136.021 116.768 136.118 116.769 136.224 116.747Z" fill="white"/>
<path d="M174.727 119.074L132.492 126.84L132.355 126.14L174.59 118.378L174.727 119.074Z" fill="#E8E8E8"/>
</g>
</svg>
