<svg width="318" height="219" viewBox="0 0 318 219" fill="none" xmlns="http://www.w3.org/2000/svg">
<path d="M68.0367 21.6278V9.27482C68.0367 9.10325 68.1439 8.99602 68.3584 8.95312C68.5728 8.91023 68.7337 8.88879 68.8409 8.88879H72.9264C73.5054 8.88879 74.1166 8.91023 74.76 8.95312C75.4248 8.97457 76.079 9.04963 76.7223 9.17831C77.3657 9.28554 77.9769 9.46783 78.556 9.72518C79.135 9.96109 79.6497 10.2935 80.1001 10.7224C80.8293 11.4301 81.3332 12.1271 81.612 12.8134C81.8908 13.4997 82.0302 14.3468 82.0302 15.3548C82.0302 16.5129 81.6657 17.553 80.9365 18.4752C80.3574 19.1829 79.7462 19.7191 79.1028 20.0836C78.4809 20.4482 77.8161 20.7056 77.1084 20.8557C76.4006 21.0058 75.6608 21.0916 74.8887 21.1131C74.1166 21.1131 73.3124 21.1131 72.476 21.1131H71.8005C71.8005 22.0567 71.7897 22.9896 71.7683 23.9118C71.7468 24.8125 71.7361 25.7347 71.7361 26.6783C71.7361 26.807 71.7147 26.9142 71.6718 27C71.6503 27.0858 71.5538 27.1287 71.3823 27.1287H68.5192C68.3262 27.1287 68.1975 27.0643 68.1332 26.9357C68.0688 26.807 68.0367 26.6569 68.0367 26.4853V22.5607C68.0367 22.432 68.0796 22.3248 68.1653 22.239C68.2726 22.1532 68.3691 22.0781 68.4549 22.0138C68.412 21.9709 68.3262 21.9173 68.1975 21.8529C68.0903 21.7672 68.0367 21.6921 68.0367 21.6278ZM71.8326 19.7619C71.9399 19.7619 72.0471 19.7727 72.1543 19.7941C72.283 19.7941 72.4117 19.7941 72.5403 19.7941C73.1408 19.7941 73.8057 19.7405 74.5348 19.6333C75.264 19.5046 75.9503 19.3009 76.5937 19.0221C77.237 18.7218 77.7732 18.3251 78.2021 17.8318C78.6525 17.3385 78.8777 16.7059 78.8777 15.9338V15.773L79.5532 15.7408L78.942 15.4191V15.3548L78.9742 15.2904C78.9742 13.4675 78.5774 12.1593 77.7839 11.3658C76.9904 10.5723 75.6822 10.1756 73.8593 10.1756C73.7735 10.1756 73.6341 10.1756 73.4411 10.1756C73.2695 10.1756 73.0872 10.1863 72.8942 10.2077C72.7012 10.2077 72.5189 10.2292 72.3473 10.2721C72.1972 10.2935 72.09 10.3364 72.0256 10.4007C72.0042 10.4222 71.9828 10.6152 71.9613 10.9798C71.9399 11.3444 71.9184 11.7947 71.897 12.3309C71.897 12.8456 71.8862 13.4246 71.8648 14.068C71.8648 14.69 71.8541 15.2904 71.8326 15.8695C71.8326 16.4271 71.8326 16.9203 71.8326 17.3493C71.8326 17.7782 71.8326 18.0677 71.8326 18.2178V19.7619ZM84.1573 20.534C84.0929 20.4911 84.0393 20.3946 83.9964 20.2445C83.9535 20.0944 83.9214 19.9335 83.8999 19.7619C83.8999 19.5904 83.8999 19.4188 83.8999 19.2472C83.8999 19.0757 83.8999 18.9577 83.8999 18.8934C83.8999 18.6146 83.8999 18.1857 83.8999 17.6066C83.8999 17.0061 83.8999 16.352 83.8999 15.6443C83.8999 14.9366 83.8999 14.2074 83.8999 13.4568C83.8999 12.6847 83.8999 11.9877 83.8999 11.3658C83.8999 10.7439 83.8999 10.2292 83.8999 9.82169C83.9214 9.39277 83.9321 9.16759 83.9321 9.14614L84.1573 8.98529C85.7657 8.98529 87.3742 8.99602 88.9826 9.01746C90.6125 9.03891 92.2317 9.04963 93.8402 9.04963C93.9688 9.04963 94.1833 9.03891 94.4835 9.01746C94.8052 8.99602 95.1162 8.98529 95.4165 8.98529C95.7381 8.98529 96.0169 9.01746 96.2528 9.0818C96.4888 9.14614 96.6067 9.26409 96.6067 9.43566V10.2721C95.8775 10.2935 95.1484 10.3042 94.4192 10.3042C93.69 10.3042 92.9609 10.3042 92.2317 10.3042C91.5025 10.3042 90.7734 10.3042 90.0442 10.3042C89.3365 10.3042 88.618 10.315 87.8889 10.3364C87.846 10.3793 87.8031 10.4329 87.7602 10.4972C87.7388 10.5616 87.728 10.6259 87.728 10.6903C87.728 10.9905 87.7388 11.3229 87.7602 11.6875C87.8031 12.0306 87.6744 12.3094 87.3742 12.5239C87.5672 12.7384 87.6744 13.0815 87.6959 13.5533C87.7388 14.0037 87.7602 14.3683 87.7602 14.6471L87.728 15.773C87.8353 15.7944 87.9318 15.8159 88.0176 15.8373C88.1033 15.8373 88.1998 15.8373 88.3071 15.8373C89.2293 15.8373 90.1407 15.8266 91.0415 15.8051C91.9636 15.7623 92.8858 15.7837 93.808 15.8695C93.808 15.9124 93.8187 15.966 93.8402 16.0303C93.8616 16.0732 93.8723 16.1161 93.8723 16.159C93.8723 16.3091 93.8723 16.4485 93.8723 16.5772C93.8723 16.7059 93.8509 16.8453 93.808 16.9954C93.4649 17.0169 93.1324 17.0276 92.8108 17.0276C92.4891 17.0276 92.1566 17.0276 91.8135 17.0276C91.1272 17.0276 90.441 17.0276 89.7547 17.0276C89.0899 17.0061 88.4143 17.0169 87.728 17.0597C87.728 18.2822 87.7066 19.4831 87.6637 20.6627C87.6422 21.8422 87.6315 23.0432 87.6315 24.2656V25.7776C88.4036 25.799 89.1756 25.8097 89.9477 25.8097C90.7412 25.8097 91.524 25.8097 92.296 25.8097C93.0467 25.8097 93.808 25.8097 94.5801 25.8097C95.3521 25.8097 96.1134 25.799 96.8641 25.7776V26.2279C96.8641 26.4638 96.8212 26.6676 96.7354 26.8392C96.671 27.0107 96.4888 27.0965 96.1885 27.0965C95.0304 27.0965 93.8616 27.0858 92.6821 27.0643C91.524 27.0643 90.3659 27.0643 89.2078 27.0643C88.4358 27.0643 87.6637 27.0751 86.8916 27.0965C86.1196 27.1394 85.3475 27.1608 84.5755 27.1608C84.2538 27.1608 84.05 27.0858 83.9642 26.9357C83.8785 26.7855 83.8356 26.5604 83.8356 26.2601C83.8356 25.7669 83.8248 25.2843 83.8034 24.8125C83.8034 24.3407 83.8034 23.8581 83.8034 23.3649C83.8034 22.8716 83.8034 22.3891 83.8034 21.9173C83.8034 21.424 83.9214 20.9629 84.1573 20.534ZM98.9911 9.17831C99.034 8.98529 99.1198 8.86734 99.2484 8.82445C99.3771 8.78156 99.5272 8.74939 99.6988 8.72794C100.171 8.68505 100.632 8.65288 101.082 8.63143C101.532 8.60999 101.994 8.59926 102.465 8.59926C102.658 8.59926 102.948 8.60999 103.334 8.63143C103.741 8.63143 104.192 8.65288 104.685 8.69577C105.2 8.73866 105.725 8.79228 106.261 8.85662C106.797 8.92096 107.28 9.01746 107.709 9.14614C108.159 9.27482 108.524 9.42494 108.803 9.59651C109.081 9.76808 109.221 9.97181 109.221 10.2077V10.3042L109.639 10.0147C110.497 10.4865 111.226 11.0977 111.827 11.8483C112.448 12.599 112.759 13.489 112.759 14.5184C112.759 15.8695 112.373 17.0383 111.601 18.0248C110.829 19.0113 109.832 19.7405 108.61 20.2123C108.76 20.4911 109.049 20.9629 109.478 21.6278C109.929 22.2926 110.411 22.9896 110.926 23.7187C111.441 24.4265 111.934 25.0806 112.406 25.6811C112.877 26.2816 113.221 26.6461 113.435 26.7748C113.649 26.9035 113.875 27.0107 114.111 27.0965C114.346 27.1823 114.582 27.2252 114.818 27.2252C115.119 27.2252 115.322 27.1394 115.43 26.9678C115.558 26.7748 115.655 26.5604 115.719 26.3244H115.816C115.987 26.3244 116.084 26.3995 116.105 26.5496C116.148 26.6783 116.169 26.7963 116.169 26.9035C116.169 27.2895 116.062 27.6219 115.848 27.9007C115.633 28.201 115.365 28.4476 115.043 28.6406C114.722 28.8551 114.368 29.0052 113.982 29.091C113.617 29.1982 113.274 29.2518 112.952 29.2518C112.202 29.2518 111.473 29.0052 110.765 28.5119C110.057 28.0401 109.392 27.4611 108.77 26.7748C108.149 26.0671 107.58 25.3272 107.066 24.5551C106.572 23.7831 106.154 23.1075 105.811 22.5285C105.661 22.2711 105.511 22.0138 105.361 21.7564C105.21 21.4776 105.028 21.231 104.814 21.0165C104.664 20.9308 104.481 20.8879 104.267 20.8879H103.173C103.002 20.9951 102.916 21.1774 102.916 21.4347V26.4853C102.916 26.6783 102.851 26.8177 102.723 26.9035C102.615 26.9893 102.465 27.0429 102.272 27.0643C102.101 27.1072 101.918 27.118 101.725 27.0965C101.532 27.0965 101.372 27.0965 101.243 27.0965H99.1841C98.9911 27.0965 98.8946 26.9786 98.8946 26.7426V23.9118C98.8946 23.8474 98.916 23.7616 98.9589 23.6544C99.0233 23.5472 99.0769 23.4721 99.1198 23.4292L98.8946 22.9789C98.8946 21.0916 98.8946 19.2365 98.8946 17.4136C98.916 15.5692 98.9267 13.7034 98.9267 11.8162C98.9267 11.3873 98.9053 10.9476 98.8624 10.4972C98.841 10.0254 98.8839 9.58578 98.9911 9.17831ZM102.305 12.6526C102.669 12.7598 102.851 12.9957 102.851 13.3603C102.851 13.489 102.841 13.7142 102.819 14.0358C102.819 14.3361 102.819 14.69 102.819 15.0974C102.819 15.4835 102.808 15.8909 102.787 16.3199C102.787 16.7488 102.787 17.1562 102.787 17.5423C102.808 17.9069 102.819 18.2178 102.819 18.4752C102.841 18.7111 102.862 18.8505 102.884 18.8934C103.055 19.0864 103.248 19.1829 103.463 19.1829C103.784 19.1829 104.095 19.1829 104.395 19.1829C104.717 19.1615 105.039 19.14 105.361 19.1186C105.897 19.0971 106.411 18.9792 106.905 18.7647C107.398 18.5502 107.827 18.2714 108.191 17.9283C108.556 17.5637 108.846 17.1455 109.06 16.6737C109.296 16.1805 109.414 15.655 109.414 15.0974C109.414 14.261 109.242 13.5533 108.899 12.9743C108.577 12.3738 108.138 11.8912 107.58 11.5267C107.044 11.1621 106.422 10.894 105.714 10.7224C105.028 10.5509 104.32 10.4651 103.591 10.4651C103.484 10.4651 103.366 10.4758 103.237 10.4972C103.13 10.4972 103.023 10.5294 102.916 10.5937C102.894 10.6581 102.873 10.7546 102.851 10.8833C102.851 10.9905 102.851 11.1192 102.851 11.2693C102.851 11.398 102.851 11.5374 102.851 11.6875C102.851 11.8162 102.851 11.9127 102.851 11.977V12.0735C102.787 12.1808 102.712 12.2987 102.626 12.4274C102.562 12.5346 102.455 12.6097 102.305 12.6526ZM118.296 20.6627C118.146 20.6198 118.071 20.5447 118.071 20.4375C118.071 19.2151 118.071 18.0141 118.071 16.8346C118.071 15.655 118.061 14.454 118.039 13.2316C118.039 12.7384 118.05 12.1808 118.071 11.5588C118.114 10.9369 118.093 10.3793 118.007 9.88603C118.028 9.80024 118.039 9.72518 118.039 9.66085C118.039 9.59651 118.05 9.52145 118.071 9.43566C118.157 9.34988 118.254 9.30698 118.361 9.30698H129.234C129.32 9.30698 129.438 9.30698 129.588 9.30698C129.738 9.28554 129.888 9.28554 130.038 9.30698C130.188 9.32843 130.317 9.37132 130.424 9.43566C130.531 9.47855 130.585 9.56434 130.585 9.69301V10.5294C130.092 10.5509 129.609 10.5616 129.137 10.5616C128.666 10.5616 128.194 10.5616 127.722 10.5616C126.757 10.5616 125.803 10.5616 124.859 10.5616C123.915 10.5616 122.961 10.5723 121.996 10.5937C121.867 10.7653 121.803 10.9154 121.803 11.0441C121.803 11.1942 121.814 11.3444 121.835 11.4945C121.856 11.6446 121.867 11.7947 121.867 11.9449C121.867 12.095 121.835 12.2451 121.771 12.3952C121.728 12.5239 121.631 12.6419 121.481 12.7491C121.653 12.985 121.76 13.3067 121.803 13.7142C121.846 14.1216 121.867 14.4755 121.867 14.7757C121.867 14.9687 121.856 15.1725 121.835 15.3869C121.835 15.58 121.835 15.773 121.835 15.966C121.942 15.9874 122.039 16.0089 122.125 16.0303C122.21 16.0518 122.307 16.0625 122.414 16.0625C123.315 16.0625 124.216 16.0518 125.116 16.0303C126.038 15.9874 126.95 16.0089 127.851 16.0947C127.872 16.1805 127.883 16.2984 127.883 16.4485C127.883 16.5772 127.883 16.7059 127.883 16.8346C127.883 16.9418 127.861 17.0597 127.818 17.1884H126.339C125.588 17.1884 124.837 17.1884 124.087 17.1884C123.336 17.1884 122.586 17.2099 121.835 17.2528V23.6222C121.835 23.7509 121.835 23.9868 121.835 24.33C121.856 24.6731 121.867 25.027 121.867 25.3915C121.867 25.7561 121.856 26.0885 121.835 26.3888C121.814 26.689 121.771 26.882 121.706 26.9678C121.642 27.0536 121.567 27.0965 121.481 27.0965C121.417 27.118 121.342 27.1287 121.256 27.1287H121.192C120.848 27.193 120.462 27.2145 120.034 27.193C119.626 27.193 119.251 27.193 118.908 27.193C118.522 27.193 118.275 27.1501 118.168 27.0643C118.061 26.9786 118.007 26.7319 118.007 26.3244V23.7187C118.007 23.5257 117.996 23.2898 117.975 23.011C117.975 22.7322 117.975 22.4427 117.975 22.1425C117.996 21.8422 118.028 21.5634 118.071 21.3061C118.114 21.0273 118.189 20.8128 118.296 20.6627ZM133.227 20.534C133.162 20.4911 133.109 20.3946 133.066 20.2445C133.023 20.0944 132.991 19.9335 132.969 19.7619C132.969 19.5904 132.969 19.4188 132.969 19.2472C132.969 19.0757 132.969 18.9577 132.969 18.8934C132.969 18.6146 132.969 18.1857 132.969 17.6066C132.969 17.0061 132.969 16.352 132.969 15.6443C132.969 14.9366 132.969 14.2074 132.969 13.4568C132.969 12.6847 132.969 11.9877 132.969 11.3658C132.969 10.7439 132.969 10.2292 132.969 9.82169C132.991 9.39277 133.002 9.16759 133.002 9.14614L133.227 8.98529C134.835 8.98529 136.444 8.99602 138.052 9.01746C139.682 9.03891 141.301 9.04963 142.91 9.04963C143.038 9.04963 143.253 9.03891 143.553 9.01746C143.875 8.99602 144.186 8.98529 144.486 8.98529C144.808 8.98529 145.086 9.01746 145.322 9.0818C145.558 9.14614 145.676 9.26409 145.676 9.43566V10.2721C144.947 10.2935 144.218 10.3042 143.489 10.3042C142.76 10.3042 142.03 10.3042 141.301 10.3042C140.572 10.3042 139.843 10.3042 139.114 10.3042C138.406 10.3042 137.688 10.315 136.958 10.3364C136.915 10.3793 136.873 10.4329 136.83 10.4972C136.808 10.5616 136.798 10.6259 136.798 10.6903C136.798 10.9905 136.808 11.3229 136.83 11.6875C136.873 12.0306 136.744 12.3094 136.444 12.5239C136.637 12.7384 136.744 13.0815 136.765 13.5533C136.808 14.0037 136.83 14.3683 136.83 14.6471L136.798 15.773C136.905 15.7944 137.001 15.8159 137.087 15.8373C137.173 15.8373 137.269 15.8373 137.377 15.8373C138.299 15.8373 139.21 15.8266 140.111 15.8051C141.033 15.7623 141.955 15.7837 142.877 15.8695C142.877 15.9124 142.888 15.966 142.91 16.0303C142.931 16.0732 142.942 16.1161 142.942 16.159C142.942 16.3091 142.942 16.4485 142.942 16.5772C142.942 16.7059 142.92 16.8453 142.877 16.9954C142.534 17.0169 142.202 17.0276 141.88 17.0276C141.559 17.0276 141.226 17.0276 140.883 17.0276C140.197 17.0276 139.51 17.0276 138.824 17.0276C138.159 17.0061 137.484 17.0169 136.798 17.0597C136.798 18.2822 136.776 19.4831 136.733 20.6627C136.712 21.8422 136.701 23.0432 136.701 24.2656V25.7776C137.473 25.799 138.245 25.8097 139.017 25.8097C139.811 25.8097 140.593 25.8097 141.366 25.8097C142.116 25.8097 142.877 25.8097 143.65 25.8097C144.422 25.8097 145.183 25.799 145.934 25.7776V26.2279C145.934 26.4638 145.891 26.6676 145.805 26.8392C145.741 27.0107 145.558 27.0965 145.258 27.0965C144.1 27.0965 142.931 27.0858 141.752 27.0643C140.593 27.0643 139.435 27.0643 138.277 27.0643C137.505 27.0643 136.733 27.0751 135.961 27.0965C135.189 27.1394 134.417 27.1608 133.645 27.1608C133.323 27.1608 133.12 27.0858 133.034 26.9357C132.948 26.7855 132.905 26.5604 132.905 26.2601C132.905 25.7669 132.894 25.2843 132.873 24.8125C132.873 24.3407 132.873 23.8581 132.873 23.3649C132.873 22.8716 132.873 22.3891 132.873 21.9173C132.873 21.424 132.991 20.9629 133.227 20.534ZM157.229 8.95312C157.722 8.95312 158.269 9.01746 158.869 9.14614C159.491 9.25337 160.07 9.44638 160.607 9.72518C161.143 9.98254 161.593 10.3257 161.958 10.7546C162.322 11.1621 162.505 11.6768 162.505 12.2987C162.505 12.8563 162.344 13.3281 162.022 13.7142C161.7 14.0787 161.261 14.261 160.703 14.261C160.296 14.261 159.91 14.1216 159.545 13.8428C159.202 13.564 159.03 13.2102 159.03 12.7812C159.03 12.3523 159.148 12.0414 159.384 11.8483C159.641 11.6553 159.952 11.4945 160.317 11.3658C159.781 10.5509 159.041 10.1434 158.097 10.1434C157.111 10.1434 156.242 10.3793 155.492 10.8511C154.741 11.3015 154.108 11.8912 153.594 12.6204C153.1 13.3496 152.725 14.1645 152.468 15.0653C152.232 15.966 152.114 16.856 152.114 17.7353C152.114 17.9712 152.114 18.1857 152.114 18.3787C152.135 18.5502 152.082 18.754 151.953 18.9899C152.296 19.333 152.521 19.7619 152.629 20.2767C152.736 20.7914 152.875 21.2632 153.047 21.6921C153.561 22.9574 154.301 23.9868 155.266 24.7803C156.253 25.5524 157.454 25.9384 158.869 25.9384C159.384 25.9384 159.834 25.8634 160.22 25.7132C160.607 25.5631 160.95 25.4023 161.25 25.2307C161.55 25.0591 161.808 24.8983 162.022 24.7482C162.258 24.598 162.472 24.523 162.665 24.523C162.815 24.523 162.933 24.5873 163.019 24.716C163.126 24.8232 163.18 24.9412 163.18 25.0699C163.03 25.4773 162.73 25.8312 162.279 26.1314C161.85 26.4317 161.368 26.689 160.832 26.9035C160.296 27.0965 159.749 27.2359 159.191 27.3217C158.633 27.4289 158.162 27.4825 157.776 27.4825C156.51 27.4825 155.299 27.2681 154.141 26.8392C152.982 26.4102 151.953 25.8097 151.052 25.0377C150.173 24.2656 149.465 23.3327 148.929 22.239C148.414 21.1452 148.157 19.9442 148.157 18.636C148.157 17.4136 148.393 16.2233 148.865 15.0653C149.358 13.9072 150.012 12.8778 150.827 11.977C151.664 11.0548 152.629 10.3257 153.722 9.78952C154.816 9.23192 155.985 8.95312 157.229 8.95312ZM166.208 8.02022H166.369L166.433 8.1489C166.412 8.21323 166.39 8.27757 166.369 8.34191C166.347 8.40625 166.336 8.47059 166.336 8.53493C166.336 8.70649 166.422 8.79228 166.594 8.79228C166.958 8.79228 167.312 8.803 167.655 8.82445C167.999 8.84589 168.352 8.85662 168.717 8.85662C169.811 8.85662 170.905 8.84589 171.998 8.82445C173.113 8.78156 174.218 8.76011 175.312 8.76011C176.062 8.76011 176.813 8.77083 177.564 8.79228C178.314 8.81372 179.054 8.87806 179.783 8.98529C180.319 9.07108 180.684 9.29626 180.877 9.66085C181.07 10.004 181.166 10.4222 181.166 10.9154C181.166 11.5374 180.931 12.0843 180.459 12.5561C179.987 13.0279 179.44 13.2638 178.818 13.2638C178.711 13.2638 178.582 13.2531 178.432 13.2316C178.282 13.1887 178.132 13.1351 177.982 13.0708C177.832 13.0064 177.703 12.9314 177.596 12.8456C177.51 12.7384 177.467 12.6204 177.467 12.4917L177.596 12.2987C177.703 12.2987 177.778 12.3202 177.821 12.3631C177.864 12.3845 177.907 12.4274 177.95 12.4917C178.014 12.5346 178.078 12.5775 178.143 12.6204C178.207 12.6419 178.303 12.6526 178.432 12.6526C178.797 12.6526 179.108 12.5346 179.365 12.2987C179.622 12.0414 179.751 11.7304 179.751 11.3658C179.751 11.1513 179.676 11.0012 179.526 10.9154C179.376 10.8082 179.193 10.7439 178.979 10.7224C178.786 10.6795 178.582 10.6688 178.368 10.6903C178.153 10.6903 177.982 10.6903 177.853 10.6903C177.553 10.6903 177.242 10.6903 176.92 10.6903C176.598 10.6688 176.287 10.6581 175.987 10.6581C175.837 10.6581 175.698 10.6688 175.569 10.6903C175.44 10.6903 175.301 10.701 175.151 10.7224C175.086 11.1085 175.054 11.4838 175.054 11.8483C175.054 12.0628 175.065 12.2773 175.086 12.4917C175.108 12.6847 175.119 12.8885 175.119 13.1029C175.119 13.5962 175.044 14.0358 174.893 14.4219C175.022 14.5934 175.086 14.765 175.086 14.9366C175.086 16.8238 175.054 18.7111 174.99 20.5983C174.947 22.4856 174.926 24.3729 174.926 26.2601C174.926 26.3673 174.926 26.5282 174.926 26.7426C174.947 26.9357 174.883 27.0536 174.733 27.0965C174.668 27.118 174.529 27.1287 174.314 27.1287C174.121 27.1501 173.896 27.1608 173.639 27.1608C173.403 27.1608 173.178 27.1608 172.963 27.1608C172.749 27.1608 172.599 27.1608 172.513 27.1608C172.213 27.1608 171.934 27.1394 171.677 27.0965C171.419 27.0751 171.291 26.8713 171.291 26.4853V23.8796C171.398 23.708 171.548 23.6222 171.741 23.6222H171.837C171.602 23.5365 171.419 23.3756 171.291 23.1397C171.291 21.231 171.333 19.3437 171.419 17.4779C171.505 15.5907 171.548 13.6927 171.548 11.784C171.548 11.3765 171.505 11.0119 171.419 10.6903L169.875 10.6581C169.639 10.6581 169.253 10.6688 168.717 10.6903C168.202 10.7117 167.666 10.701 167.109 10.6581C166.572 10.6152 166.101 10.5187 165.693 10.3686C165.286 10.197 165.082 9.9182 165.082 9.53217C165.082 9.23192 165.189 8.91023 165.404 8.5671C165.618 8.20251 165.886 8.02022 166.208 8.02022ZM193.141 23.3971C193.42 23.3971 193.559 23.515 193.559 23.7509C193.559 23.8367 193.506 23.8689 193.398 23.8474C193.291 23.826 193.238 23.9332 193.238 24.1691C193.238 24.1906 193.238 24.2227 193.238 24.2656C193.259 24.2871 193.27 24.3085 193.27 24.33C193.398 24.6088 193.613 24.8554 193.913 25.0699C194.235 25.2629 194.589 25.4344 194.975 25.5846C195.361 25.7132 195.747 25.8205 196.133 25.9062C196.519 25.9706 196.851 26.0028 197.13 26.0028C197.559 26.0028 198.031 25.9491 198.546 25.8419C199.06 25.7347 199.532 25.5631 199.961 25.3272C200.39 25.0913 200.744 24.7911 201.023 24.4265C201.323 24.0404 201.473 23.5794 201.473 23.0432C201.473 22.2926 201.205 21.6278 200.669 21.0487C200.133 20.4697 199.532 19.9764 198.867 19.5689C198.224 19.14 197.613 18.7862 197.034 18.5074C196.476 18.2286 196.165 18.0034 196.101 17.8318L196.294 17.5744C195.972 17.6388 195.64 17.5637 195.296 17.3493C194.503 16.8131 193.902 16.1376 193.495 15.3226C193.109 14.5077 192.916 13.6284 192.916 12.6847C192.916 12.0628 193.098 11.5374 193.463 11.1085C193.827 10.6581 194.246 10.2613 194.717 9.9182H194.782L194.846 9.88603H195.039C195.168 9.88603 195.275 9.9182 195.361 9.98254C195.318 9.85386 195.296 9.76808 195.296 9.72518C195.296 9.59651 195.447 9.48928 195.747 9.40349C196.047 9.29626 196.379 9.21048 196.744 9.14614C197.13 9.0818 197.495 9.02819 197.838 8.98529C198.202 8.9424 198.449 8.92096 198.578 8.92096C198.985 8.92096 199.403 8.9424 199.832 8.98529C200.261 9.00674 200.679 9.07108 201.087 9.17831C201.516 9.26409 201.923 9.40349 202.309 9.59651C202.695 9.76808 203.038 10.004 203.339 10.3042C203.596 10.5616 203.864 10.8833 204.143 11.2693C204.422 11.6339 204.561 12.0092 204.561 12.3952C204.561 12.8885 204.368 13.3281 203.982 13.7142C203.596 14.1002 203.156 14.2932 202.663 14.2932C202.148 14.2932 201.73 14.1538 201.409 13.875C201.108 13.5962 200.958 13.1994 200.958 12.6847C200.958 12.2773 201.087 11.9985 201.344 11.8483C201.623 11.6982 201.913 11.5481 202.213 11.398C201.848 10.9691 201.409 10.6581 200.894 10.4651C200.401 10.2506 199.875 10.1434 199.318 10.1434C198.996 10.1434 198.631 10.1863 198.224 10.2721C197.838 10.3578 197.473 10.4865 197.13 10.6581C196.787 10.8297 196.497 11.0656 196.261 11.3658C196.026 11.6446 195.908 11.9877 195.908 12.3952C195.908 12.867 196.079 13.3281 196.422 13.7785C196.787 14.2074 197.173 14.5934 197.58 14.9366C198.009 15.2797 198.395 15.5692 198.739 15.8051C199.082 16.0196 199.253 16.1697 199.253 16.2555C199.253 16.277 199.242 16.2984 199.221 16.3199C199.221 16.3413 199.221 16.3627 199.221 16.3842C199.543 16.3199 199.95 16.4056 200.443 16.6415C200.937 16.8775 201.43 17.1777 201.923 17.5423C202.438 17.8854 202.91 18.2607 203.339 18.6682C203.768 19.0542 204.068 19.3759 204.239 19.6333C204.54 20.0407 204.743 20.4911 204.851 20.9844C204.958 21.4562 205.011 21.9387 205.011 22.432C205.011 23.5043 204.776 24.3836 204.304 25.0699C203.832 25.7347 203.221 26.2601 202.47 26.6461C201.741 27.0322 200.926 27.3002 200.025 27.4504C199.125 27.6005 198.235 27.6756 197.355 27.6756C196.648 27.6756 195.951 27.5898 195.264 27.4182C194.578 27.2681 193.945 26.9786 193.366 26.5496C193.238 26.4638 193.087 26.3566 192.916 26.2279C192.744 26.0778 192.573 25.917 192.401 25.7454C192.251 25.5738 192.112 25.4023 191.983 25.2307C191.876 25.0377 191.822 24.8554 191.822 24.6838C191.822 24.3407 191.951 24.0404 192.208 23.7831C192.487 23.5257 192.798 23.3971 193.141 23.3971ZM207.364 20.534C207.299 20.4911 207.246 20.3946 207.203 20.2445C207.16 20.0944 207.128 19.9335 207.106 19.7619C207.106 19.5904 207.106 19.4188 207.106 19.2472C207.106 19.0757 207.106 18.9577 207.106 18.8934C207.106 18.6146 207.106 18.1857 207.106 17.6066C207.106 17.0061 207.106 16.352 207.106 15.6443C207.106 14.9366 207.106 14.2074 207.106 13.4568C207.106 12.6847 207.106 11.9877 207.106 11.3658C207.106 10.7439 207.106 10.2292 207.106 9.82169C207.128 9.39277 207.138 9.16759 207.138 9.14614L207.364 8.98529C208.972 8.98529 210.581 8.99602 212.189 9.01746C213.819 9.03891 215.438 9.04963 217.047 9.04963C217.175 9.04963 217.39 9.03891 217.69 9.01746C218.012 8.99602 218.323 8.98529 218.623 8.98529C218.945 8.98529 219.223 9.01746 219.459 9.0818C219.695 9.14614 219.813 9.26409 219.813 9.43566V10.2721C219.084 10.2935 218.355 10.3042 217.626 10.3042C216.896 10.3042 216.167 10.3042 215.438 10.3042C214.709 10.3042 213.98 10.3042 213.251 10.3042C212.543 10.3042 211.824 10.315 211.095 10.3364C211.052 10.3793 211.01 10.4329 210.967 10.4972C210.945 10.5616 210.934 10.6259 210.934 10.6903C210.934 10.9905 210.945 11.3229 210.967 11.6875C211.01 12.0306 210.881 12.3094 210.581 12.5239C210.774 12.7384 210.881 13.0815 210.902 13.5533C210.945 14.0037 210.967 14.3683 210.967 14.6471L210.934 15.773C211.042 15.7944 211.138 15.8159 211.224 15.8373C211.31 15.8373 211.406 15.8373 211.513 15.8373C212.436 15.8373 213.347 15.8266 214.248 15.8051C215.17 15.7623 216.092 15.7837 217.014 15.8695C217.014 15.9124 217.025 15.966 217.047 16.0303C217.068 16.0732 217.079 16.1161 217.079 16.159C217.079 16.3091 217.079 16.4485 217.079 16.5772C217.079 16.7059 217.057 16.8453 217.014 16.9954C216.671 17.0169 216.339 17.0276 216.017 17.0276C215.695 17.0276 215.363 17.0276 215.02 17.0276C214.334 17.0276 213.647 17.0276 212.961 17.0276C212.296 17.0061 211.621 17.0169 210.934 17.0597C210.934 18.2822 210.913 19.4831 210.87 20.6627C210.849 21.8422 210.838 23.0432 210.838 24.2656V25.7776C211.61 25.799 212.382 25.8097 213.154 25.8097C213.948 25.8097 214.73 25.8097 215.502 25.8097C216.253 25.8097 217.014 25.8097 217.786 25.8097C218.559 25.8097 219.32 25.799 220.07 25.7776V26.2279C220.07 26.4638 220.028 26.6676 219.942 26.8392C219.877 27.0107 219.695 27.0965 219.395 27.0965C218.237 27.0965 217.068 27.0858 215.888 27.0643C214.73 27.0643 213.572 27.0643 212.414 27.0643C211.642 27.0643 210.87 27.0751 210.098 27.0965C209.326 27.1394 208.554 27.1608 207.782 27.1608C207.46 27.1608 207.256 27.0858 207.171 26.9357C207.085 26.7855 207.042 26.5604 207.042 26.2601C207.042 25.7669 207.031 25.2843 207.01 24.8125C207.01 24.3407 207.01 23.8581 207.01 23.3649C207.01 22.8716 207.01 22.3891 207.01 21.9173C207.01 21.424 207.128 20.9629 207.364 20.534ZM222.326 21.0809L222.519 20.7592L222.68 20.6627L222.391 20.534C222.369 20.5126 222.337 20.4697 222.294 20.4053C222.273 20.3195 222.262 20.2659 222.262 20.2445V9.75735C222.262 9.34988 222.348 9.10325 222.519 9.01746C222.691 8.91023 222.959 8.85662 223.323 8.85662C223.817 8.85662 224.299 8.87806 224.771 8.92096C225.243 8.96385 225.725 8.98529 226.219 8.98529C226.39 8.98529 226.487 9.07108 226.508 9.24265C226.551 9.41422 226.573 9.56434 226.573 9.69301V12.2344C226.573 12.3416 226.573 12.5882 226.573 12.9743C226.573 13.3603 226.562 13.7678 226.54 14.1967C226.54 14.6042 226.53 14.9795 226.508 15.3226C226.508 15.6657 226.497 15.8588 226.476 15.9017C226.369 16.0732 226.229 16.1697 226.058 16.1912C226.144 16.2341 226.229 16.2662 226.315 16.2877C226.401 16.3091 226.465 16.3735 226.508 16.4807C226.53 16.5021 226.54 16.7273 226.54 17.1562C226.54 17.5637 226.54 18.0892 226.54 18.7325C226.562 19.3545 226.573 20.0407 226.573 20.7914C226.573 21.542 226.573 22.2604 226.573 22.9467C226.573 23.633 226.573 24.2335 226.573 24.7482C226.573 25.2629 226.573 25.5953 226.573 25.7454H231.591C231.891 25.7454 232.245 25.7561 232.652 25.7776C233.081 25.7776 233.489 25.8312 233.875 25.9384C234.282 26.0242 234.626 26.1743 234.904 26.3888C235.183 26.5818 235.323 26.8928 235.323 27.3217C235.323 27.6863 235.205 27.9329 234.969 28.0616C234.754 28.1903 234.486 28.2546 234.164 28.2546C234.1 28.2546 233.993 28.2439 233.843 28.2224C233.714 28.201 233.65 28.1366 233.65 28.0294C233.65 27.9865 233.671 27.9115 233.714 27.8042C233.778 27.697 233.811 27.579 233.811 27.4504C233.811 27.2574 233.671 27.1394 233.392 27.0965C233.135 27.0751 232.942 27.0643 232.813 27.0643C231.655 27.0643 230.486 27.0643 229.307 27.0643C228.149 27.0858 226.991 27.0965 225.833 27.0965C225.018 27.0965 224.364 27.1072 223.87 27.1287C223.398 27.1716 223.034 27.1287 222.777 27C222.541 26.8928 222.391 26.6569 222.326 26.2923C222.262 25.9277 222.23 25.3487 222.23 24.5551C222.23 24.3192 222.219 24.0512 222.198 23.7509C222.198 23.4292 222.198 23.1075 222.198 22.7858C222.198 22.4642 222.208 22.1532 222.23 21.8529C222.251 21.5312 222.283 21.2739 222.326 21.0809ZM237.546 20.6627C237.396 20.6198 237.321 20.5447 237.321 20.4375C237.321 19.2151 237.321 18.0141 237.321 16.8346C237.321 15.655 237.31 14.454 237.289 13.2316C237.289 12.7384 237.299 12.1808 237.321 11.5588C237.364 10.9369 237.342 10.3793 237.257 9.88603C237.278 9.80024 237.289 9.72518 237.289 9.66085C237.289 9.59651 237.299 9.52145 237.321 9.43566C237.407 9.34988 237.503 9.30698 237.61 9.30698H248.484C248.569 9.30698 248.687 9.30698 248.837 9.30698C248.988 9.28554 249.138 9.28554 249.288 9.30698C249.438 9.32843 249.567 9.37132 249.674 9.43566C249.781 9.47855 249.835 9.56434 249.835 9.69301V10.5294C249.341 10.5509 248.859 10.5616 248.387 10.5616C247.915 10.5616 247.443 10.5616 246.972 10.5616C246.007 10.5616 245.052 10.5616 244.109 10.5616C243.165 10.5616 242.211 10.5723 241.245 10.5937C241.117 10.7653 241.052 10.9154 241.052 11.0441C241.052 11.1942 241.063 11.3444 241.085 11.4945C241.106 11.6446 241.117 11.7947 241.117 11.9449C241.117 12.095 241.085 12.2451 241.02 12.3952C240.977 12.5239 240.881 12.6419 240.731 12.7491C240.902 12.985 241.01 13.3067 241.052 13.7142C241.095 14.1216 241.117 14.4755 241.117 14.7757C241.117 14.9687 241.106 15.1725 241.085 15.3869C241.085 15.58 241.085 15.773 241.085 15.966C241.192 15.9874 241.288 16.0089 241.374 16.0303C241.46 16.0518 241.556 16.0625 241.664 16.0625C242.564 16.0625 243.465 16.0518 244.366 16.0303C245.288 15.9874 246.2 16.0089 247.1 16.0947C247.122 16.1805 247.132 16.2984 247.132 16.4485C247.132 16.5772 247.132 16.7059 247.132 16.8346C247.132 16.9418 247.111 17.0597 247.068 17.1884H245.588C244.838 17.1884 244.087 17.1884 243.336 17.1884C242.586 17.1884 241.835 17.2099 241.085 17.2528V23.6222C241.085 23.7509 241.085 23.9868 241.085 24.33C241.106 24.6731 241.117 25.027 241.117 25.3915C241.117 25.7561 241.106 26.0885 241.085 26.3888C241.063 26.689 241.02 26.882 240.956 26.9678C240.892 27.0536 240.817 27.0965 240.731 27.0965C240.666 27.118 240.591 27.1287 240.506 27.1287H240.441C240.098 27.193 239.712 27.2145 239.283 27.193C238.876 27.193 238.5 27.193 238.157 27.193C237.771 27.193 237.525 27.1501 237.417 27.0643C237.31 26.9786 237.257 26.7319 237.257 26.3244V23.7187C237.257 23.5257 237.246 23.2898 237.224 23.011C237.224 22.7322 237.224 22.4427 237.224 22.1425C237.246 21.8422 237.278 21.5634 237.321 21.3061C237.364 21.0273 237.439 20.8128 237.546 20.6627Z" fill="black"/>
<path d="M35.2526 125V107.96H42.4766C43.2606 107.96 43.9806 108.12 44.6366 108.44C45.2926 108.76 45.8606 109.192 46.3406 109.736C46.8366 110.28 47.2206 110.888 47.4926 111.56C47.7646 112.232 47.9006 112.92 47.9006 113.624C47.9006 114.584 47.6766 115.496 47.2286 116.36C46.7806 117.224 46.1646 117.928 45.3806 118.472C44.5966 119.016 43.6686 119.288 42.5966 119.288H38.5646V125H35.2526ZM38.5646 116.384H42.4046C42.8046 116.384 43.1646 116.272 43.4846 116.048C43.8046 115.824 44.0606 115.504 44.2526 115.088C44.4446 114.656 44.5406 114.168 44.5406 113.624C44.5406 113.032 44.4286 112.528 44.2046 112.112C43.9966 111.696 43.7166 111.384 43.3646 111.176C43.0286 110.968 42.6606 110.864 42.2606 110.864H38.5646V116.384ZM57.3817 115.208C56.4057 115.208 55.5337 115.4 54.7657 115.784C53.9977 116.152 53.4457 116.688 53.1097 117.392V125H49.8937V112.424H52.8457V115.112C53.2937 114.248 53.8617 113.568 54.5497 113.072C55.2377 112.576 55.9657 112.304 56.7337 112.256C56.9097 112.256 57.0457 112.256 57.1417 112.256C57.2377 112.256 57.3177 112.264 57.3817 112.28V115.208ZM64.8429 125.24C63.8349 125.24 62.9229 125.072 62.1069 124.736C61.2909 124.384 60.5949 123.912 60.0189 123.32C59.4429 122.712 58.9949 122.024 58.6749 121.256C58.3709 120.472 58.2189 119.648 58.2189 118.784C58.2189 117.584 58.4829 116.488 59.0109 115.496C59.5549 114.504 60.3229 113.712 61.3149 113.12C62.3229 112.512 63.5069 112.208 64.8669 112.208C66.2429 112.208 67.4189 112.512 68.3949 113.12C69.3709 113.712 70.1149 114.504 70.6269 115.496C71.1549 116.472 71.4189 117.528 71.4189 118.664C71.4189 118.856 71.4109 119.056 71.3949 119.264C71.3789 119.456 71.3629 119.616 71.3469 119.744H61.6269C61.6909 120.384 61.8749 120.944 62.1789 121.424C62.4989 121.904 62.8989 122.272 63.3789 122.528C63.8749 122.768 64.4029 122.888 64.9629 122.888C65.6029 122.888 66.2029 122.736 66.7629 122.432C67.3389 122.112 67.7309 121.696 67.9389 121.184L70.6989 121.952C70.3949 122.592 69.9549 123.16 69.3789 123.656C68.8189 124.152 68.1549 124.544 67.3869 124.832C66.6189 125.104 65.7709 125.24 64.8429 125.24ZM61.5549 117.704H68.1309C68.0669 117.064 67.8829 116.512 67.5789 116.048C67.2909 115.568 66.9069 115.2 66.4269 114.944C65.9469 114.672 65.4109 114.536 64.8189 114.536C64.2429 114.536 63.7149 114.672 63.2349 114.944C62.7709 115.2 62.3869 115.568 62.0829 116.048C61.7949 116.512 61.6189 117.064 61.5549 117.704ZM78.0101 125.24C76.9381 125.24 75.9141 125.064 74.9381 124.712C73.9621 124.36 73.1221 123.84 72.4181 123.152L73.5701 121.064C74.3221 121.672 75.0581 122.12 75.7781 122.408C76.5141 122.696 77.2181 122.84 77.8901 122.84C78.5141 122.84 79.0101 122.728 79.3781 122.504C79.7621 122.28 79.9541 121.944 79.9541 121.496C79.9541 121.192 79.8501 120.96 79.6421 120.8C79.4341 120.624 79.1301 120.472 78.7301 120.344C78.3461 120.216 77.8741 120.072 77.3141 119.912C76.3861 119.608 75.6101 119.312 74.9861 119.024C74.3621 118.736 73.8901 118.376 73.5701 117.944C73.2661 117.496 73.1141 116.928 73.1141 116.24C73.1141 115.408 73.3221 114.696 73.7381 114.104C74.1701 113.496 74.7621 113.024 75.5141 112.688C76.2821 112.352 77.1781 112.184 78.2021 112.184C79.0981 112.184 79.9461 112.328 80.7461 112.616C81.5461 112.888 82.2741 113.336 82.9301 113.96L81.6341 116C80.9941 115.504 80.3861 115.144 79.8101 114.92C79.2341 114.68 78.6501 114.56 78.0581 114.56C77.7221 114.56 77.4021 114.6 77.0981 114.68C76.8101 114.76 76.5701 114.896 76.3781 115.088C76.2021 115.264 76.1141 115.52 76.1141 115.856C76.1141 116.16 76.1941 116.4 76.3541 116.576C76.5301 116.736 76.7861 116.88 77.1221 117.008C77.4741 117.136 77.8981 117.28 78.3941 117.44C79.4021 117.728 80.2501 118.024 80.9381 118.328C81.6421 118.632 82.1701 119.008 82.5221 119.456C82.8741 119.888 83.0501 120.488 83.0501 121.256C83.0501 122.504 82.5941 123.48 81.6821 124.184C80.7701 124.888 79.5461 125.24 78.0101 125.24ZM91.0694 125.24C90.0614 125.24 89.1494 125.072 88.3334 124.736C87.5174 124.384 86.8214 123.912 86.2454 123.32C85.6694 122.712 85.2214 122.024 84.9014 121.256C84.5974 120.472 84.4454 119.648 84.4454 118.784C84.4454 117.584 84.7094 116.488 85.2374 115.496C85.7814 114.504 86.5494 113.712 87.5414 113.12C88.5494 112.512 89.7334 112.208 91.0934 112.208C92.4694 112.208 93.6454 112.512 94.6214 113.12C95.5974 113.712 96.3414 114.504 96.8534 115.496C97.3814 116.472 97.6454 117.528 97.6454 118.664C97.6454 118.856 97.6374 119.056 97.6214 119.264C97.6054 119.456 97.5894 119.616 97.5734 119.744H87.8534C87.9174 120.384 88.1014 120.944 88.4054 121.424C88.7254 121.904 89.1254 122.272 89.6054 122.528C90.1014 122.768 90.6294 122.888 91.1894 122.888C91.8294 122.888 92.4294 122.736 92.9894 122.432C93.5654 122.112 93.9574 121.696 94.1654 121.184L96.9254 121.952C96.6214 122.592 96.1814 123.16 95.6054 123.656C95.0454 124.152 94.3814 124.544 93.6134 124.832C92.8454 125.104 91.9974 125.24 91.0694 125.24ZM87.7814 117.704H94.3574C94.2934 117.064 94.1094 116.512 93.8054 116.048C93.5174 115.568 93.1334 115.2 92.6534 114.944C92.1734 114.672 91.6374 114.536 91.0454 114.536C90.4694 114.536 89.9414 114.672 89.4614 114.944C88.9974 115.2 88.6134 115.568 88.3094 116.048C88.0214 116.512 87.8454 117.064 87.7814 117.704ZM111.293 125H108.077V117.944C108.077 116.936 107.901 116.2 107.549 115.736C107.197 115.272 106.709 115.04 106.085 115.04C105.653 115.04 105.213 115.152 104.765 115.376C104.333 115.6 103.941 115.912 103.589 116.312C103.237 116.696 102.981 117.144 102.821 117.656V125H99.6046V112.424H102.509V114.752C102.829 114.208 103.237 113.752 103.733 113.384C104.229 113 104.797 112.712 105.437 112.52C106.093 112.312 106.781 112.208 107.501 112.208C108.285 112.208 108.925 112.352 109.421 112.64C109.933 112.912 110.317 113.288 110.573 113.768C110.845 114.232 111.029 114.76 111.125 115.352C111.237 115.944 111.293 116.544 111.293 117.152V125ZM121.555 124.352C121.283 124.464 120.955 124.592 120.571 124.736C120.187 124.88 119.771 124.992 119.323 125.072C118.891 125.168 118.451 125.216 118.003 125.216C117.411 125.216 116.867 125.112 116.371 124.904C115.875 124.696 115.475 124.368 115.171 123.92C114.883 123.456 114.739 122.856 114.739 122.12V114.896H113.083V112.424H114.739V108.344H117.955V112.424H120.595V114.896H117.955V121.04C117.971 121.472 118.091 121.784 118.315 121.976C118.539 122.168 118.819 122.264 119.155 122.264C119.491 122.264 119.819 122.208 120.139 122.096C120.459 121.984 120.715 121.888 120.907 121.808L121.555 124.352ZM128.603 127.448C128.891 127.512 129.155 127.568 129.395 127.616C129.651 127.664 129.867 127.688 130.043 127.688C130.347 127.688 130.595 127.608 130.787 127.448C130.995 127.304 131.195 127.032 131.387 126.632C131.579 126.248 131.779 125.704 131.987 125L127.019 112.424H130.355L133.739 121.712L136.715 112.424H139.787L134.507 127.496C134.315 128.056 134.019 128.56 133.619 129.008C133.235 129.472 132.747 129.832 132.155 130.088C131.579 130.36 130.931 130.496 130.211 130.496C129.955 130.496 129.699 130.472 129.443 130.424C129.187 130.392 128.907 130.328 128.603 130.232V127.448ZM146.92 125.24C145.896 125.24 144.976 125.072 144.16 124.736C143.344 124.384 142.648 123.904 142.072 123.296C141.512 122.688 141.08 121.992 140.776 121.208C140.472 120.424 140.32 119.6 140.32 118.736C140.32 117.856 140.472 117.024 140.776 116.24C141.08 115.456 141.512 114.76 142.072 114.152C142.648 113.544 143.344 113.072 144.16 112.736C144.976 112.384 145.896 112.208 146.92 112.208C147.944 112.208 148.856 112.384 149.656 112.736C150.472 113.072 151.168 113.544 151.744 114.152C152.32 114.76 152.752 115.456 153.04 116.24C153.344 117.024 153.496 117.856 153.496 118.736C153.496 119.6 153.344 120.424 153.04 121.208C152.752 121.992 152.32 122.688 151.744 123.296C151.184 123.904 150.496 124.384 149.68 124.736C148.864 125.072 147.944 125.24 146.92 125.24ZM143.632 118.736C143.632 119.472 143.776 120.128 144.064 120.704C144.352 121.264 144.744 121.704 145.24 122.024C145.736 122.344 146.296 122.504 146.92 122.504C147.528 122.504 148.08 122.344 148.576 122.024C149.072 121.688 149.464 121.24 149.752 120.68C150.056 120.104 150.208 119.448 150.208 118.712C150.208 117.992 150.056 117.344 149.752 116.768C149.464 116.192 149.072 115.744 148.576 115.424C148.08 115.104 147.528 114.944 146.92 114.944C146.296 114.944 145.736 115.112 145.24 115.448C144.744 115.768 144.352 116.216 144.064 116.792C143.776 117.352 143.632 118 143.632 118.736ZM155.547 120.296V112.424H158.763V119.6C158.763 120.56 158.939 121.288 159.291 121.784C159.643 122.264 160.163 122.504 160.851 122.504C161.267 122.504 161.675 122.424 162.075 122.264C162.491 122.088 162.867 121.832 163.203 121.496C163.555 121.16 163.851 120.736 164.091 120.224V112.424H167.307V121.4C167.307 121.736 167.363 121.976 167.475 122.12C167.603 122.264 167.803 122.352 168.075 122.384V125C167.755 125.048 167.483 125.08 167.259 125.096C167.051 125.128 166.859 125.144 166.683 125.144C166.107 125.144 165.635 125.016 165.267 124.76C164.915 124.488 164.707 124.12 164.643 123.656L164.571 122.648C164.011 123.496 163.291 124.144 162.411 124.592C161.531 125.024 160.563 125.24 159.507 125.24C158.211 125.24 157.227 124.824 156.555 123.992C155.883 123.144 155.547 121.912 155.547 120.296ZM177.991 115.208C177.015 115.208 176.143 115.4 175.375 115.784C174.607 116.152 174.055 116.688 173.719 117.392V125H170.503V112.424H173.455V115.112C173.903 114.248 174.471 113.568 175.159 113.072C175.847 112.576 176.575 112.304 177.343 112.256C177.519 112.256 177.655 112.256 177.751 112.256C177.847 112.256 177.927 112.264 177.991 112.28V115.208ZM192.163 125.24C191.203 125.24 190.347 125.024 189.595 124.592C188.843 124.16 188.251 123.568 187.819 122.816V125H185.011V107.48H188.227V114.632C188.675 113.88 189.259 113.288 189.979 112.856C190.715 112.424 191.571 112.208 192.547 112.208C193.363 112.208 194.107 112.384 194.779 112.736C195.451 113.072 196.027 113.544 196.507 114.152C197.003 114.76 197.379 115.456 197.635 116.24C197.907 117.024 198.043 117.864 198.043 118.76C198.043 119.656 197.891 120.496 197.587 121.28C197.299 122.064 196.891 122.76 196.363 123.368C195.835 123.96 195.211 124.424 194.491 124.76C193.787 125.08 193.011 125.24 192.163 125.24ZM191.275 122.504C191.787 122.504 192.251 122.408 192.667 122.216C193.099 122.008 193.467 121.736 193.771 121.4C194.091 121.064 194.331 120.672 194.491 120.224C194.667 119.76 194.755 119.28 194.755 118.784C194.755 118.096 194.611 117.464 194.323 116.888C194.051 116.296 193.667 115.824 193.171 115.472C192.691 115.12 192.123 114.944 191.467 114.944C191.003 114.944 190.555 115.056 190.123 115.28C189.707 115.488 189.331 115.776 188.995 116.144C188.675 116.512 188.419 116.928 188.227 117.392V120.392C188.323 120.712 188.475 121 188.683 121.256C188.907 121.512 189.163 121.736 189.451 121.928C189.739 122.104 190.035 122.248 190.339 122.36C190.659 122.456 190.971 122.504 191.275 122.504ZM206.054 125.24C205.046 125.24 204.134 125.072 203.318 124.736C202.502 124.384 201.806 123.912 201.23 123.32C200.654 122.712 200.206 122.024 199.886 121.256C199.582 120.472 199.43 119.648 199.43 118.784C199.43 117.584 199.694 116.488 200.222 115.496C200.766 114.504 201.534 113.712 202.526 113.12C203.534 112.512 204.718 112.208 206.078 112.208C207.454 112.208 208.63 112.512 209.606 113.12C210.582 113.712 211.326 114.504 211.838 115.496C212.366 116.472 212.63 117.528 212.63 118.664C212.63 118.856 212.622 119.056 212.606 119.264C212.59 119.456 212.574 119.616 212.558 119.744H202.838C202.902 120.384 203.086 120.944 203.39 121.424C203.71 121.904 204.11 122.272 204.59 122.528C205.086 122.768 205.614 122.888 206.174 122.888C206.814 122.888 207.414 122.736 207.974 122.432C208.55 122.112 208.942 121.696 209.15 121.184L211.91 121.952C211.606 122.592 211.166 123.16 210.59 123.656C210.03 124.152 209.366 124.544 208.598 124.832C207.83 125.104 206.982 125.24 206.054 125.24ZM202.766 117.704H209.342C209.278 117.064 209.094 116.512 208.79 116.048C208.502 115.568 208.118 115.2 207.638 114.944C207.158 114.672 206.622 114.536 206.03 114.536C205.454 114.536 204.926 114.672 204.446 114.944C203.982 115.2 203.598 115.568 203.294 116.048C203.006 116.512 202.83 117.064 202.766 117.704ZM219.221 125.24C218.149 125.24 217.125 125.064 216.149 124.712C215.173 124.36 214.333 123.84 213.629 123.152L214.781 121.064C215.533 121.672 216.269 122.12 216.989 122.408C217.725 122.696 218.429 122.84 219.101 122.84C219.725 122.84 220.221 122.728 220.589 122.504C220.973 122.28 221.165 121.944 221.165 121.496C221.165 121.192 221.061 120.96 220.853 120.8C220.645 120.624 220.341 120.472 219.941 120.344C219.557 120.216 219.085 120.072 218.525 119.912C217.597 119.608 216.821 119.312 216.197 119.024C215.573 118.736 215.101 118.376 214.781 117.944C214.477 117.496 214.325 116.928 214.325 116.24C214.325 115.408 214.533 114.696 214.949 114.104C215.381 113.496 215.973 113.024 216.725 112.688C217.493 112.352 218.389 112.184 219.413 112.184C220.309 112.184 221.157 112.328 221.957 112.616C222.757 112.888 223.485 113.336 224.141 113.96L222.845 116C222.205 115.504 221.597 115.144 221.021 114.92C220.445 114.68 219.861 114.56 219.269 114.56C218.933 114.56 218.613 114.6 218.309 114.68C218.021 114.76 217.781 114.896 217.589 115.088C217.413 115.264 217.325 115.52 217.325 115.856C217.325 116.16 217.405 116.4 217.565 116.576C217.741 116.736 217.997 116.88 218.333 117.008C218.685 117.136 219.109 117.28 219.605 117.44C220.613 117.728 221.461 118.024 222.149 118.328C222.853 118.632 223.381 119.008 223.733 119.456C224.085 119.888 224.261 120.488 224.261 121.256C224.261 122.504 223.805 123.48 222.893 124.184C221.981 124.888 220.757 125.24 219.221 125.24ZM233.914 124.352C233.642 124.464 233.314 124.592 232.93 124.736C232.546 124.88 232.13 124.992 231.682 125.072C231.25 125.168 230.81 125.216 230.362 125.216C229.77 125.216 229.226 125.112 228.73 124.904C228.234 124.696 227.834 124.368 227.53 123.92C227.242 123.456 227.098 122.856 227.098 122.12V114.896H225.442V112.424H227.098V108.344H230.314V112.424H232.954V114.896H230.314V121.04C230.33 121.472 230.45 121.784 230.674 121.976C230.898 122.168 231.178 122.264 231.514 122.264C231.85 122.264 232.178 122.208 232.498 122.096C232.818 121.984 233.074 121.888 233.266 121.808L233.914 124.352ZM245.987 125.24C244.915 125.24 243.891 125.064 242.915 124.712C241.939 124.36 241.099 123.84 240.395 123.152L241.547 121.064C242.299 121.672 243.035 122.12 243.755 122.408C244.491 122.696 245.195 122.84 245.867 122.84C246.491 122.84 246.987 122.728 247.355 122.504C247.739 122.28 247.931 121.944 247.931 121.496C247.931 121.192 247.827 120.96 247.619 120.8C247.411 120.624 247.107 120.472 246.707 120.344C246.323 120.216 245.851 120.072 245.291 119.912C244.363 119.608 243.587 119.312 242.963 119.024C242.339 118.736 241.867 118.376 241.547 117.944C241.243 117.496 241.091 116.928 241.091 116.24C241.091 115.408 241.299 114.696 241.715 114.104C242.147 113.496 242.739 113.024 243.491 112.688C244.259 112.352 245.155 112.184 246.179 112.184C247.075 112.184 247.923 112.328 248.723 112.616C249.523 112.888 250.251 113.336 250.907 113.96L249.611 116C248.971 115.504 248.363 115.144 247.787 114.92C247.211 114.68 246.627 114.56 246.035 114.56C245.699 114.56 245.379 114.6 245.075 114.68C244.787 114.76 244.547 114.896 244.355 115.088C244.179 115.264 244.091 115.52 244.091 115.856C244.091 116.16 244.171 116.4 244.331 116.576C244.507 116.736 244.763 116.88 245.099 117.008C245.451 117.136 245.875 117.28 246.371 117.44C247.379 117.728 248.227 118.024 248.915 118.328C249.619 118.632 250.147 119.008 250.499 119.456C250.851 119.888 251.027 120.488 251.027 121.256C251.027 122.504 250.571 123.48 249.659 124.184C248.747 124.888 247.523 125.24 245.987 125.24ZM259.046 125.24C258.038 125.24 257.126 125.072 256.31 124.736C255.494 124.384 254.798 123.912 254.222 123.32C253.646 122.712 253.198 122.024 252.878 121.256C252.574 120.472 252.422 119.648 252.422 118.784C252.422 117.584 252.686 116.488 253.214 115.496C253.758 114.504 254.526 113.712 255.518 113.12C256.526 112.512 257.71 112.208 259.07 112.208C260.446 112.208 261.622 112.512 262.598 113.12C263.574 113.712 264.318 114.504 264.83 115.496C265.358 116.472 265.622 117.528 265.622 118.664C265.622 118.856 265.614 119.056 265.598 119.264C265.582 119.456 265.566 119.616 265.55 119.744H255.83C255.894 120.384 256.078 120.944 256.382 121.424C256.702 121.904 257.102 122.272 257.582 122.528C258.078 122.768 258.606 122.888 259.166 122.888C259.806 122.888 260.406 122.736 260.966 122.432C261.542 122.112 261.934 121.696 262.142 121.184L264.902 121.952C264.598 122.592 264.158 123.16 263.582 123.656C263.022 124.152 262.358 124.544 261.59 124.832C260.822 125.104 259.974 125.24 259.046 125.24ZM255.758 117.704H262.334C262.27 117.064 262.086 116.512 261.782 116.048C261.494 115.568 261.11 115.2 260.63 114.944C260.15 114.672 259.614 114.536 259.022 114.536C258.446 114.536 257.918 114.672 257.438 114.944C256.974 115.2 256.59 115.568 256.286 116.048C255.998 116.512 255.822 117.064 255.758 117.704ZM267.557 107.48H270.773V120.968C270.773 121.544 270.869 121.936 271.061 122.144C271.253 122.336 271.517 122.432 271.853 122.432C272.109 122.432 272.373 122.4 272.645 122.336C272.917 122.272 273.157 122.192 273.365 122.096L273.797 124.544C273.365 124.752 272.861 124.912 272.285 125.024C271.709 125.136 271.189 125.192 270.725 125.192C269.717 125.192 268.933 124.928 268.373 124.4C267.829 123.856 267.557 123.088 267.557 122.096V107.48ZM275.873 125V115.544H274.217V113.096H275.873V112.328C275.873 111.288 276.041 110.392 276.377 109.64C276.729 108.872 277.217 108.28 277.841 107.864C278.481 107.448 279.225 107.24 280.073 107.24C280.585 107.24 281.097 107.304 281.609 107.432C282.137 107.56 282.657 107.744 283.169 107.984L282.521 110.408C282.281 110.28 282.001 110.176 281.681 110.096C281.361 110 281.057 109.952 280.769 109.952C280.225 109.952 279.809 110.144 279.521 110.528C279.233 110.912 279.089 111.472 279.089 112.208V113.096H282.161V115.544H279.089V125H275.873Z" fill="black"/>
<path d="M3.6865 190.24C3.6865 189.557 3.80383 188.88 4.0385 188.208C4.28383 187.525 4.63583 186.917 5.0945 186.384C5.56383 185.84 6.1345 185.403 6.8065 185.072C7.4785 184.741 8.24117 184.576 9.0945 184.576C10.1078 184.576 10.9772 184.805 11.7025 185.264C12.4278 185.723 12.9665 186.32 13.3185 187.056L12.1825 187.792C12.0118 187.429 11.8038 187.125 11.5585 186.88C11.3238 186.635 11.0625 186.437 10.7745 186.288C10.4972 186.139 10.2092 186.032 9.9105 185.968C9.61183 185.904 9.3185 185.872 9.0305 185.872C8.40117 185.872 7.84117 186.005 7.3505 186.272C6.8705 186.528 6.46517 186.869 6.1345 187.296C5.80383 187.712 5.55317 188.187 5.3825 188.72C5.2225 189.243 5.1425 189.771 5.1425 190.304C5.1425 190.901 5.2385 191.472 5.4305 192.016C5.63317 192.549 5.9105 193.024 6.2625 193.44C6.6145 193.856 7.0305 194.187 7.5105 194.432C7.9905 194.677 8.51317 194.8 9.0785 194.8C9.37717 194.8 9.68117 194.763 9.9905 194.688C10.3105 194.613 10.6145 194.496 10.9025 194.336C11.1905 194.165 11.4572 193.957 11.7025 193.712C11.9585 193.456 12.1665 193.152 12.3265 192.8L13.5265 193.456C13.3452 193.883 13.0892 194.261 12.7585 194.592C12.4385 194.912 12.0705 195.184 11.6545 195.408C11.2492 195.632 10.8172 195.803 10.3585 195.92C9.89983 196.037 9.45183 196.096 9.0145 196.096C8.23583 196.096 7.52117 195.925 6.8705 195.584C6.21983 195.243 5.6545 194.8 5.1745 194.256C4.70517 193.701 4.33717 193.077 4.0705 192.384C3.8145 191.68 3.6865 190.965 3.6865 190.24ZM18.7528 196.16C18.1234 196.16 17.5474 196.043 17.0248 195.808C16.5128 195.573 16.0701 195.259 15.6968 194.864C15.3341 194.469 15.0514 194.011 14.8488 193.488C14.6461 192.965 14.5448 192.416 14.5448 191.84C14.5448 191.253 14.6461 190.699 14.8488 190.176C15.0621 189.653 15.3501 189.195 15.7128 188.8C16.0861 188.405 16.5288 188.091 17.0408 187.856C17.5634 187.621 18.1341 187.504 18.7528 187.504C19.3714 187.504 19.9421 187.621 20.4648 187.856C20.9874 188.091 21.4301 188.405 21.7928 188.8C22.1661 189.195 22.4541 189.653 22.6568 190.176C22.8701 190.699 22.9768 191.253 22.9768 191.84C22.9768 192.416 22.8754 192.965 22.6728 193.488C22.4701 194.011 22.1821 194.469 21.8088 194.864C21.4354 195.259 20.9874 195.573 20.4648 195.808C19.9528 196.043 19.3821 196.16 18.7528 196.16ZM15.9848 191.856C15.9848 192.293 16.0541 192.699 16.1928 193.072C16.3421 193.445 16.5394 193.771 16.7848 194.048C17.0408 194.325 17.3341 194.544 17.6648 194.704C18.0061 194.864 18.3688 194.944 18.7528 194.944C19.1368 194.944 19.4941 194.864 19.8248 194.704C20.1661 194.544 20.4648 194.325 20.7208 194.048C20.9768 193.76 21.1741 193.429 21.3128 193.056C21.4621 192.672 21.5368 192.261 21.5368 191.824C21.5368 191.397 21.4621 190.997 21.3128 190.624C21.1741 190.24 20.9768 189.909 20.7208 189.632C20.4648 189.344 20.1661 189.12 19.8248 188.96C19.4941 188.8 19.1368 188.72 18.7528 188.72C18.3688 188.72 18.0061 188.805 17.6648 188.976C17.3341 189.136 17.0408 189.36 16.7848 189.648C16.5394 189.925 16.3421 190.256 16.1928 190.64C16.0541 191.013 15.9848 191.419 15.9848 191.856ZM31.9309 196H30.5229V191.328C30.5229 190.432 30.3842 189.781 30.1069 189.376C29.8402 188.971 29.4295 188.768 28.8749 188.768C28.5869 188.768 28.2989 188.827 28.0109 188.944C27.7229 189.051 27.4509 189.2 27.1949 189.392C26.9389 189.584 26.7149 189.813 26.5229 190.08C26.3309 190.347 26.1869 190.64 26.0909 190.96V196H24.6829V187.648H25.9629V189.44C26.2935 188.853 26.7682 188.384 27.3869 188.032C28.0162 187.68 28.6989 187.504 29.4349 187.504C29.9149 187.504 30.3149 187.595 30.6349 187.776C30.9549 187.947 31.2109 188.192 31.4029 188.512C31.5949 188.821 31.7282 189.189 31.8029 189.616C31.8882 190.043 31.9309 190.507 31.9309 191.008V196ZM41.3684 196H39.9604V191.328C39.9604 190.432 39.8217 189.781 39.5444 189.376C39.2777 188.971 38.867 188.768 38.3124 188.768C38.0244 188.768 37.7364 188.827 37.4484 188.944C37.1604 189.051 36.8884 189.2 36.6324 189.392C36.3764 189.584 36.1524 189.813 35.9604 190.08C35.7684 190.347 35.6244 190.64 35.5284 190.96V196H34.1204V187.648H35.4004V189.44C35.731 188.853 36.2057 188.384 36.8244 188.032C37.4537 187.68 38.1364 187.504 38.8724 187.504C39.3524 187.504 39.7524 187.595 40.0724 187.776C40.3924 187.947 40.6484 188.192 40.8404 188.512C41.0324 188.821 41.1657 189.189 41.2404 189.616C41.3257 190.043 41.3684 190.507 41.3684 191.008V196ZM47.2539 196.16C46.6245 196.16 46.0485 196.048 45.5259 195.824C45.0032 195.589 44.5552 195.275 44.1819 194.88C43.8085 194.485 43.5152 194.027 43.3019 193.504C43.0992 192.971 42.9979 192.411 42.9979 191.824C42.9979 191.237 43.0992 190.683 43.3019 190.16C43.5152 189.637 43.8085 189.179 44.1819 188.784C44.5659 188.389 45.0192 188.08 45.5419 187.856C46.0645 187.621 46.6405 187.504 47.2699 187.504C47.8992 187.504 48.4699 187.621 48.9819 187.856C49.5045 188.091 49.9472 188.405 50.3099 188.8C50.6725 189.184 50.9499 189.637 51.1419 190.16C51.3445 190.672 51.4459 191.205 51.4459 191.76C51.4459 191.877 51.4405 191.984 51.4299 192.08C51.4299 192.176 51.4245 192.251 51.4139 192.304H44.4859C44.5179 192.72 44.6139 193.099 44.7739 193.44C44.9339 193.781 45.1419 194.075 45.3979 194.32C45.6539 194.565 45.9419 194.757 46.2619 194.896C46.5925 195.035 46.9392 195.104 47.3019 195.104C47.5579 195.104 47.8085 195.072 48.0539 195.008C48.2992 194.933 48.5285 194.837 48.7419 194.72C48.9552 194.603 49.1419 194.459 49.3019 194.288C49.4725 194.117 49.6005 193.925 49.6859 193.712L50.9019 194.048C50.7632 194.357 50.5712 194.64 50.3259 194.896C50.0912 195.152 49.8139 195.376 49.4939 195.568C49.1845 195.749 48.8379 195.893 48.4539 196C48.0699 196.107 47.6699 196.16 47.2539 196.16ZM50.1179 191.264C50.0859 190.869 49.9845 190.507 49.8139 190.176C49.6539 189.835 49.4459 189.547 49.1899 189.312C48.9445 189.077 48.6565 188.896 48.3259 188.768C47.9952 188.629 47.6432 188.56 47.2699 188.56C46.8965 188.56 46.5445 188.629 46.2139 188.768C45.8832 188.896 45.5899 189.083 45.3339 189.328C45.0885 189.563 44.8859 189.845 44.7259 190.176C44.5765 190.507 44.4859 190.869 44.4539 191.264H50.1179ZM52.451 191.808C52.451 191.221 52.5523 190.667 52.755 190.144C52.9577 189.621 53.2457 189.168 53.619 188.784C53.9923 188.389 54.435 188.08 54.947 187.856C55.4697 187.621 56.051 187.504 56.691 187.504C57.523 187.504 58.2377 187.691 58.835 188.064C59.443 188.427 59.9017 188.917 60.211 189.536L58.835 189.968C58.6217 189.573 58.323 189.269 57.939 189.056C57.555 188.832 57.1283 188.72 56.659 188.72C56.275 188.72 55.9123 188.8 55.571 188.96C55.2297 189.109 54.9363 189.323 54.691 189.6C54.4457 189.877 54.2483 190.203 54.099 190.576C53.9603 190.949 53.891 191.36 53.891 191.808C53.891 192.245 53.9657 192.656 54.115 193.04C54.2643 193.424 54.4617 193.76 54.707 194.048C54.963 194.325 55.2563 194.544 55.587 194.704C55.9283 194.864 56.291 194.944 56.675 194.944C56.9203 194.944 57.1603 194.912 57.395 194.848C57.6403 194.773 57.859 194.677 58.051 194.56C58.2537 194.443 58.4297 194.309 58.579 194.16C58.7283 194 58.835 193.829 58.899 193.648L60.275 194.064C60.147 194.373 59.9657 194.656 59.731 194.912C59.507 195.168 59.2403 195.387 58.931 195.568C58.6217 195.749 58.275 195.893 57.891 196C57.5177 196.107 57.123 196.16 56.707 196.16C56.0777 196.16 55.5017 196.043 54.979 195.808C54.4563 195.573 54.0083 195.259 53.635 194.864C53.2617 194.469 52.9683 194.011 52.755 193.488C52.5523 192.955 52.451 192.395 52.451 191.808ZM66.1904 195.584C66.105 195.627 65.993 195.68 65.8544 195.744C65.7157 195.797 65.5557 195.856 65.3744 195.92C65.2037 195.973 65.0117 196.016 64.7984 196.048C64.5957 196.091 64.3824 196.112 64.1584 196.112C63.6464 196.112 63.2037 195.973 62.8304 195.696C62.457 195.408 62.2704 194.965 62.2704 194.368V188.752H61.1344V187.648H62.2704V184.864H63.6784V187.648H65.5504V188.752H63.6784V193.936C63.6997 194.245 63.801 194.469 63.9824 194.608C64.1637 194.747 64.377 194.816 64.6224 194.816C64.8997 194.816 65.1504 194.773 65.3744 194.688C65.609 194.592 65.769 194.517 65.8544 194.464L66.1904 195.584ZM75.3638 184.704H76.7238L78.2278 188.656L79.7478 184.704H81.1078L79.1398 189.648L81.0918 194.336L84.9318 184.64H86.4998L81.7478 196H80.4998L78.2438 190.64L75.9718 196H74.7238L69.9878 184.64H71.5398L75.3958 194.336L77.3318 189.648L75.3638 184.704ZM87.761 196V187.648H89.169V196H87.761ZM87.761 186.08V184.32H89.169V186.08H87.761ZM95.7685 195.584C95.6832 195.627 95.5712 195.68 95.4325 195.744C95.2938 195.797 95.1338 195.856 94.9525 195.92C94.7818 195.973 94.5898 196.016 94.3765 196.048C94.1738 196.091 93.9605 196.112 93.7365 196.112C93.2245 196.112 92.7818 195.973 92.4085 195.696C92.0352 195.408 91.8485 194.965 91.8485 194.368V188.752H90.7125V187.648H91.8485V184.864H93.2565V187.648H95.1285V188.752H93.2565V193.936C93.2778 194.245 93.3792 194.469 93.5605 194.608C93.7418 194.747 93.9552 194.816 94.2005 194.816C94.4778 194.816 94.7285 194.773 94.9525 194.688C95.1872 194.592 95.3472 194.517 95.4325 194.464L95.7685 195.584ZM104.322 196H102.914V191.328C102.914 190.464 102.764 189.824 102.466 189.408C102.167 188.981 101.73 188.768 101.154 188.768C100.876 188.768 100.599 188.827 100.322 188.944C100.044 189.051 99.7828 189.2 99.5375 189.392C99.3028 189.584 99.0895 189.813 98.8975 190.08C98.7162 190.347 98.5775 190.64 98.4815 190.96V196H97.0735V184.32H98.4815V189.44C98.8122 188.832 99.2602 188.357 99.8255 188.016C100.391 187.675 101.01 187.504 101.682 187.504C102.172 187.504 102.588 187.595 102.93 187.776C103.271 187.957 103.543 188.203 103.746 188.512C103.948 188.821 104.092 189.195 104.178 189.632C104.274 190.059 104.322 190.517 104.322 191.008V196ZM110.782 196V184.64H115.646C116.147 184.64 116.606 184.747 117.022 184.96C117.449 185.163 117.811 185.44 118.11 185.792C118.419 186.133 118.659 186.523 118.83 186.96C119.001 187.387 119.086 187.824 119.086 188.272C119.086 188.667 119.027 189.051 118.91 189.424C118.803 189.787 118.643 190.117 118.43 190.416C118.227 190.715 117.977 190.971 117.678 191.184C117.39 191.397 117.065 191.552 116.702 191.648L119.454 196H117.822L115.23 191.92H112.222V196H110.782ZM112.222 190.64H115.662C115.961 190.64 116.227 190.576 116.462 190.448C116.707 190.32 116.915 190.149 117.086 189.936C117.257 189.712 117.39 189.456 117.486 189.168C117.582 188.88 117.63 188.581 117.63 188.272C117.63 187.952 117.571 187.653 117.454 187.376C117.347 187.088 117.198 186.837 117.006 186.624C116.825 186.4 116.606 186.229 116.35 186.112C116.105 185.984 115.843 185.92 115.566 185.92H112.222V190.64ZM124.504 196.16C123.875 196.16 123.299 196.048 122.776 195.824C122.253 195.589 121.805 195.275 121.432 194.88C121.059 194.485 120.765 194.027 120.552 193.504C120.349 192.971 120.248 192.411 120.248 191.824C120.248 191.237 120.349 190.683 120.552 190.16C120.765 189.637 121.059 189.179 121.432 188.784C121.816 188.389 122.269 188.08 122.792 187.856C123.315 187.621 123.891 187.504 124.52 187.504C125.149 187.504 125.72 187.621 126.232 187.856C126.755 188.091 127.197 188.405 127.56 188.8C127.923 189.184 128.2 189.637 128.392 190.16C128.595 190.672 128.696 191.205 128.696 191.76C128.696 191.877 128.691 191.984 128.68 192.08C128.68 192.176 128.675 192.251 128.664 192.304H121.736C121.768 192.72 121.864 193.099 122.024 193.44C122.184 193.781 122.392 194.075 122.648 194.32C122.904 194.565 123.192 194.757 123.512 194.896C123.843 195.035 124.189 195.104 124.552 195.104C124.808 195.104 125.059 195.072 125.304 195.008C125.549 194.933 125.779 194.837 125.992 194.72C126.205 194.603 126.392 194.459 126.552 194.288C126.723 194.117 126.851 193.925 126.936 193.712L128.152 194.048C128.013 194.357 127.821 194.64 127.576 194.896C127.341 195.152 127.064 195.376 126.744 195.568C126.435 195.749 126.088 195.893 125.704 196C125.32 196.107 124.92 196.16 124.504 196.16ZM127.368 191.264C127.336 190.869 127.235 190.507 127.064 190.176C126.904 189.835 126.696 189.547 126.44 189.312C126.195 189.077 125.907 188.896 125.576 188.768C125.245 188.629 124.893 188.56 124.52 188.56C124.147 188.56 123.795 188.629 123.464 188.768C123.133 188.896 122.84 189.083 122.584 189.328C122.339 189.563 122.136 189.845 121.976 190.176C121.827 190.507 121.736 190.869 121.704 191.264H127.368ZM132.405 196.16C132.01 196.16 131.642 196.096 131.301 195.968C130.96 195.829 130.661 195.643 130.405 195.408C130.16 195.173 129.962 194.901 129.813 194.592C129.674 194.272 129.605 193.925 129.605 193.552C129.605 193.168 129.69 192.821 129.861 192.512C130.032 192.192 130.272 191.92 130.581 191.696C130.901 191.472 131.274 191.296 131.701 191.168C132.138 191.04 132.613 190.976 133.125 190.976C133.53 190.976 133.941 191.013 134.357 191.088C134.773 191.163 135.141 191.264 135.461 191.392V190.72C135.461 190.037 135.269 189.504 134.885 189.12C134.501 188.725 133.957 188.528 133.253 188.528C132.41 188.528 131.525 188.853 130.597 189.504L130.133 188.592C131.21 187.867 132.293 187.504 133.381 187.504C134.48 187.504 135.333 187.797 135.941 188.384C136.56 188.971 136.869 189.797 136.869 190.864V194.272C136.869 194.603 137.018 194.773 137.317 194.784V196C137.168 196.021 137.045 196.037 136.949 196.048C136.853 196.059 136.752 196.064 136.645 196.064C136.368 196.064 136.144 195.984 135.973 195.824C135.813 195.653 135.717 195.451 135.685 195.216L135.653 194.624C135.28 195.125 134.805 195.509 134.229 195.776C133.664 196.032 133.056 196.16 132.405 196.16ZM132.773 195.104C133.274 195.104 133.738 195.013 134.165 194.832C134.602 194.64 134.933 194.389 135.157 194.08C135.36 193.877 135.461 193.669 135.461 193.456V192.224C134.778 191.957 134.069 191.824 133.333 191.824C132.629 191.824 132.053 191.973 131.605 192.272C131.168 192.571 130.949 192.96 130.949 193.44C130.949 193.675 130.992 193.893 131.077 194.096C131.173 194.299 131.301 194.475 131.461 194.624C131.632 194.773 131.829 194.891 132.053 194.976C132.277 195.061 132.517 195.104 132.773 195.104ZM142.56 196.16C141.984 196.16 141.451 196.043 140.96 195.808C140.47 195.573 140.048 195.259 139.696 194.864C139.344 194.469 139.067 194.011 138.864 193.488C138.672 192.965 138.576 192.416 138.576 191.84C138.576 191.253 138.667 190.699 138.848 190.176C139.04 189.643 139.302 189.179 139.632 188.784C139.974 188.389 140.374 188.08 140.832 187.856C141.302 187.621 141.814 187.504 142.368 187.504C143.04 187.504 143.638 187.68 144.16 188.032C144.694 188.384 145.115 188.811 145.424 189.312V184.32H146.832V194.272C146.832 194.603 146.982 194.773 147.28 194.784V196C147.131 196.021 147.008 196.037 146.912 196.048C146.827 196.059 146.742 196.064 146.656 196.064C146.379 196.064 146.134 195.973 145.92 195.792C145.718 195.6 145.616 195.381 145.616 195.136V194.432C145.286 194.976 144.843 195.403 144.288 195.712C143.744 196.011 143.168 196.16 142.56 196.16ZM142.896 194.944C143.152 194.944 143.414 194.896 143.68 194.8C143.958 194.704 144.214 194.571 144.448 194.4C144.694 194.229 144.902 194.032 145.072 193.808C145.254 193.573 145.371 193.328 145.424 193.072V190.672C145.328 190.405 145.184 190.155 144.992 189.92C144.8 189.675 144.582 189.467 144.336 189.296C144.102 189.115 143.846 188.976 143.568 188.88C143.302 188.773 143.035 188.72 142.768 188.72C142.352 188.72 141.974 188.811 141.632 188.992C141.302 189.163 141.014 189.397 140.768 189.696C140.534 189.984 140.352 190.32 140.224 190.704C140.096 191.077 140.032 191.461 140.032 191.856C140.032 192.272 140.107 192.672 140.256 193.056C140.406 193.429 140.608 193.755 140.864 194.032C141.12 194.309 141.419 194.533 141.76 194.704C142.112 194.864 142.491 194.944 142.896 194.944ZM152.879 196.16C152.25 196.16 151.674 196.048 151.151 195.824C150.628 195.589 150.18 195.275 149.807 194.88C149.434 194.485 149.14 194.027 148.927 193.504C148.724 192.971 148.623 192.411 148.623 191.824C148.623 191.237 148.724 190.683 148.927 190.16C149.14 189.637 149.434 189.179 149.807 188.784C150.191 188.389 150.644 188.08 151.167 187.856C151.69 187.621 152.266 187.504 152.895 187.504C153.524 187.504 154.095 187.621 154.607 187.856C155.13 188.091 155.572 188.405 155.935 188.8C156.298 189.184 156.575 189.637 156.767 190.16C156.97 190.672 157.071 191.205 157.071 191.76C157.071 191.877 157.066 191.984 157.055 192.08C157.055 192.176 157.05 192.251 157.039 192.304H150.111C150.143 192.72 150.239 193.099 150.399 193.44C150.559 193.781 150.767 194.075 151.023 194.32C151.279 194.565 151.567 194.757 151.887 194.896C152.218 195.035 152.564 195.104 152.927 195.104C153.183 195.104 153.434 195.072 153.679 195.008C153.924 194.933 154.154 194.837 154.367 194.72C154.58 194.603 154.767 194.459 154.927 194.288C155.098 194.117 155.226 193.925 155.311 193.712L156.527 194.048C156.388 194.357 156.196 194.64 155.951 194.896C155.716 195.152 155.439 195.376 155.119 195.568C154.81 195.749 154.463 195.893 154.079 196C153.695 196.107 153.295 196.16 152.879 196.16ZM155.743 191.264C155.711 190.869 155.61 190.507 155.439 190.176C155.279 189.835 155.071 189.547 154.815 189.312C154.57 189.077 154.282 188.896 153.951 188.768C153.62 188.629 153.268 188.56 152.895 188.56C152.522 188.56 152.17 188.629 151.839 188.768C151.508 188.896 151.215 189.083 150.959 189.328C150.714 189.563 150.511 189.845 150.351 190.176C150.202 190.507 150.111 190.869 150.079 191.264H155.743ZM163.052 188.88C162.348 188.901 161.724 189.083 161.18 189.424C160.647 189.765 160.268 190.24 160.044 190.848V196H158.636V187.648H159.948V189.584C160.236 189.008 160.615 188.544 161.084 188.192C161.553 187.829 162.055 187.627 162.588 187.584C162.695 187.584 162.785 187.584 162.86 187.584C162.935 187.584 162.999 187.589 163.052 187.6V188.88ZM167.377 196.16C166.705 196.16 166.043 196.059 165.393 195.856C164.742 195.643 164.182 195.339 163.713 194.944L164.321 194C164.811 194.373 165.302 194.656 165.793 194.848C166.283 195.029 166.801 195.12 167.345 195.12C167.953 195.12 168.433 195.003 168.785 194.768C169.147 194.523 169.329 194.181 169.329 193.744C169.329 193.541 169.281 193.371 169.185 193.232C169.089 193.083 168.945 192.955 168.753 192.848C168.561 192.741 168.315 192.645 168.016 192.56C167.718 192.475 167.371 192.384 166.977 192.288C166.475 192.16 166.043 192.037 165.681 191.92C165.318 191.803 165.019 191.664 164.785 191.504C164.55 191.344 164.379 191.152 164.273 190.928C164.166 190.704 164.113 190.427 164.113 190.096C164.113 189.68 164.193 189.312 164.353 188.992C164.523 188.661 164.753 188.389 165.041 188.176C165.329 187.952 165.665 187.787 166.049 187.68C166.443 187.563 166.865 187.504 167.312 187.504C167.942 187.504 168.529 187.605 169.073 187.808C169.617 188.011 170.075 188.277 170.449 188.608L169.809 189.456C169.457 189.147 169.062 188.917 168.625 188.768C168.187 188.608 167.739 188.528 167.281 188.528C166.769 188.528 166.331 188.64 165.969 188.864C165.617 189.077 165.441 189.424 165.441 189.904C165.441 190.096 165.473 190.256 165.537 190.384C165.611 190.512 165.729 190.624 165.889 190.72C166.049 190.816 166.251 190.901 166.497 190.976C166.753 191.051 167.057 191.131 167.409 191.216C167.963 191.344 168.443 191.477 168.849 191.616C169.265 191.744 169.606 191.899 169.873 192.08C170.15 192.261 170.353 192.475 170.481 192.72C170.619 192.965 170.689 193.264 170.689 193.616C170.689 194.395 170.39 195.013 169.793 195.472C169.195 195.931 168.39 196.16 167.377 196.16ZM178.546 196.16C178.151 196.16 177.783 196.096 177.442 195.968C177.1 195.829 176.802 195.643 176.546 195.408C176.3 195.173 176.103 194.901 175.954 194.592C175.815 194.272 175.746 193.925 175.746 193.552C175.746 193.168 175.831 192.821 176.002 192.512C176.172 192.192 176.412 191.92 176.722 191.696C177.042 191.472 177.415 191.296 177.842 191.168C178.279 191.04 178.754 190.976 179.266 190.976C179.671 190.976 180.082 191.013 180.498 191.088C180.914 191.163 181.282 191.264 181.602 191.392V190.72C181.602 190.037 181.41 189.504 181.026 189.12C180.642 188.725 180.098 188.528 179.394 188.528C178.551 188.528 177.666 188.853 176.738 189.504L176.274 188.592C177.351 187.867 178.434 187.504 179.522 187.504C180.62 187.504 181.474 187.797 182.082 188.384C182.7 188.971 183.01 189.797 183.01 190.864V194.272C183.01 194.603 183.159 194.773 183.458 194.784V196C183.308 196.021 183.186 196.037 183.09 196.048C182.994 196.059 182.892 196.064 182.786 196.064C182.508 196.064 182.284 195.984 182.114 195.824C181.954 195.653 181.858 195.451 181.826 195.216L181.794 194.624C181.42 195.125 180.946 195.509 180.37 195.776C179.804 196.032 179.196 196.16 178.546 196.16ZM178.914 195.104C179.415 195.104 179.879 195.013 180.306 194.832C180.743 194.64 181.074 194.389 181.298 194.08C181.5 193.877 181.602 193.669 181.602 193.456V192.224C180.919 191.957 180.21 191.824 179.474 191.824C178.77 191.824 178.194 191.973 177.746 192.272C177.308 192.571 177.09 192.96 177.09 193.44C177.09 193.675 177.132 193.893 177.218 194.096C177.314 194.299 177.442 194.475 177.602 194.624C177.772 194.773 177.97 194.891 178.194 194.976C178.418 195.061 178.658 195.104 178.914 195.104ZM192.509 196H191.101V191.328C191.101 190.432 190.962 189.781 190.685 189.376C190.418 188.971 190.008 188.768 189.453 188.768C189.165 188.768 188.877 188.827 188.589 188.944C188.301 189.051 188.029 189.2 187.773 189.392C187.517 189.584 187.293 189.813 187.101 190.08C186.909 190.347 186.765 190.64 186.669 190.96V196H185.261V187.648H186.541V189.44C186.872 188.853 187.346 188.384 187.965 188.032C188.594 187.68 189.277 187.504 190.013 187.504C190.493 187.504 190.893 187.595 191.213 187.776C191.533 187.947 191.789 188.192 191.981 188.512C192.173 188.821 192.306 189.189 192.381 189.616C192.466 190.043 192.509 190.507 192.509 191.008V196ZM198.139 196.16C197.563 196.16 197.029 196.043 196.539 195.808C196.048 195.573 195.627 195.259 195.275 194.864C194.923 194.469 194.645 194.011 194.443 193.488C194.251 192.965 194.155 192.416 194.155 191.84C194.155 191.253 194.245 190.699 194.427 190.176C194.619 189.643 194.88 189.179 195.211 188.784C195.552 188.389 195.952 188.08 196.411 187.856C196.88 187.621 197.392 187.504 197.947 187.504C198.619 187.504 199.216 187.68 199.739 188.032C200.272 188.384 200.693 188.811 201.003 189.312V184.32H202.411V194.272C202.411 194.603 202.56 194.773 202.859 194.784V196C202.709 196.021 202.587 196.037 202.491 196.048C202.405 196.059 202.32 196.064 202.235 196.064C201.957 196.064 201.712 195.973 201.499 195.792C201.296 195.6 201.195 195.381 201.195 195.136V194.432C200.864 194.976 200.421 195.403 199.867 195.712C199.323 196.011 198.747 196.16 198.139 196.16ZM198.475 194.944C198.731 194.944 198.992 194.896 199.259 194.8C199.536 194.704 199.792 194.571 200.027 194.4C200.272 194.229 200.48 194.032 200.651 193.808C200.832 193.573 200.949 193.328 201.003 193.072V190.672C200.907 190.405 200.763 190.155 200.571 189.92C200.379 189.675 200.16 189.467 199.915 189.296C199.68 189.115 199.424 188.976 199.147 188.88C198.88 188.773 198.613 188.72 198.347 188.72C197.931 188.72 197.552 188.811 197.211 188.992C196.88 189.163 196.592 189.397 196.347 189.696C196.112 189.984 195.931 190.32 195.803 190.704C195.675 191.077 195.611 191.461 195.611 191.856C195.611 192.272 195.685 192.672 195.835 193.056C195.984 193.429 196.187 193.755 196.443 194.032C196.699 194.309 196.997 194.533 197.339 194.704C197.691 194.864 198.069 194.944 198.475 194.944ZM209.032 196V184.64H216.536V185.92H210.472V189.712H215.576V190.912H210.472V196H209.032ZM218.136 196V187.648H219.544V196H218.136ZM218.136 186.08V184.32H219.544V186.08H218.136ZM221.856 184.32H223.264V193.84C223.264 194.149 223.344 194.395 223.504 194.576C223.674 194.747 223.909 194.832 224.208 194.832C224.325 194.832 224.464 194.816 224.624 194.784C224.784 194.741 224.933 194.693 225.072 194.64L225.296 195.776C225.061 195.872 224.784 195.952 224.464 196.016C224.144 196.08 223.861 196.112 223.616 196.112C223.072 196.112 222.64 195.957 222.32 195.648C222.01 195.339 221.856 194.907 221.856 194.352V184.32ZM238.994 196H237.586V191.328C237.586 190.453 237.442 189.808 237.154 189.392C236.876 188.976 236.46 188.768 235.906 188.768C235.33 188.768 234.812 188.976 234.354 189.392C233.906 189.797 233.586 190.325 233.394 190.976V196H231.986V191.328C231.986 190.432 231.847 189.781 231.57 189.376C231.292 188.971 230.876 188.768 230.322 188.768C229.756 188.768 229.244 188.971 228.786 189.376C228.327 189.771 228.002 190.299 227.81 190.96V196H226.402V187.648H227.682V189.44C228.023 188.821 228.466 188.347 229.01 188.016C229.554 187.675 230.167 187.504 230.85 187.504C231.554 187.504 232.108 187.696 232.514 188.08C232.93 188.453 233.186 188.939 233.282 189.536C234.028 188.181 235.09 187.504 236.466 187.504C236.946 187.504 237.346 187.595 237.666 187.776C237.996 187.947 238.258 188.192 238.45 188.512C238.642 188.821 238.78 189.189 238.866 189.616C238.951 190.043 238.994 190.507 238.994 191.008V196ZM245.308 184.64L248.748 190.56L252.22 184.64H253.788L249.468 191.856V196H248.028V191.824L243.724 184.64H245.308ZM257.331 196.16C256.702 196.16 256.126 196.043 255.603 195.808C255.091 195.573 254.648 195.259 254.275 194.864C253.912 194.469 253.63 194.011 253.427 193.488C253.224 192.965 253.123 192.416 253.123 191.84C253.123 191.253 253.224 190.699 253.427 190.176C253.64 189.653 253.928 189.195 254.291 188.8C254.664 188.405 255.107 188.091 255.619 187.856C256.142 187.621 256.712 187.504 257.331 187.504C257.95 187.504 258.52 187.621 259.043 187.856C259.566 188.091 260.008 188.405 260.371 188.8C260.744 189.195 261.032 189.653 261.235 190.176C261.448 190.699 261.555 191.253 261.555 191.84C261.555 192.416 261.454 192.965 261.251 193.488C261.048 194.011 260.76 194.469 260.387 194.864C260.014 195.259 259.566 195.573 259.043 195.808C258.531 196.043 257.96 196.16 257.331 196.16ZM254.563 191.856C254.563 192.293 254.632 192.699 254.771 193.072C254.92 193.445 255.118 193.771 255.363 194.048C255.619 194.325 255.912 194.544 256.243 194.704C256.584 194.864 256.947 194.944 257.331 194.944C257.715 194.944 258.072 194.864 258.403 194.704C258.744 194.544 259.043 194.325 259.299 194.048C259.555 193.76 259.752 193.429 259.891 193.056C260.04 192.672 260.115 192.261 260.115 191.824C260.115 191.397 260.04 190.997 259.891 190.624C259.752 190.24 259.555 189.909 259.299 189.632C259.043 189.344 258.744 189.12 258.403 188.96C258.072 188.8 257.715 188.72 257.331 188.72C256.947 188.72 256.584 188.805 256.243 188.976C255.912 189.136 255.619 189.36 255.363 189.648C255.118 189.925 254.92 190.256 254.771 190.64C254.632 191.013 254.563 191.419 254.563 191.856ZM265.837 196.16C264.962 196.16 264.301 195.867 263.853 195.28C263.405 194.693 263.181 193.819 263.181 192.656V187.648H264.589V192.384C264.589 194.091 265.181 194.944 266.365 194.944C266.941 194.944 267.48 194.763 267.981 194.4C268.493 194.027 268.872 193.52 269.117 192.88V187.648H270.525V194.272C270.525 194.603 270.674 194.773 270.973 194.784V196C270.813 196.021 270.685 196.032 270.589 196.032C270.504 196.043 270.418 196.048 270.333 196.048C270.056 196.048 269.821 195.968 269.629 195.808C269.448 195.637 269.352 195.429 269.341 195.184L269.309 194.208C268.936 194.837 268.445 195.323 267.837 195.664C267.229 195.995 266.562 196.16 265.837 196.16ZM277.286 188.88C276.582 188.901 275.958 189.083 275.414 189.424C274.881 189.765 274.502 190.24 274.278 190.848V196H272.87V187.648H274.182V189.584C274.47 189.008 274.849 188.544 275.318 188.192C275.788 187.829 276.289 187.627 276.822 187.584C276.929 187.584 277.02 187.584 277.094 187.584C277.169 187.584 277.233 187.589 277.286 187.6V188.88ZM291.299 193.072C291.299 193.509 291.208 193.909 291.027 194.272C290.856 194.635 290.616 194.944 290.307 195.2C290.008 195.456 289.656 195.653 289.251 195.792C288.856 195.931 288.429 196 287.971 196H282.579V184.64H288.227C288.621 184.64 288.979 184.725 289.299 184.896C289.619 185.067 289.891 185.291 290.115 185.568C290.339 185.835 290.509 186.144 290.627 186.496C290.755 186.837 290.819 187.184 290.819 187.536C290.819 188.101 290.675 188.624 290.387 189.104C290.109 189.584 289.709 189.941 289.187 190.176C289.837 190.368 290.349 190.725 290.723 191.248C291.107 191.76 291.299 192.368 291.299 193.072ZM289.843 192.816C289.843 192.56 289.795 192.315 289.699 192.08C289.613 191.835 289.491 191.621 289.331 191.44C289.181 191.259 289 191.115 288.787 191.008C288.573 190.901 288.339 190.848 288.083 190.848H284.019V194.752H287.971C288.237 194.752 288.483 194.699 288.707 194.592C288.931 194.485 289.128 194.347 289.299 194.176C289.469 193.995 289.603 193.787 289.699 193.552C289.795 193.317 289.843 193.072 289.843 192.816ZM284.019 185.888V189.68H287.635C287.891 189.68 288.125 189.632 288.339 189.536C288.552 189.429 288.733 189.291 288.883 189.12C289.043 188.949 289.165 188.752 289.251 188.528C289.347 188.293 289.395 188.048 289.395 187.792C289.395 187.525 289.352 187.275 289.267 187.04C289.181 186.805 289.064 186.603 288.915 186.432C288.776 186.261 288.6 186.128 288.387 186.032C288.184 185.936 287.965 185.888 287.731 185.888H284.019ZM296.785 196.16C296.156 196.16 295.58 196.048 295.057 195.824C294.534 195.589 294.086 195.275 293.713 194.88C293.34 194.485 293.046 194.027 292.833 193.504C292.63 192.971 292.529 192.411 292.529 191.824C292.529 191.237 292.63 190.683 292.833 190.16C293.046 189.637 293.34 189.179 293.713 188.784C294.097 188.389 294.55 188.08 295.073 187.856C295.596 187.621 296.172 187.504 296.801 187.504C297.43 187.504 298.001 187.621 298.513 187.856C299.036 188.091 299.478 188.405 299.841 188.8C300.204 189.184 300.481 189.637 300.673 190.16C300.876 190.672 300.977 191.205 300.977 191.76C300.977 191.877 300.972 191.984 300.961 192.08C300.961 192.176 300.956 192.251 300.945 192.304H294.017C294.049 192.72 294.145 193.099 294.305 193.44C294.465 193.781 294.673 194.075 294.929 194.32C295.185 194.565 295.473 194.757 295.793 194.896C296.124 195.035 296.47 195.104 296.833 195.104C297.089 195.104 297.34 195.072 297.585 195.008C297.83 194.933 298.06 194.837 298.273 194.72C298.486 194.603 298.673 194.459 298.833 194.288C299.004 194.117 299.132 193.925 299.217 193.712L300.433 194.048C300.294 194.357 300.102 194.64 299.857 194.896C299.622 195.152 299.345 195.376 299.025 195.568C298.716 195.749 298.369 195.893 297.985 196C297.601 196.107 297.201 196.16 296.785 196.16ZM299.649 191.264C299.617 190.869 299.516 190.507 299.345 190.176C299.185 189.835 298.977 189.547 298.721 189.312C298.476 189.077 298.188 188.896 297.857 188.768C297.526 188.629 297.174 188.56 296.801 188.56C296.428 188.56 296.076 188.629 295.745 188.768C295.414 188.896 295.121 189.083 294.865 189.328C294.62 189.563 294.417 189.845 294.257 190.176C294.108 190.507 294.017 190.869 293.985 191.264H299.649ZM305.47 196.16C304.798 196.16 304.137 196.059 303.486 195.856C302.836 195.643 302.276 195.339 301.806 194.944L302.414 194C302.905 194.373 303.396 194.656 303.886 194.848C304.377 195.029 304.894 195.12 305.438 195.12C306.046 195.12 306.526 195.003 306.878 194.768C307.241 194.523 307.422 194.181 307.422 193.744C307.422 193.541 307.374 193.371 307.278 193.232C307.182 193.083 307.038 192.955 306.846 192.848C306.654 192.741 306.409 192.645 306.11 192.56C305.812 192.475 305.465 192.384 305.07 192.288C304.569 192.16 304.137 192.037 303.774 191.92C303.412 191.803 303.113 191.664 302.878 191.504C302.644 191.344 302.473 191.152 302.366 190.928C302.26 190.704 302.206 190.427 302.206 190.096C302.206 189.68 302.286 189.312 302.446 188.992C302.617 188.661 302.846 188.389 303.134 188.176C303.422 187.952 303.758 187.787 304.142 187.68C304.537 187.563 304.958 187.504 305.406 187.504C306.036 187.504 306.622 187.605 307.166 187.808C307.71 188.011 308.169 188.277 308.542 188.608L307.902 189.456C307.55 189.147 307.156 188.917 306.718 188.768C306.281 188.608 305.833 188.528 305.374 188.528C304.862 188.528 304.425 188.64 304.062 188.864C303.71 189.077 303.534 189.424 303.534 189.904C303.534 190.096 303.566 190.256 303.63 190.384C303.705 190.512 303.822 190.624 303.982 190.72C304.142 190.816 304.345 190.901 304.59 190.976C304.846 191.051 305.15 191.131 305.502 191.216C306.057 191.344 306.537 191.477 306.942 191.616C307.358 191.744 307.7 191.899 307.966 192.08C308.244 192.261 308.446 192.475 308.574 192.72C308.713 192.965 308.782 193.264 308.782 193.616C308.782 194.395 308.484 195.013 307.886 195.472C307.289 195.931 306.484 196.16 305.47 196.16ZM314.769 195.584C314.683 195.627 314.571 195.68 314.433 195.744C314.294 195.797 314.134 195.856 313.953 195.92C313.782 195.973 313.59 196.016 313.377 196.048C313.174 196.091 312.961 196.112 312.737 196.112C312.225 196.112 311.782 195.973 311.409 195.696C311.035 195.408 310.849 194.965 310.849 194.368V188.752H309.713V187.648H310.849V184.864H312.257V187.648H314.129V188.752H312.257V193.936C312.278 194.245 312.379 194.469 312.561 194.608C312.742 194.747 312.955 194.816 313.201 194.816C313.478 194.816 313.729 194.773 313.953 194.688C314.187 194.592 314.347 194.517 314.433 194.464L314.769 195.584ZM132.555 206.024C132.427 205.875 132.257 205.731 132.043 205.592C131.83 205.453 131.59 205.331 131.323 205.224C131.057 205.107 130.763 205.016 130.443 204.952C130.134 204.877 129.809 204.84 129.467 204.84C128.582 204.84 127.931 205.005 127.515 205.336C127.11 205.667 126.907 206.12 126.907 206.696C126.907 207.005 126.966 207.261 127.083 207.464C127.201 207.667 127.382 207.843 127.627 207.992C127.883 208.131 128.198 208.253 128.571 208.36C128.945 208.467 129.387 208.579 129.899 208.696C130.486 208.824 131.014 208.973 131.483 209.144C131.963 209.304 132.369 209.507 132.699 209.752C133.041 209.997 133.297 210.296 133.467 210.648C133.649 211 133.739 211.432 133.739 211.944C133.739 212.488 133.633 212.963 133.419 213.368C133.206 213.763 132.913 214.093 132.539 214.36C132.177 214.616 131.745 214.808 131.243 214.936C130.742 215.053 130.198 215.112 129.611 215.112C128.737 215.112 127.905 214.979 127.115 214.712C126.337 214.435 125.627 214.035 124.987 213.512L125.675 212.296C125.846 212.477 126.065 212.659 126.331 212.84C126.609 213.021 126.918 213.187 127.259 213.336C127.611 213.475 127.985 213.592 128.379 213.688C128.785 213.773 129.206 213.816 129.643 213.816C130.454 213.816 131.083 213.672 131.531 213.384C131.979 213.096 132.203 212.664 132.203 212.088C132.203 211.768 132.129 211.501 131.979 211.288C131.841 211.064 131.633 210.872 131.355 210.712C131.078 210.552 130.731 210.413 130.315 210.296C129.91 210.168 129.446 210.04 128.923 209.912C128.347 209.773 127.841 209.624 127.403 209.464C126.966 209.304 126.598 209.112 126.299 208.888C126.011 208.664 125.793 208.392 125.643 208.072C125.494 207.752 125.419 207.368 125.419 206.92C125.419 206.376 125.521 205.896 125.723 205.48C125.926 205.064 126.209 204.712 126.571 204.424C126.934 204.136 127.366 203.923 127.867 203.784C128.369 203.635 128.913 203.56 129.499 203.56C130.267 203.56 130.961 203.677 131.579 203.912C132.198 204.147 132.747 204.461 133.227 204.856L132.555 206.024ZM139.105 215.16C138.476 215.16 137.9 215.048 137.377 214.824C136.855 214.589 136.407 214.275 136.033 213.88C135.66 213.485 135.367 213.027 135.153 212.504C134.951 211.971 134.849 211.411 134.849 210.824C134.849 210.237 134.951 209.683 135.153 209.16C135.367 208.637 135.66 208.179 136.033 207.784C136.417 207.389 136.871 207.08 137.393 206.856C137.916 206.621 138.492 206.504 139.121 206.504C139.751 206.504 140.321 206.621 140.833 206.856C141.356 207.091 141.799 207.405 142.161 207.8C142.524 208.184 142.801 208.637 142.993 209.16C143.196 209.672 143.297 210.205 143.297 210.76C143.297 210.877 143.292 210.984 143.281 211.08C143.281 211.176 143.276 211.251 143.265 211.304H136.337C136.369 211.72 136.465 212.099 136.625 212.44C136.785 212.781 136.993 213.075 137.249 213.32C137.505 213.565 137.793 213.757 138.113 213.896C138.444 214.035 138.791 214.104 139.153 214.104C139.409 214.104 139.66 214.072 139.905 214.008C140.151 213.933 140.38 213.837 140.593 213.72C140.807 213.603 140.993 213.459 141.153 213.288C141.324 213.117 141.452 212.925 141.537 212.712L142.753 213.048C142.615 213.357 142.423 213.64 142.177 213.896C141.943 214.152 141.665 214.376 141.345 214.568C141.036 214.749 140.689 214.893 140.305 215C139.921 215.107 139.521 215.16 139.105 215.16ZM141.969 210.264C141.937 209.869 141.836 209.507 141.665 209.176C141.505 208.835 141.297 208.547 141.041 208.312C140.796 208.077 140.508 207.896 140.177 207.768C139.847 207.629 139.495 207.56 139.121 207.56C138.748 207.56 138.396 207.629 138.065 207.768C137.735 207.896 137.441 208.083 137.185 208.328C136.94 208.563 136.737 208.845 136.577 209.176C136.428 209.507 136.337 209.869 136.305 210.264H141.969ZM144.895 203.32H146.303V212.84C146.303 213.149 146.383 213.395 146.543 213.576C146.713 213.747 146.948 213.832 147.247 213.832C147.364 213.832 147.503 213.816 147.663 213.784C147.823 213.741 147.972 213.693 148.111 213.64L148.335 214.776C148.1 214.872 147.823 214.952 147.503 215.016C147.183 215.08 146.9 215.112 146.655 215.112C146.111 215.112 145.679 214.957 145.359 214.648C145.049 214.339 144.895 213.907 144.895 213.352V203.32ZM149.889 215V207.752H148.753V206.648H149.889V206.472C149.889 205.437 150.118 204.627 150.577 204.04C151.035 203.453 151.659 203.16 152.449 203.16C152.779 203.16 153.105 203.208 153.425 203.304C153.745 203.389 154.033 203.512 154.289 203.672L153.937 204.712C153.787 204.605 153.601 204.52 153.377 204.456C153.163 204.392 152.95 204.36 152.737 204.36C152.267 204.36 151.91 204.536 151.665 204.888C151.419 205.24 151.297 205.752 151.297 206.424V206.648H153.521V207.752H151.297V215H149.889ZM166.544 204.92H162.624V215H161.184V204.92H157.264V203.64H166.544V204.92ZM168.475 215.16C168.081 215.16 167.713 215.096 167.371 214.968C167.03 214.829 166.731 214.643 166.475 214.408C166.23 214.173 166.033 213.901 165.883 213.592C165.745 213.272 165.675 212.925 165.675 212.552C165.675 212.168 165.761 211.821 165.931 211.512C166.102 211.192 166.342 210.92 166.651 210.696C166.971 210.472 167.345 210.296 167.771 210.168C168.209 210.04 168.683 209.976 169.195 209.976C169.601 209.976 170.011 210.013 170.427 210.088C170.843 210.163 171.211 210.264 171.531 210.392V209.72C171.531 209.037 171.339 208.504 170.955 208.12C170.571 207.725 170.027 207.528 169.323 207.528C168.481 207.528 167.595 207.853 166.667 208.504L166.203 207.592C167.281 206.867 168.363 206.504 169.451 206.504C170.55 206.504 171.403 206.797 172.011 207.384C172.63 207.971 172.939 208.797 172.939 209.864V213.272C172.939 213.603 173.089 213.773 173.387 213.784V215C173.238 215.021 173.115 215.037 173.019 215.048C172.923 215.059 172.822 215.064 172.715 215.064C172.438 215.064 172.214 214.984 172.043 214.824C171.883 214.653 171.787 214.451 171.755 214.216L171.723 213.624C171.35 214.125 170.875 214.509 170.299 214.776C169.734 215.032 169.126 215.16 168.475 215.16ZM168.843 214.104C169.345 214.104 169.809 214.013 170.235 213.832C170.673 213.64 171.003 213.389 171.227 213.08C171.43 212.877 171.531 212.669 171.531 212.456V211.224C170.849 210.957 170.139 210.824 169.403 210.824C168.699 210.824 168.123 210.973 167.675 211.272C167.238 211.571 167.019 211.96 167.019 212.44C167.019 212.675 167.062 212.893 167.147 213.096C167.243 213.299 167.371 213.475 167.531 213.624C167.702 213.773 167.899 213.891 168.123 213.976C168.347 214.061 168.587 214.104 168.843 214.104ZM179.687 215.16C178.993 215.16 178.38 214.989 177.847 214.648C177.324 214.307 176.908 213.875 176.599 213.352V218.408H175.191V206.648H176.439V208.216C176.769 207.704 177.196 207.293 177.719 206.984C178.252 206.664 178.839 206.504 179.479 206.504C180.055 206.504 180.583 206.621 181.063 206.856C181.543 207.091 181.959 207.411 182.311 207.816C182.663 208.211 182.935 208.669 183.127 209.192C183.329 209.715 183.431 210.259 183.431 210.824C183.431 211.421 183.34 211.987 183.159 212.52C182.977 213.043 182.721 213.501 182.391 213.896C182.06 214.28 181.665 214.589 181.207 214.824C180.748 215.048 180.241 215.16 179.687 215.16ZM179.255 213.944C179.671 213.944 180.044 213.859 180.375 213.688C180.716 213.507 181.004 213.272 181.239 212.984C181.484 212.685 181.671 212.349 181.799 211.976C181.927 211.603 181.991 211.219 181.991 210.824C181.991 210.408 181.916 210.013 181.767 209.64C181.617 209.256 181.415 208.925 181.159 208.648C180.903 208.36 180.599 208.136 180.247 207.976C179.905 207.805 179.532 207.72 179.127 207.72C178.871 207.72 178.604 207.773 178.327 207.88C178.06 207.976 177.804 208.109 177.559 208.28C177.324 208.44 177.116 208.637 176.935 208.872C176.764 209.096 176.652 209.336 176.599 209.592V211.976C176.716 212.253 176.865 212.515 177.047 212.76C177.228 212.995 177.436 213.203 177.671 213.384C177.905 213.555 178.156 213.693 178.423 213.8C178.689 213.896 178.967 213.944 179.255 213.944ZM188.855 215.16C188.226 215.16 187.65 215.048 187.127 214.824C186.605 214.589 186.157 214.275 185.783 213.88C185.41 213.485 185.117 213.027 184.903 212.504C184.701 211.971 184.599 211.411 184.599 210.824C184.599 210.237 184.701 209.683 184.903 209.16C185.117 208.637 185.41 208.179 185.783 207.784C186.167 207.389 186.621 207.08 187.143 206.856C187.666 206.621 188.242 206.504 188.871 206.504C189.501 206.504 190.071 206.621 190.583 206.856C191.106 207.091 191.549 207.405 191.911 207.8C192.274 208.184 192.551 208.637 192.743 209.16C192.946 209.672 193.047 210.205 193.047 210.76C193.047 210.877 193.042 210.984 193.031 211.08C193.031 211.176 193.026 211.251 193.015 211.304H186.087C186.119 211.72 186.215 212.099 186.375 212.44C186.535 212.781 186.743 213.075 186.999 213.32C187.255 213.565 187.543 213.757 187.863 213.896C188.194 214.035 188.541 214.104 188.903 214.104C189.159 214.104 189.41 214.072 189.655 214.008C189.901 213.933 190.13 213.837 190.343 213.72C190.557 213.603 190.743 213.459 190.903 213.288C191.074 213.117 191.202 212.925 191.287 212.712L192.503 213.048C192.365 213.357 192.173 213.64 191.927 213.896C191.693 214.152 191.415 214.376 191.095 214.568C190.786 214.749 190.439 214.893 190.055 215C189.671 215.107 189.271 215.16 188.855 215.16ZM191.719 210.264C191.687 209.869 191.586 209.507 191.415 209.176C191.255 208.835 191.047 208.547 190.791 208.312C190.546 208.077 190.258 207.896 189.927 207.768C189.597 207.629 189.245 207.56 188.871 207.56C188.498 207.56 188.146 207.629 187.815 207.768C187.485 207.896 187.191 208.083 186.935 208.328C186.69 208.563 186.487 208.845 186.327 209.176C186.178 209.507 186.087 209.869 186.055 210.264H191.719Z" fill="black"/>
</svg>
