<svg width="375" height="422" viewBox="0 0 375 422" fill="none" xmlns="http://www.w3.org/2000/svg">
<rect width="375" height="422" rx="21" fill="url(#paint0_linear_0_1)" fill-opacity="0.3"/>
<g filter="url(#filter0_d_0_1)">
<path opacity="0.95" d="M159.488 230.829H84.7528C78.8488 230.829 74.0618 225.962 74.0618 219.958V143.966C74.0618 137.963 78.8488 133.096 84.7528 133.096H159.488C165.392 133.096 170.179 137.963 170.179 143.966V219.958C170.179 225.962 165.392 230.829 159.488 230.829Z" fill="url(#paint1_linear_0_1)"/>
<path d="M144.371 208.578H99.8699V210.813H144.371V208.578Z" fill="#96BFE6"/>
<path d="M138.068 215.621H106.173V217.856H138.068V215.621Z" fill="#96BFE6"/>
<path opacity="0.95" d="M304.942 323.994H198.586C191.63 323.994 185.99 318.261 185.99 311.187V179.797C185.99 172.725 191.628 166.99 198.586 166.99H304.942C311.898 166.99 317.537 172.723 317.537 179.797V311.187C317.537 318.261 311.898 323.994 304.942 323.994Z" fill="url(#paint2_linear_0_1)"/>
<path d="M256.07 259.614H245.636V261.578H256.07V259.614Z" fill="#7587D9"/>
<path d="M266.733 277.616H206.024V281.42H266.733V277.616Z" fill="#96BFE6"/>
<path d="M255.117 295.88H206.024V299.684H255.117V295.88Z" fill="#96BFE6"/>
<path d="M234.804 286.749H206.024V290.553H234.804V286.749Z" fill="#96BFE6"/>
<path d="M282.618 182.649V184.57H293.743V195.187H295.632V182.649H282.618V182.649ZM207.07 195.187H208.96V184.57H220.084V182.649H207.07V195.187V195.187ZM293.743 249.968V260.588H282.618V262.51H295.632V249.968H293.743V249.968ZM208.96 249.968H207.07V262.51H220.084V260.588H208.96V249.968V249.968Z" fill="#7587D9"/>
<path d="M289.741 299.964C283.605 299.964 278.614 294.889 278.614 288.65C278.614 282.412 283.605 277.337 289.741 277.337C295.876 277.337 300.867 282.412 300.867 288.65C300.867 294.889 295.876 299.964 289.741 299.964ZM289.741 279.527C284.794 279.527 280.768 283.62 280.768 288.65C280.768 293.681 284.794 297.774 289.741 297.774C294.688 297.774 298.714 293.681 298.714 288.65C298.714 283.62 294.69 279.527 289.741 279.527Z" fill="#7587D9"/>
<path d="M289.032 293.103L283.977 287.963L285.501 286.416L289.032 290.007L293.983 284.972L295.507 286.519L289.032 293.103Z" fill="#7587D9"/>
<path opacity="0.95" d="M154.513 136.75H89.7274V193.27H154.513V136.75Z" fill="url(#paint3_linear_0_1)"/>
<path d="M146.867 171.157C144.733 165.419 139.607 162.782 137.188 161.962C136.326 161.671 134.788 161.159 133.166 160.626C130.243 159.666 127.05 158.621 127.05 158.621H116.968C116.968 158.621 113.477 159.81 109.767 161.133C109.767 161.137 109.763 161.137 109.763 161.137C106.344 162.356 102.746 163.685 101.53 164.305C98.9954 165.591 94.7314 174.791 93.8695 175.845C93.4248 176.388 91.4459 179.972 89.4998 183.974H100.362C101.51 181.969 102.394 180.414 102.394 180.414C102.394 180.414 103.081 181.947 103.914 183.974H138.713C139.263 181.621 139.606 178.654 139.606 178.654C139.606 178.654 141.47 181.232 143.503 183.974H153.533C151.097 179.814 148.068 174.398 146.867 171.157Z" fill="#385369"/>
<path d="M123.209 130.448C123.209 130.448 131.094 131.712 129.893 144.254C128.692 156.796 121.735 155.769 121.268 155.756C120.804 155.743 114.284 155.984 113.775 140.67C113.775 140.672 113.553 129.347 123.209 130.448Z" fill="#EEA886"/>
<path d="M130.015 140.711C130.015 140.711 130.879 139.773 131.196 140.722C131.513 141.671 130.019 145.905 129.964 146.103C129.964 146.103 129.806 146.471 129.6 146.268C129.392 146.068 130.015 140.711 130.015 140.711Z" fill="#EEA886"/>
<path d="M113.989 140.553C113.989 140.553 113.143 139.599 112.808 140.542C112.473 141.485 113.874 145.747 113.938 145.947C113.938 145.947 114.089 146.318 114.298 146.119C114.51 145.919 113.989 140.553 113.989 140.553Z" fill="#EEA886"/>
<path d="M130.012 142.636L128.884 144.17C128.884 144.17 128.915 140.805 128.734 140.279C128.554 139.751 128.277 138.141 128.124 137.761C127.972 137.381 121.354 135.495 115.507 138.311C115.507 138.311 115.764 140.729 115.204 140.946C114.645 141.161 114.918 144.885 114.918 144.885L113.99 143.82C113.99 143.82 112.571 134.17 112.921 133.164C113.271 132.158 114.39 126.112 126.383 129.701C126.383 129.701 130.123 128.895 130.873 131.521C131.624 134.144 130.012 142.636 130.012 142.636Z" fill="#434343"/>
<path d="M128.027 158.397C128.023 158.385 127.016 157.891 127.016 157.891C126.524 156.773 126.89 152.062 126.89 152.062C126.89 152.062 116.848 149.462 117.136 151.45C117.422 153.436 116.27 158.054 116.27 158.054L111.119 160.655C111.119 160.655 116.607 175.641 122.916 173.707C129.224 171.774 131.606 160.114 131.606 160.114L128.027 158.397Z" fill="#EEA886"/>
<path d="M117.28 153.659C117.28 153.659 118.898 155.782 121.706 155.782C123.554 155.782 124.878 155.256 126.719 153.431C126.719 153.431 125.921 156.896 121.719 157.218C121.719 157.218 118.67 157.611 117.28 153.659Z" fill="#A77860"/>
<path d="M88.2915 203.974C88.2915 203.974 94.0843 206.855 92.6521 214.694C91.2198 222.534 90.5857 223.59 92.1874 226.653C93.7891 229.716 95.6806 242.782 94.2374 245.26C92.796 247.737 76.3868 234.376 74.1127 223.168C71.8367 211.958 75.5541 206.974 76.8679 205.115C78.1835 203.259 83.1765 201.335 88.2915 203.974Z" fill="#0E2D3D"/>
<path d="M86.1048 385.902H87.4186V379.606C87.4186 379.606 89.9934 381.351 91.6098 383.766C93.2261 386.18 95.4474 385.974 98.8313 385.819C102.215 385.665 102.064 384.279 101.76 382.328C101.457 380.377 98.0222 379.76 96.9106 379.452C95.7991 379.145 93.2771 374.726 92.4662 373.649C91.3601 372.182 90.7752 370.773 90.7752 370.773C90.7752 370.773 90.1447 368.155 87.0123 370.773C83.8817 373.391 84.791 378.424 85.1445 378.887C85.498 379.348 86.1048 385.902 86.1048 385.902Z" fill="#163342"/>
<path d="M92.7195 379.452C93.8803 380.223 96.9107 379.452 96.9107 379.452C96.0524 378.322 90.7752 370.775 90.7752 370.775C87.5681 368.876 86.3016 371.49 86.3016 371.49C87.61 371.894 91.5588 378.681 92.7195 379.452Z" fill="#EEA886"/>
<path d="M126.487 263.292C126.487 263.292 128.59 263.701 129.308 262.697C129.918 261.843 131.314 261.187 131.744 260.985C132.318 260.714 133.778 259.214 134.121 259.947C134.463 260.681 131.834 262.538 131.358 263.04C130.882 263.542 133.937 263.762 134.465 264.252C134.992 264.739 134.343 269.862 132.266 269.464C130.186 269.065 128.224 267.244 127.845 267.248C127.466 267.251 126.321 267.018 126.321 267.018L126.487 263.292Z" fill="#EEA886"/>
<path d="M134 264.038C134 264.038 140.285 265.689 140.613 266.156C140.941 266.623 140.834 266.964 140.24 266.834C139.646 266.705 134.122 265.417 134.122 265.417C134.122 265.417 141.238 268.643 141.59 268.965C141.796 269.154 141.624 269.827 141.3 269.788C140.976 269.749 133.743 266.962 133.743 266.962C133.743 266.962 140.382 269.986 140.597 270.344C140.784 270.657 140.476 271.235 139.968 271.046C139.461 270.857 133.144 268.404 133.144 268.404C133.144 268.404 137.84 270.913 137.845 271.326C137.849 271.578 137.727 272.167 136.535 271.481C135.343 270.796 132.364 269.477 132.364 269.477L134 264.038Z" fill="#EEA886"/>
<path d="M69.0905 386.332H69.8978V381.711C69.8978 381.711 71.3355 383.214 71.9915 385.422C72.6475 387.631 74.9982 388.285 78.5844 388.183C82.1705 388.081 82.2197 386.641 81.9172 384.485C81.6147 382.328 78.5844 381.198 78.5844 381.198C77.2213 379.966 73.8375 374.855 73.8375 374.855C73.8375 374.855 71.6654 374.264 69.9616 375.663C68.2578 377.062 68.7881 380.221 68.8373 381.042C68.8883 381.865 69.0905 386.332 69.0905 386.332Z" fill="#163342"/>
<path d="M71.5653 276.24C71.5653 276.24 67.2922 281.887 66.1333 288.589C64.9743 295.291 66.8184 317.781 66.7674 321.094C66.7164 324.407 63.686 332.649 64.2928 338.887C64.8996 345.126 67.2904 376.178 67.2904 376.178L73.8377 374.857C73.8377 374.857 73.4586 343.201 73.8377 340.581C74.2167 337.961 74.9766 328.417 75.1278 327.338C75.279 326.26 84.7455 297.944 84.7455 293.114C84.7455 288.28 81.8682 268.358 71.5653 276.24Z" fill="#4A84C7"/>
<path d="M93.0291 278.446C93.0291 278.446 100.048 305.687 100.881 309.462C101.714 313.236 102.922 316.349 102.922 317.952C102.922 321.67 101.563 327.64 101.563 327.64L92.6483 370.988H84.1585C84.1585 370.988 88.889 344.981 89.0166 339.897C89.1441 334.8 93.0018 327.562 92.2456 325.406C91.4875 323.249 80.0494 298.37 80.0494 298.37C80.0494 298.37 71.3883 270.538 93.0291 278.446Z" fill="#4A84C7"/>
<path d="M78.5843 381.198L73.8374 374.855L69.9615 375.663C69.9615 375.663 71.0039 378.502 72.8881 380.636C75.1203 383.167 78.5843 381.198 78.5843 381.198Z" fill="#EEA886"/>
<path d="M90.1301 232.154C90.1301 232.154 93.0238 232.432 95.2105 234.815C97.3972 237.198 99.449 240.996 100.023 242.267C100.595 243.538 108.624 255.313 109.041 255.578C109.459 255.843 113.493 257.214 116.168 258.13C120.293 259.542 128.566 262.599 128.566 262.599L126.925 267.887C126.925 267.887 111.372 262.712 107.476 261.735C102.713 260.542 91.7483 246.238 91.7483 246.238C91.7483 246.238 83.5683 236.495 90.1301 232.154Z" fill="#212529"/>
<path d="M85.0789 230.09C85.0789 230.09 88.8272 231.889 90.1301 232.154C91.4312 232.419 96.4824 239.089 97.368 241.524C98.2536 243.959 97.368 247.613 95.5458 251.9C93.7235 256.188 95.4419 257.618 94.6091 261.906C93.7764 266.193 94.0442 282.237 94.2009 284.618C94.3577 287.001 69.8304 290.612 64.9888 286.271C64.9888 286.271 68.267 271.813 72.1483 267.687C72.9884 266.794 72.8991 260.848 72.3269 259.366C71.7547 257.883 65.2986 246.818 65.2986 246.818C65.2986 246.818 64.8248 235.595 67.6419 233.372C70.0892 231.439 76.7586 230.75 77.9558 230.327C79.1475 229.903 82.6316 229.719 85.0789 230.09Z" fill="#FFBF55"/>
<path d="M86.8683 225.691C86.8683 225.691 86.7572 226.74 86.6278 228.159C86.5786 228.721 86.5239 229.34 86.4729 229.975C86.3235 231.876 86.205 233.918 86.2761 234.961C86.2761 234.961 82.3802 238.932 77.9503 230.329C77.9503 230.329 79.8126 226.781 78.4095 221.952C77.0082 217.12 86.8683 225.691 86.8683 225.691Z" fill="#EEA886"/>
<path d="M97.7725 253.483C97.7725 253.483 98.711 247.14 97.7124 243.284C97.7124 243.284 97.7124 246.601 95.9248 251.309L97.7725 253.483Z" fill="#183C59"/>
<path d="M74.9581 230.939C74.9581 230.939 77.6386 238.986 84.995 238.395C92.3513 237.802 88.4827 231.6 88.4827 231.6C88.4827 231.6 86.6496 230.531 86.1339 230.431C85.6182 230.331 77.9994 230.233 77.9994 230.233L74.9581 230.939Z" fill="#EEA886"/>
<path d="M88.4828 231.598C88.4828 231.598 92.3368 242.436 92.3368 253.483C92.3368 264.529 92.6466 282.523 93.9932 288.206C95.338 293.888 99.1684 311.461 99.1684 311.461L102.17 309.882C102.17 309.882 94.9535 281.835 94.4087 279.814C93.8638 277.79 94.8223 256.427 95.3398 254.637C95.8574 252.847 98.0586 244.885 97.716 242.677C97.2842 239.892 94.7221 235.771 90.582 232.228L88.4828 231.598Z" fill="#212529"/>
<path d="M76.4123 230.599C76.4123 230.599 78.8068 238.396 80.0204 248.383C81.234 258.37 76.2957 304.726 72.9829 315.248L60.1508 313.143C60.1508 313.143 62.9133 280.377 66.6634 274.414C70.4136 268.452 71.6071 263.175 67.5581 250.729C63.511 238.283 69.333 232.119 69.333 232.119C69.333 232.119 75.2862 230.729 76.4123 230.599Z" fill="#212529"/>
<path d="M90.2558 263.666L74.6958 291.07L57.3992 280.916L72.2831 253.116L90.2558 263.666Z" fill="#616161"/>
<path d="M88.3807 264.609L74.5609 288.947L59.1995 279.929L72.4179 255.239L88.3807 264.609Z" fill="#E0CEC7"/>
<path d="M83.2822 262.423L84.2517 260.714L78.0415 257.07L76.8297 258.636L83.2822 262.423Z" fill="#616161"/>
<path d="M82.5404 281.867C82.5404 281.867 81.8334 281.87 81.5218 281.719C81.5218 281.719 80.9787 281.398 80.5778 281.194C80.4503 281.129 80.3391 281.077 80.2626 281.05C79.9455 280.939 79.2166 280.79 78.5278 280.303C77.8409 279.818 75.4045 276.949 75.4045 276.949L76.5544 275.171L77.3981 273.349C77.3981 273.349 82.5131 273.684 83.2055 274.062C83.2729 274.1 83.3385 274.138 83.3968 274.181C83.9526 274.557 84.2096 275.076 84.4792 275.308C84.5776 275.393 85.4997 276.312 85.4669 276.703C85.4232 277.246 85.1753 277.603 84.8546 277.781C84.8546 277.781 84.7216 278.839 84.2096 279.334C84.2096 279.334 84.1184 280.314 83.3076 280.744C83.3112 280.74 83.1089 281.724 82.5404 281.867Z" fill="#EEA886"/>
<path d="M71.9972 232.154C71.9972 232.154 67.2721 230.777 64.5643 236.071C61.8565 241.365 61.8711 243.623 61.5084 246.21C61.1659 248.65 59.6243 255.315 59.4675 256.004C59.3108 256.692 55.8176 264.9 57.4194 267.768C59.0302 270.651 75.3829 279.139 75.279 279.773C75.1752 280.409 78.1108 273.357 78.1108 273.357C78.1108 273.357 71.4924 269.606 70.41 268.452C68.6498 266.577 64.9361 264.555 65.6996 262.228C66.5961 259.495 69.2875 250.273 69.9126 248.923C70.5394 247.574 75.9806 233.875 71.9972 232.154Z" fill="#212529"/>
<path d="M87.4514 204.845C87.4514 204.845 95.8628 207.533 91.2963 222.293C86.7298 237.053 75.2406 220.583 76.4433 211.589C77.6441 202.595 87.4514 204.845 87.4514 204.845Z" fill="#EEA987"/>
<path d="M92.1564 213.457C92.1564 213.457 87.9762 217.628 80.9806 218.148C80.9806 218.148 78.2928 221.354 78.0851 222.612C78.0851 222.612 71.844 211.795 79.5156 205.31C87.189 198.826 94.9754 210.785 92.1564 213.457Z" fill="#0E2D3D"/>
<path d="M81.0645 218.443C81.0098 217.368 80.3593 214.924 78.7885 215.608C77.2177 216.292 78.8851 221.27 79.9256 220.965C79.9274 220.965 81.1938 220.985 81.0645 218.443Z" fill="#EEA987"/>
<path d="M86.6278 228.159C86.5786 228.721 86.524 229.34 86.4729 229.975C86.4729 229.975 82.7592 229.751 80.2792 224.135C80.4414 224.379 83.1619 228.443 86.6278 228.159Z" fill="#A77860"/>
<path opacity="0.95" d="M241.448 161.573H188.41C183.556 161.573 179.622 157.572 179.622 152.636V105.842C179.622 100.906 183.556 96.9053 188.41 96.9053H241.448C246.303 96.9053 250.237 100.906 250.237 105.842V152.636C250.237 157.572 246.301 161.573 241.448 161.573Z" fill="url(#paint4_linear_0_1)"/>
<path d="M217.462 149.342H211.861V150.396H217.462V149.342Z" fill="#7587D9"/>
<path d="M219.725 91.241C219.725 91.241 224.237 93.7609 222.805 99.9569C221.373 106.153 220.828 106.97 221.992 109.473C223.157 111.977 224.179 122.468 222.938 124.387C221.697 126.307 209.109 115.026 207.711 106.001C206.312 96.9757 209.461 93.1439 210.578 91.7135C211.693 90.2812 215.744 88.9397 219.725 91.241Z" fill="#344052"/>
<path d="M228.199 142.445H223.368C223.135 140.022 222.918 138.336 222.963 138.085C223.035 137.674 218.156 124.661 217.701 123.585C217.242 122.512 215.454 119.625 215.221 116.907C214.984 114.189 218.47 113.092 218.47 113.092C223.175 113.95 224.767 120.566 224.767 120.566C224.767 120.566 226.743 133.985 227.741 137.761C227.996 138.73 228.135 140.44 228.199 142.445Z" fill="#EEA886"/>
<path d="M225.766 123.8L218.572 126.885C218.572 126.885 211.959 110.198 217.502 112.062C223.027 113.918 225.515 117.409 225.766 123.8Z" fill="#EB4747"/>
<path d="M224.164 131.656C223.955 133.312 223.095 139.18 223.286 140.767C223.319 141.028 223.425 141.63 223.585 142.447H206.237C206.698 140.772 207.119 139.29 207.373 138.428C208.214 135.588 207.409 134.826 206.983 132.553C206.817 131.663 206.234 129.973 205.6 128.063C205.386 127.426 205.168 126.761 204.958 126.094C204.195 123.689 203.841 121.23 203.622 119.797C202.576 113.012 207.708 112.36 207.708 112.36C209.616 112.002 212.947 110.956 212.947 110.956L218.166 112.06C218.166 112.06 218.663 112.249 219.387 112.794C219.387 112.794 219.39 112.794 219.39 112.797C219.738 113.059 220.141 113.401 220.564 113.844C221.134 114.439 222.269 116.144 223.403 118.017C223.749 118.591 224.097 119.18 224.425 119.76C225.485 121.628 226.24 123.135 226.216 124.832C226.196 126.503 224.376 129.999 224.164 131.656Z" fill="#EB4747"/>
<path d="M218.166 112.062C218.166 112.062 221.435 117.743 220.219 118.169C219.004 118.593 212.595 117.159 210.091 111.791C210.093 111.789 214.299 109.846 218.166 112.062Z" fill="#EEA886"/>
<path d="M217.697 114.656C217.697 114.656 214.793 115.905 212.163 111.791C212.163 111.791 212.87 107.12 211.376 104.419C209.882 101.717 217.907 107.658 217.907 107.658C217.907 107.658 217.777 108.215 217.643 109.036C217.573 109.457 217.502 109.946 217.449 110.467C217.404 110.9 217.369 111.354 217.355 111.806C217.32 112.859 217.393 113.9 217.697 114.656Z" fill="#EEA886"/>
<path d="M210.487 121.02C209.889 124.148 205.599 128.065 205.599 128.065C205.388 127.426 205.169 126.762 204.958 126.097C207.917 124.176 210.487 121.02 210.487 121.02Z" fill="#393D63"/>
<path d="M209.41 123.509C209.138 124.648 207.886 136.19 208.023 136.585C208.103 136.811 208.708 139.481 209.315 142.447H203.715C203.141 140.535 202.802 138.947 202.884 138.048C203.241 134.155 201.944 121.745 201.944 121.745C201.944 121.745 200.781 114.237 206.908 113.299C206.908 113.299 210.527 113.783 210.745 116.501C210.966 119.221 209.683 122.371 209.41 123.509Z" fill="#EEA886"/>
<path d="M201.492 125.102L209.094 126.909C209.094 126.909 215.126 115.002 209.694 112.827C203.97 110.535 200.12 118.608 201.492 125.102Z" fill="#EB4747"/>
<path d="M219.022 91.9006C219.022 91.9006 225.629 94.3668 221.442 105.96C217.254 117.556 208.705 103.981 209.997 96.8571C211.288 89.7328 219.022 91.9006 219.022 91.9006Z" fill="#EEA987"/>
<path d="M222.455 98.949C222.455 98.949 218.967 102.114 213.371 102.262C213.371 102.262 212.063 105.504 211.852 106.499C211.852 106.499 206.323 96.8459 212.679 91.9692C219.037 87.0924 224.802 96.9256 222.455 98.949Z" fill="#344052"/>
<path d="M214.128 102.957C214.124 102.099 213.696 100.124 212.418 100.609C211.141 101.095 212.285 105.128 213.127 104.924C213.127 104.924 214.135 104.989 214.128 102.957Z" fill="#EEA987"/>
<path d="M217.362 111.61C214.257 110.737 213.056 107.726 213.02 107.626C215.545 110.944 217.449 110.466 217.449 110.466C217.404 110.9 217.4 111.171 217.362 111.61Z" fill="#A77860"/>
<path d="M231.714 108.606V109.638H237.685V115.338H238.7V108.606H231.714ZM191.156 115.338H192.171V109.638H198.143V108.606H191.156V115.338ZM237.685 144.745V150.446H231.714V151.478H238.7V144.745H237.685V144.745ZM192.171 144.745H191.156V151.478H198.143V150.446H192.171V144.745Z" fill="#7587D9"/>
<path d="M125.861 197.657H118.38V199.066H125.861V197.657Z" fill="#7587D9"/>
<path d="M144.54 143.248V144.624H152.518V152.238H153.872V143.248H144.54ZM90.3689 152.238H91.7246V144.624H99.7024V143.248H90.3707V152.238H90.3689ZM152.516 191.519V199.134H144.538V200.511H153.87V191.519H152.516ZM91.7246 191.519H90.3689V200.513H99.7005V199.134H91.7228V191.519H91.7246Z" fill="#7587D9"/>
<path d="M289.229 249.088H282.902C282.787 248.83 282.693 248.606 282.616 248.426C280.739 243.918 271.061 233.581 271.061 233.581C271.061 233.581 271.061 233.586 271.061 233.603C271.061 233.603 271.056 233.609 271.056 233.614C271.056 233.614 271.056 233.62 271.056 233.625C271.05 233.642 271.045 233.653 271.039 233.67C271.034 233.692 271.029 233.72 271.018 233.755C271.012 233.772 271.007 233.794 271.007 233.811C271.001 233.827 270.996 233.838 270.99 233.855C270.593 235.361 268.645 242.866 267.67 249.086H224.851C224.753 248.509 224.636 247.959 224.505 247.451C224.113 245.906 223.849 244.378 223.68 242.949C223.674 242.877 223.663 242.808 223.658 242.736C223.625 242.473 223.598 242.21 223.576 241.952C223.208 238.044 223.483 235.048 223.505 234.744C223.384 235.008 222.519 238.233 221.385 242.215C220.762 244.4 220.059 246.812 219.359 249.086H209.248L221.93 211.867C222.211 211.643 225.504 210.025 227.905 208.86C230.356 207.672 233.314 205.93 235.985 204.441C237.35 203.679 238.64 202.99 239.757 202.469L239.929 202.391V202.386C241.773 201.53 243.001 200.963 243.001 200.963C243.001 200.963 243.001 200.963 243.006 200.963C243.05 200.957 243.342 200.929 243.804 200.885C246.381 200.633 254.379 199.871 257.054 199.714C257.274 199.697 257.462 199.692 257.604 199.686C257.726 199.681 257.819 199.681 257.874 199.686C258.209 199.708 259.862 200.29 262.027 201.131C262.109 201.159 262.193 201.193 262.275 201.226C262.38 201.265 262.479 201.304 262.582 201.343C262.77 201.415 262.963 201.489 263.155 201.567C263.541 201.724 263.942 201.88 264.345 202.043C264.483 202.099 264.625 202.154 264.769 202.212C269.102 203.959 274.07 206.125 275.249 206.988C276.031 207.553 278.46 212.208 281.273 217.965C284.305 227.831 288.012 242.067 289.229 249.088Z" fill="#DECBC4"/>
<path d="M257.806 198.423C257.692 204.276 246.549 207.478 246.549 207.478C246.549 207.478 241.887 201.535 243.001 200.967C243.438 200.742 243.615 199.857 243.67 198.862C243.721 197.915 243.66 196.87 243.606 196.207C243.573 195.793 243.542 195.526 243.542 195.526C243.542 195.526 245.135 193.818 247.159 191.784C250.7 188.224 255.565 183.666 255.572 185.48C255.572 185.577 255.56 185.691 255.53 185.825C254.678 189.903 257.806 198.423 257.806 198.423Z" fill="#EEA886"/>
<path d="M253.515 189.846C253.493 189.881 253.019 190.6 252.212 191.632C250.501 193.82 247.285 197.415 243.67 198.858C243.721 197.911 243.66 196.866 243.606 196.203C243.236 196.194 242.866 196.149 242.5 196.068C243.491 194.307 244.923 192.46 244.923 192.46L247.161 191.78L253.515 189.846Z" fill="#A77860"/>
<path d="M255.654 185.556C254.69 187.689 253.776 189.234 253.515 189.847C253.515 189.847 253.515 189.847 253.515 189.849C253.346 190.248 252.886 190.898 252.214 191.634C250.377 193.646 246.964 196.299 243.608 196.207C243.238 196.197 242.868 196.153 242.501 196.071C241.146 195.771 239.546 195.13 238.666 193.377C231.714 179.536 236.747 168.217 236.747 168.217C236.747 168.217 255.758 162.751 258.732 168.569C260.817 172.651 257.919 180.546 255.654 185.556Z" fill="#EEA886"/>
<path d="M236.745 168.215C236.745 168.215 234.979 168.115 234.544 164.711C234.112 161.348 234.985 160.416 234.985 160.416C234.985 160.416 242.833 157.076 245.652 156.642C248.471 156.208 255.401 155.79 257.025 157.68C257.025 157.68 260.972 156.748 262.047 163.409C263.752 173.978 256.234 184.241 256.234 184.241C256.234 184.241 256.298 177.335 254.8 176.421C253.302 175.506 252.01 177.681 252.01 177.681L248.947 178.239C248.947 178.239 253.599 168.024 248.017 167.646C242.436 167.268 239.939 168.808 236.745 168.215Z" fill="#263238"/>
<path d="M252.094 174.93C252.385 171.887 257.795 170.726 257.433 173.915C257.07 177.103 254.406 180.166 253.176 180.059C251.944 179.951 251.871 177.25 252.094 174.93Z" fill="#EEA886"/>
<path d="M283.76 218.25C281.998 212.51 280.473 207.969 279.795 207.476C278.611 206.614 269.226 203.987 264.771 202.212C264.627 202.156 264.485 202.101 264.346 202.043C263.944 201.88 263.543 201.724 263.156 201.567C262.963 201.489 262.77 201.415 262.584 201.343C262.48 201.304 262.38 201.265 262.276 201.226C262.194 201.193 262.111 201.159 262.029 201.131C262.023 201.137 262.018 201.148 262.007 201.154C261.609 201.608 259.55 203.987 257.088 207.548C252.484 214.2 246.487 224.98 247.407 234.932C247.704 238.124 248.068 242.71 248.679 247.855C248.723 248.265 248.772 248.673 248.828 249.088H269.602C269.855 243.701 270.307 236.605 270.99 233.857C270.996 233.84 271.001 233.829 271.007 233.813C271.007 233.796 271.012 233.774 271.018 233.757C271.023 233.729 271.034 233.701 271.039 233.672C271.045 233.655 271.05 233.644 271.056 233.627C271.056 233.622 271.056 233.616 271.056 233.616C271.056 233.611 271.061 233.605 271.061 233.605C271.061 233.605 276.089 241.596 276.348 249.088H289.422C288.782 242.128 286.784 228.1 283.76 218.25Z" fill="#3C4145"/>
<path d="M239.845 202.538C239.845 202.538 238.276 207.846 236.249 221.102C236.249 221.102 236.249 221.102 236.249 221.107C236.178 221.55 236.111 222.004 236.04 222.467C236.034 222.517 236.023 222.573 236.018 222.63C235.969 222.932 235.925 223.247 235.879 223.561C235.874 223.599 235.869 223.633 235.863 223.672C235.83 223.879 235.797 224.092 235.77 224.309C235.694 224.83 235.615 225.367 235.539 225.91C234.779 231.319 233.766 239.916 232.736 249.088H224.525C224.079 246.54 223.661 244.222 223.694 242.63C223.678 242.664 223.667 242.703 223.656 242.738C223 244.585 222.278 246.596 221.546 248.55C221.48 248.73 221.415 248.908 221.347 249.088H207.194L221.293 211.585C221.573 211.361 225.203 209.373 227.603 208.215C230.108 207 233.276 205.504 236.084 204.189C237.427 203.555 238.689 202.968 239.757 202.469L239.845 202.538Z" fill="#3C4145"/>
<path d="M258.94 215.652L253.515 218.765L255.833 221.168L250.745 249.089H248.828C248.123 243.446 247.72 238.378 247.407 234.933C245.991 219.545 261.092 202.191 262.028 201.133C262.755 201.413 263.537 201.721 264.346 202.047L258.94 215.652Z" fill="#51565C"/>
<path d="M239.928 202.391C239.928 202.391 237.902 209.117 235.544 225.91C234.784 231.313 233.766 239.916 232.736 249.088H231.938L230.887 222.706L233.469 219.862L231.173 216.944L236.085 204.187C237.428 203.553 238.691 202.966 239.759 202.467L239.928 202.391Z" fill="#51565C"/>
<path d="M262.302 201.198L257.806 198.423C257.806 198.423 257.681 200.93 246.549 207.478L249.71 216.533L262.302 201.198Z" fill="#F5E2D9"/>
<path d="M243.587 199.684C243.587 199.684 243.762 202.39 246.549 207.476L240.379 215.654L239.928 202.39L243.587 199.684Z" fill="#F5E2D9"/>
<path d="M246.565 207.476C246.565 207.476 247.76 212.34 247.33 213.701C247.33 213.701 244.701 214.674 242.811 213.459C242.811 213.459 244.151 210.053 246.565 207.476Z" fill="#D44040"/>
<path d="M245.116 224.013C243.855 232.749 243.855 241.585 244.324 249.088H239.054C238.983 248.03 238.915 246.925 238.85 245.773C237.869 228.474 243.883 213.02 243.883 213.02L246.565 212.336C246.565 212.338 245.699 219.981 245.116 224.013Z" fill="#D44040"/>
<path d="M223.864 234.791C223.663 238.941 223.692 242.627 223.692 242.627V242.628C223.691 242.649 223.687 242.76 223.678 242.945C223.669 242.875 223.661 242.806 223.652 242.738C223 244.585 222.275 246.594 221.546 248.548C221.376 246.282 221.333 244.172 221.382 242.215C221.675 230.577 225.274 224.476 225.274 224.476C224.449 226.507 224.053 230.859 223.864 234.791Z" fill="#2D3133"/>
<g filter="url(#filter1_d_0_1)">
<path d="M174.601 249.138L157.762 258.55L140.852 231.491L161.305 224.266L174.601 249.138Z" fill="#292C47"/>
<path d="M173.534 248.326L157.786 257.127L141.971 231.822L161.099 225.067L173.534 248.326Z" fill="white"/>
<path d="M179.301 243.594C179.301 243.594 176.371 242.169 175.084 241.424C173.798 240.679 170.489 239.656 170.221 239.414C169.953 239.171 160.412 238.572 159.832 238.065C159.253 237.557 158.692 239.254 161.164 239.807C163.637 240.357 167.079 241.704 167.267 242.688C167.455 243.67 164.727 243.903 164.45 244.713C164.173 245.523 164.528 245.341 164.918 245.515C165.31 245.689 168.163 244.081 169.419 244.537C170.675 244.993 172.593 244.361 173.555 244.696C174.518 245.032 179.195 246.632 179.195 246.632L179.301 243.594Z" fill="#EEA886"/>
<path d="M156.942 255.156C156.942 255.156 154.48 252.903 153.289 251.96C152.097 251.017 149.861 248.245 149.531 248.083C149.201 247.922 144.932 239.012 144.236 238.654C143.54 238.297 144.894 237.098 146.368 239.253C147.842 241.408 150.43 244.181 151.414 243.979C152.398 243.777 151.55 241.072 152.193 240.492C152.837 239.912 152.806 240.322 153.119 240.629C153.433 240.937 153.054 244.298 153.967 245.323C154.878 246.347 155.04 248.432 155.725 249.223C156.41 250.014 159.714 253.874 159.714 253.874L156.942 255.156Z" fill="#EEA886"/>
<path d="M209.969 375.596C209.969 375.596 210.501 379.356 210.569 379.919C210.636 380.484 216.495 379.588 216.495 379.588L216.968 375.113C216.968 375.113 210.702 375.067 209.969 375.596Z" fill="#424773"/>
<path d="M210.507 379.443C210.507 379.443 208.65 381.709 206.855 382.695C205.06 383.682 202.237 384.073 201.177 385.096C200.412 385.834 198.385 389.009 205.842 388.946C213.298 388.882 216.894 389.395 217.692 388.178C218.49 386.96 216.536 379.189 216.536 379.189C216.536 379.189 214.769 379.834 210.507 379.443Z" fill="#292C47"/>
<path d="M167.992 375.596C167.992 375.596 168.524 379.356 168.592 379.919C168.659 380.484 174.518 379.588 174.518 379.588L174.991 375.113C174.991 375.113 168.725 375.067 167.992 375.596Z" fill="#424773"/>
<path d="M168.53 379.443C168.53 379.443 166.673 381.709 164.878 382.695C163.083 383.682 156.476 384.494 155.415 385.515C154.648 386.252 153.374 389.223 163.867 388.945C171.32 388.746 174.919 389.393 175.717 388.176C176.515 386.958 174.561 379.187 174.561 379.187C174.561 379.187 172.896 379.879 168.53 379.443Z" fill="#292C47"/>
<path d="M205.118 279.002C205.118 279.002 210.623 287.896 210.213 295.934C209.803 303.974 212.209 312.749 213.036 321.146C213.958 330.509 217.73 352.671 217.867 357.679C218.003 362.688 217.282 378.678 217.282 378.678L209.73 378.854C209.73 378.854 203.387 340.108 201.745 336.154C200.104 332.2 191.956 304.016 191.683 300.853C191.406 297.69 205.118 279.002 205.118 279.002Z" fill="#212529"/>
<path d="M176.139 280.209C176.139 280.209 171.99 302.241 171.444 307.161C170.897 312.08 170.531 330.97 170.257 334.046C169.984 337.122 168.431 374.285 166.972 378.854H176.626C176.626 378.854 184.037 351.837 184.037 339.054C184.037 326.271 189.762 311.265 193.46 302.83C197.155 294.396 205.616 294.196 207.888 278.548C207.888 278.548 179.215 275.245 176.139 280.209Z" fill="#212529"/>
<path d="M195.932 204.235C195.932 204.235 188.543 201.428 185.138 207.148C181.73 212.868 182.06 224.317 185.783 225.725C189.507 227.133 195.102 226.395 197.008 222.818C198.914 219.24 200.636 214.066 200.554 210.609C200.47 207.151 197.871 205.234 195.932 204.235Z" fill="#EEA886"/>
<path d="M186.584 225.986C186.584 225.986 186.892 228.015 186.384 229.014C185.876 230.012 195.956 230.038 195.956 230.038C195.956 230.038 196.774 224.604 198.327 220.01C199.878 215.419 186.584 225.986 186.584 225.986Z" fill="#EEA886"/>
<path d="M198.325 220.012C198.325 220.012 197.629 221.18 194.79 220.726C191.949 220.274 188.485 216.431 187.299 216.008C186.112 215.586 186.102 214.878 186.102 214.878L185.36 215.98L184.101 216.062C184.101 216.062 185.249 212.625 183.516 211.224C181.783 209.821 185.314 200.099 194.422 203.336C194.422 203.336 201.417 205.297 201.162 209.343C200.909 213.388 199.89 217.996 198.325 220.012Z" fill="#3A3F47"/>
<path d="M185.784 228.893C185.784 228.893 185.817 226.985 186.668 226.801C187.519 226.618 196.062 225.782 197.108 226.201V228.424C197.106 228.424 195.094 229.684 185.784 228.893Z" fill="#E2D2CA"/>
<path d="M186.291 213.409C186.451 212.73 188.148 210.791 188.797 212.868C189.447 214.945 187.814 217.737 186.905 217.498C185.994 217.257 185.887 215.128 186.291 213.409Z" fill="#EEA886"/>
<path d="M151.88 251.452C151.883 251.45 151.889 251.45 151.894 251.45C151.836 251.475 151.827 251.477 151.88 251.452Z" fill="#323657"/>
<path d="M211.328 300.188C211.328 300.188 206.797 301.544 199.07 302.412C191.344 303.279 172.037 302.098 171.915 301.17C171.793 300.242 176.068 266.607 175.826 264.874C175.584 263.142 175.452 256.97 175.452 256.97C175.358 258.661 173.663 265.569 171.617 269.334C170.877 270.694 168.398 274.959 167.203 273.988C161.419 269.293 152.463 251.598 151.895 251.448C152.372 251.237 156.138 249.473 156.667 249.295C157.13 249.138 161.303 253.631 163.83 256.416C164.958 257.657 165.758 258.559 165.758 258.559C166.489 256.89 169.147 246.368 169.973 242.725C171.837 234.513 171.551 234.17 171.551 234.17C177.203 232.432 185.784 228.893 185.784 228.893L197.106 228.424C197.106 228.424 207.496 230.75 211.589 232.63C211.977 232.808 211.979 242.056 213.045 244.481L209.652 251.759C209.652 251.759 207.691 266.177 207.285 272.589C207.099 275.53 211.328 300.188 211.328 300.188Z" fill="#7587D9"/>
<path d="M213.515 256.486C213.22 257.457 211.877 258.276 211.006 258.635C210.448 258.865 209.823 258.939 209.193 258.821L208.75 258.737L200.991 257.274C200.991 257.274 199.293 237.394 211.591 232.63C211.915 232.738 216.23 247.585 213.515 256.486Z" fill="#7587D9"/>
<path d="M211.006 258.634C210.448 258.863 209.823 258.937 209.193 258.819L208.75 258.735L209.515 248.576L211.006 258.634Z" fill="#3076A1"/>
<path d="M165.76 258.56L164.812 262.643C164.812 262.643 163.783 258.547 163.832 256.418C164.958 257.657 165.76 258.56 165.76 258.56Z" fill="#3076A1"/>
<path d="M198.035 204.909C198.035 204.909 207.719 203.675 198.199 220.123L198.035 204.909Z" fill="#3A3F47"/>
<path d="M148.636 230.04L147.652 228.321L155.404 225.601L156.388 227.311L148.636 230.04Z" fill="#292C47"/>
</g>
<g opacity="0.95">
<path d="M296.511 156.351H302.003L300.323 152.807H294.83L296.511 156.351Z" fill="url(#paint5_linear_0_1)"/>
<path d="M293.941 156.351H295.25L293.568 152.807H292.259L293.941 156.351Z" fill="url(#paint6_linear_0_1)"/>
<path d="M274.964 152.128H297.205L296.467 150.355H274.226L274.964 152.128Z" fill="url(#paint7_linear_0_1)"/>
</g>
<path d="M155.521 95.599H147.122C146.838 95.599 146.608 95.3655 146.608 95.0765V93.2328C146.608 92.9438 146.838 92.7103 147.122 92.7103H155.521C155.805 92.7103 156.035 92.9438 156.035 93.2328V95.0765C156.035 95.3655 155.803 95.599 155.521 95.599Z" fill="url(#paint8_linear_0_1)"/>
<path d="M155.521 102.525H147.122C146.838 102.525 146.608 102.292 146.608 102.003V100.159C146.608 99.8699 146.838 99.6365 147.122 99.6365H155.521C155.805 99.6365 156.035 99.8699 156.035 100.159V102.003C156.035 102.29 155.803 102.525 155.521 102.525Z" fill="url(#paint9_linear_0_1)"/>
<path d="M155.521 109.449H147.122C146.838 109.449 146.608 109.216 146.608 108.927V107.083C146.608 106.794 146.838 106.561 147.122 106.561H155.521C155.805 106.561 156.035 106.794 156.035 107.083V108.927C156.035 109.216 155.803 109.449 155.521 109.449Z" fill="url(#paint10_linear_0_1)"/>
<path d="M162.094 95.599H160.439C160.155 95.599 159.925 95.3655 159.925 95.0765V93.2328C159.925 92.9438 160.155 92.7103 160.439 92.7103H162.094C162.378 92.7103 162.608 92.9438 162.608 93.2328V95.0765C162.608 95.3655 162.378 95.599 162.094 95.599Z" fill="url(#paint11_linear_0_1)"/>
<path d="M162.094 102.525H160.439C160.155 102.525 159.925 102.292 159.925 102.003V100.159C159.925 99.8699 160.155 99.6365 160.439 99.6365H162.094C162.378 99.6365 162.608 99.8699 162.608 100.159V102.003C162.608 102.29 162.378 102.525 162.094 102.525Z" fill="url(#paint12_linear_0_1)"/>
<path d="M162.094 109.449H160.439C160.155 109.449 159.925 109.216 159.925 108.927V107.083C159.925 106.794 160.155 106.561 160.439 106.561H162.094C162.378 106.561 162.608 106.794 162.608 107.083V108.927C162.608 109.216 162.378 109.449 162.094 109.449Z" fill="url(#paint13_linear_0_1)"/>
<path d="M125.605 251.567H135.464L132.446 245.202H122.588L125.605 251.567Z" fill="url(#paint14_linear_0_1)"/>
<path d="M120.991 251.567H123.34L120.323 245.202H117.974L120.991 251.567Z" fill="url(#paint15_linear_0_1)"/>
</g>
<defs>
<filter id="filter0_d_0_1" x="39.6448" y="77.8512" width="295.248" height="333.711" filterUnits="userSpaceOnUse" color-interpolation-filters="sRGB">
<feFlood flood-opacity="0" result="BackgroundImageFix"/>
<feColorMatrix in="SourceAlpha" type="matrix" values="0 0 0 0 0 0 0 0 0 0 0 0 0 0 0 0 0 0 127 0" result="hardAlpha"/>
<feOffset dy="5.20661"/>
<feGaussianBlur stdDeviation="8.67768"/>
<feComposite in2="hardAlpha" operator="out"/>
<feColorMatrix type="matrix" values="0 0 0 0 0 0 0 0 0 0 0 0 0 0 0 0 0 0 0.25 0"/>
<feBlend mode="normal" in2="BackgroundImageFix" result="effect1_dropShadow_0_1"/>
<feBlend mode="normal" in="SourceGraphic" in2="effect1_dropShadow_0_1" result="shape"/>
</filter>
<filter id="filter1_d_0_1" x="130.439" y="197.474" width="97.8584" height="207.146" filterUnits="userSpaceOnUse" color-interpolation-filters="sRGB">
<feFlood flood-opacity="0" result="BackgroundImageFix"/>
<feColorMatrix in="SourceAlpha" type="matrix" values="0 0 0 0 0 0 0 0 0 0 0 0 0 0 0 0 0 0 127 0" result="hardAlpha"/>
<feOffset dy="5.20661"/>
<feGaussianBlur stdDeviation="5.20661"/>
<feComposite in2="hardAlpha" operator="out"/>
<feColorMatrix type="matrix" values="0 0 0 0 0 0 0 0 0 0 0 0 0 0 0 0 0 0 0.25 0"/>
<feBlend mode="normal" in2="BackgroundImageFix" result="effect1_dropShadow_0_1"/>
<feBlend mode="normal" in="SourceGraphic" in2="effect1_dropShadow_0_1" result="shape"/>
</filter>
<linearGradient id="paint0_linear_0_1" x1="187.5" y1="0" x2="187.5" y2="422" gradientUnits="userSpaceOnUse">
<stop stop-color="#007EA7"/>
<stop offset="0.482639" stop-color="#90A6BB"/>
</linearGradient>
<linearGradient id="paint1_linear_0_1" x1="128.985" y1="308.48" x2="121.226" y2="170.166" gradientUnits="userSpaceOnUse">
<stop stop-color="#D1D7E0"/>
<stop offset="1" stop-color="#EBEBFF"/>
</linearGradient>
<linearGradient id="paint2_linear_0_1" x1="251.764" y1="347.045" x2="251.764" y2="204.634" gradientUnits="userSpaceOnUse">
<stop stop-color="#D1D7E0"/>
<stop offset="1" stop-color="#EBEBFF"/>
</linearGradient>
<linearGradient id="paint3_linear_0_1" x1="122.121" y1="259.103" x2="122.121" y2="154.971" gradientUnits="userSpaceOnUse">
<stop stop-color="#D1D7E0"/>
<stop offset="1" stop-color="#EBEBFF"/>
</linearGradient>
<linearGradient id="paint4_linear_0_1" x1="214.928" y1="171.067" x2="214.928" y2="112.408" gradientUnits="userSpaceOnUse">
<stop stop-color="#D1D7E0"/>
<stop offset="1" stop-color="#EBEBFF"/>
</linearGradient>
<linearGradient id="paint5_linear_0_1" x1="294.83" y1="154.579" x2="302.003" y2="154.579" gradientUnits="userSpaceOnUse">
<stop stop-color="#D1D7E0"/>
<stop offset="1" stop-color="#EBEBFF"/>
</linearGradient>
<linearGradient id="paint6_linear_0_1" x1="292.259" y1="154.579" x2="295.249" y2="154.579" gradientUnits="userSpaceOnUse">
<stop stop-color="#D1D7E0"/>
<stop offset="1" stop-color="#EBEBFF"/>
</linearGradient>
<linearGradient id="paint7_linear_0_1" x1="274.226" y1="151.242" x2="297.205" y2="151.242" gradientUnits="userSpaceOnUse">
<stop stop-color="#D1D7E0"/>
<stop offset="1" stop-color="#EBEBFF"/>
</linearGradient>
<linearGradient id="paint8_linear_0_1" x1="146.609" y1="94.1548" x2="156.034" y2="94.1548" gradientUnits="userSpaceOnUse">
<stop stop-color="#D1D7E0"/>
<stop offset="1" stop-color="#EBEBFF"/>
</linearGradient>
<linearGradient id="paint9_linear_0_1" x1="146.609" y1="101.08" x2="156.034" y2="101.08" gradientUnits="userSpaceOnUse">
<stop stop-color="#D1D7E0"/>
<stop offset="1" stop-color="#EBEBFF"/>
</linearGradient>
<linearGradient id="paint10_linear_0_1" x1="146.609" y1="108.006" x2="156.034" y2="108.006" gradientUnits="userSpaceOnUse">
<stop stop-color="#D1D7E0"/>
<stop offset="1" stop-color="#EBEBFF"/>
</linearGradient>
<linearGradient id="paint11_linear_0_1" x1="159.926" y1="94.1548" x2="162.607" y2="94.1548" gradientUnits="userSpaceOnUse">
<stop stop-color="#D1D7E0"/>
<stop offset="1" stop-color="#EBEBFF"/>
</linearGradient>
<linearGradient id="paint12_linear_0_1" x1="159.926" y1="101.08" x2="162.607" y2="101.08" gradientUnits="userSpaceOnUse">
<stop stop-color="#D1D7E0"/>
<stop offset="1" stop-color="#EBEBFF"/>
</linearGradient>
<linearGradient id="paint13_linear_0_1" x1="159.926" y1="108.006" x2="162.607" y2="108.006" gradientUnits="userSpaceOnUse">
<stop stop-color="#D1D7E0"/>
<stop offset="1" stop-color="#EBEBFF"/>
</linearGradient>
<linearGradient id="paint14_linear_0_1" x1="122.587" y1="248.384" x2="135.464" y2="248.384" gradientUnits="userSpaceOnUse">
<stop stop-color="#D1D7E0"/>
<stop offset="1" stop-color="#EBEBFF"/>
</linearGradient>
<linearGradient id="paint15_linear_0_1" x1="117.973" y1="248.384" x2="123.34" y2="248.384" gradientUnits="userSpaceOnUse">
<stop stop-color="#D1D7E0"/>
<stop offset="1" stop-color="#EBEBFF"/>
</linearGradient>
</defs>
</svg>
