<svg width="17" height="21" viewBox="0 0 17 21" fill="none" xmlns="http://www.w3.org/2000/svg">
<path d="M8.07453 3.91369C10.7062 3.91369 12.8473 6.05471 12.8473 8.68641V14.5428L13.2776 15.0018L14.1751 15.9591H1.97396L2.87146 15.0018L3.3018 14.5428V8.68641C3.3018 6.05471 5.44282 3.91369 8.07453 3.91369ZM8.07453 2.32278C4.55998 2.32278 1.71089 5.17187 1.71089 8.68641V13.9137L0.454527 15.2538C-0.36195 16.1247 0.25555 17.55 1.44941 17.55H14.6998C15.8935 17.55 16.511 16.1247 15.6945 15.2538L14.4382 13.9137V8.68641C14.4382 5.17187 11.5891 2.32278 8.07453 2.32278ZM9.66544 18.4591H6.48362C6.27265 18.4591 6.07032 18.5429 5.92115 18.6921C5.77197 18.8413 5.68816 19.0436 5.68816 19.2546C5.68816 19.4656 5.77197 19.6679 5.92115 19.8171C6.07032 19.9662 6.27265 20.05 6.48362 20.05H9.66544C9.8764 20.05 10.0787 19.9662 10.2279 19.8171C10.3771 19.6679 10.4609 19.4656 10.4609 19.2546C10.4609 19.0436 10.3771 18.8413 10.2279 18.6921C10.0787 18.5429 9.8764 18.4591 9.66544 18.4591ZM8.64271 0.0500488H7.50635C7.40189 0.0500488 7.29845 0.0706239 7.20194 0.110599C7.10543 0.150575 7.01774 0.209167 6.94387 0.283032C6.87001 0.356897 6.81142 0.444587 6.77144 0.541096C6.73147 0.637605 6.71089 0.741043 6.71089 0.845503C6.71089 0.949964 6.73147 1.0534 6.77144 1.14991C6.81142 1.24642 6.87001 1.33411 6.94387 1.40797C7.01774 1.48184 7.10543 1.54043 7.20194 1.58041C7.29845 1.62038 7.40189 1.64096 7.50635 1.64096H8.64271C8.74717 1.64096 8.85061 1.62038 8.94712 1.58041C9.04363 1.54043 9.13132 1.48184 9.20518 1.40797C9.27905 1.33411 9.33764 1.24642 9.37761 1.14991C9.41759 1.0534 9.43816 0.949964 9.43816 0.845503C9.43816 0.741043 9.41759 0.637605 9.37761 0.541096C9.33764 0.444587 9.27905 0.356897 9.20518 0.283032C9.13132 0.209167 9.04363 0.150575 8.94712 0.110599C8.85061 0.0706239 8.74717 0.0500488 8.64271 0.0500488Z" fill="black"/>
</svg>
