<svg width="28" height="31" viewBox="0 0 28 31" fill="none" xmlns="http://www.w3.org/2000/svg">
<path d="M13.4476 30.174C12.8336 29.9983 12.1987 29.9321 11.5718 29.8231C8.82779 29.3464 6.08155 28.8829 3.33797 28.4044C2.44399 28.2486 1.75322 27.4206 1.73769 26.5082C1.7266 25.8708 1.73015 25.233 1.73769 24.5956C1.73947 24.4314 1.70575 24.3449 1.52962 24.2818C0.596603 23.9468 0.0198479 23.1311 0.0220662 22.145C0.0238409 21.4595 -0.0493627 20.7682 0.0615518 20.0889C0.20086 19.2361 0.715947 18.6588 1.5234 18.3551C1.6951 18.2907 1.73858 18.2152 1.73769 18.0452C1.73104 16.6129 1.73326 15.181 1.73414 13.7487C1.73503 12.5547 2.47904 11.916 3.6645 12.1128C5.20798 12.3693 6.74837 12.643 8.29008 12.9087C8.33799 12.9171 8.3868 12.9206 8.47819 12.9316C8.23418 12.5772 8.00702 12.2528 7.81669 11.9045C7.30826 10.9758 7.01678 9.99898 7.04384 8.92814C7.06824 7.95751 7.04961 6.98599 7.04917 6.01491C7.04783 3.57044 8.16852 1.79381 10.3801 0.783442C12.8336 -0.337271 15.3039 -0.278123 17.6508 1.10655C19.3128 2.08734 20.1624 3.61987 20.2444 5.53158C20.2999 6.81428 20.2799 8.1014 20.2529 9.38587C20.2276 10.5918 19.7169 11.637 19.0528 12.6174C18.9876 12.7131 18.9206 12.8076 18.827 12.9422C19.6273 12.805 20.3815 12.6752 21.1362 12.5467C22.0386 12.3931 22.9392 12.2307 23.8434 12.0912C24.7884 11.9455 25.5657 12.5971 25.5768 13.5536C25.5919 14.9073 25.5861 16.2611 25.5772 17.6144C25.5759 17.8047 25.6309 17.8766 25.8141 17.9331C26.7711 18.2275 27.4046 19.0715 27.4033 20.0686C27.4024 20.7735 27.4823 21.4846 27.3581 22.1829C27.2019 23.06 26.6553 23.6329 25.8168 23.915C25.6291 23.9781 25.5754 24.0474 25.5781 24.2346C25.5883 24.9699 25.5879 25.7062 25.5808 26.4415C25.5714 27.4493 24.9037 28.2354 23.9024 28.4164C22.9339 28.5916 21.9641 28.7562 20.9942 28.9249C20.614 28.9906 20.4893 28.9271 20.3105 28.5841C20.2351 28.2795 20.3607 28.0752 20.7027 27.9939C21.1726 27.8823 21.6522 27.8178 22.1273 27.7335C22.6318 27.6439 23.138 27.5631 23.642 27.4696C24.2684 27.353 24.5883 26.9814 24.5958 26.3524C24.6034 25.7247 24.5914 25.0966 24.6012 24.4694C24.6047 24.2363 24.5076 24.1427 24.2839 24.1021C23.2196 23.9084 22.7662 23.3601 22.7644 22.2818C22.7631 21.3597 22.7609 20.4376 22.7649 19.516C22.7697 18.469 23.2941 17.87 24.335 17.7296C24.516 17.7054 24.5981 17.6361 24.5976 17.4529C24.5958 16.1878 24.6083 14.9223 24.5905 13.6573C24.5839 13.1912 24.3292 13.0045 23.8381 13.0826C22.6992 13.2636 21.5652 13.4728 20.4281 13.6639C18.4649 13.9941 16.5048 14.3437 14.5412 14.6712C14.2067 14.7268 14.1867 14.7493 14.1867 15.0888C14.1854 19.6202 14.1854 24.1516 14.1867 28.683C14.1867 29.0718 14.2111 29.0952 14.5914 29.029C15.7369 28.8291 16.8846 28.6397 18.0293 28.4353C18.1748 28.4093 18.3194 28.3749 18.4689 28.3947C18.732 28.4292 18.8616 28.5594 18.8966 28.8225C18.8616 29.1976 18.7813 29.2961 18.4055 29.3618C16.9543 29.6161 15.5022 29.8642 14.0505 30.1144C13.9849 30.1259 13.9103 30.1113 13.8606 30.174C13.7236 30.174 13.5856 30.174 13.4476 30.174Z" fill="black"/>
<path d="M18.8976 28.8225C18.7214 28.4874 18.5959 28.4261 18.2383 28.4883C16.949 28.713 15.6593 28.9337 14.3709 29.1628C14.1762 29.1972 14.0976 29.1773 14.0981 28.9452C14.1052 24.2575 14.1039 19.5698 14.1007 14.8822C14.1007 14.7224 14.1256 14.6505 14.3133 14.6191C17.1655 14.1389 20.0156 13.6467 22.8661 13.1576C23.2348 13.0945 23.6017 13.0208 23.9721 12.9723C24.391 12.9171 24.6807 13.1457 24.6842 13.5575C24.6957 14.9206 24.6873 16.2836 24.694 17.6467C24.6949 17.7985 24.6341 17.8157 24.5032 17.821C23.3856 17.8687 22.867 18.4143 22.867 19.5323C22.867 20.4835 22.8661 21.4348 22.867 22.386C22.8683 23.4127 23.4287 23.998 24.4584 24.0209C24.6647 24.0258 24.6966 24.0951 24.6944 24.2743C24.686 24.9902 24.6944 25.7062 24.6895 26.4217C24.686 26.9955 24.328 27.4325 23.7561 27.5375C22.7787 27.7172 21.7987 27.8823 20.8195 28.0509C20.4561 28.1136 20.3674 28.2027 20.3115 28.5837C19.8399 28.6636 19.3687 28.743 18.8976 28.8225Z" fill="#C1C6CB"/>
<path d="M13.1934 29.1968C12.2817 29.0405 11.3801 28.8865 10.4791 28.732C8.24925 28.3493 6.01987 27.9622 3.78871 27.5857C2.97016 27.4475 2.62589 27.0639 2.62589 26.2381C2.62589 25.7675 2.62589 25.2966 2.62589 24.826C2.62589 24.4217 2.62588 24.4151 3.02207 24.4177C3.39119 24.4204 3.72261 24.3233 4.00877 24.0907C4.3841 23.7852 4.55757 23.3809 4.55935 22.9055C4.56334 21.8466 4.56911 20.7877 4.55802 19.7288C4.5487 18.8323 3.91959 18.2262 3.02074 18.2205C2.62544 18.2183 2.62544 18.2183 2.62544 17.8118C2.62544 16.4686 2.625 15.125 2.62544 13.7818C2.62588 13.106 2.87478 12.8813 3.53361 12.993C5.52164 13.3293 7.5079 13.6741 9.49504 14.0162C10.6676 14.2179 11.8393 14.4245 13.0132 14.6178C13.1774 14.6447 13.2147 14.703 13.2147 14.8579C13.2107 19.584 13.2116 24.3105 13.2107 29.0366C13.2111 29.0842 13.2009 29.1315 13.1934 29.1968Z" fill="#E5E5E5"/>
<path d="M16.1637 13.3876C15.3798 13.5271 14.5989 13.6908 13.8106 13.7976C13.3296 13.863 12.8589 13.6785 12.3842 13.6069C11.626 13.4935 10.8722 13.3496 10.1158 13.222C9.99689 13.2022 9.88774 13.1801 9.79946 13.0861C8.90238 12.1336 8.20539 11.0733 7.9849 9.75706C7.89838 9.24107 7.95162 8.72022 7.94364 8.20157C7.93521 7.66262 7.96404 7.12191 7.93299 6.58473C7.91569 6.2912 8.0266 6.20954 8.28969 6.15878C9.51197 5.92307 10.6948 6.03607 11.8549 6.48276C12.6517 6.78909 13.4485 7.09719 14.303 7.22476C15.2698 7.36865 16.2267 7.30686 17.181 7.13118C17.2578 7.11705 17.3359 7.10999 17.4135 7.09984C17.5156 7.20357 17.4943 7.33643 17.4947 7.4609C17.4974 8.27352 17.5054 9.08614 17.4929 9.89875C17.4841 10.4629 17.3168 10.9983 17.1318 11.5266C16.9406 12.0735 16.7112 12.6028 16.4073 13.098C16.3403 13.207 16.276 13.3169 16.1637 13.3876Z" fill="#FEDCA5"/>
<path d="M17.4108 6.15875C15.8372 6.56793 14.2968 6.49068 12.7808 5.88332C12.0239 5.58008 11.2564 5.29935 10.4365 5.20003C9.73686 5.11528 9.0412 5.13382 8.34821 5.25609C7.96622 5.32362 7.94315 5.30773 8.02212 4.92548C8.37483 3.22344 9.44671 2.12922 11.0079 1.46359C11.6521 1.18903 12.3238 0.998792 13.0332 0.97937C14.0097 1.09193 14.8491 1.52362 15.6038 2.11906C16.6712 2.96125 17.2702 4.07976 17.4614 5.41499C17.4973 5.66173 17.5506 5.91951 17.4108 6.15875Z" fill="#233649"/>
<path d="M16.1636 13.3876C16.4236 12.8636 16.7368 12.3671 16.9396 11.814C17.2204 11.0486 17.4436 10.2788 17.4187 9.44942C17.3952 8.66682 17.4139 7.88333 17.4139 7.09985C18.0075 6.93256 18.6117 6.80234 19.192 6.58871C19.2719 6.55913 19.3739 6.51941 19.37 6.67522C19.3424 7.72046 19.4667 8.77275 19.3096 9.81004C19.1117 11.1153 18.3908 12.1592 17.499 13.0989C17.4418 13.1589 17.3762 13.1951 17.2963 13.2075C16.9183 13.2684 16.5407 13.328 16.1636 13.3876Z" fill="#FBC268"/>
<path d="M3.66539 21.3199C3.66539 21.82 3.66894 22.3197 3.6645 22.8198C3.66007 23.3283 3.4551 23.5251 2.94001 23.5269C2.7133 23.5278 2.48659 23.5309 2.26033 23.5251C1.5172 23.5066 0.933788 22.9403 0.914711 22.197C0.899183 21.609 0.898739 21.0202 0.915155 20.4327C0.935563 19.6916 1.52075 19.127 2.26565 19.1081C2.51188 19.1019 2.75811 19.1032 3.00434 19.1067C3.43646 19.1125 3.65563 19.323 3.66317 19.7613C3.67249 20.2809 3.66539 20.8004 3.66539 21.3199Z" fill="#FBC268"/>
<path d="M23.7622 20.9125C23.7618 20.4129 23.7583 19.9128 23.7631 19.4131C23.7676 18.9245 23.9805 18.7082 24.4646 18.7091C24.7689 18.7095 25.075 18.6795 25.378 18.7373C26.0342 18.8627 26.4974 19.3853 26.5134 20.0514C26.5271 20.6291 26.5267 21.2078 26.5138 21.7861C26.497 22.5338 25.9317 23.0975 25.1824 23.1266C24.9166 23.1367 24.6504 23.135 24.3847 23.1284C23.9858 23.1182 23.7733 22.9103 23.7649 22.5002C23.7543 21.9714 23.7622 21.4418 23.7622 20.9125Z" fill="#FBC268"/>
<path d="M17.4108 6.15874C17.4596 4.76701 16.9636 3.56994 16.0141 2.57988C15.2471 1.7805 14.271 1.30247 13.1903 1.04381C13.1335 1.03012 13.0714 1.0363 13.0332 0.979805C13.8025 0.841205 14.5634 0.933017 15.3118 1.10296C16.7231 1.42253 17.9103 2.09478 18.7 3.35012C19.0887 3.96808 19.2715 4.65357 19.3544 5.36952C19.3678 5.48473 19.3842 5.59243 19.22 5.6454C18.6233 5.83829 18.0319 6.04972 17.4108 6.15874Z" fill="#212529"/>
<path d="M16.3456 24.7065C16.3452 24.4125 16.3425 24.119 16.346 23.825C16.3518 23.3748 16.5883 23.0834 17.0346 23.0088C18.3722 22.785 19.7103 22.5643 21.0502 22.3538C21.6216 22.2638 21.9277 22.5361 21.9335 23.117C21.9388 23.6948 21.9392 24.2726 21.9335 24.8508C21.9282 25.3712 21.7139 25.6263 21.1997 25.7124C19.8523 25.938 18.504 26.1573 17.1553 26.3749C16.7045 26.4478 16.3602 26.1622 16.3478 25.7053C16.3385 25.3725 16.3456 25.0393 16.3456 24.7065Z" fill="black"/>
<path d="M16.8035 17.023C16.5661 17.0098 16.4006 16.8928 16.3523 16.647C16.3075 16.4183 16.4472 16.206 16.7063 16.1517C17.2937 16.0286 17.8847 15.9239 18.4752 15.8145C19.9166 15.5474 21.3585 15.2821 22.8 15.0151C22.9654 14.9846 23.1318 14.9458 23.2866 15.0473C23.4495 15.1541 23.5302 15.3073 23.4916 15.4998C23.4481 15.716 23.2986 15.8304 23.0835 15.8697C22.3865 15.9972 21.6904 16.1265 20.9938 16.2554C19.6779 16.4986 18.362 16.7423 17.0466 16.9855C16.9681 17.0005 16.89 17.0102 16.8035 17.023Z" fill="black"/>
<path d="M16.835 19.3593C16.5657 19.3632 16.3744 19.2057 16.3487 18.9708C16.3212 18.7206 16.4822 18.5277 16.7817 18.4707C17.4295 18.348 18.0781 18.2315 18.7263 18.1119C19.5484 17.96 20.3705 17.8073 21.193 17.6559C21.2609 17.6435 21.3292 17.633 21.398 17.6272C21.6908 17.6038 21.8811 17.7332 21.921 17.9803C21.9636 18.243 21.8199 18.4451 21.5249 18.5038C21.0138 18.6054 20.5 18.6945 19.9871 18.7894C19.0004 18.9717 18.0142 19.154 17.0271 19.3354C16.9592 19.3482 16.89 19.3526 16.835 19.3593Z" fill="black"/>
<path d="M16.8248 21.7053C16.5692 21.7093 16.3771 21.5544 16.3487 21.3213C16.3186 21.0706 16.4796 20.8751 16.776 20.819C17.6158 20.6605 18.4565 20.506 19.2968 20.3507C19.9055 20.2381 20.5138 20.1238 21.1229 20.0156C21.3856 19.9689 21.6127 20.1154 21.6646 20.3507C21.7179 20.5917 21.5821 20.8261 21.3164 20.8768C19.8399 21.158 18.3612 21.4277 16.8833 21.7013C16.8647 21.7044 16.8447 21.704 16.8248 21.7053Z" fill="black"/>
<path d="M8.23554 16.0559C8.354 15.7654 8.55764 15.6736 8.8713 15.7341C9.47912 15.8515 10.0927 15.9402 10.7032 16.0457C11.1393 16.1212 11.3873 16.3878 11.3957 16.8274C11.4086 17.5129 11.4108 18.1993 11.3962 18.8848C11.3855 19.3787 11.0417 19.6511 10.5439 19.5681C9.00174 19.3121 7.46136 19.0459 5.92009 18.7851C5.60998 18.7325 5.29941 18.6827 4.98885 18.6328C4.46401 18.5476 4.21866 18.2646 4.21689 17.7336C4.21467 17.0967 4.2129 16.4598 4.21778 15.8228C4.22177 15.3024 4.53455 15.0257 5.05496 15.098C5.59045 15.1722 6.12284 15.2693 6.65656 15.3563C6.95293 15.4044 7.10288 15.5805 7.11664 15.8762C7.08159 16.1759 6.92498 16.3176 6.61042 16.3137C6.25417 16.3088 5.90811 16.2223 5.5594 16.1596C5.2098 16.0965 5.19382 16.1102 5.19249 16.4712C5.19161 16.7555 5.20403 17.0402 5.18894 17.324C5.17519 17.5796 5.28034 17.697 5.531 17.7367C6.45514 17.8833 7.37618 18.047 8.29987 18.1971C8.9028 18.2947 9.50263 18.4081 10.1051 18.5087C10.3309 18.5463 10.4126 18.4739 10.4077 18.2527C10.4006 17.9296 10.3997 17.6056 10.4077 17.2825C10.413 17.0654 10.3198 16.9665 10.106 16.9312C9.61044 16.8495 9.11132 16.7873 8.62286 16.6677C8.38417 16.609 8.21203 16.4801 8.18186 16.2179C8.17343 16.1574 8.1934 16.1018 8.23554 16.0559Z" fill="black"/>
<path d="M8.23549 16.0559C8.25546 16.4275 8.34641 16.5436 8.70932 16.6089C9.23106 16.7034 9.75413 16.7926 10.279 16.8689C10.4498 16.8936 10.5119 16.955 10.5075 17.1298C10.4964 17.5602 10.4955 17.9914 10.5075 18.4218C10.5128 18.6072 10.4622 18.6592 10.2741 18.6261C8.85173 18.3781 7.42804 18.1375 6.00478 17.8943C5.99502 17.8925 5.9857 17.8894 5.97594 17.8881C5.68934 17.8378 5.29892 17.8987 5.14941 17.6948C5.01232 17.5081 5.10992 17.1492 5.10726 16.8658C5.10504 16.5833 5.10682 16.3008 5.10682 16.0051C5.5802 16.0828 6.02741 16.1468 6.47018 16.2311C6.79538 16.2933 7.00478 16.1821 7.1157 15.8762C7.48571 15.9574 7.85705 16.0289 8.23549 16.0559Z" fill="#7587D9"/>
<path d="M4.86823 24.401C5.42103 24.5012 6.02086 24.6085 6.6198 24.7188C7.96275 24.9664 9.30526 25.2154 10.6482 25.4643C10.7156 25.4767 10.7835 25.4891 10.8501 25.5058C11.1385 25.58 11.2933 25.791 11.2378 26.0329C11.1806 26.2836 10.9583 26.4217 10.6739 26.371C9.9774 26.2469 9.28174 26.1189 8.58564 25.9905C7.31989 25.757 6.05458 25.5226 4.78926 25.2878C4.49645 25.2335 4.32165 25.0349 4.3496 24.7934C4.3771 24.5599 4.56877 24.3992 4.86823 24.401Z" fill="black"/>
<path d="M10.7538 21.6969C9.97072 21.5548 9.18767 21.4131 8.40505 21.2696C7.68012 21.1368 6.95562 21.0021 6.23113 20.8675C6.16369 20.8551 6.09626 20.8397 6.02971 20.822C5.76085 20.7501 5.614 20.5426 5.66369 20.3074C5.71737 20.0531 5.94231 19.9066 6.22093 19.9578C7.29369 20.1538 8.36601 20.3542 9.43833 20.5523C9.91172 20.6402 10.3864 20.7223 10.8585 20.8167C11.1273 20.8706 11.2831 21.0873 11.2427 21.3221C11.2023 21.5552 11.0036 21.7075 10.7538 21.6969Z" fill="black"/>
<path d="M6.14188 22.2898C6.79894 22.4094 7.47552 22.5313 8.1521 22.6557C8.98351 22.8085 9.81404 22.9643 10.6455 23.1157C11.086 23.196 11.2861 23.3726 11.2453 23.6559C11.2009 23.9636 10.9618 24.0788 10.5044 23.9954C9.02566 23.7248 7.54695 23.4516 6.06912 23.1744C5.7874 23.1214 5.62902 22.9245 5.6543 22.6924C5.68004 22.4593 5.87835 22.288 6.14188 22.2898Z" fill="black"/>
<path d="M11.1392 9.27686C11.1392 8.80721 11.2812 8.59004 11.5873 8.59181C11.8926 8.59357 12.0305 8.80809 12.0305 9.28127C12.0305 9.75975 11.8997 9.97074 11.5975 9.98001C11.2843 9.98928 11.1392 9.76637 11.1392 9.27686Z" fill="#010100"/>
<path d="M16.1779 9.29312C16.1788 9.76321 16.0391 9.98038 15.736 9.98038C15.4308 9.98038 15.2857 9.75968 15.2857 9.29445C15.2857 9.21632 15.2822 9.13819 15.2871 9.06006C15.3057 8.77801 15.4987 8.58424 15.7494 8.59306C15.9956 8.60189 16.1628 8.78242 16.177 9.05874C16.181 9.13643 16.1779 9.21499 16.1779 9.29312Z" fill="#010101"/>
<path d="M17.2361 24.6729C17.2361 24.6239 17.2361 24.5749 17.2361 24.5259C17.2361 23.8722 17.2361 23.8731 17.8763 23.7694C18.8381 23.614 19.8009 23.463 20.7609 23.2966C20.9903 23.2569 21.0529 23.3147 21.0418 23.542C21.0236 23.904 21.032 24.2677 21.0391 24.6305C21.0422 24.7806 21.0076 24.8548 20.8368 24.8808C19.6988 25.0565 18.5622 25.2397 17.4273 25.4343C17.2476 25.4652 17.229 25.4061 17.2343 25.2617C17.2418 25.0657 17.2361 24.8693 17.2361 24.6729Z" fill="#7587D9"/>
</svg>
