<?xml version="1.0" encoding="utf-8"?>
<!-- Generator: Adobe Illustrator 19.0.0, SVG Export Plug-In . SVG Version: 6.00 Build 0)  -->
<svg version="1.1" id="Layer_1" xmlns="http://www.w3.org/2000/svg" xmlns:xlink="http://www.w3.org/1999/xlink" x="0px" y="0px"
	 viewBox="-287 378 37 37" style="enable-background:new -287 378 37 37;" xml:space="preserve">
<style type="text/css">
	.st0{fill:#FFFFFF;fill-opacity:0.23;stroke:#FFFFFF;}
	.st1{fill:#FFFFFF;}
</style>
<path class="st0" d="M-279.5,379h22c3.6,0,6.5,2.9,6.5,6.5v22c0,3.6-2.9,6.5-6.5,6.5h-22c-3.6,0-6.5-2.9-6.5-6.5v-22
	C-286,381.9-283.1,379-279.5,379z"/>
<path class="st1" d="M-263.1,394.5c-0.3,0-0.5,0-0.8-0.1c-1.7-0.3-3.2-1.6-3.8-3.3c-0.2-0.5-0.2-0.9-0.2-1.4c0-0.6,0.1-0.9,0.2-1.4
	c0.5-1.7,2-3,3.7-3.3c0.3,0,0.5-0.1,0.8-0.1c0.8,0,1.6,0.2,2.3,0.6c0.7,0.4,1.3,1,1.8,1.7c0.7,1.1,0.8,2.6,0.4,3.9
	C-259.2,393.1-261,394.5-263.1,394.5L-263.1,394.5z M-263.2,386.4c-0.2,0-0.3,0-0.4,0c-1.1,0.2-1.9,0.9-2.4,1.8
	c-0.4,0.9-0.5,1.9-0.1,2.8c0.4,0.9,1.1,1.6,2.1,1.8c0.3,0.1,0.6,0.1,0.9,0.1c1.7,0,3.1-1.3,3.3-3c0.1-1.6-0.9-3-2.5-3.4
	C-262.5,386.5-262.9,386.4-263.2,386.4z"/>
<path class="st1" d="M-266.9,407.4c-0.2,0-0.4-0.1-0.4-0.1c-0.3-0.3-2.3-2.3-5.3-5.3c-1.3-1.3-2.6-2.6-3.6-3.6
	c-0.5-0.5-0.9-0.9-1.2-1.2c-0.5-0.5-0.5-0.5-0.7-0.6l-0.1,0h-0.1c-0.3,0-0.3,0-0.9,0.6c-0.3,0.3-0.7,0.7-1.2,1.1
	c-0.9,0.9-1.9,1.9-2.6,2.6l-3.2,3.2V402l3.7-3.7c2.5-2.5,3.6-3.6,3.8-3.8c0,0,0.1,0,0.2,0c0.1,0,0.3,0,0.3,0.1
	c0.3,0.2,2.1,2,5.4,5.3l5.7,5.7l4.1-4.1c1.8-1.8,3.5-3.5,3.7-3.7c0,0,0.2,0,0.3,0c0.1,0,0.2,0,0.2,0c0.3,0.2,1.8,1.5,3.9,3.2l3.6,3
	v1.5c0,0.2,0,0.4,0,0.5c-0.7-0.6-1.9-1.6-3.2-2.7l-4.5-3.8l-4.1,4.1l-0.4,0.4c-1.7,1.7-2.6,2.6-3.1,3.1c-0.2,0.2-0.3,0.3-0.4,0.3
	C-266.7,407.4-266.7,407.4-266.9,407.4L-266.9,407.4C-266.8,407.4-266.8,407.4-266.9,407.4z"/>
</svg>
