<svg width="29" height="39" viewBox="0 0 29 39" fill="none" xmlns="http://www.w3.org/2000/svg">
<g clip-path="url(#clip0_4_3393)">
<path d="M9.88822 -0.000105508C10.3812 0.166817 10.9061 0.15845 11.4106 0.273496C12.7256 0.573036 13.9458 1.05038 14.9327 1.98832C15.0963 2.14395 15.1987 2.04522 15.322 1.97744C16.0309 1.58796 16.781 1.35786 17.5928 1.52981C18.8368 1.79337 19.4968 2.6673 19.8232 3.79518C19.938 4.1922 20.1025 4.29135 20.4794 4.26039C20.8535 4.22985 21.2321 4.24993 21.6083 4.25453C22.0728 4.26039 22.2101 4.36916 22.3503 4.826C22.3754 5.17449 22.2653 5.31212 21.8565 5.4439C20.1479 5.45645 18.4394 5.45227 16.7304 5.45771C16.1996 5.45938 16.1881 5.47026 16.1877 6.00282C16.1869 7.84566 16.1635 9.68892 16.1945 11.5309C16.2226 13.2311 16.8312 14.7125 18.0463 15.9458C18.5686 16.4758 19.1432 16.926 19.8139 17.2527C19.958 17.323 20.1148 17.4648 20.295 17.3088C21.0154 16.5687 21.7736 16.4106 22.5165 16.8457C22.7575 16.9866 22.9496 17.1854 23.1268 17.3929C23.2726 17.564 23.4158 17.5874 23.6203 17.4958C25.8979 16.4754 27.2554 14.7602 27.6676 12.3262C27.7339 11.9346 27.7509 11.541 27.7501 11.1444C27.7454 9.41322 27.7492 7.68209 27.7475 5.95095C27.7471 5.47361 27.7284 5.45562 27.2328 5.45436C26.2532 5.45227 25.2731 5.45436 24.2935 5.45311C24.1303 5.45311 23.9658 5.4598 23.8077 5.41044C23.5149 5.31882 23.412 5.14436 23.4583 4.82349C23.565 4.39049 23.7155 4.25662 24.1571 4.25495C25.5281 4.24951 26.8996 4.24909 28.2707 4.25495C28.7939 4.25704 28.9839 4.45952 28.9843 4.99125C28.9856 7.14576 28.9949 9.30069 28.9818 11.4552C28.9622 14.6706 26.9528 17.5359 23.9076 18.6964C23.67 18.7868 23.5506 18.8738 23.537 19.1499C23.5161 19.5721 23.3653 19.9799 23.1307 20.3326C22.4349 21.3793 21.7056 22.4056 20.6839 23.1795C19.1521 24.34 17.4283 24.6521 15.5553 24.2647C15.4839 24.2501 15.4159 24.2032 15.3109 24.2609C15.5995 24.9897 15.8566 25.7365 15.9637 26.5171C16.37 29.4732 16.3875 32.4146 15.5285 35.31C15.4707 35.505 15.483 35.6108 15.6471 35.7476C16.1724 36.1844 16.4521 36.7512 16.461 37.434C16.4661 37.8176 16.2553 38.0393 15.8617 38.0406C14.2641 38.0473 12.6661 38.0473 11.0685 38.0402C10.6651 38.0385 10.4909 37.8235 10.465 37.3934C10.397 36.2626 10.5767 35.1481 10.6702 34.0274C10.7531 33.0338 10.6851 32.0498 10.3528 31.0968C10.2928 30.9253 10.2465 30.7441 10.0846 30.5856C9.68251 31.3106 9.56946 32.0849 9.52356 32.8698C9.47213 33.7504 9.56988 34.6218 9.70334 35.4941C9.80831 36.1798 9.75476 36.8793 9.72544 37.5704C9.71226 37.88 9.46576 38.0406 9.14785 38.0414C7.53749 38.0444 5.92713 38.0473 4.31677 38.0389C3.95211 38.0373 3.73918 37.8021 3.74428 37.4419C3.75363 36.7747 4.01076 36.204 4.52843 35.7803C4.73753 35.6091 4.74646 35.4694 4.6674 35.2494C4.57603 34.9942 4.51653 34.7273 4.44597 34.465C4.35162 34.1123 4.4651 33.8596 4.81998 33.7261C5.18591 33.6023 5.41457 33.6935 5.57395 34.0391C5.68828 34.2876 5.73333 34.5587 5.82385 34.8155C5.88845 34.9988 5.99598 35.1071 6.20424 35.1113C6.8443 35.1239 7.48436 35.1151 8.124 35.1163C8.26723 35.1167 8.37391 35.0803 8.36668 34.9109C8.24258 33.7994 8.20646 32.6886 8.43384 31.5859C8.60299 30.7646 8.88477 29.989 9.45853 29.3447C9.88099 28.8703 10.2507 28.8574 10.703 29.3012C10.9099 29.5046 11.0714 29.7388 11.2011 29.9953C11.873 31.2901 12.0349 32.6694 11.9032 34.0972C11.8802 34.3432 11.8943 34.5913 11.8564 34.836C11.8305 35.0055 11.9053 35.1008 12.0766 35.1059C12.7536 35.1259 13.4307 35.1197 14.1077 35.1088C14.1902 35.1075 14.2424 35.0502 14.2888 34.99C14.6768 33.9688 14.806 32.9007 14.9016 31.826C15.0015 30.7019 15.0143 29.5786 14.9084 28.4528C14.8664 28.006 14.8685 27.9797 14.395 27.9792C11.8539 27.9767 9.31275 27.9784 6.77162 27.978C6.6335 27.978 6.49494 27.983 6.35682 27.9709C6.23144 27.9751 6.10563 27.9772 5.97983 27.9767C5.33297 27.9751 5.29897 27.9742 5.27177 28.6269C5.22927 29.6518 5.20206 30.6793 5.29557 31.7043C5.31257 31.8904 5.33934 32.0799 5.25902 32.2531C5.14639 32.4949 5.01294 32.728 4.6691 32.6259C4.27852 32.5991 4.07877 32.3937 4.06559 32.0076C4.06134 31.8841 4.03286 31.7607 4.03456 31.6377C4.03754 31.4486 3.95084 31.4122 3.77828 31.4453C3.3792 31.5223 2.97969 31.5143 2.57976 31.4332C1.85852 31.2867 1.41141 30.7981 1.35828 30.0748C1.33576 29.766 1.32088 29.4518 1.41863 29.1531C1.73356 28.1934 1.61286 27.1911 1.72974 26.2117C1.97497 24.1538 2.46076 22.1767 3.63166 20.4171C3.84416 20.0975 4.09449 19.8021 4.33887 19.4804C3.71878 19.1315 3.17222 18.6843 2.73659 18.1112C2.02257 17.172 1.74249 16.0993 1.74802 14.9459C1.74929 14.6782 1.68256 14.5477 1.40843 14.4393C-0.00557277 13.8787 -0.458208 12.1258 0.522714 10.9904C0.738193 10.7407 0.771344 10.516 0.730968 10.224C0.552464 8.93714 0.36971 7.65029 0.33146 6.35005C0.298309 5.23138 0.37226 4.12484 0.812145 3.07185C1.44966 1.54654 2.67454 0.765478 4.25897 0.452969C5.17019 0.273496 6.08906 0.133767 7.01728 0.0685041C7.07678 0.0643206 7.14563 0.0777079 7.16943 -0.00219727C7.27016 -0.00219727 7.37089 -0.00219727 7.47119 -0.00219727C7.51284 0.0438214 7.56894 0.0341993 7.62207 0.0362911C7.67519 0.0346177 7.73129 0.0438214 7.77295 -0.00219727C8.27616 -0.00219727 8.77937 -0.00219727 9.28258 -0.00219727C9.34888 0.0622289 9.43303 0.0262506 9.50911 0.0362911C9.58519 0.026669 9.66891 0.0622289 9.73564 -0.00219727C9.78791 -0.000105508 9.83807 -0.000105508 9.88822 -0.000105508Z" fill="black"/>
<path d="M9.73741 0C9.69363 0.120904 9.59546 0.0585692 9.51725 0.0627527C9.48878 0.0514572 9.47815 0.0384884 9.4858 0.0234277C9.49388 0.00794868 9.50195 0 9.51088 0C9.58653 0 9.66218 0 9.73741 0Z" fill="#747474"/>
<path d="M9.51089 0C9.51174 0.0209176 9.51387 0.0418352 9.51727 0.0627527C9.43014 0.0765583 9.34259 0.0912006 9.28436 0C9.36001 0 9.43567 0 9.51089 0Z" fill="#474747"/>
<path d="M7.61953 0.0631711C7.55833 0.0702831 7.49458 0.0824153 7.4729 0C7.52305 0 7.57363 0 7.62378 0C7.64928 0.0158974 7.65693 0.0305397 7.64715 0.0439269C7.6378 0.0564775 7.62888 0.0631711 7.61953 0.0631711Z" fill="#6A6A6A"/>
<path d="M7.61957 0.0631711C7.62212 0.0422535 7.62339 0.0213359 7.62382 0C7.67397 0 7.72454 0 7.7747 0C7.74282 0.0681913 7.68502 0.0753033 7.61957 0.0631711Z" fill="#4C4C4C"/>
<path d="M21.8914 5.36367C22.1685 5.28711 22.2926 5.08421 22.3508 4.8265C22.7197 4.82608 23.089 4.82525 23.4579 4.82483C23.5795 5.26703 23.704 5.36618 24.1711 5.36743C25.2783 5.37036 26.3854 5.3758 27.4921 5.36283C27.7527 5.3599 27.8627 5.3963 27.8602 5.69667C27.844 7.60352 27.8653 9.51079 27.8483 11.4176C27.8236 14.2001 26.1185 16.6504 23.5625 17.6356C23.3581 17.7142 23.2556 17.7176 23.1052 17.5247C22.2896 16.4776 21.3129 16.4366 20.3724 17.3858C20.1267 17.4745 20.0672 17.2582 19.9843 17.1302C19.5334 16.437 19.2189 15.6848 19.0022 14.8895C18.538 13.1843 18.4743 11.4478 18.5644 9.69779C18.8219 9.3334 19.3056 9.2284 19.7655 9.43967C20.2211 9.64884 20.4217 10.0254 20.4918 10.4956C20.5301 10.7529 20.6707 10.9428 20.9585 10.9411C21.2058 10.9399 21.3414 10.7809 21.3933 10.5508C21.4098 10.478 21.409 10.4035 21.4047 10.3291C21.3478 9.34512 20.4323 8.46532 19.4246 8.42098C19.176 8.4101 18.921 8.46407 18.6783 8.36116C18.5295 8.24736 18.53 8.08128 18.5278 7.92272C18.5198 7.21989 18.5151 6.51664 18.5291 5.81423C18.5368 5.41763 18.5805 5.39295 19.0005 5.38709C19.9644 5.37496 20.9283 5.41931 21.8914 5.36367Z" fill="#9CC5FA"/>
<path d="M8.46106 34.9147C8.56986 35.1025 8.54734 35.2184 8.29531 35.2172C7.54602 35.2134 6.7963 35.2063 6.04701 35.213C5.86978 35.2146 5.80348 35.1293 5.7631 34.9866C5.69638 34.7503 5.62795 34.5143 5.5608 34.2784C5.43032 33.819 5.31344 33.732 4.82086 33.7282C4.77028 33.3618 4.72013 32.9949 4.66956 32.6284C5.11752 32.4795 5.23864 32.3205 5.19742 31.8674C5.08436 30.6354 5.10604 29.4046 5.19062 28.1721C5.20677 27.9387 5.26457 27.837 5.51532 27.8558C5.78988 27.8763 6.06656 27.8667 6.34239 27.8701C6.44864 28.006 6.39934 28.1541 6.37469 28.2985C6.01513 30.3948 6.08569 32.487 6.43759 34.5762C6.50772 34.9925 6.5566 35.0431 6.97268 35.0302C7.46994 35.0138 7.97953 35.1306 8.46106 34.9147Z" fill="#544F57"/>
<path d="M6.41591 7.28052C6.75252 7.27131 7.01347 7.442 7.26295 7.63277C9.12152 9.05182 11.0846 9.05349 12.9491 7.62608C13.4706 7.22697 14.0274 7.13953 14.6471 7.35289C14.8668 7.42861 14.9522 7.54492 14.9497 7.78589C14.9361 8.97359 14.9441 10.1613 14.9433 11.3494C14.942 13.2793 15.5706 14.9857 16.8325 16.4604C16.9821 16.6353 16.9872 16.762 16.8805 16.9461C16.1975 18.128 15.1749 18.8371 13.7996 18.927C11.8684 19.0529 9.93073 19.0508 7.99524 18.9965C7.89622 18.9935 7.79761 18.968 7.69901 18.9529C7.13247 18.4643 6.92252 17.7803 6.71937 17.113C6.36916 15.9647 6.1915 14.7816 6.16133 13.5809C6.15495 13.3261 6.02575 13.073 6.14305 12.8157C6.17153 12.771 6.21488 12.7534 6.26758 12.7467C6.83412 12.6773 7.0411 12.4539 7.07 11.8828C7.1006 11.2733 6.90212 10.9921 6.34408 10.8557C6.28246 10.8407 6.22423 10.8202 6.17535 10.7771C6.09928 10.6846 6.07293 10.5725 6.0827 10.4625C6.16983 9.47937 6.14773 8.48788 6.30881 7.51019C6.32198 7.42485 6.34281 7.34034 6.41591 7.28052Z" fill="#FECABD"/>
<path d="M13.9641 22.6508C13.5408 22.9374 13.4834 23.1478 13.7256 23.5808C14.2323 24.4866 14.5816 25.4475 14.8052 26.457C14.8579 26.695 14.8026 26.7473 14.5608 26.7465C11.6172 26.739 8.67356 26.7381 5.72995 26.7469C5.44604 26.7477 5.37082 26.6657 5.45794 26.4064C5.55229 26.1248 5.63772 25.8403 5.71805 25.5546C5.82557 25.1735 5.6815 24.8723 5.35382 24.7731C5.05673 24.6832 4.76518 24.8518 4.63767 25.212C4.36864 25.9734 4.17059 26.7565 4.10259 27.5581C4.07156 27.9241 3.94193 28.0066 3.62105 27.935C3.43957 27.6618 3.50588 27.3552 3.5352 27.069C3.78511 24.643 4.56585 22.3923 5.877 20.3219C5.95223 20.2026 6.00365 20.0416 6.19703 20.0524C6.45671 20.0244 6.61567 20.0796 6.71469 20.3746C6.95695 21.0962 7.50819 21.5744 8.18905 21.8848C9.53888 22.5002 10.89 22.4801 12.2088 21.7836C12.8391 21.4506 13.2985 20.9578 13.5399 20.2813C13.6347 20.0165 14.3967 19.8763 14.5451 20.106C15.3649 21.3753 16.5991 21.5238 17.9575 21.3514C18.5461 21.277 19.119 21.1289 19.66 20.8963C19.9899 20.7544 20.2691 20.7486 20.5691 20.9419C20.7243 21.0418 20.9024 21.1071 21.1072 21.2063C20.7128 21.6535 20.349 22.0752 19.8598 22.3701C19.3145 22.6617 18.7106 22.7194 18.1117 22.7609C17.036 22.8353 15.9829 22.6922 14.9539 22.3705C14.3717 22.189 14.3287 22.2049 13.9641 22.6508Z" fill="#FBC268"/>
<path d="M14.1749 6.10209C13.3639 6.11506 12.6686 6.39368 12.0396 6.90574C10.9618 7.78303 9.36334 7.81733 8.26129 6.97142C7.65905 6.50914 7.02791 6.17153 6.26332 6.0979C6.21615 6.04017 6.16089 5.98704 6.13709 5.91467C5.76309 4.78344 5.53826 3.63381 5.80941 2.44904C5.91694 1.97882 6.10437 1.52532 6.56635 1.25758C7.4474 1.10404 8.33737 1.08982 9.22649 1.12831C10.3069 1.17474 11.3719 1.32702 12.3873 1.71986C13.2169 2.04115 13.9658 2.47582 14.5 3.20417C14.5769 3.30875 14.6857 3.36732 14.792 3.43217C14.8774 3.53383 14.8353 3.64385 14.8069 3.74844C14.622 4.42785 14.4877 5.1152 14.4413 5.81886C14.432 5.96696 14.443 6.17279 14.1749 6.10209Z" fill="#7587D9"/>
<path d="M8.46109 34.9147C8.46661 35.1185 8.34506 35.1503 8.16825 35.1473C7.67822 35.1394 7.18691 35.1298 6.69772 35.1507C6.45419 35.1611 6.38789 35.0268 6.35559 34.8499C6.05511 33.2037 5.96883 31.5416 6.05468 29.8753C6.08911 29.2042 6.18091 28.529 6.34284 27.8701C9.13473 27.8659 11.9266 27.8634 14.7185 27.8546C14.9229 27.8538 15.0033 27.9107 15.0181 28.1228C15.1711 30.2806 15.1282 32.4243 14.5757 34.534C14.5226 34.7373 14.4558 34.9369 14.3951 35.1381C13.698 35.2423 12.9972 35.1662 12.2981 35.1774C12.0231 35.182 12.1145 34.9494 12.1408 34.8164C12.2551 34.242 12.2934 33.6643 12.2696 33.0815C12.2224 31.9361 11.8867 30.8948 11.1153 30.0129C10.947 29.7669 10.7884 29.5138 10.5725 29.3025C10.2363 28.9741 9.92397 28.9775 9.60436 29.3306C8.88014 30.1305 8.59581 31.1056 8.45131 32.139C8.32168 33.0652 8.39011 33.9897 8.46109 34.9147Z" fill="#756E78"/>
<path d="M6.41593 7.28059C6.34282 8.23652 6.26292 9.19203 6.203 10.1488C6.18982 10.3592 6.10609 10.5923 6.28247 10.7851C6.28672 10.8675 6.22892 10.9186 6.1843 10.9771C5.78521 11.5051 5.76439 11.9833 6.11544 12.543C6.1605 12.615 6.2268 12.6798 6.19067 12.7769C6.31945 14.5637 6.4206 16.3571 7.17754 18.0276C7.3229 18.3485 7.5235 18.6451 7.69903 18.953C6.84476 18.9727 5.98369 19.0011 5.1851 18.6376C3.69459 17.9594 2.9521 16.7814 2.8875 15.1828C2.83565 13.8981 2.82162 12.6121 2.86157 11.3265C2.8654 11.2064 2.8416 11.0855 2.9742 10.9968C3.84887 10.4111 4.22713 9.51375 4.52123 8.57036C4.63429 8.20765 4.78687 7.87506 5.09287 7.63451C5.47963 7.32995 5.90846 7.15801 6.41593 7.28059Z" fill="#E9AB9C"/>
<path d="M6.56685 1.25793C5.67476 2.2716 5.69686 3.45554 5.92509 4.67001C6.01519 5.15028 6.14949 5.62218 6.26382 6.09784C4.66324 6.24343 3.88802 6.86175 3.39373 8.38581C3.23648 8.8711 3.04948 9.343 2.71117 9.73876C2.62319 9.84167 2.52671 9.94417 2.41621 10.0216C2.0201 10.2994 1.86667 10.2194 1.8059 9.75549C1.63462 8.44396 1.45357 7.13285 1.45484 5.80835C1.45527 5.22935 1.51562 4.64909 1.66097 4.08264C1.97165 2.87152 2.70097 2.04276 3.93774 1.69051C4.79584 1.44661 5.67731 1.32403 6.56685 1.25793Z" fill="#7587D9"/>
<path d="M21.8914 5.36368C21.7749 5.47245 21.6296 5.42601 21.497 5.42685C20.6576 5.43103 19.8178 5.43856 18.9788 5.4235C18.7115 5.4189 18.6367 5.50675 18.6414 5.76195C18.6558 6.51414 18.6465 7.26634 18.6469 8.01895C18.6469 8.15241 18.6188 8.30134 18.8135 8.33606C18.7706 8.5055 18.604 8.49336 18.4858 8.54566C17.7977 8.84854 17.3544 9.34889 17.1878 10.0781C17.1517 10.2366 17.144 10.3977 17.1678 10.5575C17.201 10.7797 17.3408 10.9139 17.5601 10.9508C17.7777 10.9872 17.9146 10.8654 18.0089 10.6859C18.0795 10.5512 18.0744 10.396 18.1241 10.2576C18.218 9.99525 18.2839 9.70073 18.6397 9.64969C18.6422 10.3898 18.6125 11.1315 18.6545 11.8695C18.751 13.5604 19.0158 15.2184 19.8633 16.7295C19.998 16.9696 20.0962 17.2478 20.3728 17.3858C20.2972 17.5733 20.1795 17.5657 20.0141 17.4854C17.844 16.4303 16.555 14.7314 16.1495 12.3824C16.0671 11.9042 16.0756 11.4218 16.0756 10.9395C16.076 9.19536 16.0794 7.45167 16.0713 5.70756C16.0701 5.47119 16.1011 5.35865 16.3888 5.36075C18.2231 5.37288 20.0575 5.36493 21.8914 5.36368Z" fill="#7397D2"/>
<path d="M6.19751 20.0528C5.49667 21.0129 4.98878 22.0709 4.56887 23.1728C3.98406 24.7082 3.61175 26.285 3.62153 27.9354C2.76981 27.9776 2.74644 27.9759 2.79574 27.1631C2.91686 25.1717 3.28705 23.2398 4.29729 21.4743C4.52 21.0853 4.7988 20.7355 5.06741 20.377C5.37214 19.9691 5.73298 19.8633 6.19751 20.0528Z" fill="#FFA500"/>
<path d="M17.1695 20.2987C16.6523 20.3088 16.1703 20.2138 15.7747 19.8528C15.6204 19.7118 15.549 19.6147 15.8095 19.4859C16.6255 19.0809 17.2652 18.4772 17.731 17.705C17.8474 17.5117 17.9273 17.505 18.0935 17.6376C18.5245 17.9811 19.0013 18.2563 19.5054 18.4814C19.6728 18.5563 19.7421 18.6287 19.6665 18.8153C19.607 18.9625 19.5479 19.1315 19.5649 19.2826C19.6155 19.7323 19.3418 19.8712 18.9775 19.9741C18.3846 20.1406 17.793 20.3029 17.1695 20.2987Z" fill="#FEFEFE"/>
<path d="M16.5341 2.69119C17.5864 2.35567 18.5741 3.03968 18.7424 4.23449C17.7024 4.23449 16.6642 4.23449 15.6259 4.23449C15.744 3.61491 16.0912 3.12586 16.5341 2.69119Z" fill="#7587D9"/>
<path d="M12.4077 20.1361C11.7468 20.9887 10.8985 21.2247 9.94308 21.187C9.10199 21.1535 8.36078 20.8996 7.81506 20.1361C9.36125 20.1361 10.8441 20.1361 12.4077 20.1361Z" fill="#E9AB9C"/>
<path d="M13.9641 22.6509C14.0113 22.1982 14.2489 22.0396 14.7126 22.1819C15.3199 22.3685 15.9306 22.5207 16.5652 22.604C17.493 22.7257 18.4038 22.6659 19.3133 22.4823C19.4956 22.4454 19.6779 22.4078 19.8603 22.3706C18.9337 23.0889 17.8648 23.3637 16.7067 23.3056C15.9268 23.2663 15.1767 23.0734 14.4754 22.7257C14.3088 22.6429 14.1388 22.6483 13.9641 22.6509Z" fill="#FFA500"/>
<path d="M11.1157 30.0126C11.4192 30.1117 11.5467 30.3887 11.692 30.6204C12.1285 31.3157 12.3278 32.0947 12.372 32.9025C12.4069 33.5418 12.4141 34.1856 12.2365 34.8144C12.1731 35.0386 12.2071 35.1658 12.5102 35.1524C13.1375 35.1244 13.7669 35.1399 14.3951 35.1378C14.3322 35.2524 14.2204 35.2152 14.1261 35.2152C13.4222 35.2156 12.7184 35.2043 12.015 35.2135C11.7698 35.2169 11.6844 35.1583 11.7205 34.8968C11.9513 33.2188 11.8854 31.5726 11.1157 30.0126Z" fill="#544F57"/>
<path d="M16.5341 2.69116C16.2192 3.19862 15.8698 3.68642 15.6263 4.23446C15.0559 4.33821 14.9467 4.46204 14.9446 5.01092C14.9437 5.1837 14.9446 5.35648 14.9446 5.52884C14.9446 6.29526 14.9446 6.29526 14.1753 6.10156C14.3172 6.08023 14.3419 5.98568 14.3436 5.86227C14.3551 5.02766 14.554 4.22568 14.7928 3.43164C15.0725 3.46971 15.2939 3.3555 15.5102 3.19277C15.8167 2.96267 16.1499 2.774 16.5341 2.69116Z" fill="#7587D9"/>
<path d="M21.8889 17.9087C22.4197 18.2953 22.5595 18.7885 22.3211 19.4332C22.0049 20.2883 21.9127 20.328 21.0907 19.9557C21.0261 19.9264 20.9658 19.8879 20.9033 19.8536C20.7949 19.6118 20.9318 19.3997 20.9955 19.1822C21.1111 18.7885 21.3228 18.4404 21.5654 18.1108C21.6441 18.0029 21.7184 17.8778 21.8889 17.9087Z" fill="#FECABD"/>
<path d="M15.1775 36.9295C14.0185 36.9295 12.9177 36.9262 11.8165 36.932C11.5734 36.9333 11.604 36.7777 11.6078 36.6325C11.6112 36.4936 11.5598 36.3167 11.8051 36.3187C12.6585 36.325 13.5127 36.3095 14.3649 36.3438C14.6989 36.3572 14.9714 36.5585 15.1775 36.9295Z" fill="#7587D9"/>
<path d="M5.81451 36.3497C6.67813 36.2803 7.54345 36.3355 8.40749 36.3187C8.6863 36.3133 8.59109 36.5208 8.60809 36.6618C8.6285 36.8321 8.5928 36.9366 8.37349 36.9337C7.42104 36.9203 6.46817 36.9216 5.5153 36.9174C5.47195 36.6555 5.64281 36.5024 5.81451 36.3497Z" fill="#7587D9"/>
<path d="M3.64613 30.3316C3.58705 30.3484 3.52925 30.3747 3.46932 30.3797C2.53515 30.458 2.25762 30.1032 2.5598 29.2238C2.58403 29.1531 2.58913 29.0636 2.68433 29.0707C3.11741 29.1025 3.559 28.9611 3.98528 29.1289C3.94831 29.1632 3.90793 29.1941 3.85693 29.2025C3.62998 29.241 3.37709 29.2042 3.33289 29.5506C3.29082 29.884 3.30357 30.163 3.64613 30.3316Z" fill="#E7AA9B"/>
<path d="M3.64615 30.3318C3.31805 30.3766 3.19989 30.1862 3.20032 29.9113C3.20074 29.7064 3.23942 29.4997 3.28022 29.2972C3.30997 29.1504 3.4345 29.1228 3.5722 29.1282C3.7099 29.1341 3.84761 29.1294 3.98531 29.129C3.98659 29.4118 3.96916 29.6963 3.99509 29.977C4.02059 30.2527 3.92326 30.3665 3.64615 30.3318Z" fill="#FBC7BB"/>
<path d="M1.69877 11.4264C1.69877 12.0857 1.69877 12.6814 1.69877 13.3211C1.31074 13.1128 1.15986 12.8078 1.13988 12.4417C1.11693 12.02 1.30394 11.6925 1.69877 11.4264Z" fill="#E1A597"/>
<path d="M21.8889 17.9088C21.4129 18.3409 21.1693 18.9007 20.9921 19.496C20.9573 19.6136 20.9326 19.734 20.9033 19.8533C20.7341 19.8177 20.6449 19.7374 20.6704 19.5454C20.746 18.9831 20.9369 18.4685 21.3134 18.0355C21.4613 17.8661 21.6432 17.7117 21.8889 17.9088Z" fill="#E7AA9B"/>
<path d="M5.81452 36.3497C5.71464 36.5392 5.61519 36.7283 5.51531 36.9179C5.37124 36.9258 5.22503 36.9618 5.05035 36.8794C5.23778 36.5878 5.47366 36.3999 5.81452 36.3497Z" fill="#7587D9"/>
<path d="M18.6396 9.64971C18.3217 9.84132 18.2159 10.1379 18.1764 10.4868C18.1228 10.9642 17.6969 11.2039 17.3246 10.9843C17.1232 10.8654 17.0492 10.6855 17.0475 10.4555C17.0412 9.53843 17.7224 8.65487 18.643 8.39968C18.7012 8.38336 18.7565 8.35742 18.813 8.33609C20.2538 8.23568 21.2169 8.87409 21.4757 10.1028C21.4961 10.1986 21.5076 10.2977 21.511 10.3956C21.5237 10.7851 21.3082 11.0504 20.9729 11.0646C20.6542 11.078 20.4268 10.8521 20.3822 10.4772C20.2725 9.54972 19.4076 9.13932 18.6396 9.64971Z" fill="black"/>
<path d="M24.6578 8.31142C25.8576 8.31602 26.875 9.28827 26.8763 10.4308C26.8767 10.7981 26.6621 11.0512 26.3382 11.0646C26.0314 11.0776 25.7959 10.8571 25.7475 10.5115C25.6502 9.81791 25.2574 9.43051 24.6501 9.42758C24.0415 9.42507 23.6433 9.81121 23.5434 10.5002C23.4907 10.8642 23.2391 11.0926 22.9233 11.0633C22.6037 11.0336 22.4086 10.781 22.4146 10.4036C22.4324 9.25857 23.4529 8.3064 24.6578 8.31142Z" fill="black"/>
<path d="M21.8586 14.7966C21.0668 14.7895 20.2882 14.4946 19.6235 13.9131C19.2869 13.6186 19.2342 13.3102 19.4641 13.045C19.6936 12.7806 20.0166 12.7881 20.3554 13.0663C21.3737 13.9022 22.5395 13.9001 23.5727 13.0601C23.9089 12.7865 24.2412 12.7827 24.4648 13.05C24.6845 13.3132 24.6386 13.6144 24.3228 13.8943C23.6513 14.4892 22.8638 14.7941 21.8586 14.7966Z" fill="black"/>
<path d="M10.1004 16.3479C9.20021 16.2852 8.49385 15.907 8.05056 15.1138C7.86951 14.79 7.95026 14.4683 8.22949 14.3093C8.50617 14.1516 8.82663 14.2511 9.02893 14.5574C9.61927 15.4501 10.5828 15.4506 11.1795 14.5586C11.3852 14.2507 11.701 14.152 11.9798 14.308C12.2577 14.4637 12.3376 14.7912 12.1566 15.1171C11.7129 15.9137 11.004 16.286 10.1004 16.3479Z" fill="black"/>
<path d="M6.19072 12.7769C5.5889 12.123 5.62716 11.2855 6.28252 10.7855C6.71943 10.7609 6.94213 10.888 7.08791 11.2775C7.23624 11.6741 7.23156 12.0728 7.02586 12.4535C6.83546 12.8049 6.58938 12.8957 6.19072 12.7769Z" fill="#010000"/>
<path d="M14.4308 11.8142C14.427 12.3853 14.1125 12.8442 13.7265 12.8429C13.3462 12.8417 13.024 12.3702 13.0202 11.8096C13.0159 11.2469 13.3258 10.7817 13.7125 10.77C14.1184 10.7579 14.435 11.2181 14.4308 11.8142Z" fill="#010000"/>
</g>
<defs>
<clipPath id="clip0_4_3393">
<rect width="28.9882" height="38.047" fill="white"/>
</clipPath>
</defs>
</svg>
