<svg width="44" height="44" viewBox="0 0 44 44" fill="none" xmlns="http://www.w3.org/2000/svg">
<rect width="44" height="44" rx="5" fill="#007EA7" fill-opacity="0.1"/>
<g clip-path="url(#clip0_3_512)">
<path d="M29.491 11.8461H29.5613C30.9957 11.8836 32.1538 13.0646 32.1538 14.509C32.1538 15.2216 31.878 15.8882 31.3741 16.3921L25.985 21.7811L25.7372 22.029V22.3795V28.4166C25.7372 28.4442 25.7217 28.4681 25.6995 28.4795C25.6889 28.4846 25.677 28.4872 25.6667 28.4872C25.6519 28.4872 25.6364 28.4821 25.6244 28.473L21.9577 25.723C21.9398 25.7096 21.9295 25.6891 21.9295 25.6666V22.3795V22.0289L21.6816 21.7811L16.293 16.3934C16.2929 16.3933 16.2928 16.3932 16.2927 16.3931C16.2926 16.393 16.2926 16.393 16.2925 16.3929C15.7883 15.8877 15.5128 15.222 15.5128 14.5099C15.5128 13.0412 16.7088 11.8461 18.1757 11.8461H29.491ZM22.0009 30.1804C22.0361 30.1804 22.0651 30.2057 22.0705 30.2394V30.25V32.0833C22.0705 32.1096 22.0559 32.1344 22.0309 32.1471C22.0226 32.1512 22.0126 32.1538 22 32.1538C21.9852 32.1538 21.9698 32.1488 21.9577 32.1397L18.291 29.3897L18.2893 29.3884C18.274 29.377 18.2628 29.357 18.2628 29.3333V26.0461V25.6956L18.0149 25.4478L12.6263 20.0601C12.6262 20.06 12.6261 20.0598 12.626 20.0597C12.6259 20.0597 12.6259 20.0596 12.6259 20.0596C12.1216 19.5544 11.8462 18.8886 11.8462 18.1766C11.8462 17.3936 12.1882 16.6543 12.7871 16.1456C12.8195 16.1184 12.8631 16.124 12.8874 16.1526C12.9129 16.1827 12.9092 16.2277 12.8792 16.2532L13.4273 16.8978L12.8796 16.2528C12.3142 16.733 11.9881 17.4351 11.9881 18.1775C11.9881 18.8486 12.2509 19.4856 12.7263 19.961L12.7264 19.9611L18.384 25.6178C18.384 25.6178 18.384 25.6178 18.384 25.6178C18.3976 25.6314 18.4048 25.649 18.4048 25.6676V28.8759V29.299L18.7432 29.5528L20.5766 30.9278L21.9304 31.9432V30.2509C21.9304 30.2117 21.9619 30.1804 22.0009 30.1804ZM31.2745 16.2935L31.2746 16.2935C31.75 15.8181 32.0128 15.181 32.0128 14.5099C32.0128 13.118 30.8826 11.9871 29.491 11.9871H18.1757C16.7837 11.9871 15.6538 13.1192 15.6538 14.5099C15.6538 15.1817 15.9172 15.8171 16.3912 16.2926L16.3921 16.2935L22.0498 21.9503L22.0514 21.9518C22.0625 21.9629 22.0705 21.9801 22.0705 22V25.2083V25.6314L22.409 25.8852L24.2423 27.2602L25.5962 28.2756V26.5833V22C25.5962 21.9814 25.6033 21.9639 25.6169 21.9503C25.6169 21.9502 25.6169 21.9502 25.6169 21.9502L31.2745 16.2935Z" fill="#007EA7" stroke="#007EA7" stroke-width="1.69231"/>
</g>
<defs>
<clipPath id="clip0_3_512">
<rect width="22" height="22" fill="white" transform="translate(11 11)"/>
</clipPath>
</defs>
</svg>
