<svg width="37" height="37" viewBox="0 0 37 37" fill="none" xmlns="http://www.w3.org/2000/svg"><rect x="1.35645" y="1.48267" width="35" height="35" rx="6.5" fill="white" fill-opacity="0.23" stroke="white"/><path d="M19.7802 11.02C19.3107 11.1265 18.9132 11.3049 18.5627 11.5678C17.8115 12.128 17.3889 12.8917 17.3044 13.8338C17.2638 14.2845 17.2638 18.4285 17.3044 18.8792C17.4202 20.2001 18.2716 21.2454 19.5486 21.6367C19.8052 21.7149 19.8616 21.7212 20.403 21.7212C20.9445 21.7212 21.0009 21.7149 21.2575 21.6367C22.5345 21.2454 23.3858 20.2001 23.5017 18.8792C23.5423 18.4285 23.5423 14.2845 23.5017 13.8338C23.3827 12.5036 22.5345 11.4645 21.2513 11.0764C21.0196 11.0075 20.9101 10.995 20.4813 10.9856C20.1245 10.9762 19.9242 10.9887 19.7802 11.02ZM20.9351 12.0216C21.5142 12.175 22.0337 12.6006 22.2904 13.1359C22.5345 13.6398 22.5314 13.5834 22.5314 16.3565C22.5314 19.1296 22.5345 19.0733 22.2904 19.5772C22.0306 20.1187 21.5079 20.5412 20.9038 20.6977C20.6378 20.7666 20.1683 20.7666 19.9023 20.6977C19.2982 20.5412 18.7755 20.1187 18.5157 19.5772C18.2716 19.0733 18.2747 19.1296 18.2747 16.3565C18.2747 13.5834 18.2716 13.6398 18.5157 13.1359C18.6315 12.8917 18.7004 12.7947 18.9132 12.5819C19.126 12.369 19.2199 12.3033 19.4672 12.1844C19.63 12.1061 19.8397 12.0279 19.9336 12.0091C20.0275 11.9903 20.1339 11.9684 20.1683 11.9621C20.2779 11.9371 20.7567 11.9715 20.9351 12.0216Z" fill="white"/><path d="M14.9252 18.2127C14.7311 18.316 14.6748 18.438 14.6748 18.7729C14.6748 19.6399 14.9565 20.654 15.4229 21.474C15.7452 22.0437 16.2711 22.6634 16.7875 23.0859C17.5887 23.7401 18.7218 24.2252 19.692 24.3222L19.9017 24.3442V25.1861V26.028H18.7844C17.7797 26.028 17.6513 26.0343 17.5574 26.0844C17.2601 26.2346 17.2038 26.6415 17.4479 26.8762L17.5574 26.9827H20.4025H23.2476L23.3572 26.8762C23.6013 26.6415 23.545 26.2346 23.2476 26.0844C23.1537 26.0343 23.0254 26.028 22.0238 26.028H20.9033V25.1861V24.3442L21.1161 24.3222C21.8798 24.244 22.8251 23.8997 23.5293 23.4396C24.2711 22.9576 24.9472 22.2409 25.3822 21.474C25.8486 20.654 26.1303 19.6399 26.1303 18.7729C26.1303 18.438 26.0739 18.316 25.8799 18.2127C25.714 18.125 25.57 18.1219 25.4135 18.2033C25.2288 18.2972 25.1662 18.4224 25.1443 18.751C25.0504 20.1501 24.5903 21.1736 23.6482 22.0718C22.7656 22.9169 21.6357 23.3676 20.4025 23.3676C19.1693 23.3676 18.0395 22.9169 17.1568 22.0718C16.2147 21.1736 15.7484 20.1376 15.6607 18.7541C15.6419 18.4255 15.5793 18.2972 15.3916 18.2033C15.2351 18.1219 15.0911 18.125 14.9252 18.2127Z" fill="white"/><path d="M13.8291 15.7759L13.8525 15.8513C13.8781 15.934 13.8959 15.9871 13.9154 16.0258C13.9364 16.0677 13.959 16.0924 13.9903 16.1203L13.9906 16.1206L13.9906 16.1206C14.0589 16.1807 14.1319 16.2047 14.2314 16.2047C14.325 16.2047 14.4055 16.1734 14.4683 16.1118L14.4697 16.1105L14.4696 16.1105C14.4807 16.0988 14.5151 16.0537 14.5588 15.995C14.6038 15.9344 14.6617 15.8554 14.7215 15.7722L13.8291 15.7759ZM13.8291 15.7759C13.8231 15.7816 13.8166 15.7877 13.8096 15.7944C13.7587 15.8428 13.683 15.9164 13.5833 16.0143C13.3841 16.2101 13.0899 16.5023 12.7085 16.8831M13.8291 15.7759L12.6732 16.8478M15.9309 15.0201L15.9766 14.9999C15.9918 15.0345 15.9978 15.0878 15.9978 15.1344C15.9978 15.1657 15.9966 15.1907 15.9907 15.2157C15.9849 15.2409 15.975 15.2633 15.9617 15.29C15.9426 15.3281 15.9219 15.3595 15.8935 15.3866C15.8652 15.4135 15.8317 15.4336 15.7904 15.4524L15.7371 15.4771L15.7274 15.4816L15.7167 15.4817L15.307 15.4867L14.9235 15.4914L14.7215 15.7722L13.178 14.2287L13.4588 14.0267L13.4635 13.6432L13.4684 13.2335L13.4686 13.2228L13.4731 13.2131L13.4978 13.1597C13.4978 13.1597 13.4978 13.1596 13.4979 13.1596C13.5166 13.1184 13.5368 13.085 13.5636 13.0567C13.5906 13.0283 13.6221 13.0076 13.6602 12.9885C13.6869 12.9752 13.7093 12.9653 13.7345 12.9595C13.7595 12.9536 13.7845 12.9524 13.8158 12.9524C13.8621 12.9524 13.9149 12.9583 13.9495 12.9733C13.9567 12.9762 13.9646 12.9809 13.9708 12.9846C13.9785 12.9892 13.9879 12.9953 13.9986 13.0023C14.02 13.0165 14.048 13.0356 14.0804 13.0583C14.1452 13.1037 14.2286 13.1639 14.3149 13.2277L14.315 13.2279L14.6072 13.4458L14.9522 13.329L14.9523 13.329C15.1527 13.2613 15.2655 13.2242 15.3407 13.209C15.3794 13.2012 15.4107 13.1986 15.4406 13.2012C15.4704 13.2039 15.496 13.2116 15.5225 13.2206L15.5225 13.2207C15.5658 13.2355 15.6104 13.2686 15.646 13.3042C15.6816 13.3398 15.7147 13.3844 15.7295 13.4277L15.7295 13.4277C15.7386 13.4542 15.7463 13.4798 15.749 13.5096C15.7516 13.5395 15.749 13.5708 15.7412 13.6095C15.726 13.6847 15.6889 13.7975 15.6212 13.9979L15.6212 13.998L15.5044 14.343L15.7223 14.6352L15.7224 14.6353C15.7863 14.7216 15.8465 14.805 15.8919 14.8698C15.9146 14.9022 15.9337 14.9302 15.9479 14.9516C15.9549 14.9623 15.961 14.9717 15.9656 14.9794C15.9695 14.9859 15.9745 14.9944 15.9774 15.0018L15.9309 15.0201ZM15.9309 15.0201C15.9219 14.9972 15.8095 14.8371 15.6823 14.6651L15.7698 15.4069C15.8463 15.3721 15.8821 15.3373 15.9169 15.2677C15.9428 15.216 15.9478 15.1951 15.9478 15.1344C15.9478 15.0897 15.9418 15.0449 15.9309 15.0201ZM12.7085 16.8831C12.2954 17.2958 11.9982 17.5913 11.8002 17.7856C11.7013 17.8827 11.627 17.9548 11.5753 18.0036C11.5495 18.028 11.529 18.0469 11.5139 18.0603C11.5063 18.067 11.4997 18.0727 11.4942 18.0771C11.4899 18.0805 11.4828 18.0861 11.4754 18.0897L11.4531 18.045M12.7085 16.8831L12.6732 16.8478M12.7085 16.8831L12.6732 16.8478M11.4531 18.045C11.3825 18.0818 11.3338 18.0938 11.2542 18.0938C11.1389 18.0938 11.0484 18.057 10.9708 17.9794C10.8932 17.9018 10.8564 17.8113 10.8564 17.696C10.8564 17.6164 10.8684 17.5677 10.9052 17.4971M11.4531 18.045L11.4762 18.0894C11.3985 18.1299 11.3418 18.1438 11.2542 18.1438C11.1262 18.1438 11.0228 18.1021 10.9354 18.0147C10.8481 17.9274 10.8064 17.824 10.8064 17.696C10.8064 17.6085 10.8203 17.5518 10.8607 17.4742M11.4531 18.045C11.4849 18.0291 11.8469 17.6731 12.6732 16.8478M10.9052 17.4971L10.8604 17.4748C10.8605 17.4746 10.8606 17.4744 10.8607 17.4742M10.9052 17.4971C10.9211 17.4653 11.2771 17.1033 12.1024 16.277M10.9052 17.4971L10.8608 17.474L12.1024 16.277M10.8607 17.4742C10.8644 17.467 10.8698 17.4602 10.8731 17.456C10.8775 17.4505 10.8832 17.4439 10.8899 17.4363C10.9033 17.4211 10.9222 17.4007 10.9466 17.3749C10.9954 17.3232 11.0674 17.2489 11.1646 17.15C11.3589 16.952 11.6544 16.6548 12.067 16.2417M10.8607 17.4742L13.178 14.2287C13.0948 14.2885 13.0157 14.3464 12.9552 14.3914C12.8965 14.4351 12.8514 14.4695 12.8397 14.4806L12.8384 14.4819L12.8384 14.4819C12.7768 14.5447 12.7455 14.6252 12.7455 14.7188C12.7455 14.8183 12.7695 14.8913 12.8296 14.9596L12.8299 14.9599C12.8578 14.9912 12.8825 15.0138 12.9244 15.0348C12.9631 15.0543 13.0162 15.072 13.0989 15.0977C13.0989 15.0977 13.0989 15.0977 13.0989 15.0977L13.1743 15.1211C13.1686 15.1271 13.1625 15.1336 13.1558 15.1406C13.1074 15.1915 13.0338 15.2672 12.9359 15.3669C12.7401 15.5661 12.4479 15.8603 12.067 16.2417M12.1024 16.277L12.067 16.2417M12.1024 16.277L12.067 16.2417M15.3097 13.953C15.2507 14.126 15.217 14.2266 15.1991 14.2877C15.1822 14.3452 15.1753 14.3789 15.1835 14.4095L15.1843 14.4124L15.1844 14.4124C15.1872 14.421 15.193 14.4305 15.1962 14.4359C15.2007 14.4433 15.2067 14.4525 15.2137 14.4632C15.2279 14.4846 15.2475 14.5131 15.271 14.5464C15.318 14.6133 15.3815 14.7007 15.4503 14.7925C15.5549 14.932 15.6163 15.0153 15.6516 15.0671C15.6693 15.0931 15.6794 15.1097 15.6849 15.1205C15.6874 15.1254 15.6885 15.1283 15.6889 15.1296C15.6886 15.1428 15.685 15.1514 15.6808 15.157C15.6767 15.1626 15.6698 15.1681 15.6579 15.1715C15.6578 15.1715 15.6557 15.1718 15.6506 15.1723C15.6442 15.1729 15.6352 15.1735 15.6237 15.1741C15.6007 15.1753 15.569 15.1763 15.5298 15.1772C15.4514 15.1789 15.3444 15.1799 15.2199 15.1799H14.8052H14.7863L14.7722 15.1924L14.7473 15.2142L14.7449 15.2163L14.745 15.2164C14.7388 15.2226 14.727 15.2377 14.714 15.2546C14.6997 15.2733 14.6808 15.2986 14.6585 15.3287C14.6139 15.3888 14.5559 15.4685 14.4951 15.5537C14.434 15.6382 14.3759 15.7181 14.3314 15.7788C14.3091 15.8092 14.2903 15.8348 14.2762 15.8536L14.259 15.8765L14.2536 15.8834L14.2522 15.8852C14.2385 15.8982 14.2133 15.8998 14.1998 15.8903L14.1995 15.89C14.1979 15.8889 14.1973 15.8885 14.1968 15.888C14.1964 15.8876 14.1961 15.887 14.1954 15.8858C14.1919 15.8799 14.186 15.8672 14.1753 15.8375C14.1544 15.7791 14.1198 15.6686 14.0515 15.4497C14.0515 15.4497 14.0514 15.4497 14.0514 15.4497L15.3097 13.953ZM15.3097 13.953C15.3459 13.8443 15.3791 13.7427 15.4033 13.6665C15.4153 13.6284 15.4251 13.5968 15.4317 13.574C15.4351 13.5626 15.4376 13.5537 15.4391 13.5475L15.4398 13.5447C15.4395 13.5436 15.4388 13.542 15.4378 13.5401C15.4353 13.5352 15.4312 13.5296 15.4259 13.5243C15.4206 13.519 15.415 13.5149 15.4101 13.5124C15.4082 13.5114 15.4066 13.5107 15.4055 13.5104L15.4027 13.5111C15.3965 13.5126 15.3876 13.5151 15.3762 13.5185C15.3534 13.5251 15.3218 13.5349 15.2837 13.5469C15.2075 13.5711 15.1059 13.6043 14.9972 13.6405C14.8242 13.6995 14.7236 13.7332 14.6625 13.7511C14.605 13.768 14.5713 13.7749 14.5407 13.7667L14.5407 13.7668L14.5378 13.7658C14.5292 13.763 14.5196 13.7572 14.5143 13.754C14.5069 13.7495 14.4977 13.7435 14.487 13.7365C14.4656 13.7223 14.4371 13.7027 14.4038 13.6792C14.3369 13.6322 14.2495 13.5688 14.1577 13.4999C14.0127 13.3912 13.9295 13.3299 13.8788 13.2957C13.8533 13.2785 13.8379 13.2695 13.828 13.2647C13.8231 13.2624 13.8205 13.2616 13.8194 13.2613C13.8071 13.2618 13.7992 13.2653 13.7938 13.2695C13.7884 13.2737 13.7827 13.2809 13.7787 13.2934C13.7786 13.2941 13.7783 13.2963 13.7779 13.3006C13.7773 13.3071 13.7767 13.3162 13.7761 13.3278C13.7749 13.3509 13.7739 13.3828 13.773 13.4221C13.7713 13.5005 13.7703 13.6072 13.7703 13.7303V14.145V14.1639L13.7578 14.178L13.736 14.2029L13.736 14.203L13.7338 14.2052C13.7276 14.2114 13.7124 14.2232 13.6955 14.2362C13.6769 14.2505 13.6516 14.2694 13.6215 14.2917C13.5614 14.3362 13.4817 14.3943 13.3965 14.4551C13.312 14.5162 13.2321 14.5742 13.1715 14.6187C13.1412 14.641 13.1158 14.6598 13.0971 14.6739L13.0747 14.691C13.0684 14.6958 13.0663 14.6977 13.0663 14.6976L13.0657 14.6982C13.0584 14.7048 13.0568 14.708 13.0562 14.7092C13.0556 14.7106 13.0543 14.7142 13.0543 14.7247C13.0543 14.7356 13.0557 14.7404 13.0568 14.7428C13.0575 14.7445 13.0592 14.7475 13.0654 14.7523C13.0809 14.764 13.1123 14.7775 13.1791 14.7982L15.3097 13.953ZM13.8715 15.0787C13.8615 15.0678 13.7312 15.0221 13.5652 14.9703C13.4889 14.9468 13.4074 14.9215 13.3366 14.8994L13.8715 15.0787ZM15.7389 15.1275C15.7389 15.1742 15.7141 15.208 15.6703 15.2199L15.2318 14.3966C15.2378 14.4145 15.3531 14.5796 15.4903 14.7625C15.6992 15.041 15.7389 15.0996 15.7389 15.1275ZM15.6566 15.1719L15.6572 15.1717L15.6566 15.1719ZM13.6401 15.2668L13.6401 15.2668L13.6384 15.2662C13.6184 15.2594 13.5932 15.2517 13.5705 15.2447C13.5575 15.2408 13.5453 15.2371 13.5354 15.2339L13.5187 15.2288L12.3357 16.4117C12.3357 16.4117 12.3357 16.4118 12.3357 16.4118C12.0051 16.7433 11.7026 17.048 11.4817 17.2721C11.3713 17.3841 11.2812 17.4759 11.2183 17.5407C11.1869 17.5732 11.1623 17.5987 11.1454 17.6167C11.1369 17.6257 11.1306 17.6325 11.1263 17.6373L11.1244 17.6395C11.1229 17.6438 11.1208 17.6509 11.119 17.6605C11.1166 17.6729 11.1153 17.6862 11.1153 17.697C11.1153 17.8064 11.2354 17.8719 11.3257 17.8152C11.3262 17.8148 11.328 17.8133 11.3315 17.81L11.3533 17.7897C11.3718 17.7721 11.3978 17.747 11.4306 17.7151C11.4962 17.6512 11.5883 17.5608 11.7001 17.4502C11.9237 17.2292 12.2262 16.9282 12.5533 16.6006C12.5533 16.6006 12.5533 16.6006 12.5533 16.6006L13.7221 15.4299L13.6985 15.3554L13.6736 15.277L13.6401 15.2668Z" fill="white" stroke="white" stroke-width="0.1"/></svg>