<svg width="19" height="19" viewBox="0 0 19 19" fill="none" xmlns="http://www.w3.org/2000/svg">
<path fill-rule="evenodd" clip-rule="evenodd" d="M9.51409 0.00192244C12.8313 0.00192244 15.5327 2.26085 15.5327 5.03748L15.5326 6.53513C17.5493 7.122 19 8.72738 19 10.6115V14.6857C19 17.0652 16.6859 19.0002 13.8402 19.0002H5.15982C2.31408 19.0002 0 17.0652 0 14.6857V10.6115C0 8.72773 1.45016 7.12261 3.46624 6.53546L3.46703 5.03748C3.47385 3.66958 4.10661 2.40713 5.24832 1.46101C6.39116 0.513932 7.8998 -0.0341747 9.51409 0.00192244ZM13.8402 7.72178H5.15982C3.25357 7.72178 1.70404 9.01748 1.70404 10.6115V14.6857C1.70404 16.2797 3.25357 17.5754 5.15982 17.5754H13.8402C15.7453 17.5754 17.296 16.2797 17.296 14.6857V10.6115C17.296 9.01748 15.7453 7.72178 13.8402 7.72178ZM9.49977 10.881C9.97009 10.881 10.3518 11.2002 10.3518 11.5935V13.7033C10.3518 14.0965 9.97009 14.4157 9.49977 14.4157C9.02946 14.4157 8.64775 14.0965 8.64775 13.7033V11.5935C8.64775 11.2002 9.02946 10.881 9.49977 10.881ZM9.51068 1.42681H9.4925C8.34171 1.42681 7.26362 1.79728 6.44909 2.47268C5.62888 3.15093 5.17561 4.0562 5.17107 5.02133L5.17004 6.29635H13.8277L13.8287 5.03748C13.8287 3.04643 11.8918 1.42681 9.51068 1.42681Z" fill="#263238"/>
</svg>
